<svg xmlns="http://www.w3.org/2000/svg" viewBox="0 0 1280 720" width="1280" height="720">
  <defs><radialGradient id="g"><stop offset="0%" stop-color="#000"/><stop offset="60%" stop-color="#0a0a1a"/><stop offset="80%" stop-color="#1a1030"/><stop offset="100%" stop-color="#0b1220"/></radialGradient><linearGradient id="a" x1="0%" y1="0%" x2="100%" y2="0%"><stop offset="0%" stop-color="#a78bfa"/><stop offset="100%" stop-color="#818cf8"/></linearGradient></defs>
  <rect width="1280" height="720" fill="#0b1220"/>
  <circle cx="640" cy="380" r="300" fill="url(#g)"/>
  <ellipse cx="640" cy="380" rx="200" ry="60" fill="none" stroke="#f97316" stroke-width="2" opacity=".3" transform="rotate(-15 640 380)"/>
  <ellipse cx="640" cy="380" rx="160" ry="45" fill="none" stroke="#f59e0b" stroke-width="3" opacity=".2" transform="rotate(-15 640 380)"/>
  <ellipse cx="640" cy="380" rx="120" ry="35" fill="none" stroke="#eab308" stroke-width="2" opacity=".4" transform="rotate(-15 640 380)"/>
  <circle cx="640" cy="380" r="45" fill="#000" stroke="#a78bfa" stroke-width="2" opacity=".5"/>
  <circle cx="640" cy="380" r="15" fill="#000"/>
  <circle cx="300" cy="200" r="2" fill="#fff" opacity=".6"/>
  <circle cx="900" cy="150" r="2.5" fill="#fff" opacity=".5"/>
  <circle cx="350" cy="500" r="1.5" fill="#fff" opacity=".4"/>
  <circle cx="950" cy="400" r="2" fill="#fff" opacity=".3"/>
  <circle cx="200" cy="350" r="1" fill="#fff" opacity=".5"/>
  <circle cx="1050" cy="250" r="1.5" fill="#fff" opacity=".4"/>
  <text x="640" y="100" text-anchor="middle" font-family="ui-monospace,monospace" font-size="26" font-weight="800" fill="#f8fafc" letter-spacing="1">BLACK HOLE SIMULATOR</text>
  <text x="640" y="125" text-anchor="middle" font-family="ui-monospace,monospace" font-size="13" fill="#64748b">Event Horizon &amp; Gravitational Lensing Visualization</text>
  <rect x="0" y="718" width="1280" height="2" fill="url(#a)" opacity=".4"/>
</svg>
