<svg xmlns="http://www.w3.org/2000/svg" viewBox="0 0 400 400" width="400" height="400">
<rect width="400" height="400" fill="#f4f7f5" rx="8"/>
<g stroke="#e2ebd9" stroke-width="0.5" opacity="0.35">
<line x1="40" y1="40" x2="40" y2="360"/><line x1="40" y1="360" x2="360" y2="360"/>
<line x1="40" y1="120" x2="360" y2="120"/><line x1="40" y1="200" x2="360" y2="200"/>
<line x1="40" y1="280" x2="360" y2="280"/>
<line x1="120" y1="40" x2="120" y2="360"/><line x1="200" y1="40" x2="200" y2="360"/>
<line x1="280" y1="40" x2="280" y2="360"/>
</g>
<circle cx="200" cy="200" r="14" fill="#eab308" opacity="0.9"/>
<ellipse cx="200" cy="200" rx="90" ry="55" fill="none" stroke="#81c784" stroke-width="1.5" transform="rotate(-20, 200, 200)" opacity="0.6"/>
<ellipse cx="200" cy="200" rx="130" ry="80" fill="none" stroke="#2e7d32" stroke-width="1.2" transform="rotate(30, 200, 200)" opacity="0.5"/>
<ellipse cx="200" cy="200" rx="60" ry="35" fill="none" stroke="#a5d6a7" stroke-width="1" transform="rotate(-50, 200, 200)" opacity="0.4"/>
<circle cx="248" cy="165" r="4.5" fill="#2e7d32" opacity="0.8"/>
<circle cx="290" cy="240" r="3.5" fill="#81c784" opacity="0.7"/>
<circle cx="155" cy="260" r="3" fill="#a5d6a7" opacity="0.6"/>
<circle cx="300" cy="150" r="2" fill="#009688" opacity="0.5"/>
<circle cx="245" cy="290" r="2.5" fill="#4caf50" opacity="0.5"/>
<circle cx="140" cy="140" r="3" fill="#795548" opacity="0.4"/>
<path d="M 248 165 C 255 155, 270 140, 290 145" fill="none" stroke="#a5d6a7" stroke-width="1" opacity="0.5"/>
<path d="M 290 240 C 305 250, 315 270, 310 285" fill="none" stroke="#a5d6a7" stroke-width="0.8" opacity="0.4"/>
<text x="135" y="348" font-family="system-ui, sans-serif" font-size="10" fill="#1b3a24" font-weight="700" letter-spacing="1.5">N-BODY GRAVITY</text>
<text x="160" y="362" font-family="system-ui, sans-serif" font-size="8" fill="#557a61" letter-spacing="0.8">ORBITAL SIMULATOR</text>
<rect x="38" y="38" width="324" height="324" fill="none" stroke="#e2ebd9" stroke-width="1" rx="4"/>
</svg>
