<svg xmlns="http://www.w3.org/2000/svg" viewBox="0 0 1280 720" width="1280" height="720">
  <defs><linearGradient id="g" x1="0%" y1="0%" x2="100%" y2="100%"><stop offset="0%" stop-color="#0b1220"/><stop offset="100%" stop-color="#1a0a30"/></linearGradient><linearGradient id="a" x1="0%" y1="0%" x2="100%" y2="0%"><stop offset="0%" stop-color="#06b6d4"/><stop offset="100%" stop-color="#f97316"/></linearGradient></defs>
  <rect width="1280" height="720" fill="url(#g)"/>
  <circle cx="640" cy="400" r="120" fill="none" stroke="#334155" stroke-width="1"/>
  <ellipse cx="640" cy="400" rx="120" ry="40" fill="none" stroke="#334155" stroke-width="1"/>
  <line x1="520" y1="400" x2="760" y2="400" stroke="#334155" stroke-width="1"/>
  <line x1="640" y1="280" x2="640" y2="520" stroke="#334155" stroke-width="1"/>
  <circle cx="640" cy="320" r="10" fill="#06b6d4" opacity=".9"/>
  <circle cx="640" cy="320" r="20" fill="rgba(6,182,212,0.15)"/>
  <line x1="640" y1="400" x2="640" y2="320" stroke="#06b6d4" stroke-width="2"/>
  <line x1="300" y1="200" x2="980" y2="200" stroke="#334155" stroke-width="2"/>
  <rect x="370" y="175" width="60" height="50" rx="4" fill="none" stroke="#06b6d4" stroke-width="2"/><text x="400" y="207" text-anchor="middle" font-family="monospace" font-size="18" fill="#06b6d4" font-weight="bold">H</text>
  <rect x="470" y="175" width="60" height="50" rx="4" fill="none" stroke="#f97316" stroke-width="2"/><text x="500" y="207" text-anchor="middle" font-family="monospace" font-size="18" fill="#f97316" font-weight="bold">X</text>
  <rect x="570" y="175" width="60" height="50" rx="4" fill="none" stroke="#a78bfa" stroke-width="2"/><text x="600" y="207" text-anchor="middle" font-family="monospace" font-size="18" fill="#a78bfa" font-weight="bold">Y</text>
  <rect x="670" y="175" width="60" height="50" rx="4" fill="none" stroke="#22c55e" stroke-width="2"/><text x="700" y="207" text-anchor="middle" font-family="monospace" font-size="18" fill="#22c55e" font-weight="bold">Z</text>
  <rect x="770" y="175" width="60" height="50" rx="4" fill="none" stroke="#eab308" stroke-width="2"/><text x="800" y="207" text-anchor="middle" font-family="monospace" font-size="18" fill="#eab308" font-weight="bold">S</text>
  <rect x="870" y="175" width="60" height="50" rx="4" fill="none" stroke="#ec4899" stroke-width="2"/><text x="900" y="207" text-anchor="middle" font-family="monospace" font-size="18" fill="#ec4899" font-weight="bold">T</text>
  <text x="640" y="90" text-anchor="middle" font-family="ui-monospace,monospace" font-size="26" font-weight="800" fill="#f8fafc" letter-spacing="1">QUANTUM COMPUTING VISUALIZER</text>
  <text x="640" y="115" text-anchor="middle" font-family="ui-monospace,monospace" font-size="13" fill="#64748b">Qubits · Quantum Gates · Circuit Simulation</text>
  <rect x="0" y="718" width="1280" height="2" fill="url(#a)" opacity=".4"/>
</svg>
