<svg xmlns="http://www.w3.org/2000/svg" viewBox="0 0 800 500" width="100%" height="100%">
  <defs>
    <linearGradient id="bgGrad" x1="0%" y1="0%" x2="100%" y2="100%">
      <stop offset="0%" stop-color="#020306" />
      <stop offset="50%" stop-color="#060914" />
      <stop offset="100%" stop-color="#0a0e1a" />
    </linearGradient>
    <linearGradient id="brandGrad" x1="0%" y1="0%" x2="100%" y2="0%">
      <stop offset="0%" stop-color="#00ff88" />
      <stop offset="100%" stop-color="#00d4ff" />
    </linearGradient>
    <filter id="panelGlow">
      <feDropShadow dx="0" dy="12" stdDeviation="20" flood-color="#000" flood-opacity="0.8"/>
    </filter>
    <pattern id="gridP" width="16" height="16" patternUnits="userSpaceOnUse">
      <path d="M16 0L0 0 0 16" fill="none" stroke="rgba(148,163,184,0.012)" stroke-width="1"/>
    </pattern>
  </defs>
  <rect width="800" height="500" fill="url(#bgGrad)"/>
  <rect width="800" height="500" fill="url(#gridP)"/>
  <circle cx="680" cy="80" r="160" fill="#00ff88" opacity="0.02" filter="blur(50px)"/>
  <circle cx="120" cy="440" r="140" fill="#00d4ff" opacity="0.02" filter="blur(45px)"/>

  <g transform="translate(30,25)" filter="url(#panelGlow)">
    <rect width="740" height="450" rx="14" fill="#0f172a" stroke="rgba(148,163,184,0.06)" stroke-width="1.2"/>

    <circle cx="16" cy="16" r="4.5" fill="#ef4444" opacity="0.6"/>
    <circle cx="32" cy="16" r="4.5" fill="#f59e0b" opacity="0.6"/>
    <circle cx="48" cy="16" r="4.5" fill="#10b981" opacity="0.6"/>

    <g transform="translate(560,8)">
      <rect x="0" y="0" width="14" height="14" rx="3" fill="url(#brandGrad)"/>
      <text x="22" y="11" font-family="'Orbitron',monospace" font-size="10" font-weight="900" fill="#e0e4ec" letter-spacing="0.08em">TREE_AGE</text>
    </g>

    <rect x="20" y="38" width="340" height="54" rx="8" fill="rgba(255,255,255,0.015)" stroke="rgba(255,255,255,0.04)" stroke-width="0.8"/>
    <text x="32" y="54" font-family="monospace" font-size="7" fill="#4a5268" font-weight="600">TRUNK CIRCUMFERENCE</text>
    <rect x="28" y="60" width="120" height="22" rx="4" fill="rgba(255,255,255,0.02)" stroke="rgba(255,255,255,0.06)" stroke-width="0.8"/>
    <text x="88" y="75" font-family="'JetBrains Mono',monospace" font-size="13" fill="#e0e4ec" text-anchor="middle">96</text>
    <text x="158" y="75" font-family="monospace" font-size="9" fill="#4a5268">in</text>

    <rect x="180" y="44" width="100" height="22" rx="4" fill="rgba(0,255,136,0.08)" stroke="rgba(0,255,136,0.2)" stroke-width="0.8"/>
    <text x="230" y="59" font-family="monospace" font-size="8" fill="#00ff88" text-anchor="middle" font-weight="600">Inches</text>
    <rect x="285" y="44" width="60" height="22" rx="4" fill="rgba(255,255,255,0.02)" stroke="rgba(255,255,255,0.04)" stroke-width="0.8"/>
    <text x="315" y="59" font-family="monospace" font-size="8" fill="#4a5268" text-anchor="middle">cm</text>

    <rect x="28" y="88" width="190" height="22" rx="4" fill="rgba(255,255,255,0.02)" stroke="rgba(255,255,255,0.04)" stroke-width="0.8"/>
    <text x="123" y="103" font-family="monospace" font-size="8" fill="#8892a8" text-anchor="middle">White Oak (GF: 5.0) ▾</text>

    <rect x="420" y="38" width="150" height="28" rx="6" fill="#00ff88" opacity="0.9"/>
    <text x="495" y="56" font-family="monospace" font-size="8" fill="#05070c" text-anchor="middle" font-weight="800">GENERATE</text>
    <rect x="420" y="72" width="150" height="24" rx="6" fill="rgba(255,255,255,0.02)" stroke="rgba(255,255,255,0.06)" stroke-width="0.8"/>
    <text x="495" y="87" font-family="monospace" font-size="7" fill="#4a5268" text-anchor="middle">RESET</text>

    <rect x="20" y="106" width="350" height="1" fill="rgba(255,255,255,0.03)"/>
    <text x="195" y="117" font-family="monospace" font-size="6" fill="#4a5268" text-anchor="middle" letter-spacing="0.15em">CANVAS ARENA</text>

    <rect x="20" y="126" width="350" height="190" rx="8" fill="#080c18" stroke="rgba(255,255,255,0.04)" stroke-width="0.8"/>
    <circle cx="195" cy="221" r="60" fill="none" stroke="rgba(160,120,80,0.25)" stroke-width="0.8"/>
    <circle cx="195" cy="221" r="45" fill="none" stroke="rgba(160,120,80,0.2)" stroke-width="0.8"/>
    <circle cx="195" cy="221" r="30" fill="none" stroke="rgba(160,120,80,0.25)" stroke-width="0.8"/>
    <circle cx="195" cy="221" r="15" fill="none" stroke="rgba(160,120,80,0.3)" stroke-width="0.8"/>
    <circle cx="195" cy="221" r="6" fill="#1a0f08"/>
    <line x1="135" y1="221" x2="255" y2="221" stroke="rgba(255,255,255,0.03)" stroke-width="0.5"/>
    <line x1="195" y1="161" x2="195" y2="281" stroke="rgba(255,255,255,0.03)" stroke-width="0.5"/>

    <rect x="390" y="126" width="330" height="190" rx="8" fill="#080c18" stroke="rgba(255,255,255,0.04)" stroke-width="0.8"/>
    <line x1="420" y1="296" x2="700" y2="296" stroke="rgba(255,255,255,0.06)" stroke-width="0.5"/>
    <text x="430" y="306" font-family="monospace" font-size="5" fill="#4a5268">0</text>
    <text x="510" y="306" font-family="monospace" font-size="5" fill="#4a5268">50</text>
    <text x="590" y="306" font-family="monospace" font-size="5" fill="#4a5268">100</text>
    <text x="670" y="306" font-family="monospace" font-size="5" fill="#4a5268">150</text>
    <text x="698" y="306" font-family="monospace" font-size="5" fill="#4a5268">200</text>
    <polyline points="420,286 460,276 500,260 540,238 570,212 590,196 610,186 630,180 650,180 670,184 690,190" fill="none" stroke="#00ff88" stroke-width="2" opacity="0.8"/>
    <line x1="568" y1="130" x2="568" y2="296" stroke="rgba(255,184,0,0.25)" stroke-width="0.8" stroke-dasharray="3,3"/>

    <rect x="20" y="330" width="700" height="38" rx="6" fill="rgba(255,255,255,0.01)" stroke="rgba(255,255,255,0.03)" stroke-width="0.8"/>
    <text x="120" y="346" font-family="monospace" font-size="7" fill="#4a5268" text-anchor="middle">DIAMETER</text>
    <text x="120" y="358" font-family="'Orbitron',monospace" font-size="13" fill="#00ff88" text-anchor="middle" font-weight="700">30.56"</text>
    <line x1="220" y1="336" x2="220" y2="362" stroke="rgba(255,255,255,0.03)" stroke-width="1"/>
    <text x="310" y="346" font-family="monospace" font-size="7" fill="#4a5268" text-anchor="middle">AGE</text>
    <text x="310" y="358" font-family="'Orbitron',monospace" font-size="13" fill="#00ff88" text-anchor="middle" font-weight="700">152.8 yr</text>
    <line x1="400" y1="336" x2="400" y2="362" stroke="rgba(255,255,255,0.03)" stroke-width="1"/>
    <text x="500" y="346" font-family="monospace" font-size="7" fill="#4a5268" text-anchor="middle">CARBON</text>
    <text x="500" y="358" font-family="'Orbitron',monospace" font-size="13" fill="#00ff88" text-anchor="middle" font-weight="700">1,247 kg</text>
    <line x1="580" y1="336" x2="580" y2="362" stroke="rgba(255,255,255,0.03)" stroke-width="1"/>
    <text x="670" y="346" font-family="monospace" font-size="7" fill="#4a5268" text-anchor="middle">STAGE</text>
    <text x="670" y="358" font-family="'Orbitron',monospace" font-size="11" fill="#00ff88" text-anchor="middle" font-weight="700">OLD</text>

    <rect x="20" y="382" width="700" height="1" fill="rgba(255,255,255,0.02)"/>
    <rect x="20" y="396" width="56" height="16" rx="3" fill="rgba(255,255,255,0.02)" stroke="rgba(255,255,255,0.06)" stroke-width="0.6"/>
    <text x="48" y="407" font-family="monospace" font-size="6" fill="#4a5268" text-anchor="middle">HTML5</text>
    <rect x="80" y="396" width="50" height="16" rx="3" fill="rgba(255,255,255,0.02)" stroke="rgba(255,255,255,0.06)" stroke-width="0.6"/>
    <text x="105" y="407" font-family="monospace" font-size="6" fill="#4a5268" text-anchor="middle">CSS3</text>
    <rect x="134" y="396" width="50" height="16" rx="3" fill="rgba(255,255,255,0.02)" stroke="rgba(255,255,255,0.06)" stroke-width="0.6"/>
    <text x="159" y="407" font-family="monospace" font-size="6" fill="#4a5268" text-anchor="middle">ES6+</text>
    <rect x="188" y="396" width="56" height="16" rx="3" fill="rgba(255,255,255,0.02)" stroke="rgba(255,255,255,0.06)" stroke-width="0.6"/>
    <text x="216" y="407" font-family="monospace" font-size="6" fill="#4a5268" text-anchor="middle">CANVAS</text>
    <text x="720" y="407" font-family="monospace" font-size="6" fill="#4a5268" text-anchor="end">TREE_AGE v1.0</text>
  </g>
</svg>
