<?xml version="1.0" encoding="UTF-8"?>
<svg version="1.1" xmlns="http://www.w3.org/2000/svg" width="1918" height="1095">
<path d="M0 0 C632.94 0 1265.88 0 1918 0 C1918 361.35 1918 722.7 1918 1095 C1285.06 1095 652.12 1095 0 1095 C0 733.65 0 372.3 0 0 Z " fill="#DFA0A0" transform="translate(0,0)"/>
<path d="M0 0 C632.94 0 1265.88 0 1918 0 C1918 22.11 1918 44.22 1918 67 C1285.06 67 652.12 67 0 67 C0 44.89 0 22.78 0 0 Z " fill="#000000" transform="translate(0,0)"/>
<path d="M0 0 C632.94 0 1265.88 0 1918 0 C1918 15.84 1918 31.68 1918 48 C1285.06 48 652.12 48 0 48 C0 32.16 0 16.32 0 0 Z " fill="#FFFFFF" transform="translate(0,1047)"/>
<path d="M0 0 C1.02414125 -0.00782324 2.04828251 -0.01564648 3.10345834 -0.02370679 C4.79632962 -0.01366855 4.79632962 -0.01366855 6.52340031 -0.00342751 C7.71962216 -0.00810748 8.91584401 -0.01278745 10.14831501 -0.01760924 C13.47465434 -0.02752814 16.80048789 -0.02392712 20.12679684 -0.01465058 C23.71173918 -0.00788017 27.2966364 -0.01833136 30.88156986 -0.02659035 C37.90705902 -0.03995182 44.93245219 -0.03703912 51.95794516 -0.02835242 C57.66675341 -0.02158522 63.37553471 -0.02065498 69.08434582 -0.02392387 C69.8959653 -0.02438357 70.70758478 -0.02484327 71.54379879 -0.0253169 C73.19245227 -0.02627605 74.84110575 -0.02724869 76.48975921 -0.02823468 C91.96080028 -0.03679578 107.43178808 -0.02694344 122.90282042 -0.01083358 C136.18393091 0.00256774 149.46496274 0.00024446 162.74607182 -0.01358986 C178.15910817 -0.02963733 193.57209779 -0.03596907 208.98514134 -0.02675307 C210.62813381 -0.0257974 212.27112628 -0.02485428 213.91411877 -0.02392387 C215.12677351 -0.02322963 215.12677351 -0.02322963 216.36392633 -0.02252137 C222.06679906 -0.01992879 227.76964219 -0.0243083 233.47251034 -0.03136253 C240.42118571 -0.0397686 247.36975939 -0.03751638 254.31842308 -0.0215203 C257.86523811 -0.01362509 261.41188347 -0.01056706 264.95869732 -0.02046776 C268.79986005 -0.03102807 272.64074373 -0.01843565 276.4818964 -0.00342751 C277.60824653 -0.01011967 278.73459665 -0.01681184 279.8950786 -0.02370679 C281.4352021 -0.01197193 281.4352021 -0.01197193 283.00643921 0 C284.33681824 0.00073059 284.33681824 0.00073059 285.69407362 0.00147593 C288.56877949 0.45720763 289.95300584 1.40754207 292.06614017 3.37752342 C292.57407475 5.34381676 292.57407475 5.34381676 292.5837183 7.60188866 C292.59632694 8.44964363 292.60893559 9.29739861 292.62192631 10.17084312 C292.60978092 11.53965378 292.60978092 11.53965378 292.59739017 12.93611717 C292.60121708 13.87681557 292.60504398 14.81751396 292.60898685 15.78671837 C292.61170905 17.77638888 292.60432635 19.76609498 292.58762455 21.75569725 C292.56624305 24.80037462 292.58740337 27.84268583 292.61301517 30.88728905 C292.61037148 32.82023696 292.60524565 34.75318341 292.59739017 36.68611717 C292.6054871 37.59663338 292.61358402 38.50714958 292.62192631 39.44525719 C292.60301334 40.72161789 292.60301334 40.72161789 292.5837183 42.02376366 C292.58053593 42.76972298 292.57735355 43.5156823 292.57407475 44.28424644 C291.84856224 47.27419575 290.40944658 48.42795546 288.06614017 50.37752342 C285.69407362 50.87892008 285.69407362 50.87892008 283.00643921 50.88088799 C281.97969021 50.89131897 280.95294121 50.90174996 279.8950786 50.91249704 C278.76872847 50.90357416 277.64237835 50.89465127 276.4818964 50.88545799 C275.28411456 50.89169796 274.08633271 50.89793792 272.85225445 50.90436697 C269.52610405 50.91757829 266.20085481 50.91280153 262.87475884 50.9004221 C259.28847602 50.89138581 255.70227296 50.90533416 252.1160059 50.91634178 C245.09029701 50.93414635 238.06475887 50.93027862 231.03904324 50.91869122 C225.3307208 50.90966548 219.62244629 50.90842916 213.91411877 50.91278648 C213.10234605 50.91339942 212.29057334 50.91401235 211.45420145 50.91464385 C209.80522376 50.91592272 208.15624609 50.91721958 206.50726844 50.91853422 C191.03814473 50.9299455 175.56911577 50.91681736 160.1000076 50.89533275 C146.8185701 50.87745789 133.53727242 50.88056799 120.25583744 50.8990078 C104.84132826 50.92039904 89.42690213 50.92885037 74.01238018 50.91655874 C72.36970207 50.91528451 70.72702395 50.91402703 69.08434582 50.91278648 C67.87192249 50.91186083 67.87192249 50.91186083 66.63500575 50.91091648 C60.93114183 50.90745858 55.22733048 50.91330129 49.52347469 50.9227047 C42.57586348 50.93390656 35.6284331 50.93092291 28.68084269 50.90958172 C25.13410027 50.89904716 21.58765969 50.89498995 18.0409193 50.90817833 C14.20157447 50.92223919 10.3627272 50.90548543 6.52340031 50.88545799 C5.39481946 50.89438088 4.26623861 50.90330377 3.10345834 50.91249704 C2.07931709 50.90206605 1.05517584 50.89163507 0 50.88088799 C-0.886757 50.88023858 -1.773514 50.87958917 -2.68714243 50.87892008 C-4.93385983 50.37752342 -4.93385983 50.37752342 -6.71841663 48.47689295 C-8.09265466 46.10324566 -8.31332939 44.7472293 -8.32204342 42.02376366 C-8.3314999 41.17285652 -8.34095638 40.32194939 -8.35069942 39.44525719 C-8.34462673 38.53474098 -8.33855404 37.62422478 -8.33229733 36.68611717 C-8.33660259 35.27363449 -8.33660259 35.27363449 -8.34099483 33.83261681 C-8.34303396 31.84473124 -8.33751473 29.85682555 -8.32497311 27.8689785 C-8.30889951 24.822544 -8.32483626 21.77743263 -8.34401608 18.73103905 C-8.34203397 16.79939549 -8.33819097 14.86775276 -8.33229733 12.93611717 C-8.33837002 12.02357674 -8.34444271 11.1110363 -8.35069942 10.17084312 C-8.34124294 9.32308815 -8.33178646 8.47533318 -8.32204342 7.60188866 C-8.31965664 6.85672493 -8.31726986 6.1115612 -8.31481075 5.34381676 C-7.40927982 0.66988288 -4.30104481 0.00236238 0 0 Z " fill="#B75858" transform="translate(817.9338598251343,603.6224765777588)"/>
<path d="M0 0 C1.02414125 -0.00782324 2.04828251 -0.01564648 3.10345834 -0.02370679 C4.79632962 -0.01366855 4.79632962 -0.01366855 6.52340031 -0.00342751 C7.71962216 -0.00810748 8.91584401 -0.01278745 10.14831501 -0.01760924 C13.47465434 -0.02752814 16.80048789 -0.02392712 20.12679684 -0.01465058 C23.71173918 -0.00788017 27.2966364 -0.01833136 30.88156986 -0.02659035 C37.90705902 -0.03995182 44.93245219 -0.03703912 51.95794516 -0.02835242 C57.66675341 -0.02158522 63.37553471 -0.02065498 69.08434582 -0.02392387 C69.8959653 -0.02438357 70.70758478 -0.02484327 71.54379879 -0.0253169 C73.19245227 -0.02627605 74.84110575 -0.02724869 76.48975921 -0.02823468 C91.96080028 -0.03679578 107.43178808 -0.02694344 122.90282042 -0.01083358 C136.18393091 0.00256774 149.46496274 0.00024446 162.74607182 -0.01358986 C178.15910817 -0.02963733 193.57209779 -0.03596907 208.98514134 -0.02675307 C210.62813381 -0.0257974 212.27112628 -0.02485428 213.91411877 -0.02392387 C215.12677351 -0.02322963 215.12677351 -0.02322963 216.36392633 -0.02252137 C222.06679906 -0.01992879 227.76964219 -0.0243083 233.47251034 -0.03136253 C240.42118571 -0.0397686 247.36975939 -0.03751638 254.31842308 -0.0215203 C257.86523811 -0.01362509 261.41188347 -0.01056706 264.95869732 -0.02046776 C268.79986005 -0.03102807 272.64074373 -0.01843565 276.4818964 -0.00342751 C277.60824653 -0.01011967 278.73459665 -0.01681184 279.8950786 -0.02370679 C281.4352021 -0.01197193 281.4352021 -0.01197193 283.00643921 0 C284.33681824 0.00073059 284.33681824 0.00073059 285.69407362 0.00147593 C288.56877949 0.45720763 289.95300584 1.40754207 292.06614017 3.37752342 C292.57407475 5.34381676 292.57407475 5.34381676 292.5837183 7.60188866 C292.59632694 8.44964363 292.60893559 9.29739861 292.62192631 10.17084312 C292.60978092 11.53965378 292.60978092 11.53965378 292.59739017 12.93611717 C292.60121708 13.87681557 292.60504398 14.81751396 292.60898685 15.78671837 C292.61170905 17.77638888 292.60432635 19.76609498 292.58762455 21.75569725 C292.56624305 24.80037462 292.58740337 27.84268583 292.61301517 30.88728905 C292.61037148 32.82023696 292.60524565 34.75318341 292.59739017 36.68611717 C292.6054871 37.59663338 292.61358402 38.50714958 292.62192631 39.44525719 C292.60301334 40.72161789 292.60301334 40.72161789 292.5837183 42.02376366 C292.58053593 42.76972298 292.57735355 43.5156823 292.57407475 44.28424644 C291.84856224 47.27419575 290.40944658 48.42795546 288.06614017 50.37752342 C285.69407362 50.87892008 285.69407362 50.87892008 283.00643921 50.88088799 C281.97969021 50.89131897 280.95294121 50.90174996 279.8950786 50.91249704 C278.76872847 50.90357416 277.64237835 50.89465127 276.4818964 50.88545799 C275.28411456 50.89169796 274.08633271 50.89793792 272.85225445 50.90436697 C269.52610405 50.91757829 266.20085481 50.91280153 262.87475884 50.9004221 C259.28847602 50.89138581 255.70227296 50.90533416 252.1160059 50.91634178 C245.09029701 50.93414635 238.06475887 50.93027862 231.03904324 50.91869122 C225.3307208 50.90966548 219.62244629 50.90842916 213.91411877 50.91278648 C213.10234605 50.91339942 212.29057334 50.91401235 211.45420145 50.91464385 C209.80522376 50.91592272 208.15624609 50.91721958 206.50726844 50.91853422 C191.03814473 50.9299455 175.56911577 50.91681736 160.1000076 50.89533275 C146.8185701 50.87745789 133.53727242 50.88056799 120.25583744 50.8990078 C104.84132826 50.92039904 89.42690213 50.92885037 74.01238018 50.91655874 C72.36970207 50.91528451 70.72702395 50.91402703 69.08434582 50.91278648 C67.87192249 50.91186083 67.87192249 50.91186083 66.63500575 50.91091648 C60.93114183 50.90745858 55.22733048 50.91330129 49.52347469 50.9227047 C42.57586348 50.93390656 35.6284331 50.93092291 28.68084269 50.90958172 C25.13410027 50.89904716 21.58765969 50.89498995 18.0409193 50.90817833 C14.20157447 50.92223919 10.3627272 50.90548543 6.52340031 50.88545799 C5.39481946 50.89438088 4.26623861 50.90330377 3.10345834 50.91249704 C2.07931709 50.90206605 1.05517584 50.89163507 0 50.88088799 C-0.886757 50.88023858 -1.773514 50.87958917 -2.68714243 50.87892008 C-4.93385983 50.37752342 -4.93385983 50.37752342 -6.71841663 48.47689295 C-8.09265466 46.10324566 -8.31332939 44.7472293 -8.32204342 42.02376366 C-8.3314999 41.17285652 -8.34095638 40.32194939 -8.35069942 39.44525719 C-8.34462673 38.53474098 -8.33855404 37.62422478 -8.33229733 36.68611717 C-8.33660259 35.27363449 -8.33660259 35.27363449 -8.34099483 33.83261681 C-8.34303396 31.84473124 -8.33751473 29.85682555 -8.32497311 27.8689785 C-8.30889951 24.822544 -8.32483626 21.77743263 -8.34401608 18.73103905 C-8.34203397 16.79939549 -8.33819097 14.86775276 -8.33229733 12.93611717 C-8.33837002 12.02357674 -8.34444271 11.1110363 -8.35069942 10.17084312 C-8.34124294 9.32308815 -8.33178646 8.47533318 -8.32204342 7.60188866 C-8.31965664 6.85672493 -8.31726986 6.1115612 -8.31481075 5.34381676 C-7.40927982 0.66988288 -4.30104481 0.00236238 0 0 Z " fill="#F0F0F8" transform="translate(817.9338598251343,503.6224765777588)"/>
<path d="M0 0 C632.94 0 1265.88 0 1918 0 C1918 1.32 1918 2.64 1918 4 C1285.06 4 652.12 4 0 4 C0 2.68 0 1.36 0 0 Z " fill="#BEC6CC" transform="translate(0,0)"/>
<path d="M0 0 C3.856875 -0.061875 7.71375 -0.12375 11.6875 -0.1875 C13.4986731 -0.22846802 13.4986731 -0.22846802 15.34643555 -0.27026367 C16.308479 -0.27775635 17.27052246 -0.28524902 18.26171875 -0.29296875 C19.24100342 -0.3086792 20.22028809 -0.32438965 21.22924805 -0.34057617 C24.52251457 0.06422661 26.34115396 1.0417397 29 3 C31.46372552 6.69558828 31.57583561 9.71044199 31 14 C29.5 17 29.5 17 28 19 C28.825 19.639375 29.65 20.27875 30.5 20.9375 C33.43533337 24.53328337 33.74430097 26.27200659 33.49609375 30.77734375 C32.64488654 34.59102014 30.8435743 36.35481461 28 39 C24.82212459 40.0592918 22.57411057 40.11458939 19.23828125 40.09765625 C17.72681519 40.09390991 17.72681519 40.09390991 16.18481445 40.09008789 C14.2680188 40.07643188 14.2680188 40.07643188 12.3125 40.0625 C6.2178125 40.0315625 6.2178125 40.0315625 0 40 C0 26.8 0 13.6 0 0 Z " fill="#F1F0F8" transform="translate(637,371)"/>
<path d="M0 0 C3.34125 -0.061875 6.6825 -0.12375 10.125 -0.1875 C11.68758545 -0.22846802 11.68758545 -0.22846802 13.28173828 -0.27026367 C19.42435342 -0.32520339 23.91357316 0.18482683 28.64453125 4.5 C34.19952744 11.63417571 33.76619469 19.3334867 33 28 C31.30447483 32.73390627 28.42251221 36.49390975 24 39 C21.05868109 39.98043964 19.17498335 40.11621202 16.11328125 40.09765625 C15.26805908 40.09515869 14.42283691 40.09266113 13.55200195 40.09008789 C12.48296631 40.08098389 11.41393066 40.07187988 10.3125 40.0625 C5.2078125 40.0315625 5.2078125 40.0315625 0 40 C0 26.8 0 13.6 0 0 Z " fill="#F1F0F8" transform="translate(1071,371)"/>
<path d="M0 0 C4.29 0 8.58 0 13 0 C14.98 7.26 16.96 14.52 19 22 C20.48012063 19.03975875 21.44466833 16.78280088 22.2890625 13.671875 C22.50820313 12.87265625 22.72734375 12.0734375 22.953125 11.25 C23.17484375 10.425 23.3965625 9.6 23.625 8.75 C23.85445312 7.90953125 24.08390625 7.0690625 24.3203125 6.203125 C24.88395525 4.13643491 25.44248162 2.06835064 26 0 C30.29 0 34.58 0 39 0 C39 13.2 39 26.4 39 40 C36.36 40 33.72 40 31 40 C30.67 31.09 30.34 22.18 30 13 C28.02 21.91 26.04 30.82 24 40 C21.03 40 18.06 40 15 40 C14.18304718 36.81358254 13.37131852 33.62598291 12.5625 30.4375 C12.33240234 29.54224609 12.10230469 28.64699219 11.86523438 27.72460938 C11.64287109 26.84482422 11.42050781 25.96503906 11.19140625 25.05859375 C10.98717041 24.25736084 10.78293457 23.45612793 10.57250977 22.63061523 C9.88080141 19.45229645 9.46000371 16.22002598 9 13 C8.67 21.91 8.34 30.82 8 40 C5.36 40 2.72 40 0 40 C0 26.8 0 13.6 0 0 Z " fill="#F1EEF6" transform="translate(823,371)"/>
<path d="M0 0 C2.5 1 2.5 1 4 2 C4.33 1.67 4.66 1.34 5 1 C7.67058851 0.85884839 10.32432238 0.95752893 13 1 C13.0992963 5.58978038 13.17166748 10.17892788 13.21972656 14.76953125 C13.23977222 16.32921244 13.26701657 17.88881913 13.30175781 19.44824219 C13.35059126 21.69745314 13.37303815 23.9456659 13.390625 26.1953125 C13.41127014 26.8861795 13.43191528 27.57704651 13.45318604 28.28884888 C13.45548968 33.32301394 12.13032882 36.11358312 9 40 C4.23996017 43.46458595 -2.42744656 42.67671653 -8 42 C-11.0397696 40.68403534 -11.89724656 39.70354013 -14 37 C-14.375 34.1875 -14.375 34.1875 -14 32 C-12.5199159 32.11362262 -11.04089926 32.24122908 -9.5625 32.375 C-8.73878906 32.44460938 -7.91507813 32.51421875 -7.06640625 32.5859375 C-6.38449219 32.72257812 -5.70257812 32.85921875 -5 33 C-4.67 33.66 -4.34 34.32 -4 35 C-1.36 35 1.28 35 4 35 C4 32.36 4 29.72 4 27 C3.505 27.495 3.01 27.99 2.5 28.5 C-0.95513381 30.57308029 -4.11825403 30.69454699 -8 30 C-12.0863408 27.60149562 -13.56850953 25.43259768 -15 21 C-16.28078873 9.10057911 -16.28078873 9.10057911 -13.1875 4.3125 C-9.08186298 -0.02774485 -5.76881881 -0.60357863 0 0 Z " fill="#F1EEF6" transform="translate(1005,381)"/>
<path d="M0 0 C2.64 0 5.28 0 8 0 C8 13.2 8 26.4 8 40 C5.36 40 2.72 40 0 40 C0 39.34 0 38.68 0 38 C-0.680625 38.495 -1.36125 38.99 -2.0625 39.5 C-5.81247539 41.41488105 -7.83033386 41.64701716 -12 41 C-15.26778393 38.87983067 -18.24076697 36.51846605 -20 33 C-20.17603147 30.58750308 -20.26744968 28.16849105 -20.3125 25.75 C-20.34988281 24.44546875 -20.38726563 23.1409375 -20.42578125 21.796875 C-19.93549926 17.42481905 -18.76868372 15.37230666 -16 12 C-12.34716253 9.56477502 -9.25031548 9.44525633 -5 10 C-3.68 10.66 -2.36 11.32 -1 12 C-0.67 8.04 -0.34 4.08 0 0 Z " fill="#F1EEF6" transform="translate(1224,371)"/>
<path d="M0 0 C0.70189453 0.06123047 1.40378906 0.12246094 2.12695312 0.18554688 C3.8567967 0.33852624 5.58488497 0.51112602 7.3125 0.6875 C7.94478516 2.40259766 7.94478516 2.40259766 8.58984375 4.15234375 C9.14308521 5.64328259 9.69647847 7.13416511 10.25 8.625 C10.66668945 9.75711914 10.66668945 9.75711914 11.09179688 10.91210938 C12.23003451 14.57529139 12.23003451 14.57529139 14.3125 17.6875 C16.2925 12.0775 18.2725 6.4675 20.3125 0.6875 C22.9525 0.6875 25.5925 0.6875 28.3125 0.6875 C27.2548012 6.90322132 24.91208421 12.7078971 22.75708008 18.60742188 C22.00357988 20.67766427 21.26434671 22.75265432 20.52539062 24.828125 C20.04253836 26.15656716 19.55884197 27.48470287 19.07421875 28.8125 C18.64069092 30.01132812 18.20716309 31.21015625 17.76049805 32.4453125 C16.03641836 36.30566965 14.19272491 39.74738754 10.3125 41.6875 C8.77226004 41.75700541 7.22915012 41.77202357 5.6875 41.75 C4.46160156 41.73646484 4.46160156 41.73646484 3.2109375 41.72265625 C2.58445312 41.71105469 1.95796875 41.69945312 1.3125 41.6875 C1.3125 39.7075 1.3125 37.7275 1.3125 35.6875 C2.281875 35.378125 3.25125 35.06875 4.25 34.75 C7.15315792 33.99226658 7.15315792 33.99226658 8.3125 32.6875 C9.10250917 26.57742905 6.58819682 21.43258312 4.375 15.875 C4.00181641 14.90884766 3.62863281 13.94269531 3.24414062 12.94726562 C1.80138527 8.50345221 1.80138527 8.50345221 -0.6875 4.6875 C-1.3475 6.0075 -2.0075 7.3275 -2.6875 8.6875 C-3.47125 8.64625 -4.255 8.605 -5.0625 8.5625 C-7.84866119 8.40021266 -7.84866119 8.40021266 -9.6875 10.6875 C-10.05644582 12.71810659 -10.05644582 12.71810659 -10.1015625 15.0390625 C-10.15957031 16.31523437 -10.15957031 16.31523437 -10.21875 17.6171875 C-10.26515625 18.95136719 -10.26515625 18.95136719 -10.3125 20.3125 C-10.37050781 21.65828125 -10.37050781 21.65828125 -10.4296875 23.03125 C-10.52409357 25.2497927 -10.60966748 27.46832403 -10.6875 29.6875 C-13.3275 29.6875 -15.9675 29.6875 -18.6875 29.6875 C-18.6875 20.1175 -18.6875 10.5475 -18.6875 0.6875 C-16.3775 0.6875 -14.0675 0.6875 -11.6875 0.6875 C-11.3575 1.3475 -11.0275 2.0075 -10.6875 2.6875 C-10.18283203 1.93533203 -10.18283203 1.93533203 -9.66796875 1.16796875 C-6.62734571 -1.10500192 -3.5863016 -0.37838663 0 0 Z " fill="#F1EFF7" transform="translate(774.6875,381.3125)"/>
<path d="M0 0 C4.71878688 1.69164058 7.20582817 3.86048618 10 8 C11.59832473 12.79497418 12.00612612 17.48902145 10.09375 22.26171875 C7.5072305 26.74667725 5.0875719 29.43459326 0 31 C-4.70781565 31.66891625 -8.00565066 31.48779402 -12.3125 29.375 C-16.07280603 26.05193885 -18.63331855 23.51064546 -19.3828125 18.37890625 C-19.56800392 13.82937048 -19.33813423 10.71528396 -17.375 6.5625 C-12.04390781 0.81053211 -7.71243548 -1.13540343 0 0 Z " fill="#F1EEF6" transform="translate(1189,381)"/>
<path d="M0 0 C3.74030185 1.60298651 4.73158465 2.59737698 7 6 C7.31884766 8.54370117 7.31884766 8.54370117 7.4140625 11.54296875 C7.45273437 12.61611328 7.49140625 13.68925781 7.53125 14.79492188 C7.5621875 15.91447266 7.593125 17.03402344 7.625 18.1875 C7.66367187 19.31865234 7.70234375 20.44980469 7.7421875 21.61523438 C7.83652533 24.4099925 7.92211652 27.20474278 8 30 C5.36 30 2.72 30 0 30 C-0.33 29.34 -0.66 28.68 -1 28 C-1.66 28.495 -2.32 28.99 -3 29.5 C-6.79489402 31.39744701 -9.8380997 32.03208415 -14 31 C-17.28826203 28.12277073 -18.74931432 26.22835983 -19.625 21.9375 C-18.99167885 18.96089058 -18.25364897 17.16558825 -15.9765625 15.1015625 C-11.44022493 12.57340599 -6.06139171 11.91149514 -1 11 C-1.33 10.01 -1.66 9.02 -2 8 C-4.85078091 7.23283149 -4.85078091 7.23283149 -8 7 C-9.02104551 7.97850195 -10.0206121 8.97980427 -11 10 C-14.1875 10.1875 -14.1875 10.1875 -17 10 C-17.33 9.01 -17.66 8.02 -18 7 C-12.55871605 -0.35308642 -8.80893165 -0.72559119 0 0 Z " fill="#F1EEF5" transform="translate(742,381)"/>
<path d="M0 0 C4.66234968 2.32469935 4.66234968 2.32469935 6 5 C6.14049851 6.63076047 6.22570201 8.26648497 6.28125 9.90234375 C6.31863281 10.87494141 6.35601563 11.84753906 6.39453125 12.84960938 C6.44673828 14.37811523 6.44673828 14.37811523 6.5 15.9375 C6.5688888 17.94675672 6.6416358 19.9558859 6.71875 21.96484375 C6.74904297 22.8580835 6.77933594 23.75132324 6.81054688 24.67163086 C6.91962169 27.15594604 6.91962169 27.15594604 8 30 C5.03 30 2.06 30 -1 30 C-1 29.34 -1 28.68 -1 28 C-1.66 28.495 -2.32 28.99 -3 29.5 C-6.81741563 31.40870782 -9.80958277 31.87863587 -14 31 C-16.99380345 29.00413103 -18.63808488 27.61740829 -19.44140625 24.02734375 C-19.63306777 20.71963692 -19.3980678 18.52722297 -17.38671875 15.86328125 C-14.40264654 13.53365368 -11.94730816 12.98946163 -8.25 12.25 C-7.07953125 12.00765625 -5.9090625 11.7653125 -4.703125 11.515625 C-3.81109375 11.34546875 -2.9190625 11.1753125 -2 11 C-2 9.68 -2 8.36 -2 7 C-5.41642759 6.74984127 -5.41642759 6.74984127 -9 7 C-9.99 8.485 -9.99 8.485 -11 10 C-13.31 9.67 -15.62 9.34 -18 9 C-17.7365632 5.83875839 -17.15914751 4.20305028 -15.1875 1.6875 C-10.3366367 -0.8806041 -5.38153184 -0.79434845 0 0 Z " fill="#F1EEF6" transform="translate(978,381)"/>
<path d="M0 0 C4.11604547 1.9055766 5.6401104 3.36419504 7.875 7.3125 C9 11 9 11 9 18 C2.73 18 -3.54 18 -10 18 C-9.34 19.65 -8.68 21.3 -8 23 C-4.94727535 23.89830839 -4.94727535 23.89830839 -2 24 C-1.34 23.01 -0.68 22.02 0 21 C3.07921132 20.74339906 5.21136993 20.60568496 8 22 C6.82191948 25.3529984 5.80593388 27.7552529 3 30 C-1.07094774 31.35698258 -4.74353744 31.52387231 -9 31 C-13.51500206 28.74249897 -15.78235125 26.48613186 -18 22 C-18.81276469 16.14955867 -18.8199032 10.76127354 -16.3125 5.375 C-11.31994389 0.24750994 -7.04867841 -1.09397478 0 0 Z " fill="#F1EFF6" transform="translate(1041,381)"/>
<path d="M0 0 C4.11604547 1.9055766 5.6401104 3.36419504 7.875 7.3125 C9 11 9 11 9 18 C2.73 18 -3.54 18 -10 18 C-9.34 19.65 -8.68 21.3 -8 23 C-4.94727535 23.89830839 -4.94727535 23.89830839 -2 24 C-1.34 23.01 -0.68 22.02 0 21 C3.07921132 20.74339906 5.21136993 20.60568496 8 22 C6.82191948 25.3529984 5.80593388 27.7552529 3 30 C-1.07094774 31.35698258 -4.74353744 31.52387231 -9 31 C-13.51500206 28.74249897 -15.78235125 26.48613186 -18 22 C-18.81276469 16.14955867 -18.8199032 10.76127354 -16.3125 5.375 C-11.31994389 0.24750994 -7.04867841 -1.09397478 0 0 Z " fill="#F1EFF6" transform="translate(885,381)"/>
<path d="M0 0 C4.14462994 1.74995486 6.70055688 4.14022048 9 8 C9.61906692 11.36359695 9.81707025 14.57006726 10 18 C3.73 18 -2.54 18 -9 18 C-8.34 19.65 -7.68 21.3 -7 23 C-4.54115028 23.79912616 -2.56909202 24 0 24 C0.33 23.01 0.66 22.02 1 21 C3.64 21.33 6.28 21.66 9 22 C8.0717492 25.34170288 7.07068171 26.93461942 4.5 29.3125 C-0.13751033 31.54844248 -3.94332306 32.08471303 -9 31 C-12.42625454 28.9714594 -15.20704012 26.58591977 -17 23 C-18.04622952 9.62198315 -18.04622952 9.62198315 -15.25 5.3125 C-14.5075 4.549375 -13.765 3.78625 -13 3 C-12.443125 2.38125 -11.88625 1.7625 -11.3125 1.125 C-7.61416024 -0.67419232 -4.03003258 -0.52722648 0 0 Z " fill="#F1EEF6" transform="translate(1254,381)"/>
<path d="M0 0 C4.38253554 2.19126777 7.16669816 4.41674539 9 9 C9 11.97 9 14.94 9 18 C2.73 18 -3.54 18 -10 18 C-8.02 20.97 -8.02 20.97 -6 24 C-2.83073436 24.50169415 -2.83073436 24.50169415 0 24 C0.33 23.01 0.66 22.02 1 21 C3.64 21.33 6.28 21.66 9 22 C7.66236834 25.16807498 6.49935502 27.54604089 3.9375 29.875 C-1.3213285 31.88901943 -6.70959667 31.92590773 -11.9375 29.8125 C-15.41205419 26.75910389 -16.8456918 24.07896122 -17.50390625 19.4765625 C-17.68155748 7.79895499 -17.68155748 7.79895499 -14.125 3.625 C-9.80990123 -0.43994812 -5.76154106 -0.69836861 0 0 Z " fill="#F1EFF7" transform="translate(1126,381)"/>
<path d="M0 0 C3.98890306 1.32963435 5.45986152 1.9442748 7.375 5.6875 C7.58125 6.450625 7.7875 7.21375 8 8 C5.29120665 9.35439668 2.99066732 9.06501451 0 9 C0 8.34 0 7.68 0 7 C-2.64 7 -5.28 7 -8 7 C-8.33 7.99 -8.66 8.98 -9 10 C-8.34773437 10.10957031 -7.69546875 10.21914063 -7.0234375 10.33203125 C-1.91801551 11.25823612 2.53487439 12.20929649 7 15 C9.36086122 18.54129184 9.57269578 19.82750218 9 24 C7.17794457 26.92612619 5.13027505 29.43486248 2 31 C-3.61210754 31.51248287 -8.46355063 31.71524367 -13.625 29.3125 C-16.06692589 26.93483532 -17.09447999 25.25987205 -18 22 C-17 21 -17 21 -13.4375 20.9375 C-12.303125 20.958125 -11.16875 20.97875 -10 21 C-9.67 21.99 -9.34 22.98 -9 24 C-4.34947128 24.26932521 -4.34947128 24.26932521 0 23 C0 22.34 0 21.68 0 21 C-0.89203125 20.75765625 -1.7840625 20.5153125 -2.703125 20.265625 C-4.45882812 19.76289063 -4.45882812 19.76289063 -6.25 19.25 C-7.41015625 18.92515625 -8.5703125 18.6003125 -9.765625 18.265625 C-13.13617752 16.94671315 -14.79577417 15.84088329 -17 13 C-17.61984499 8.73856568 -17.49311964 6.75611678 -15.125 3.125 C-10.80243947 -1.19756053 -5.8099527 -0.45070155 0 0 Z " fill="#F1EEF5" transform="translate(915,381)"/>
<path d="M0 0 C3.08073848 1.3831887 4.6384567 2.6384567 7 5 C7 5.99 7 6.98 7 8 C0.375 9.25 0.375 9.25 -3 7 C-6.12521833 6.83300768 -6.12521833 6.83300768 -9 7 C-9.33 7.99 -9.66 8.98 -10 10 C-8.67935547 10.25523437 -8.67935547 10.25523437 -7.33203125 10.515625 C-6.17058594 10.75796875 -5.00914062 11.0003125 -3.8125 11.25 C-2.66394531 11.48203125 -1.51539063 11.7140625 -0.33203125 11.953125 C3.28882055 13.09074315 5.33860404 14.30908764 8 17 C8.5179685 20.26320156 8.77340121 21.93075427 8 25 C4.90753993 28.92826009 2.53987805 30.68049305 -2.453125 31.30859375 C-7.59776644 31.54570711 -11.10285159 31.56213795 -15.1875 28.1875 C-16.85546875 26.60546875 -16.85546875 26.60546875 -18 25 C-18 24.01 -18 23.02 -18 22 C-15.21136993 20.60568496 -13.07921132 20.74339906 -10 21 C-9.34 21.99 -8.68 22.98 -8 24 C-6.02252878 24.36297936 -6.02252878 24.36297936 -3.875 24.1875 C-2.59625 24.125625 -1.3175 24.06375 0 24 C0 22.68 0 21.36 0 20 C-1.7325 19.87625 -1.7325 19.87625 -3.5 19.75 C-8.08862744 19.17029796 -12.25538926 17.7689023 -16 15 C-17.69692601 12.3203605 -18.00981923 11.23566145 -17.875 8 C-16.87788701 4.58132688 -15.72757889 3.23165546 -13 1 C-9.08245056 -0.95877472 -4.2810508 -0.3588164 0 0 Z " fill="#F1EEF6" transform="translate(946,381)"/>
<path d="M0 0 C3.4203866 1.17013226 3.91540482 1.87310723 6 5 C6.22705078 7.63549805 6.22705078 7.63549805 6.1953125 10.76171875 C6.18886719 11.87998047 6.18242188 12.99824219 6.17578125 14.15039062 C6.15902344 15.31763672 6.14226563 16.48488281 6.125 17.6875 C6.11597656 18.86634766 6.10695313 20.04519531 6.09765625 21.25976562 C6.07406423 24.17338026 6.0411454 27.08658892 6 30 C3.36 30 0.72 30 -2 30 C-2.495 18.615 -2.495 18.615 -3 7 C-9.4 7.2 -9.4 7.2 -11 9 C-11.15686249 10.55948542 -11.25076639 12.12542668 -11.31640625 13.69140625 C-11.35830078 14.63564453 -11.40019531 15.57988281 -11.44335938 16.55273438 C-11.48267578 17.54595703 -11.52199219 18.53917969 -11.5625 19.5625 C-11.60568359 20.55958984 -11.64886719 21.55667969 -11.69335938 22.58398438 C-11.79980298 25.0558415 -11.90181928 27.5278031 -12 30 C-14.64 30 -17.28 30 -20 30 C-20 20.43 -20 10.86 -20 1 C-17.69 1 -15.38 1 -13 1 C-12.67 1.66 -12.34 2.32 -12 3 C-11.505 2.505 -11.01 2.01 -10.5 1.5 C-6.98790224 -0.60725866 -4.00306478 -0.47773201 0 0 Z " fill="#F1EFF7" transform="translate(712,381)"/>
<path d="M0 0 C3.74216409 1.59241025 5.87672063 3.53570209 8 7 C8 7.66 8 8.32 8 9 C5.21136993 10.39431504 3.07921132 10.25660094 0 10 C-0.66 9.01 -1.32 8.02 -2 7 C-4.5 6.58333333 -4.5 6.58333333 -7 7 C-9.27557135 8.85231097 -9.27557135 8.85231097 -9.265625 11.71484375 C-9.26046875 12.77832031 -9.2553125 13.84179688 -9.25 14.9375 C-9.25515625 15.99839844 -9.2603125 17.05929687 -9.265625 18.15234375 C-9.20859765 21.20171473 -9.20859765 21.20171473 -7 24 C-4.54327108 24.66685938 -4.54327108 24.66685938 -2 24 C-0.1375562 21.59141286 -0.1375562 21.59141286 1 19 C3.64 19.33 6.28 19.66 9 20 C7.75892597 24.96429611 6.23893588 27.13871828 2 30 C-1.7657215 31.88286075 -5.90909149 31.64207084 -10 31 C-14.07143658 28.85674832 -16.42949971 26.16580494 -18.4375 22.0625 C-19.63752455 15.52903302 -19.26370954 10.87467717 -16 5 C-11.26831197 -0.42413018 -7.04553776 -1.08392889 0 0 Z " fill="#F1EDF5" transform="translate(1158,381)"/>
<path d="M0 0 C11.42307692 0 11.42307692 0 15 3 C16.49357569 5.98715138 16.22503435 9.03887936 16.25 12.3125 C16.27578125 13.62863281 16.3015625 14.94476563 16.328125 16.30078125 C15.98788068 20.1366309 15.33103099 21.9843701 13 25 C11 26 11 26 0 26 C0 17.42 0 8.84 0 0 Z " fill="#DFA0A0" transform="translate(1079,378)"/>
<path d="M0 0 C4.24480464 -0.33292585 6.35542625 -0.43885872 9.9375 2 C10.618125 2.66 11.29875 3.32 12 4 C12.33 3.67 12.66 3.34 13 3 C14.66605828 2.9549714 16.33378384 2.96125079 18 3 C20.3997682 3 22.79959544 2.99121324 25.19921875 2.96484375 C26.92591797 2.95130859 26.92591797 2.95130859 28.6875 2.9375 C29.84636719 2.92589844 31.00523437 2.91429687 32.19921875 2.90234375 C35 3 35 3 36 4 C36.125 7.5 36.125 7.5 36 11 C35 12 35 12 32.1640625 12.09765625 C30.99617187 12.08605469 29.82828125 12.07445312 28.625 12.0625 C27.46226562 12.05347656 26.29953125 12.04445313 25.1015625 12.03515625 C24.07804688 12.02355469 23.05453125 12.01195312 22 12 C19.99956602 12 17.99869975 12.04172084 16 12.125 C13 12 13 12 10 10 C9.01 10.66 8.02 11.32 7 12 C4.66800612 12.07905064 2.33167378 12.08798769 0 12 C0 8.04 0 4.08 0 0 Z " fill="#DBB4B8" transform="translate(933,624)"/>
<path d="M0 0 C3.0625 0.125 3.0625 0.125 5.0625 1.125 C4.7325 3.435 4.4025 5.745 4.0625 8.125 C1.0625 9.125 1.0625 9.125 -1.5625 9.5625 C-2.34625 9.748125 -3.13 9.93375 -3.9375 10.125 C-5.05573815 12.36147631 -5.13146061 13.77391529 -5.25390625 16.2578125 C-5.29580078 17.06347656 -5.33769531 17.86914062 -5.38085938 18.69921875 C-5.43983398 19.96185547 -5.43983398 19.96185547 -5.5 21.25 C-5.54318359 22.09949219 -5.58636719 22.94898438 -5.63085938 23.82421875 C-5.73704236 25.92428223 -5.83778497 28.02461948 -5.9375 30.125 C-8.5775 30.125 -11.2175 30.125 -13.9375 30.125 C-13.9375 20.555 -13.9375 10.985 -13.9375 1.125 C-10.60416667 1.125 -7.27083333 1.125 -3.9375 1.125 C-2.9375 0.125 -2.9375 0.125 0 0 Z " fill="#F1EEF5" transform="translate(1282.9375,380.875)"/>
<path d="M0 0 C2.64 0 5.28 0 8 0 C8 9.57 8 19.14 8 29 C5.36 29 2.72 29 0 29 C0 19.43 0 9.86 0 0 Z " fill="#F1EEF6" transform="translate(677,382)"/>
<path d="M0 0 C2.625 0.375 2.625 0.375 5 1 C5.33 2.32 5.66 3.64 6 5 C4.02 5 2.04 5 0 5 C0.33 5.66 0.66 6.32 1 7 C1.9075 6.79375 2.815 6.5875 3.75 6.375 C7.11027897 5.9872755 8.24075815 6.19588033 11 8 C11 7.01 11 6.02 11 5 C9.68 4.67 8.36 4.34 7 4 C7.33 2.68 7.66 1.36 8 0 C11.31248187 -0.02888146 14.62493167 -0.04675799 17.9375 -0.0625 C18.88302734 -0.07087891 19.82855469 -0.07925781 20.80273438 -0.08789062 C22.15141602 -0.09272461 22.15141602 -0.09272461 23.52734375 -0.09765625 C24.77632446 -0.10551147 24.77632446 -0.10551147 26.05053711 -0.11352539 C28 0 28 0 29 1 C29.14115161 3.67058851 29.04247107 6.32432238 29 9 C23.33333333 9 17.66666667 9 12 9 C11.06027344 9.02320313 10.12054687 9.04640625 9.15234375 9.0703125 C7.56099609 9.09738281 7.56099609 9.09738281 5.9375 9.125 C4.87402344 9.14820313 3.81054688 9.17140625 2.71484375 9.1953125 C0 9 0 9 -2 7 C-2.25 4.5 -2.25 4.5 -2 2 C-1.34 1.34 -0.68 0.68 0 0 Z " fill="#DADAE1" transform="translate(948,527)"/>
<path d="M0 0 C2.875 1.1875 2.875 1.1875 4.8125 3.75 C6.20867341 8.26703161 5.98914118 10.58238312 4.875 15.1875 C3.1875 17.75 3.1875 17.75 0.875 19.1875 C-2.1875 19.25 -2.1875 19.25 -5.125 18.1875 C-8.15326297 14.85641073 -8.72149542 11.49900396 -8.5390625 7.12890625 C-7.53140784 2.40433674 -4.62799702 0.27767982 0 0 Z " fill="#DFA1A1" transform="translate(1186.125,386.8125)"/>
<path d="M0 0 C3.31081498 1.44317576 4.06462305 2.73869266 5.4375 6.0625 C5.84938201 9.90673208 5.72799921 12.35918613 4.25 15.9375 C2.4375 18.0625 2.4375 18.0625 0 19.125 C-2.5625 19.0625 -2.5625 19.0625 -4.875 17.8125 C-7.5554329 13.44438713 -7.31013666 9.04674438 -6.5625 4.0625 C-4.57583063 0.82496473 -3.78670918 0.09235876 0 0 Z " fill="#DFA1A1" transform="translate(1218.5625,386.9375)"/>
<path d="M0 0 C2.4375 1 2.4375 1 4.3125 3 C5.85239902 7.1063974 5.68127933 10.79634074 4.4375 15 C2.58673964 17.31086559 1.89872952 17.91928483 -1.0625 18.4375 C-3.5625 18 -3.5625 18 -5.19140625 16.3203125 C-6.85450656 13.50583506 -6.99557459 11.6901766 -7 8.4375 C-7.01933594 7.48746094 -7.03867187 6.53742188 -7.05859375 5.55859375 C-6.5625 3 -6.5625 3 -4.6953125 1.16015625 C-2.5625 0 -2.5625 0 0 0 Z " fill="#DFA1A1" transform="translate(1004.5625,387)"/>
<path d="M0 0 C1.423125 -0.061875 2.84625 -0.12375 4.3125 -0.1875 C5.51326172 -0.23970703 5.51326172 -0.23970703 6.73828125 -0.29296875 C9 0 9 0 10.76953125 1.265625 C12.87754055 4.2369143 12.4792951 7.54768601 12 11 C11.0625 13.5 11.0625 13.5 9 15 C5.92076209 15.3275785 3.11411312 15.1805283 0 15 C0 10.05 0 5.1 0 0 Z " fill="#E4EBDB" transform="translate(163,27)"/>
<path d="M0 0 C2.08268593 -0.08126087 4.16628658 -0.13930839 6.25 -0.1875 C7.99023438 -0.23970703 7.99023438 -0.23970703 9.765625 -0.29296875 C13.22268407 0.02017066 14.51565563 0.65709108 17 3 C16.6875 5.375 16.6875 5.375 16 8 C12.36804504 10.42130331 10.61650652 10.21022785 6.3125 10.125 C5.13300781 10.10695313 3.95351563 10.08890625 2.73828125 10.0703125 C1.83464844 10.04710937 0.93101562 10.02390625 0 10 C0 6.7 0 3.4 0 0 Z " fill="#DFA1A2" transform="translate(645,394)"/>
<path d="M0 0 C6.0546875 -0.1953125 6.0546875 -0.1953125 8 0 C10 2 10 2 10.0625 4.5625 C10.041875 5.366875 10.02125 6.17125 10 7 C10.33 7.33 10.66 7.66 11 8 C11.1875 10.4375 11.1875 10.4375 11 13 C9 15 9 15 6.8359375 15.1953125 C4.55729167 15.13020833 2.27864583 15.06510417 0 15 C0 10.05 0 5.1 0 0 Z " fill="#E6EEE2" transform="translate(14,27)"/>
<path d="M0 0 C1.32 0 2.64 0 4 0 C4.99 2.97 5.98 5.94 7 9 C8.32 6.03 9.64 3.06 11 0 C11.99 0 12.98 0 14 0 C14 4.95 14 9.9 14 15 C13.34 15 12.68 15 12 15 C11.67 13.02 11.34 11.04 11 9 C10.01 10.98 9.02 12.96 8 15 C7.34 15 6.68 15 6 15 C5.34 13.35 4.68 11.7 4 10 C3.67 11.65 3.34 13.3 3 15 C2.01 15 1.02 15 0 15 C0 10.05 0 5.1 0 0 Z " fill="#C6CAB8" transform="translate(76,27)"/>
<path d="M0 0 C2.12472576 -0.05386629 4.24983652 -0.09273071 6.375 -0.125 C7.55835938 -0.14820313 8.74171875 -0.17140625 9.9609375 -0.1953125 C13 0 13 0 15 2 C15.3125 4.5 15.3125 4.5 15 7 C11.47320901 9.35119399 9.97120515 9.21443452 5.8125 9.125 C4.72582031 9.10695313 3.63914062 9.08890625 2.51953125 9.0703125 C1.27236328 9.03550781 1.27236328 9.03550781 0 9 C0 6.03 0 3.06 0 0 Z " fill="#DFA1A1" transform="translate(645,378)"/>
<path d="M0 0 C0.05386629 2.12472576 0.09273071 4.24983652 0.125 6.375 C0.14820313 7.55835938 0.17140625 8.74171875 0.1953125 9.9609375 C0 13 0 13 -2 15 C-5.125 15.125 -5.125 15.125 -8 15 C-8.33 14.01 -8.66 13.02 -9 12 C-6.03 12.495 -6.03 12.495 -3 13 C-3 12.34 -3 11.68 -3 11 C-4.175625 11.0928125 -4.175625 11.0928125 -5.375 11.1875 C-6.674375 11.0946875 -6.674375 11.0946875 -8 11 C-10 8 -10 8 -9.75 4.375 C-9.5025 3.26125 -9.255 2.1475 -9 1 C-6.04335481 -0.4783226 -3.25770263 -0.06032783 0 0 Z " fill="#DEDCCC" transform="translate(144,31)"/>
<path d="M0 0 C0.66 0 1.32 0 2 0 C2 4.95 2 9.9 2 15 C-0.31 15 -2.62 15 -5 15 C-7 13 -7 13 -7.25 9.5 C-7 6 -7 6 -5 4 C-3.68 4 -2.36 4 -1 4 C-0.67 2.68 -0.34 1.36 0 0 Z " fill="#CDE0DD" transform="translate(216,27)"/>
<path d="M0 0 C2.8125 -0.25 2.8125 -0.25 6 0 C7.875 2 7.875 2 9 4 C10.65 3.67 12.3 3.34 14 3 C14 2.34 14 1.68 14 1 C12.35 1.33 10.7 1.66 9 2 C9 1.34 9 0.68 9 0 C10.99954746 -0.04254356 13.00041636 -0.04080783 15 0 C16 1 16 1 16.09765625 2.84765625 C16.06510417 4.8984375 16.03255208 6.94921875 16 9 C12.66666667 9 9.33333333 9 6 9 C5.67 6.69 5.34 4.38 5 2 C4.34 2 3.68 2 3 2 C2.67 4.31 2.34 6.62 2 9 C1.34 9 0.68 9 0 9 C0 6.03 0 3.06 0 0 Z " fill="#A9A9AD" transform="translate(895,527)"/>
<path d="M0 0 C2.5 0.25 2.5 0.25 4.5 2.25 C4.75 5.75 4.75 5.75 4.5 9.25 C2.5 11.25 2.5 11.25 0 11.5 C-2.5 11.25 -2.5 11.25 -4.5 9.25 C-4.75 5.75 -4.75 5.75 -4.5 2.25 C-2.5 0.25 -2.5 0.25 0 0 Z " fill="#D8E4E3" transform="translate(202.5,30.75)"/>
<path d="M0 0 C2.64 0 5.28 0 8 0 C8.66 1.65 9.32 3.3 10 5 C10.268125 4.360625 10.53625 3.72125 10.8125 3.0625 C12 1 12 1 15 0 C11.92482916 10.55808656 11.92482916 10.55808656 10 15 C8.68 15 7.36 15 6 15 C6 14.34 6 13.68 6 13 C6.99 13 7.98 13 9 13 C8.60446947 11.3489597 8.18286103 9.7041485 7.75 8.0625 C7.51796875 7.14597656 7.2859375 6.22945312 7.046875 5.28515625 C6.70140625 4.53105469 6.3559375 3.77695312 6 3 C4.68 2.67 3.36 2.34 2 2 C2 4.97 2 7.94 2 11 C1.34 11 0.68 11 0 11 C0 7.37 0 3.74 0 0 Z " fill="#D5DCCF" transform="translate(54,31)"/>
<path d="M0 0 C2.875 -0.125 2.875 -0.125 6 0 C8 2 8 2 8.25 4.9375 C8 8 8 8 6 11 C2.875 11.1875 2.875 11.1875 0 11 C0 7.37 0 3.74 0 0 Z " fill="#130912" transform="translate(165,29)"/>
<path d="M0 0 C3.625 0.375 3.625 0.375 7 1 C7.33 2.65 7.66 4.3 8 6 C5.36 6 2.72 6 0 6 C0.33 6.66 0.66 7.32 1 8 C3.02463255 8.65213292 3.02463255 8.65213292 5 9 C5 8.34 5 7.68 5 7 C5.99 7 6.98 7 8 7 C7.34 8.32 6.68 9.64 6 11 C3.125 11.125 3.125 11.125 0 11 C-2 9 -2 9 -2.25 5.5 C-2 2 -2 2 0 0 Z " fill="#B8BDB8" transform="translate(222,31)"/>
<path d="M0 0 C3.0625 -0.25 3.0625 -0.25 6 0 C7.66342837 1.66342837 7.36048097 3.7825709 7.5625 6.0625 C7.64628906 6.98160156 7.73007813 7.90070312 7.81640625 8.84765625 C7.87699219 9.55792969 7.93757812 10.26820312 8 11 C5.03 11 2.06 11 -1 11 C-1.33 9.35 -1.66 7.7 -2 6 C1 4 1 4 5 4 C5 3.34 5 2.68 5 2 C2.69 2.33 0.38 2.66 -2 3 C-1.34 2.01 -0.68 1.02 0 0 Z " fill="#949EA3" transform="translate(125,31)"/>
<path d="M0 0 C3.0625 -0.25 3.0625 -0.25 6 0 C7.66342837 1.66342837 7.36048097 3.7825709 7.5625 6.0625 C7.64628906 6.98160156 7.73007812 7.90070312 7.81640625 8.84765625 C7.87699219 9.55792969 7.93757813 10.26820312 8 11 C5.03 11 2.06 11 -1 11 C-1.33 9.35 -1.66 7.7 -2 6 C1 4 1 4 5 4 C5 3.34 5 2.68 5 2 C2.69 2.33 0.38 2.66 -2 3 C-1.34 2.01 -0.68 1.02 0 0 Z " fill="#949EA3" transform="translate(44,31)"/>
<path d="M0 0 C3.0625 0.1875 3.0625 0.1875 5.0625 2.1875 C5.0625 3.5075 5.0625 4.8275 5.0625 6.1875 C2.4225 6.1875 -0.2175 6.1875 -2.9375 6.1875 C-2.6075 6.8475 -2.2775 7.5075 -1.9375 8.1875 C1.5275 7.6925 1.5275 7.6925 5.0625 7.1875 C4.4025 8.5075 3.7425 9.8275 3.0625 11.1875 C0.1875 11.375 0.1875 11.375 -2.9375 11.1875 C-4.9375 8.1875 -4.9375 8.1875 -4.625 4.5625 C-3.74428643 0.23899701 -3.74428643 0.23899701 0 0 Z " fill="#B2B0A8" transform="translate(96.9375,30.8125)"/>
<path d="M0 0 C0.94875 0.04125 1.8975 0.0825 2.875 0.125 C2.90187279 1.93742052 2.92133715 3.74995233 2.9375 5.5625 C2.94910156 6.57183594 2.96070313 7.58117187 2.97265625 8.62109375 C2.875 11.125 2.875 11.125 1.875 12.125 C-0.12458364 12.16580783 -2.12545254 12.16754356 -4.125 12.125 C-3.795 11.465 -3.465 10.805 -3.125 10.125 C-1.805 10.455 -0.485 10.785 0.875 11.125 C0.875 10.465 0.875 9.805 0.875 9.125 C0.070625 8.980625 -0.73375 8.83625 -1.5625 8.6875 C-4.125 8.125 -4.125 8.125 -5.125 7.125 C-5.3125 4.6875 -5.3125 4.6875 -5.125 2.125 C-3.125 0.125 -3.125 0.125 0 0 Z " fill="#8F8F92" transform="translate(983.125,526.875)"/>
<path d="M0 0 C0.66 0 1.32 0 2 0 C2 4.29 2 8.58 2 13 C-0.33294775 13.04241723 -2.66702567 13.04092937 -5 13 C-6 12 -6 12 -6.1875 9.0625 C-6 6 -6 6 -4 4 C-2.68 4 -1.36 4 0 4 C0 2.68 0 1.36 0 0 Z " fill="#E8D5DB" transform="translate(976,623)"/>
<path d="M0 0 C2 2 2 2 2 6 C-0.31 6 -2.62 6 -5 6 C-5 6.99 -5 7.98 -5 9 C-2.69 8.34 -0.38 7.68 2 7 C1.34 8.32 0.68 9.64 0 11 C-4.44936709 11.36075949 -4.44936709 11.36075949 -6.8125 9.8125 C-8.42525784 7.35092224 -8.4334014 5.88934264 -8 3 C-5.84871852 -0.2835349 -3.77529378 -0.48401202 0 0 Z " fill="#CCD8D6" transform="translate(153,31)"/>
<path d="M0 0 C0.66 0 1.32 0 2 0 C2 1.32 2 2.64 2 4 C2.804375 4.144375 3.60875 4.28875 4.4375 4.4375 C7 5 7 5 8 6 C8.1875 8.4375 8.1875 8.4375 8 11 C7.34 11.66 6.68 12.32 6 13 C4.02 13 2.04 13 0 13 C0 8.71 0 4.42 0 0 Z " fill="#909095" transform="translate(882,523)"/>
<path d="M0 0 C2.625 0.375 2.625 0.375 5 1 C5.33 2.32 5.66 3.64 6 5 C4.02 5 2.04 5 0 5 C0.33 5.66 0.66 6.32 1 7 C1.9075 6.79375 2.815 6.5875 3.75 6.375 C7.11027897 5.9872755 8.24075815 6.19588033 11 8 C11 7.01 11 6.02 11 5 C9.68 4.67 8.36 4.34 7 4 C7.33 3.01 7.66 2.02 8 1 C8 1.66 8 2.32 8 3 C9.65 3.33 11.3 3.66 13 4 C12.67 5.65 12.34 7.3 12 9 C10.04196493 9.05389087 8.08351091 9.09274217 6.125 9.125 C5.03445313 9.14820313 3.94390625 9.17140625 2.8203125 9.1953125 C0 9 0 9 -2 7 C-2.25 4.5 -2.25 4.5 -2 2 C-1.34 1.34 -0.68 0.68 0 0 Z " fill="#8A8A8E" transform="translate(948,527)"/>
<path d="M0 0 C2.5 0.25 2.5 0.25 4.5 2.25 C4.5 3.57 4.5 4.89 4.5 6.25 C2.19 6.25 -0.12 6.25 -2.5 6.25 C-2.17 6.91 -1.84 7.57 -1.5 8.25 C0.48 7.92 2.46 7.59 4.5 7.25 C3.84 8.57 3.18 9.89 2.5 11.25 C0.125 11.375 0.125 11.375 -2.5 11.25 C-4.5 9.25 -4.5 9.25 -4.75 5.75 C-4.46177779 1.71488904 -4.15174939 0.41517494 0 0 Z " fill="#BEC3BF" transform="translate(181.5,30.75)"/>
<path d="M0 0 C2.64120209 0.18426991 5.10872909 0.59806665 7.6875 1.1875 C7.3575 3.8275 7.0275 6.4675 6.6875 9.1875 C6.0275 9.1875 5.3675 9.1875 4.6875 9.1875 C4.6875 7.8675 4.6875 6.5475 4.6875 5.1875 C2.3775 5.1875 0.0675 5.1875 -2.3125 5.1875 C-1.9825 5.8475 -1.6525 6.5075 -1.3125 7.1875 C0.3375 7.1875 1.9875 7.1875 3.6875 7.1875 C3.6875 7.8475 3.6875 8.5075 3.6875 9.1875 C0.8125 9.3125 0.8125 9.3125 -2.3125 9.1875 C-4.3125 7.1875 -4.3125 7.1875 -4.5625 4.6875 C-4.22694814 1.33198143 -3.40990865 0.27647908 0 0 Z " fill="#A5A5A9" transform="translate(851.3125,526.8125)"/>
<path d="M0 0 C3.96 0 7.92 0 12 0 C10.68 0.33 9.36 0.66 8 1 C8 1.66 8 2.32 8 3 C9.32 3.33 10.64 3.66 12 4 C12 5.32 12 6.64 12 8 C9.625 8.625 9.625 8.625 7 9 C6.34 8.34 5.68 7.68 5 7 C5 6.01 5 5.02 5 4 C3.35 3.67 1.7 3.34 0 3 C0 2.01 0 1.02 0 0 Z " fill="#B5B5BA" transform="translate(956,527)"/>
<path d="M0 0 C6.15234375 -0.09765625 6.15234375 -0.09765625 8 0 C9 1 9 1 9.09765625 3.28515625 C9.08605469 4.20167969 9.07445312 5.11820313 9.0625 6.0625 C9.05347656 6.98160156 9.04445313 7.90070312 9.03515625 8.84765625 C9.02355469 9.55792969 9.01195312 10.26820312 9 11 C8.34 11 7.68 11 7 11 C7 8.03 7 5.06 7 2 C5.68 2 4.36 2 3 2 C3 4.97 3 7.94 3 11 C2.01 11 1.02 11 0 11 C0 7.37 0 3.74 0 0 Z " fill="#B3CBC5" transform="translate(31,31)"/>
<path d="M0 0 C3.125 0.375 3.125 0.375 6 1 C6.66 2.98 7.32 4.96 8 7 C4.37 7 0.74 7 -3 7 C-2 2 -2 2 0 0 Z " fill="#DFA2A2" transform="translate(1034,387)"/>
<path d="M0 0 C3.125 0.375 3.125 0.375 6 1 C6.66 2.98 7.32 4.96 8 7 C4.37 7 0.74 7 -3 7 C-2 2 -2 2 0 0 Z " fill="#DFA2A2" transform="translate(878,387)"/>
<path d="M0 0 C3.125 0.375 3.125 0.375 6 1 C6.33 2.98 6.66 4.96 7 7 C3.7 7 0.4 7 -3 7 C-2.25 2.25 -2.25 2.25 0 0 Z " fill="#DFA2A2" transform="translate(1248,387)"/>
<path d="M0 0 C3.29714793 0.32971479 4.6226839 0.6226839 7 3 C7 4.32 7 5.64 7 7 C3.7 7 0.4 7 -3 7 C-2.25 2.25 -2.25 2.25 0 0 Z " fill="#DFA1A1" transform="translate(1120,387)"/>
<path d="M0 0 C2.31 0 4.62 0 7 0 C7.33 1.65 7.66 3.3 8 5 C8.66 5 9.32 5 10 5 C10.33 3.35 10.66 1.7 11 0 C11.66 0 12.32 0 13 0 C11.66666667 4 10.33333333 8 9 12 C8.34 12 7.68 12 7 12 C6.67 8.37 6.34 4.74 6 1 C5.01 1.33 4.02 1.66 3 2 C2.67 4.31 2.34 6.62 2 9 C1.34 9 0.68 9 0 9 C0 6.03 0 3.06 0 0 Z " fill="#939397" transform="translate(913,527)"/>
<path d="M0 0 C2.64 0 5.28 0 8 0 C8 2.31 8 4.62 8 7 C5.36 7 2.72 7 0 7 C0 4.69 0 2.38 0 0 Z " fill="#F1EEF6" transform="translate(677,371)"/>
<path d="M0 0 C-0.3125 2.875 -0.3125 2.875 -1 6 C-4 8 -4 8 -6.6875 7.625 C-7.450625 7.41875 -8.21375 7.2125 -9 7 C-9.33 5.68 -9.66 4.36 -10 3 C-8.70990357 2.49596232 -7.41786211 1.99690074 -6.125 1.5 C-5.04605469 1.08234375 -5.04605469 1.08234375 -3.9453125 0.65625 C-2 0 -2 0 0 0 Z " fill="#E0A5A5" transform="translate(741,398)"/>
<path d="M0 0 C1.99954746 -0.04254356 4.00041636 -0.04080783 6 0 C7 1 7 1 7.09765625 2.84765625 C7.04882812 5.92382812 7.04882812 5.92382812 7 9 C4.69 9 2.38 9 0 9 C-0.625 7.125 -0.625 7.125 -1 5 C-0.34 4.34 0.32 3.68 1 3 C2.32 3 3.64 3 5 3 C5 2.34 5 1.68 5 1 C3.35 1.33 1.7 1.66 0 2 C0 1.34 0 0.68 0 0 Z " fill="#A6A6AB" transform="translate(868,527)"/>
<path d="M0 0 C1.2065625 0.0309375 1.2065625 0.0309375 2.4375 0.0625 C2.7675 1.0525 3.0975 2.0425 3.4375 3.0625 C1.7875 2.7325 0.1375 2.4025 -1.5625 2.0625 C-1.5625 2.7225 -1.5625 3.3825 -1.5625 4.0625 C0.4175 4.7225 2.3975 5.3825 4.4375 6.0625 C3.5625 9.9375 3.5625 9.9375 2.4375 11.0625 C0.77132885 11.10313832 -0.89638095 11.105221 -2.5625 11.0625 C-3.2225 9.7425 -3.8825 8.4225 -4.5625 7.0625 C-2.2525 7.7225 0.0575 8.3825 2.4375 9.0625 C2.4375 8.4025 2.4375 7.7425 2.4375 7.0625 C0.7875 6.7325 -0.8625 6.4025 -2.5625 6.0625 C-2.94468767 4.40635343 -3.27645102 2.73792976 -3.5625 1.0625 C-2.5625 0.0625 -2.5625 0.0625 0 0 Z " fill="#DEDBCF" transform="translate(117.5625,30.9375)"/>
<path d="M0 0 C1.2065625 0.0309375 1.2065625 0.0309375 2.4375 0.0625 C2.7675 1.0525 3.0975 2.0425 3.4375 3.0625 C1.7875 2.7325 0.1375 2.4025 -1.5625 2.0625 C-1.5625 2.7225 -1.5625 3.3825 -1.5625 4.0625 C0.4175 4.7225 2.3975 5.3825 4.4375 6.0625 C3.5625 9.9375 3.5625 9.9375 2.4375 11.0625 C0.77132885 11.10313832 -0.89638095 11.105221 -2.5625 11.0625 C-3.2225 9.7425 -3.8825 8.4225 -4.5625 7.0625 C-2.2525 7.7225 0.0575 8.3825 2.4375 9.0625 C2.4375 8.4025 2.4375 7.7425 2.4375 7.0625 C0.7875 6.7325 -0.8625 6.4025 -2.5625 6.0625 C-2.94468767 4.40635343 -3.27645102 2.73792976 -3.5625 1.0625 C-2.5625 0.0625 -2.5625 0.0625 0 0 Z " fill="#DEDBCF" transform="translate(107.5625,30.9375)"/>
<path d="M0 0 C0.1875 2.375 0.1875 2.375 0 5 C-3 7 -3 7 -5.6875 6.625 C-6.450625 6.41875 -7.21375 6.2125 -8 6 C-8.33 4.68 -8.66 3.36 -9 2 C-5.5647952 -0.29013653 -4.014669 -0.17842973 0 0 Z " fill="#DFA3A4" transform="translate(976,399)"/>
<path d="M0 0 C0.78375 0.04125 1.5675 0.0825 2.375 0.125 C2.705 1.775 3.035 3.425 3.375 5.125 C1.395 5.125 -0.585 5.125 -2.625 5.125 C-2.295 5.785 -1.965 6.445 -1.625 7.125 C0.025 7.125 1.675 7.125 3.375 7.125 C3.375 7.785 3.375 8.445 3.375 9.125 C0.5 9.25 0.5 9.25 -2.625 9.125 C-4.625 7.125 -4.625 7.125 -4.875 4.625 C-4.51649553 1.03995533 -3.59522993 0.17120143 0 0 Z " fill="#DFBDC2" transform="translate(983.625,626.875)"/>
<path d="M0 0 C0.78375 0.04125 1.5675 0.0825 2.375 0.125 C3.035 1.445 3.695 2.765 4.375 4.125 C2.065 3.465 -0.245 2.805 -2.625 2.125 C-2.295 4.105 -1.965 6.085 -1.625 8.125 C0.355 7.795 2.335 7.465 4.375 7.125 C3.715 8.445 3.055 9.765 2.375 11.125 C0 11.25 0 11.25 -2.625 11.125 C-4.625 9.125 -4.625 9.125 -4.875 5.625 C-4.58138251 1.51435512 -4.25902123 0.20281053 0 0 Z " fill="#D8DACD" transform="translate(192.625,30.875)"/>
<path d="M0 0 C1.65 0 3.3 0 5 0 C5.33 1.65 5.66 3.3 6 5 C4.02 5 2.04 5 0 5 C0.33 5.66 0.66 6.32 1 7 C2.65 7 4.3 7 6 7 C6 7.66 6 8.32 6 9 C4.02 9 2.04 9 0 9 C-1.125 6.75 -1.125 6.75 -2 4 C-1.125 1.6875 -1.125 1.6875 0 0 Z " fill="#A3A3A8" transform="translate(989,527)"/>
<path d="M0 0 C4 1 4 1 5 2 C5.1875 4.9375 5.1875 4.9375 5 8 C4.34 8.66 3.68 9.32 3 10 C2.01 10 1.02 10 0 10 C0 6.7 0 3.4 0 0 Z " fill="#B75858" transform="translate(936,625)"/>
<path d="M0 0 C2.64 0.33 5.28 0.66 8 1 C8 2.65 8 4.3 8 6 C5.6739143 6.38063221 3.33944736 6.71269945 1 7 C0 6 0 6 -0.0625 2.9375 C-0.041875 1.968125 -0.02125 0.99875 0 0 Z " fill="#0A131F" transform="translate(190,33)"/>
<path d="M0 0 C0.99 0 1.98 0 3 0 C3 4.95 3 9.9 3 15 C2.34 15 1.68 15 1 15 C0.67 12.36 0.34 9.72 0 7 C-0.33 7 -0.66 7 -1 7 C-0.67 4.69 -0.34 2.38 0 0 Z " fill="#D8EADF" transform="translate(87,27)"/>
<path d="M0 0 C0.3403125 0.928125 0.3403125 0.928125 0.6875 1.875 C2.37929835 4.61410209 3.99244161 5.05024472 7 6 C7 6.66 7 7.32 7 8 C6.33613281 7.91621094 5.67226562 7.83242188 4.98828125 7.74609375 C-1.54720848 6.94574958 -1.54720848 6.94574958 -8 8 C-8.33 7.01 -8.66 6.02 -9 5 C-6.03 5 -3.06 5 0 5 C0 3.35 0 1.7 0 0 Z " fill="#151F2C" transform="translate(103,32)"/>
<path d="M0 0 C0.226875 0.61875 0.45375 1.2375 0.6875 1.875 C2.37929835 4.61410209 3.99244161 5.05024472 7 6 C7 6.66 7 7.32 7 8 C1.93001981 7.34580901 -2.41990777 5.1453591 -7 3 C-7 2.34 -7 1.68 -7 1 C-5.5459375 1.0309375 -5.5459375 1.0309375 -4.0625 1.0625 C-1.12534105 1.35618499 -1.12534105 1.35618499 0 0 Z " fill="#131B27" transform="translate(113,32)"/>
<path d="M0 0 C1.65 0.33 3.3 0.66 5 1 C5 2.65 5 4.3 5 6 C3.35 6.33 1.7 6.66 0 7 C-1.125 2.25 -1.125 2.25 0 0 Z " fill="#B75959" transform="translate(956,628)"/>
<path d="M0 0 C4.62 0 9.24 0 14 0 C14 0.66 14 1.32 14 2 C8.89119171 4.37823834 8.89119171 4.37823834 6 5 C2.5 3.6875 2.5 3.6875 0 2 C0 1.34 0 0.68 0 0 Z " fill="#0A0709" transform="translate(116,33)"/>
<path d="M0 0 C1.98 0 3.96 0 6 0 C6.5625 1.9375 6.5625 1.9375 7 4 C6 5 6 5 2.9375 5.0625 C1.4834375 5.0315625 1.4834375 5.0315625 0 5 C0 3.35 0 1.7 0 0 Z " fill="#100D17" transform="translate(16,35)"/>
<path d="M0 0 C1.32 0 2.64 0 4 0 C4 2.31 4 4.62 4 7 C2.35 6.67 0.7 6.34 -1 6 C-1.042721 4.33388095 -1.04063832 2.66617115 -1 1 C-0.67 0.67 -0.34 0.34 0 0 Z " fill="#06070E" transform="translate(201,33)"/>
<path d="M0 0 C2.475 0.495 2.475 0.495 5 1 C5 2.65 5 4.3 5 6 C3.35 6.33 1.7 6.66 0 7 C0 4.69 0 2.38 0 0 Z " fill="#0A111F" transform="translate(137,33)"/>
<path d="M0 0 C0.99 0 1.98 0 3 0 C2.67 4.95 2.34 9.9 2 15 C1.34 15 0.68 15 0 15 C0 10.05 0 5.1 0 0 Z " fill="#C9E7F5" transform="translate(76,27)"/>
<path d="M0 0 C1.99954746 -0.04254356 4.00041636 -0.04080783 6 0 C7 1 7 1 7.09765625 2.84765625 C7.06510417 4.8984375 7.03255208 6.94921875 7 9 C6.67 9 6.34 9 6 9 C5.67 6.69 5.34 4.38 5 2 C4.34 2 3.68 2 3 2 C2.67 4.31 2.34 6.62 2 9 C1.34 9 0.68 9 0 9 C0 6.03 0 3.06 0 0 Z " fill="#8E8E92" transform="translate(833,527)"/>
<path d="M0 0 C3.0625 -0.25 3.0625 -0.25 6 0 C7.66342837 1.66342837 7.36048097 3.7825709 7.5625 6.0625 C7.64628906 6.98160156 7.73007813 7.90070312 7.81640625 8.84765625 C7.87699219 9.55792969 7.93757812 10.26820312 8 11 C6.68 10.34 5.36 9.68 4 9 C4.66 9 5.32 9 6 9 C5.67 6.69 5.34 4.38 5 2 C2.69 2.33 0.38 2.66 -2 3 C-1.34 2.01 -0.68 1.02 0 0 Z " fill="#DBE2DB" transform="translate(125,31)"/>
<path d="M0 0 C3.0625 -0.25 3.0625 -0.25 6 0 C7.66342837 1.66342837 7.36048097 3.7825709 7.5625 6.0625 C7.64628906 6.98160156 7.73007812 7.90070312 7.81640625 8.84765625 C7.87699219 9.55792969 7.93757813 10.26820312 8 11 C6.68 10.34 5.36 9.68 4 9 C4.66 9 5.32 9 6 9 C5.67 6.69 5.34 4.38 5 2 C2.69 2.33 0.38 2.66 -2 3 C-1.34 2.01 -0.68 1.02 0 0 Z " fill="#DBE2DB" transform="translate(44,31)"/>
<path d="M0 0 C2.31 0 4.62 0 7 0 C6.67 0.99 6.34 1.98 6 3 C4.68 2.67 3.36 2.34 2 2 C2 4.97 2 7.94 2 11 C1.34 11 0.68 11 0 11 C0 7.37 0 3.74 0 0 Z " fill="#DBD9C6" transform="translate(54,31)"/>
<path d="M0 0 C1.99954746 -0.04254356 4.00041636 -0.04080783 6 0 C7 1 7 1 7.09765625 2.84765625 C7.06510417 4.8984375 7.03255208 6.94921875 7 9 C5.02 9 3.04 9 1 9 C1.99 8.34 2.98 7.68 4 7 C4.33 6.01 4.66 5.02 5 4 C4.01 3.67 3.02 3.34 2 3 C2.99 3 3.98 3 5 3 C5 2.34 5 1.68 5 1 C3.35 1.33 1.7 1.66 0 2 C0 1.34 0 0.68 0 0 Z " fill="#8C8C90" transform="translate(970,527)"/>
<path d="M0 0 C1.99954746 -0.04254356 4.00041636 -0.04080783 6 0 C7 1 7 1 7.09765625 2.84765625 C7.06510417 4.8984375 7.03255208 6.94921875 7 9 C5.02 9 3.04 9 1 9 C1.99 8.34 2.98 7.68 4 7 C4.33 6.01 4.66 5.02 5 4 C4.01 3.67 3.02 3.34 2 3 C2.99 3 3.98 3 5 3 C5 2.34 5 1.68 5 1 C3.35 1.33 1.7 1.66 0 2 C0 1.34 0 0.68 0 0 Z " fill="#8C8C90" transform="translate(904,527)"/>
<path d="M0 0 C1.65 0 3.3 0 5 0 C4.01 0.33 3.02 0.66 2 1 C2 3.31 2 5.62 2 8 C2.99 8.33 3.98 8.66 5 9 C3.68 9.33 2.36 9.66 1 10 C-1.56687367 6.1496895 -0.83288724 4.41430237 0 0 Z " fill="#B3C3BF" transform="translate(135,32)"/>
<path d="M0 0 C2.0625 0.4375 2.0625 0.4375 4 1 C4 2.65 4 4.3 4 6 C2.0625 6.5625 2.0625 6.5625 0 7 C-1 6 -1 6 -1.125 3.5 C-1 1 -1 1 0 0 Z " fill="#160406" transform="translate(212,33)"/>
<path d="M0 0 C0.66 0 1.32 0 2 0 C2 0.99 2 1.98 2 3 C2.99 3.33 3.98 3.66 5 4 C4.01 4 3.02 4 2 4 C2 6.31 2 8.62 2 11 C2.99 11.33 3.98 11.66 5 12 C3.68 12 2.36 12 1 12 C0.63597631 10.56496445 0.28413409 9.12683494 -0.0625 7.6875 C-0.25972656 6.88699219 -0.45695313 6.08648438 -0.66015625 5.26171875 C-1 3 -1 3 0 0 Z " fill="#929296" transform="translate(842,524)"/>
<path d="M0 0 C0.33 0 0.66 0 1 0 C1 2.97 1 5.94 1 9 C3.49004504 8.43923199 3.49004504 8.43923199 6 7 C7.37189827 3.97017694 7.37189827 3.97017694 8 1 C8.33 1 8.66 1 9 1 C9.1875 4.375 9.1875 4.375 9 8 C5.5647952 10.29013653 4.014669 10.17842973 0 10 C0 6.7 0 3.4 0 0 Z " fill="#EDE2E8" transform="translate(934,626)"/>
<path d="M0 0 C2 3 2 3 3 5 C6.465 4.505 6.465 4.505 10 4 C9.34 5.32 8.68 6.64 8 8 C5.125 8.1875 5.125 8.1875 2 8 C-0.1519437 4.77208445 -0.20086443 3.71599191 0 0 Z " fill="#C9D5D5" transform="translate(92,34)"/>
<path d="M0 0 C1.65 0 3.3 0 5 0 C5 0.66 5 1.32 5 2 C4.01 2 3.02 2 2 2 C2 4.97 2 7.94 2 11 C1.34 11 0.68 11 0 11 C0 7.37 0 3.74 0 0 Z " fill="#E3DCC1" transform="translate(232,31)"/>
<path d="M0 0 C0.99 0 1.98 0 3 0 C3 2.31 3 4.62 3 7 C1.68 6.67 0.36 6.34 -1 6 C-1.042721 4.33388095 -1.04063832 2.66617115 -1 1 C-0.67 0.67 -0.34 0.34 0 0 Z " fill="#EDEDF5" transform="translate(981,528)"/>
<path d="M0 0 C1.67542976 0.28604898 3.34385343 0.61781233 5 1 C5.33 2.32 5.66 3.64 6 5 C3.69 4.67 1.38 4.34 -1 4 C-1 1 -1 1 0 0 Z " fill="#B5B5BB" transform="translate(948,527)"/>
<path d="M0 0 C0.66 0 1.32 0 2 0 C2 1.98 2 3.96 2 6 C1.01 6 0.02 6 -1 6 C-4.27773504 6.75150023 -4.27773504 6.75150023 -6 10 C-5.67 8.35 -5.34 6.7 -5 5 C-3.35 4.67 -1.7 4.34 0 4 C0 2.68 0 1.36 0 0 Z " fill="#ECDEE4" transform="translate(976,623)"/>
<path d="M0 0 C0.99 0.33 1.98 0.66 3 1 C3 2.65 3 4.3 3 6 C1.68 6.33 0.36 6.66 -1 7 C-1.04254356 5.00045254 -1.04080783 2.99958364 -1 1 C-0.67 0.67 -0.34 0.34 0 0 Z " fill="#F0F0F8" transform="translate(885,528)"/>
<path d="M0 0 C0.99 0.33 1.98 0.66 3 1 C3 2.65 3 4.3 3 6 C1.68 6 0.36 6 -1 6 C-1.042721 4.33388095 -1.04063832 2.66617115 -1 1 C-0.67 0.67 -0.34 0.34 0 0 Z " fill="#B75858" transform="translate(973,628)"/>
<path d="M0 0 C0.99 0.33 1.98 0.66 3 1 C3 2.65 3 4.3 3 6 C1.68 6 0.36 6 -1 6 C-1.042721 4.33388095 -1.04063832 2.66617115 -1 1 C-0.67 0.67 -0.34 0.34 0 0 Z " fill="#B75858" transform="translate(964,628)"/>
<path d="M0 0 C2.4375 0.1875 2.4375 0.1875 3.4375 1.1875 C3.47830783 3.18708364 3.48004356 5.18795254 3.4375 7.1875 C1.4375 4.1875 1.4375 4.1875 0.4375 2.1875 C-2.67582248 2.85618314 -2.67582248 2.85618314 -3.75 5.25 C-4.018125 5.889375 -4.28625 6.52875 -4.5625 7.1875 C-4.6875 4.8125 -4.6875 4.8125 -4.5625 2.1875 C-2.5625 0.1875 -2.5625 0.1875 0 0 Z " fill="#EADAE0" transform="translate(965.5625,626.8125)"/>
<path d="M0 0 C1.32 0.66 2.64 1.32 4 2 C3.01 2.33 2.02 2.66 1 3 C1 4.98 1 6.96 1 9 C0.01 9 -0.98 9 -2 9 C-2.125 5.625 -2.125 5.625 -2 2 C-1.34 1.34 -0.68 0.68 0 0 Z " fill="#DAD5C4" transform="translate(200,31)"/>
<path d="M0 0 C1.98 0 3.96 0 6 0 C5.67 1.32 5.34 2.64 5 4 C3.35 4 1.7 4 0 4 C0 2.68 0 1.36 0 0 Z " fill="#130614" transform="translate(16,29)"/>
<path d="M0 0 C2.50356732 3.75535098 1.9608592 4.86889414 1.125 9.1875 C0.92132813 10.27417969 0.71765625 11.36085938 0.5078125 12.48046875 C0.34023437 13.31191406 0.17265625 14.14335938 0 15 C-0.33 15 -0.66 15 -1 15 C-1.02703381 13.06257659 -1.04641125 11.12504521 -1.0625 9.1875 C-1.07410156 8.10855469 -1.08570312 7.02960937 -1.09765625 5.91796875 C-1 3 -1 3 0 0 Z " fill="#B48E5E" transform="translate(79,27)"/>
<path d="M0 0 C0.66 0 1.32 0 2 0 C2 1.65 2 3.3 2 5 C-0.57213134 6.61949011 -1.67669159 7.04408751 -4.75 6.625 C-5.4925 6.41875 -6.235 6.2125 -7 6 C-7 5.67 -7 5.34 -7 5 C-5.02 4.67 -3.04 4.34 -1 4 C-0.67 2.68 -0.34 1.36 0 0 Z " fill="#E3D7C2" transform="translate(23,35)"/>
<path d="M0 0 C0.33 0 0.66 0 1 0 C1 1.98 1 3.96 1 6 C0.67 5.34 0.34 4.68 0 4 C-0.99 4.66 -1.98 5.32 -3 6 C-5.1875 5.625 -5.1875 5.625 -7 5 C-7 4.34 -7 3.68 -7 3 C-4.69 3 -2.38 3 0 3 C0 2.01 0 1.02 0 0 Z " fill="#2B1202" transform="translate(186,34)"/>
<path d="M0 0 C0.66 0 1.32 0 2 0 C1.01 3.3 0.02 6.6 -1 10 C-1.66 9.67 -2.32 9.34 -3 9 C-2.01 6.03 -1.02 3.06 0 0 Z " fill="#C7D1C9" transform="translate(67,31)"/>
<path d="M0 0 C0.66 1.32 1.32 2.64 2 4 C2.66 4 3.32 4 4 4 C4.66 3.01 5.32 2.02 6 1 C6.5625 2.9375 6.5625 2.9375 7 5 C6.67 5.33 6.34 5.66 6 6 C4.47480724 5.91062197 2.95318071 5.75462854 1.4375 5.5625 C0.19806641 5.40974609 0.19806641 5.40974609 -1.06640625 5.25390625 C-1.70449219 5.17011719 -2.34257813 5.08632813 -3 5 C-2.01 4.67 -1.02 4.34 0 4 C0 2.68 0 1.36 0 0 Z " fill="#E3C9CE" transform="translate(962,630)"/>
<path d="M0 0 C0.99 0.33 1.98 0.66 3 1 C2.67 3.64 2.34 6.28 2 9 C1.34 9 0.68 9 0 9 C0 6.03 0 3.06 0 0 Z " fill="#96969B" transform="translate(932,527)"/>
<path d="M0 0 C1.65 0.33 3.3 0.66 5 1 C4.67 1.99 4.34 2.98 4 4 C2.35 4 0.7 4 -1 4 C-0.67 2.68 -0.34 1.36 0 0 Z " fill="#787474" transform="translate(149,31)"/>
<path d="M0 0 C2.64 0.66 5.28 1.32 8 2 C7.67 2.66 7.34 3.32 7 4 C5.35 4 3.7 4 2 4 C1.34 2.68 0.68 1.36 0 0 Z " fill="#D3DAD4" transform="translate(113,38)"/>
<path d="M0 0 C2.64 0.66 5.28 1.32 8 2 C7.67 2.66 7.34 3.32 7 4 C5.35 4 3.7 4 2 4 C1.34 2.68 0.68 1.36 0 0 Z " fill="#D3DAD4" transform="translate(103,38)"/>
</svg>
