<svg xmlns="http://www.w3.org/2000/svg" viewBox="0 0 320 200">
  <rect width="320" height="200" fill="#05070c"/>
  <rect x="15" y="12" width="290" height="176" rx="6" fill="#05070c" stroke="rgba(20,184,166,0.04)" stroke-width="1"/>
  <text x="22" y="26" font-family="monospace" font-size="4.5" fill="#475569">FOCUS</text>
  <text x="50" y="26" font-family="monospace" font-size="4.5" fill="#e2e8f0">3</text>
  <text x="110" y="26" font-family="monospace" font-size="4.5" fill="#475569">TOTAL</text>
  <text x="140" y="26" font-family="monospace" font-size="4.5" fill="#14b8a6">75m</text>
  <text x="220" y="26" font-family="monospace" font-size="4.5" fill="#475569">TODAY</text>
  <text x="250" y="26" font-family="monospace" font-size="4.5" fill="#e2e8f0">2</text>
  <rect x="40" y="36" width="50" height="18" rx="4" fill="rgba(255,255,255,0.01)" stroke="rgba(255,255,255,0.03)" stroke-width="1"/>
  <rect x="94" y="36" width="50" height="18" rx="4" fill="rgba(255,255,255,0.03)" stroke="rgba(255,255,255,0.03)" stroke-width="1"/>
  <rect x="148" y="36" width="50" height="18" rx="4" fill="rgba(255,255,255,0.01)" stroke="rgba(255,255,255,0.03)" stroke-width="1"/>
  <text x="65" y="48" font-family="monospace" font-size="6" fill="#475569" text-anchor="middle">Focus</text>
  <text x="119" y="48" font-family="monospace" font-size="6" fill="#e2e8f0" text-anchor="middle">Short</text>
  <text x="173" y="48" font-family="monospace" font-size="6" fill="#475569" text-anchor="middle">Long</text>
  <circle cx="160" cy="108" r="44" fill="none" stroke="rgba(255,255,255,0.02)" stroke-width="4"/>
  <circle cx="160" cy="108" r="44" fill="none" stroke="#f59e0b" stroke-width="4" stroke-dasharray="276" stroke-dashoffset="69" stroke-linecap="round" transform="rotate(-90,160,108)"/>
  <text x="160" y="108" font-family="monospace" font-size="28" fill="#f59e0b" text-anchor="middle" dominant-baseline="central" font-weight="800">12:34</text>
  <text x="160" y="136" font-family="monospace" font-size="6" fill="#475569" text-anchor="middle">FOCUS</text>
  <rect x="26" y="158" width="36" height="16" rx="4" fill="#14b8a6" opacity="0.9"/>
  <text x="44" y="169" font-family="monospace" font-size="6" fill="#fff" text-anchor="middle" font-weight="700">Start</text>
  <rect x="68" y="158" width="36" height="16" rx="4" fill="rgba(255,255,255,0.02)" stroke="rgba(255,255,255,0.04)" stroke-width="1"/>
  <text x="86" y="169" font-family="monospace" font-size="5" fill="#64748b" text-anchor="middle">Pause</text>
  <rect x="110" y="158" width="36" height="16" rx="4" fill="rgba(255,255,255,0.02)" stroke="rgba(255,255,255,0.04)" stroke-width="1"/>
  <text x="128" y="169" font-family="monospace" font-size="5" fill="#64748b" text-anchor="middle">Reset</text>
  <text x="230" y="169" font-family="monospace" font-size="5" fill="#475569">Settings</text>
</svg>
