<svg xmlns="http://www.w3.org/2000/svg" viewBox="0 0 320 200">
  <rect width="320" height="200" fill="#05060b"/>
  <!-- top bar -->
  <rect x="4" y="4" width="312" height="38" rx="6" fill="rgba(255,255,255,0.01)" stroke="rgba(255,255,255,0.03)" stroke-width="0.5"/>
  <rect x="8" y="8" width="120" height="14" rx="4" fill="rgba(255,255,255,0.02)" stroke="rgba(255,255,255,0.04)" stroke-width="0.5"/>
  <text x="14" y="19" font-family="system-ui,sans-serif" font-size="6" fill="#475569">Search...</text>
  <rect x="8" y="26" width="52" height="12" rx="6" fill="rgba(0,240,255,0.08)" stroke="rgba(0,240,255,0.12)" stroke-width="0.3"/><text x="18" y="35" font-family="system-ui,sans-serif" font-size="5" fill="#00f0ff">All</text>
  <rect x="64" y="26" width="60" height="12" rx="6" fill="rgba(255,255,255,0.02)" stroke="rgba(255,255,255,0.03)" stroke-width="0.3"/><text x="74" y="35" font-family="system-ui,sans-serif" font-size="5" fill="#64748b">90s Nostalgia</text>
  <rect x="128" y="26" width="62" height="12" rx="6" fill="rgba(255,255,255,0.02)" stroke="rgba(255,255,255,0.03)" stroke-width="0.3"/><text x="138" y="35" font-family="system-ui,sans-serif" font-size="5" fill="#64748b">Modern Anime</text>
  <rect x="194" y="26" width="62" height="12" rx="6" fill="rgba(255,255,255,0.02)" stroke="rgba(255,255,255,0.03)" stroke-width="0.3"/><text x="204" y="35" font-family="system-ui,sans-serif" font-size="5" fill="#64748b">Sci-Fi</text>
  <text x="280" y="37" font-family="monospace" font-size="5" fill="#475569">12 chars</text>
  <!-- cards row 1 -->
  <rect x="4" y="46" width="76" height="104" rx="8" fill="rgba(255,255,255,0.01)" stroke="rgba(255,255,255,0.03)" stroke-width="0.5"/>
  <rect x="8" y="50" width="68" height="56" rx="6" fill="rgba(255,255,255,0.02)"/>
  <circle cx="42" cy="78" r="22" fill="rgba(0,240,255,0.08)"/>
  <text x="42" y="84" font-family="system-ui,sans-serif" font-size="16" fill="#00f0ff" text-anchor="middle">SB</text>
  <text x="10" y="114" font-family="system-ui,sans-serif" font-size="6" font-weight="700" fill="#e2e8f0">SpongeBob</text>
  <text x="10" y="122" font-family="system-ui,sans-serif" font-size="4.5" fill="#475569">90s Nostalgia</text>
  <text x="10" y="130" font-family="system-ui,sans-serif" font-size="4.5" fill="#64748b">Fry Cook</text>
  <text x="10" y="138" font-family="system-ui,sans-serif" font-size="4.5" fill="rgba(0,240,255,0.4)" font-style="italic">"I'm ready!"</text>

  <rect x="84" y="46" width="76" height="104" rx="8" fill="rgba(255,255,255,0.01)" stroke="rgba(255,255,255,0.03)" stroke-width="0.5"/>
  <rect x="88" y="50" width="68" height="56" rx="6" fill="rgba(255,255,255,0.02)"/>
  <circle cx="122" cy="78" r="22" fill="rgba(248,140,73,0.08)"/>
  <text x="122" y="84" font-family="system-ui,sans-serif" font-size="16" fill="#f88c49" text-anchor="middle">N</text>
  <text x="90" y="114" font-family="system-ui,sans-serif" font-size="6" font-weight="700" fill="#e2e8f0">Naruto</text>
  <text x="90" y="122" font-family="system-ui,sans-serif" font-size="4.5" fill="#475569">Modern Anime</text>
  <text x="90" y="130" font-family="system-ui,sans-serif" font-size="4.5" fill="#64748b">Hokage</text>
  <text x="90" y="138" font-family="system-ui,sans-serif" font-size="4.5" fill="rgba(0,240,255,0.4)" font-style="italic">"Believe it!"</text>

  <rect x="164" y="46" width="76" height="104" rx="8" fill="rgba(255,255,255,0.01)" stroke="rgba(255,255,255,0.03)" stroke-width="0.5"/>
  <rect x="168" y="50" width="68" height="56" rx="6" fill="rgba(255,255,255,0.02)"/>
  <circle cx="202" cy="78" r="22" fill="rgba(0,229,200,0.08)"/>
  <text x="202" y="84" font-family="system-ui,sans-serif" font-size="16" fill="#00e5c8" text-anchor="middle">R</text>
  <text x="170" y="114" font-family="system-ui,sans-serif" font-size="6" font-weight="700" fill="#e2e8f0">Rick</text>
  <text x="170" y="122" font-family="system-ui,sans-serif" font-size="4.5" fill="#475569">Sci-Fi</text>
  <text x="170" y="130" font-family="system-ui,sans-serif" font-size="4.5" fill="#64748b">Scientist</text>
  <text x="170" y="138" font-family="system-ui,sans-serif" font-size="4.5" fill="rgba(0,240,255,0.4)" font-style="italic">"Wubba lubba..."</text>

  <rect x="244" y="46" width="72" height="104" rx="8" fill="rgba(255,255,255,0.01)" stroke="rgba(255,255,255,0.03)" stroke-width="0.5"/>
  <rect x="248" y="50" width="64" height="56" rx="6" fill="rgba(255,255,255,0.02)"/>
  <circle cx="280" cy="78" r="22" fill="rgba(182,227,244,0.08)"/>
  <text x="280" y="84" font-family="system-ui,sans-serif" font-size="16" fill="#b6e3f4" text-anchor="middle">BB</text>
  <text x="250" y="114" font-family="system-ui,sans-serif" font-size="6" font-weight="700" fill="#e2e8f0">Bugs</text>
  <text x="250" y="122" font-family="system-ui,sans-serif" font-size="4.5" fill="#475569">90s Nostalgia</text>
  <text x="250" y="130" font-family="system-ui,sans-serif" font-size="4.5" fill="#64748b">Trickster</text>
  <text x="250" y="138" font-family="system-ui,sans-serif" font-size="4.5" fill="rgba(0,240,255,0.4)" font-style="italic">"What's up..."</text>

  <!-- cards row 2 -->
  <rect x="4" y="154" width="76" height="42" rx="8" fill="rgba(255,255,255,0.01)" stroke="rgba(255,255,255,0.03)" stroke-width="0.5"/>
  <rect x="84" y="154" width="76" height="42" rx="8" fill="rgba(255,255,255,0.01)" stroke="rgba(255,255,255,0.03)" stroke-width="0.5"/>
  <rect x="164" y="154" width="76" height="42" rx="8" fill="rgba(255,255,255,0.01)" stroke="rgba(255,255,255,0.03)" stroke-width="0.5"/>
  <rect x="244" y="154" width="72" height="42" rx="8" fill="rgba(255,255,255,0.01)" stroke="rgba(255,255,255,0.03)" stroke-width="0.5"/>
  <text x="42" y="172" font-family="system-ui,sans-serif" font-size="5" font-weight="700" fill="#e2e8f0" text-anchor="middle">Eren Yeager</text>
  <text x="122" y="172" font-family="system-ui,sans-serif" font-size="5" font-weight="700" fill="#e2e8f0" text-anchor="middle">Finn</text>
  <text x="202" y="172" font-family="system-ui,sans-serif" font-size="5" font-weight="700" fill="#e2e8f0" text-anchor="middle">Scooby</text>
  <text x="280" y="172" font-family="system-ui,sans-serif" font-size="5" font-weight="700" fill="#e2e8f0" text-anchor="middle">Goku</text>
  <text x="42" y="180" font-family="system-ui,sans-serif" font-size="3.5" fill="#475569" text-anchor="middle">Modern Anime</text>
  <text x="122" y="180" font-family="system-ui,sans-serif" font-size="3.5" fill="#475569" text-anchor="middle">Modern Anime</text>
  <text x="202" y="180" font-family="system-ui,sans-serif" font-size="3.5" fill="#475569" text-anchor="middle">90s Nostalgia</text>
  <text x="280" y="180" font-family="system-ui,sans-serif" font-size="3.5" fill="#475569" text-anchor="middle">Modern Anime</text>
  <text x="42" y="188" font-family="system-ui,sans-serif" font-size="3.5" fill="#64748b" text-anchor="middle">Scout</text>
  <text x="122" y="188" font-family="system-ui,sans-serif" font-size="3.5" fill="#64748b" text-anchor="middle">Hero of Ooo</text>
  <text x="202" y="188" font-family="system-ui,sans-serif" font-size="3.5" fill="#64748b" text-anchor="middle">Detective</text>
  <text x="280" y="188" font-family="system-ui,sans-serif" font-size="3.5" fill="#64748b" text-anchor="middle">Saiyan</text>

  <!-- footer -->
  <rect x="4" y="196" width="312" height="4" rx="2" fill="rgba(255,255,255,0.01)"/>
</svg>
