<svg xmlns="http://www.w3.org/2000/svg" viewBox="0 0 1280 720" width="1280" height="720">
  <defs><linearGradient id="g" x1="0%" y1="0%" x2="0%" y2="100%"><stop offset="0%" stop-color="#0b1220"/><stop offset="100%" stop-color="#0a1020"/></linearGradient></defs>
  <rect width="1280" height="720" fill="url(#g)"/>
  <!-- microservices diagram -->
  <rect x="80" y="150" width="90" height="35" rx="6" fill="rgba(167,139,250,0.15)" stroke="#a78bfa" stroke-width="2"/>
  <text x="125" y="173" text-anchor="middle" font-family="monospace" font-size="10" fill="#a78bfa" font-weight="700">Gateway</text>
  <rect x="250" y="80" width="90" height="35" rx="6" fill="rgba(59,130,246,0.15)" stroke="#3b82f6" stroke-width="2"/>
  <text x="295" y="103" text-anchor="middle" font-family="monospace" font-size="9" fill="#3b82f6">Auth</text>
  <rect x="250" y="220" width="90" height="35" rx="6" fill="rgba(59,130,246,0.15)" stroke="#3b82f6" stroke-width="2"/>
  <text x="295" y="243" text-anchor="middle" font-family="monospace" font-size="9" fill="#3b82f6">User</text>
  <rect x="460" y="80" width="90" height="35" rx="6" fill="rgba(59,130,246,0.15)" stroke="#3b82f6" stroke-width="2"/>
  <text x="505" y="103" text-anchor="middle" font-family="monospace" font-size="9" fill="#3b82f6">Order</text>
  <rect x="460" y="220" width="90" height="35" rx="6" fill="rgba(59,130,246,0.15)" stroke="#3b82f6" stroke-width="2"/>
  <text x="505" y="243" text-anchor="middle" font-family="monospace" font-size="9" fill="#3b82f6">Payment</text>
  <rect x="680" y="80" width="90" height="35" rx="6" fill="rgba(59,130,246,0.15)" stroke="#3b82f6" stroke-width="2"/>
  <text x="725" y="103" text-anchor="middle" font-family="monospace" font-size="9" fill="#3b82f6">Notify</text>
  <rect x="680" y="220" width="90" height="35" rx="6" fill="rgba(59,130,246,0.15)" stroke="#3b82f6" stroke-width="2"/>
  <text x="725" y="243" text-anchor="middle" font-family="monospace" font-size="9" fill="#3b82f6">Inventory</text>
  <rect x="920" y="150" width="90" height="35" rx="6" fill="rgba(34,197,94,0.15)" stroke="#22c55e" stroke-width="2"/>
  <text x="965" y="173" text-anchor="middle" font-family="monospace" font-size="9" fill="#22c55e">Queue</text>
  <rect x="250" y="340" width="90" height="35" rx="6" fill="rgba(249,115,22,0.15)" stroke="#f97316" stroke-width="2"/>
  <text x="295" y="363" text-anchor="middle" font-family="monospace" font-size="9" fill="#f97316">User DB</text>
  <rect x="460" y="340" width="90" height="35" rx="6" fill="rgba(249,115,22,0.15)" stroke="#f97316" stroke-width="2"/>
  <text x="505" y="363" text-anchor="middle" font-family="monospace" font-size="9" fill="#f97316">Order DB</text>
  <!-- arrows -->
  <line x1="170" y1="167" x2="245" y2="97" stroke="#334155" stroke-width="1.5"/>
  <line x1="170" y1="167" x2="245" y2="237" stroke="#334155" stroke-width="1.5"/>
  <line x1="170" y1="167" x2="455" y2="97" stroke="#334155" stroke-width="1.5"/>
  <line x1="170" y1="167" x2="455" y2="237" stroke="#334155" stroke-width="1.5"/>
  <line x1="170" y1="167" x2="675" y2="97" stroke="#334155" stroke-width="1.5"/>
  <line x1="170" y1="167" x2="675" y2="237" stroke="#334155" stroke-width="1.5"/>
  <!-- side panel -->
  <rect x="80" y="420" width="200" height="240" rx="8" fill="#111827" stroke="#334155" stroke-width="1.5"/>
  <text x="180" y="450" text-anchor="middle" font-family="monospace" font-size="10" fill="#cbd5e1" font-weight="600">PATTERNS</text>
  <rect x="100" y="470" width="160" height="25" rx="4" fill="#1e1a30" stroke="#06b6d4" stroke-width="1"/>
  <text x="180" y="487" text-anchor="middle" font-family="monospace" font-size="10" fill="#06b6d4">Microservices</text>
  <rect x="100" y="500" width="160" height="25" rx="4" fill="#1f2937" stroke="#334155" stroke-width="1"/>
  <text x="180" y="517" text-anchor="middle" font-family="monospace" font-size="10" fill="#64748b">Monolith</text>
  <rect x="100" y="530" width="160" height="25" rx="4" fill="#1f2937" stroke="#334155" stroke-width="1"/>
  <text x="180" y="547" text-anchor="middle" font-family="monospace" font-size="10" fill="#64748b">Event-Driven</text>
  <text x="640" y="100" text-anchor="middle" font-family="ui-monospace,monospace" font-size="26" font-weight="800" fill="#f8fafc" letter-spacing="1">SOFTWARE ARCHITECTURE VISUALIZER</text>
  <text x="640" y="125" text-anchor="middle" font-family="ui-monospace,monospace" font-size="13" fill="#64748b">Visualize · Analyze · Document Architecture Patterns</text>
</svg>
