<svg xmlns="http://www.w3.org/2000/svg" viewBox="0 0 1280 720" width="1280" height="720">
  <defs>
    <linearGradient id="bg" x1="0%" y1="0%" x2="100%" y2="100%"><stop offset="0%" stop-color="#0b1220"/><stop offset="100%" stop-color="#0f172a"/></linearGradient>
    <linearGradient id="accent" x1="0%" y1="0%" x2="100%" y2="0%"><stop offset="0%" stop-color="#38bdf8"/><stop offset="100%" stop-color="#818cf8"/></linearGradient>
    <filter id="shadow"><feDropShadow dx="0" dy="4" stdDeviation="8" flood-color="#000" flood-opacity="0.3"/></filter>
  </defs>
  <rect width="1280" height="720" fill="url(#bg)"/>
  <text x="60" y="50" font-family="ui-monospace,monospace" font-size="22" font-weight="800" fill="#f8fafc" letter-spacing="1.5">CP TRACKER</text>
  <text x="60" y="72" font-family="ui-monospace,monospace" font-size="12" fill="#64748b">Competitive Programming Progress Dashboard</text>

  <!-- Left sidebar -->
  <rect x="60" y="95" width="220" height="570" rx="10" fill="#111827" stroke="#334155" stroke-width="1" filter="url(#shadow)"/>

  <!-- Profile -->
  <circle cx="170" cy="130" r="20" fill="url(#accent)"/>
  <text x="170" y="135" text-anchor="middle" font-family="ui-monospace,monospace" font-size="10" font-weight="700" fill="#fff">SC</text>
  <text x="170" y="162" text-anchor="middle" font-family="ui-monospace,monospace" font-size="12" font-weight="600" fill="#f8fafc">Shruti Narsulwar</text>
  <text x="170" y="178" text-anchor="middle" font-family="ui-monospace,monospace" font-size="10" fill="#64748b">@Shrutiii01</text>

  <!-- Nav items -->
  <g transform="translate(75,210)">
    <rect x="0" y="0" width="190" height="32" rx="6" fill="#1f2937"/><text x="14" y="21" font-family="ui-monospace,monospace" font-size="11" fill="#38bdf8" font-weight="600">■ Overview</text>
    <text x="14" y="55" font-family="ui-monospace,monospace" font-size="11" fill="#64748b">● Topics</text>
    <text x="14" y="77" font-family="ui-monospace,monospace" font-size="11" fill="#64748b">● Streaks</text>
    <text x="14" y="99" font-family="ui-monospace,monospace" font-size="11" fill="#64748b">● Problems</text>
  </g>

  <!-- Quick stats -->
  <g transform="translate(75,350)">
    <rect x="0" y="0" width="90" height="50" rx="6" fill="#1f2937" stroke="#334155" stroke-width="1"/>
    <text x="45" y="20" text-anchor="middle" font-family="ui-monospace,monospace" font-size="16" font-weight="700" fill="#38bdf8">156</text>
    <text x="45" y="38" text-anchor="middle" font-family="ui-monospace,monospace" font-size="8" fill="#64748b">SOLVED</text>
    <rect x="100" y="0" width="90" height="50" rx="6" fill="#1f2937" stroke="#334155" stroke-width="1"/>
    <text x="145" y="20" text-anchor="middle" font-family="ui-monospace,monospace" font-size="16" font-weight="700" fill="#38bdf8">1423</text>
    <text x="145" y="38" text-anchor="middle" font-family="ui-monospace,monospace" font-size="8" fill="#64748b">RATING</text>
    <rect x="0" y="60" width="90" height="50" rx="6" fill="#1f2937" stroke="#334155" stroke-width="1"/>
    <text x="45" y="80" text-anchor="middle" font-family="ui-monospace,monospace" font-size="16" font-weight="700" fill="#38bdf8">12</text>
    <text x="45" y="98" text-anchor="middle" font-family="ui-monospace,monospace" font-size="8" fill="#64748b">STREAK</text>
    <rect x="100" y="60" width="90" height="50" rx="6" fill="#1f2937" stroke="#334155" stroke-width="1"/>
    <text x="145" y="80" text-anchor="middle" font-family="ui-monospace,monospace" font-size="16" font-weight="700" fill="#38bdf8">#892</text>
    <text x="145" y="98" text-anchor="middle" font-family="ui-monospace,monospace" font-size="8" fill="#64748b">RANK</text>
  </g>

  <!-- Main panel -->
  <rect x="310" y="95" width="910" height="570" rx="10" fill="#111827" stroke="#334155" stroke-width="1" filter="url(#shadow)"/>

  <text x="340" y="130" font-family="ui-monospace,monospace" font-size="16" font-weight="700" fill="#f8fafc">Dashboard Overview</text>
  <text x="820" y="130" font-family="ui-monospace,monospace" font-size="10" fill="#64748b" text-anchor="end">Monday, June 15, 2026</text>

  <!-- Difficulty cards -->
  <g transform="translate(340,150)">
    <rect x="0" y="0" width="205" height="80" rx="8" fill="#1f2937" stroke="#334155" stroke-width="1"/>
    <text x="102" y="25" text-anchor="middle" font-family="ui-monospace,monospace" font-size="10" fill="#64748b">EASY</text>
    <text x="102" y="58" text-anchor="middle" font-family="ui-monospace,monospace" font-size="28" font-weight="700" fill="#22c55e">78</text>
    <text x="102" y="72" text-anchor="middle" font-family="ui-monospace,monospace" font-size="9" fill="#64748b">solved</text>

    <rect x="215" y="0" width="205" height="80" rx="8" fill="#1f2937" stroke="#334155" stroke-width="1"/>
    <text x="317" y="25" text-anchor="middle" font-family="ui-monospace,monospace" font-size="10" fill="#64748b">MEDIUM</text>
    <text x="317" y="58" text-anchor="middle" font-family="ui-monospace,monospace" font-size="28" font-weight="700" fill="#f59e0b">54</text>
    <text x="317" y="72" text-anchor="middle" font-family="ui-monospace,monospace" font-size="9" fill="#64748b">solved</text>

    <rect x="430" y="0" width="205" height="80" rx="8" fill="#1f2937" stroke="#334155" stroke-width="1"/>
    <text x="532" y="25" text-anchor="middle" font-family="ui-monospace,monospace" font-size="10" fill="#64748b">HARD</text>
    <text x="532" y="58" text-anchor="middle" font-family="ui-monospace,monospace" font-size="28" font-weight="700" fill="#ef4444">24</text>
    <text x="532" y="72" text-anchor="middle" font-family="ui-monospace,monospace" font-size="9" fill="#64748b">solved</text>

    <rect x="645" y="0" width="205" height="80" rx="8" fill="#1f2937" stroke="#334155" stroke-width="1"/>
    <text x="747" y="25" text-anchor="middle" font-family="ui-monospace,monospace" font-size="10" fill="#64748b">RATING</text>
    <text x="747" y="58" text-anchor="middle" font-family="ui-monospace,monospace" font-size="28" font-weight="700" fill="#a78bfa">1423</text>
    <text x="747" y="72" text-anchor="middle" font-family="ui-monospace,monospace" font-size="9" fill="#64748b">top 15%</text>
  </g>

  <!-- Activity chart -->
  <g transform="translate(340,250)">
    <text font-family="ui-monospace,monospace" font-size="12" font-weight="600" fill="#cbd5e1">Monthly Activity</text>
    <g transform="translate(0,20)">
      <rect x="0" y="40" width="22" height="70" rx="3" fill="#38bdf8"/><rect x="28" y="60" width="22" height="50" rx="3" fill="#60a5fa"/>
      <rect x="56" y="20" width="22" height="90" rx="3" fill="#38bdf8"/><rect x="84" y="75" width="22" height="35" rx="3" fill="#93c5fd"/>
      <rect x="112" y="0" width="22" height="110" rx="3" fill="#38bdf8"/><rect x="140" y="50" width="22" height="60" rx="3" fill="#60a5fa"/>
      <rect x="168" y="20" width="22" height="90" rx="3" fill="#38bdf8"/><rect x="196" y="30" width="22" height="80" rx="3" fill="#60a5fa"/>
      <rect x="224" y="0" width="22" height="110" rx="3" fill="#38bdf8"/><rect x="252" y="65" width="22" height="45" rx="3" fill="#93c5fd"/>
      <rect x="280" y="35" width="22" height="75" rx="3" fill="#60a5fa"/>
    </g>
    <g transform="translate(0,140)">
      <text font-family="ui-monospace,monospace" font-size="8" fill="#64748b" x="0">Jan</text>
      <text font-family="ui-monospace,monospace" font-size="8" fill="#64748b" x="56">Mar</text>
      <text font-family="ui-monospace,monospace" font-size="8" fill="#64748b" x="112">May</text>
      <text font-family="ui-monospace,monospace" font-size="8" fill="#64748b" x="168">Jul</text>
      <text font-family="ui-monospace,monospace" font-size="8" fill="#64748b" x="224">Sep</text>
      <text font-family="ui-monospace,monospace" font-size="8" fill="#64748b" x="280">Nov</text>
    </g>
  </g>

  <!-- Topic cards (right side of main panel) -->
  <g transform="translate(660,250)">
    <text font-family="ui-monospace,monospace" font-size="12" font-weight="600" fill="#cbd5e1">Topics</text>
    <g transform="translate(0,18)">
      <text font-family="ui-monospace,monospace" font-size="9" fill="#cbd5e1">Arrays</text><rect x="0" y="12" width="175" height="4" rx="2" fill="#1f2937"/><rect x="0" y="12" width="122" height="4" rx="2" fill="#38bdf8"/><text x="180" y="16" font-family="ui-monospace,monospace" font-size="9" fill="#64748b">70%</text>
      <text y="28" font-family="ui-monospace,monospace" font-size="9" fill="#cbd5e1">DP</text><rect x="0" y="40" width="175" height="4" rx="2" fill="#1f2937"/><rect x="0" y="40" width="77" height="4" rx="2" fill="#a78bfa"/><text x="180" y="44" font-family="ui-monospace,monospace" font-size="9" fill="#64748b">44%</text>
      <text y="56" font-family="ui-monospace,monospace" font-size="9" fill="#cbd5e1">Graphs</text><rect x="0" y="68" width="175" height="4" rx="2" fill="#1f2937"/><rect x="0" y="68" width="75" height="4" rx="2" fill="#f59e0b"/><text x="180" y="72" font-family="ui-monospace,monospace" font-size="9" fill="#64748b">43%</text>
      <text y="84" font-family="ui-monospace,monospace" font-size="9" fill="#cbd5e1">Trees</text><rect x="0" y="96" width="175" height="4" rx="2" fill="#1f2937"/><rect x="0" y="96" width="116" height="4" rx="2" fill="#84cc16"/><text x="180" y="100" font-family="ui-monospace,monospace" font-size="9" fill="#64748b">67%</text>
      <text y="112" font-family="ui-monospace,monospace" font-size="9" fill="#cbd5e1">Greedy</text><rect x="0" y="124" width="175" height="4" rx="2" fill="#1f2937"/><rect x="0" y="124" width="112" height="4" rx="2" fill="#f97316"/><text x="180" y="128" font-family="ui-monospace,monospace" font-size="9" fill="#64748b">64%</text>
    </g>
  </g>

  <!-- Streak calendar -->
  <g transform="translate(340,420)">
    <text font-family="ui-monospace,monospace" font-size="12" font-weight="600" fill="#cbd5e1">Activity — Last 30 Days</text>
    <g transform="translate(0,15)">
      <rect x="0" y="0" width="14" height="14" rx="2" fill="#1f2937"/><rect x="18" y="0" width="14" height="14" rx="2" fill="#1f2937"/><rect x="36" y="0" width="14" height="14" rx="2" fill="#1f2937"/>
      <rect x="54" y="0" width="14" height="14" rx="2" fill="rgba(34,197,94,0.2)"/><rect x="72" y="0" width="14" height="14" rx="2" fill="rgba(34,197,94,0.4)"/><rect x="90" y="0" width="14" height="14" rx="2" fill="#1f2937"/>
      <rect x="108" y="0" width="14" height="14" rx="2" fill="rgba(34,197,94,0.4)"/><rect x="126" y="0" width="14" height="14" rx="2" fill="rgba(34,197,94,0.6)"/><rect x="144" y="0" width="14" height="14" rx="2" fill="rgba(34,197,94,0.2)"/>
      <rect x="162" y="0" width="14" height="14" rx="2" fill="rgba(34,197,94,0.85)"/><rect x="180" y="0" width="14" height="14" rx="2" fill="rgba(34,197,94,0.4)"/><rect x="198" y="0" width="14" height="14" rx="2" fill="rgba(34,197,94,0.6)"/>
      <rect x="216" y="0" width="14" height="14" rx="2" fill="rgba(34,197,94,0.2)"/><rect x="234" y="0" width="14" height="14" rx="2" fill="#1f2937"/><rect x="252" y="0" width="14" height="14" rx="2" fill="rgba(34,197,94,0.4)"/>
      <rect x="270" y="0" width="14" height="14" rx="2" fill="rgba(34,197,94,0.6)"/><rect x="288" y="0" width="14" height="14" rx="2" fill="rgba(34,197,94,0.85)"/><rect x="306" y="0" width="14" height="14" rx="2" fill="rgba(34,197,94,0.85)"/>
      <rect x="324" y="0" width="14" height="14" rx="2" fill="rgba(34,197,94,0.6)"/><rect x="342" y="0" width="14" height="14" rx="2" fill="#1f2937"/><rect x="360" y="0" width="14" height="14" rx="2" fill="rgba(34,197,94,0.4)"/>

      <rect x="0" y="20" width="14" height="14" rx="2" fill="rgba(34,197,94,0.2)"/><rect x="18" y="20" width="14" height="14" rx="2" fill="rgba(34,197,94,0.6)"/><rect x="36" y="20" width="14" height="14" rx="2" fill="rgba(34,197,94,0.4)"/>
      <rect x="54" y="20" width="14" height="14" rx="2" fill="rgba(34,197,94,0.85)"/><rect x="72" y="20" width="14" height="14" rx="2" fill="rgba(34,197,94,0.6)"/><rect x="90" y="20" width="14" height="14" rx="2" fill="rgba(34,197,94,0.4)"/>
      <rect x="108" y="20" width="14" height="14" rx="2" fill="rgba(34,197,94,0.6)"/><rect x="126" y="20" width="14" height="14" rx="2" fill="rgba(34,197,94,0.85)"/><rect x="144" y="20" width="14" height="14" rx="2" fill="rgba(34,197,94,0.85)" stroke="#38bdf8" stroke-width="1.5"/>
    </g>
  </g>

  <rect x="0" y="718" width="1280" height="2" fill="url(#accent)" opacity="0.4"/>
</svg>
