<svg xmlns="http://www.w3.org/2000/svg" viewBox="0 0 1200 630" width="1200" height="630">
  <defs>
    <linearGradient id="bgGrad" x1="0" y1="0" x2="1" y2="1">
      <stop offset="0%" stop-color="#07111f"/>
      <stop offset="50%" stop-color="#0f172a"/>
      <stop offset="100%" stop-color="#07111f"/>
    </linearGradient>
    <linearGradient id="glowGrad" x1="0.5" y1="0" x2="0.5" y2="1">
      <stop offset="0%" stop-color="#34d399" stop-opacity="0.12"/>
      <stop offset="100%" stop-color="#34d399" stop-opacity="0"/>
    </linearGradient>
    <linearGradient id="titleGrad" x1="0" y1="0" x2="1" y2="0">
      <stop offset="0%" stop-color="#f8fafc"/>
      <stop offset="100%" stop-color="#34d399"/>
    </linearGradient>
    <linearGradient id="dangerGrad" x1="0" y1="0" x2="1" y2="1">
      <stop offset="0%" stop-color="#dc2626" stop-opacity="0.15"/>
      <stop offset="100%" stop-color="#dc2626" stop-opacity="0"/>
    </linearGradient>
    <filter id="glow"><feGaussianBlur stdDeviation="2" result="blur"/><feMerge><feMergeNode in="blur"/><feMergeNode in="SourceGraphic"/></feMerge></filter>
  </defs>

  <rect width="1200" height="630" fill="url(#bgGrad)"/>

  <g stroke="#1e293b" stroke-width="0.3" opacity="0.25">
    <line x1="0" y1="80" x2="1200" y2="80"/><line x1="0" y1="160" x2="1200" y2="160"/>
    <line x1="0" y1="240" x2="1200" y2="240"/><line x1="0" y1="320" x2="1200" y2="320"/>
    <line x1="0" y1="400" x2="1200" y2="400"/><line x1="0" y1="480" x2="1200" y2="480"/>
    <line x1="0" y1="560" x2="1200" y2="560"/>
    <line x1="150" y1="0" x2="150" y2="630"/><line x1="300" y1="0" x2="300" y2="630"/>
    <line x1="450" y1="0" x2="450" y2="630"/><line x1="600" y1="0" x2="600" y2="630"/>
    <line x1="750" y1="0" x2="750" y2="630"/><line x1="900" y1="0" x2="900" y2="630"/>
    <line x1="1050" y1="0" x2="1050" y2="630"/>
  </g>

  <circle cx="600" cy="300" r="280" fill="url(#glowGrad)"/>

  <!-- Danger zones -->
  <g opacity="0.06">
    <ellipse cx="300" cy="340" rx="120" ry="80" fill="#dc2626"/>
    <ellipse cx="580" cy="240" rx="140" ry="90" fill="#dc2626"/>
    <ellipse cx="680" cy="160" rx="100" ry="70" fill="#f59e0b"/>
    <ellipse cx="250" cy="200" rx="90" ry="60" fill="#f59e0b"/>
    <ellipse cx="660" cy="290" rx="80" ry="60" fill="#dc2626"/>
    <ellipse cx="500" cy="370" rx="150" ry="60" fill="#dc2626"/>
    <ellipse cx="400" cy="450" rx="100" ry="50" fill="#f59e0b"/>
  </g>

  <!-- Continents -->
  <g fill="#111827" stroke="#1e3a5f" stroke-width="0.8">
    <path d="M 120 150 L 170 145 L 220 148 L 260 155 L 275 170 L 280 190 L 275 210 L 265 220 L 255 235 L 245 245 L 235 250 L 220 248 L 210 255 L 195 250 L 180 240 L 170 230 L 155 220 L 140 210 L 130 195 L 120 175 Z"/>
    <path d="M 235 255 L 250 252 L 260 260 L 265 275 L 260 285 L 250 290 L 240 285 L 235 270 Z"/>
    <path d="M 240 298 L 260 295 L 280 300 L 298 315 L 310 335 L 318 360 L 320 380 L 315 400 L 305 415 L 290 430 L 275 438 L 260 435 L 250 420 L 242 400 L 235 380 L 230 355 L 228 335 L 230 315 Z"/>
    <path d="M 520 100 L 540 95 L 560 92 L 580 95 L 600 100 L 615 110 L 625 125 L 630 140 L 625 155 L 615 165 L 600 172 L 585 178 L 570 180 L 555 178 L 540 170 L 528 158 L 518 142 L 512 125 Z"/>
    <path d="M 535 185 L 555 180 L 575 178 L 595 182 L 615 190 L 630 205 L 640 225 L 645 250 L 642 275 L 635 295 L 622 315 L 605 332 L 585 342 L 565 348 L 548 345 L 535 335 L 525 318 L 518 295 L 512 268 L 510 240 L 515 215 Z"/>
    <path d="M 610 90 L 645 82 L 685 80 L 725 82 L 765 88 L 800 98 L 830 110 L 855 128 L 870 150 L 875 172 L 868 190 L 855 205 L 835 215 L 810 220 L 785 218 L 760 212 L 735 205 L 710 200 L 685 195 L 660 190 L 642 180 L 628 168 L 618 152 L 612 135 L 608 115 Z"/>
    <path d="M 665 190 L 685 185 L 700 195 L 710 215 L 705 238 L 690 250 L 670 248 L 658 235 L 652 215 Z"/>
    <path d="M 740 215 L 765 210 L 790 215 L 808 228 L 815 245 L 805 260 L 785 268 L 762 265 L 745 255 L 735 240 Z"/>
    <path d="M 890 345 L 920 338 L 950 342 L 975 352 L 990 370 L 995 392 L 982 412 L 960 425 L 935 430 L 910 428 L 892 418 L 880 402 L 875 385 Z"/>
    <path d="M 80 560 L 200 555 L 350 550 L 500 548 L 650 550 L 800 555 L 950 560 L 1080 568 L 1120 580 L 1100 600 L 950 610 L 800 618 L 650 622 L 500 625 L 350 622 L 200 618 L 80 610 L 40 598 Z"/>
    <path d="M 290 55 L 320 48 L 348 55 L 360 72 L 352 92 L 332 105 L 308 108 L 292 98 L 282 80 Z"/>
    <path d="M 660 338 L 672 332 L 680 345 L 678 365 L 665 375 L 655 368 L 650 352 Z"/>
    <path d="M 510 108 L 522 102 L 530 112 L 525 128 L 515 135 L 505 128 L 502 118 Z"/>
    <path d="M 852 118 L 864 112 L 872 122 L 875 142 L 868 155 L 858 150 L 850 138 Z"/>
  </g>

  <!-- Hotspot Markers with color coding -->
  <g font-family="system-ui" font-size="10">
    <!-- Asia -->
    <g transform="translate(470, 220)"><circle r="12" fill="#dc2626" opacity="0.3"/><circle r="5" fill="#dc2626"/><text x="10" y="4" fill="#dc2626">🐯</text></g>
    <g transform="translate(550, 150)"><circle r="10" fill="#f59e0b" opacity="0.25"/><circle r="4" fill="#f59e0b"/></g>
    <g transform="translate(600, 190)"><circle r="10" fill="#f59e0b" opacity="0.25"/><circle r="4" fill="#f59e0b"/><text x="10" y="4" fill="#f59e0b">🐼</text></g>
    <g transform="translate(620, 260)"><circle r="12" fill="#dc2626" opacity="0.3"/><circle r="5" fill="#dc2626"/><text x="10" y="4" fill="#dc2626">🦧</text></g>

    <!-- Africa -->
    <g transform="translate(560, 310)"><circle r="12" fill="#dc2626" opacity="0.3"/><circle r="5" fill="#dc2626"/><text x="10" y="4" fill="#dc2626">🦏</text></g>
    <g transform="translate(540, 280)"><circle r="10" fill="#f97316" opacity="0.25"/><circle r="4" fill="#f97316"/></g>
    <g transform="translate(530, 250)"><circle r="10" fill="#f97316" opacity="0.25"/><circle r="4" fill="#f97316"/><text x="10" y="4" fill="#f97316">🦍</text></g>
    <g transform="translate(575, 195)"><circle r="10" fill="#f97316" opacity="0.25"/><circle r="4" fill="#f97316"/></g>

    <!-- North America -->
    <g transform="translate(215, 145)"><circle r="12" fill="#dc2626" opacity="0.3"/><circle r="5" fill="#dc2626"/><text x="10" y="4" fill="#dc2626">🦅</text></g>
    <g transform="translate(245, 165)"><circle r="12" fill="#dc2626" opacity="0.3"/><circle r="5" fill="#dc2626"/></g>

    <!-- South America -->
    <g transform="translate(290, 340)"><circle r="10" fill="#f97316" opacity="0.25"/><circle r="4" fill="#f97316"/><text x="10" y="4" fill="#f97316">🦁</text></g>
    <g transform="translate(300, 290)"><circle r="10" fill="#f97316" opacity="0.25"/><circle r="4" fill="#f97316"/></g>

    <!-- Australia -->
    <g transform="translate(900, 380)"><circle r="10" fill="#f59e0b" opacity="0.25"/><circle r="4" fill="#f59e0b"/><text x="10" y="4" fill="#f59e0b">🐨</text></g>
    <g transform="translate(870, 410)"><circle r="10" fill="#f97316" opacity="0.25"/><circle r="4" fill="#f97316"/></g>

    <!-- Oceans -->
    <g transform="translate(140, 270)"><circle r="12" fill="#dc2626" opacity="0.3"/><circle r="5" fill="#dc2626"/><text x="10" y="4" fill="#dc2626">🐋</text></g>
    <g transform="translate(400, 200)"><circle r="12" fill="#dc2626" opacity="0.3"/><circle r="5" fill="#dc2626"/><text x="10" y="4" fill="#dc2626">🐢</text></g>
    <g transform="translate(310, 175)"><circle r="14" fill="#dc2626" opacity="0.35"/><circle r="6" fill="#dc2626"/><text x="12" y="4" fill="#dc2626">🐬</text></g>

    <!-- Polar -->
    <g transform="translate(400, 38)"><circle r="10" fill="#f59e0b" opacity="0.25"/><circle r="4" fill="#f59e0b"/><text x="10" y="4" fill="#f59e0b">🐻‍❄️</text></g>
    <g transform="translate(500, 540)"><circle r="10" fill="#f97316" opacity="0.25"/><circle r="4" fill="#f97316"/><text x="10" y="4" fill="#f97316">🐧</text></g>
  </g>

  <!-- Connection lines showing global reach -->
  <g stroke="#34d399" stroke-width="0.4" opacity="0.08" fill="none">
    <path d="M 470 220 L 560 310 L 215 145 L 290 340 L 900 380 L 140 270 L 400 38"/>
    <path d="M 560 310 L 530 250 L 400 200 L 310 175 L 870 410"/>
    <path d="M 600 190 L 620 260 L 540 280 L 575 195"/>
  </g>

  <!-- Shield icon -->
  <g transform="translate(50, 65)">
    <path d="M 0 0 L 6 -15 L 12 0 L 6 12 Z" fill="#34d399" opacity="0.15"/>
    <path d="M 6 -8 L 5 -2 L 8 0 L 5 2 L 6 8" fill="none" stroke="#34d399" stroke-width="1" opacity="0.4"/>
  </g>
  <g transform="translate(1140, 65)">
    <path d="M 0 0 L 6 -15 L 12 0 L 6 12 Z" fill="#34d399" opacity="0.15"/>
    <path d="M 6 -8 L 5 -2 L 8 0 L 5 2 L 6 8" fill="none" stroke="#34d399" stroke-width="1" opacity="0.4"/>
  </g>

  <!-- Title box -->
  <g transform="translate(600, 510)">
    <rect x="-240" y="-52" width="480" height="104" rx="12" fill="#111827" opacity="0.88"/>
    <rect x="-220" y="-40" width="440" height="2" fill="url(#titleGrad)" opacity="0.3"/>
    <text x="0" y="-14" fill="#f8fafc" font-size="21" font-weight="800" text-anchor="middle" font-family="system-ui" letter-spacing="1">ENDANGERED SPECIES HOTSPOT MAP</text>
    <text x="0" y="10" fill="#64748b" font-size="9" font-weight="600" text-anchor="middle" font-family="system-ui" letter-spacing="3" text-transform="uppercase">GLOBAL WILDLIFE CONSERVATION MONITORING SYSTEM</text>

    <!-- Status markers -->
    <circle cx="-95" cy="30" r="3" fill="#22c55e" opacity="0.7"/>
    <circle cx="-65" cy="30" r="3" fill="#f59e0b" opacity="0.7"/>
    <circle cx="-35" cy="30" r="3" fill="#f97316" opacity="0.7"/>
    <circle cx="-5" cy="30" r="3" fill="#dc2626" opacity="0.7"/>
    <circle cx="25" cy="30" r="3" fill="#f59e0b" opacity="0.7"/>
    <circle cx="55" cy="30" r="3" fill="#3b82f6" opacity="0.7"/>
    <circle cx="85" cy="30" r="3" fill="#0ea5e9" opacity="0.7"/>
    <circle cx="115" cy="30" r="3" fill="#84cc16" opacity="0.7"/>
  </g>

  <!-- Stats badges -->
  <g transform="translate(160, 480)">
    <rect x="-65" y="-16" width="130" height="32" rx="6" fill="#111827" opacity="0.75" stroke="#334155" stroke-width="0.5"/>
    <text x="0" y="-2" fill="#34d399" font-size="11" font-weight="700" text-anchor="middle" font-family="system-ui">19</text>
    <text x="0" y="10" fill="#64748b" font-size="6" font-weight="600" text-anchor="middle" font-family="system-ui" letter-spacing="1">SPECIES</text>
  </g>
  <g transform="translate(1040, 480)">
    <rect x="-65" y="-16" width="130" height="32" rx="6" fill="#111827" opacity="0.75" stroke="#334155" stroke-width="0.5"/>
    <text x="0" y="-2" fill="#dc2626" font-size="11" font-weight="700" text-anchor="middle" font-family="system-ui">5</text>
    <text x="0" y="10" fill="#64748b" font-size="6" font-weight="600" text-anchor="middle" font-family="system-ui" letter-spacing="1">CRITICAL</text>
  </g>

  <rect x="0" y="620" width="1200" height="10" fill="#111827" opacity="0.5"/>
</svg>