<svg xmlns="http://www.w3.org/2000/svg" viewBox="0 0 400 300">
  <rect width="400" height="300" fill="#0b0f19"/>
  <rect x="30" y="24" width="340" height="180" rx="16" fill="#1e293b80" stroke="#ffffff14" stroke-width="1"/>
  <rect x="50" y="44" width="120" height="40" rx="8" fill="#0b0f19" stroke="#06b6d440" stroke-width="1"/>
  <text x="60" y="68" font-size="11" fill="#64748b" font-family="monospace">USD - US Dollar</text>
  <text x="290" y="68" font-size="14" fill="#f1f5f9" font-family="monospace" text-anchor="end">1.00</text>
  <circle cx="200" cy="74" r="18" fill="#06b6d4" opacity="0.15"/>
  <path d="M192 74 L200 66 L208 74 M192 74 L200 82 L208 74" stroke="#06b6d4" stroke-width="2" fill="none" stroke-linecap="round"/>
  <line x1="50" y1="96" x2="350" y2="96" stroke="#ffffff14" stroke-width="1"/>
  <rect x="50" y="110" width="120" height="40" rx="8" fill="#0b0f19" stroke="#f59e0b40" stroke-width="1"/>
  <text x="60" y="134" font-size="11" fill="#64748b" font-family="monospace">INR - Indian Rupee</text>
  <text x="290" y="134" font-size="20" fill="#f59e0b" font-family="monospace" text-anchor="end" font-weight="bold">83.42</text>
  <rect x="50" y="168" width="300" height="24" rx="6" fill="#06b6d410"/>
  <text x="200" y="184" font-size="10" fill="#64748b" font-family="monospace" text-anchor="middle">Mid-market rate — Updated just now</text>
  <rect x="30" y="216" width="160" height="64" rx="10" fill="#1e293b80" stroke="#ffffff14" stroke-width="1"/>
  <text x="46" y="238" font-size="9" fill="#64748b" font-family="monospace" text-transform="uppercase">Rate</text>
  <text x="46" y="258" font-size="16" fill="#f1f5f9" font-family="monospace" font-weight="bold">83.4200</text>
  <rect x="210" y="216" width="160" height="64" rx="10" fill="#1e293b80" stroke="#ffffff14" stroke-width="1"/>
  <text x="226" y="238" font-size="9" fill="#64748b" font-family="monospace" text-transform="uppercase">History</text>
  <text x="226" y="258" font-size="16" fill="#06b6d4" font-family="monospace" font-weight="bold">3 recent</text>
</svg>
