<svg xmlns="http://www.w3.org/2000/svg" viewBox="0 0 1200 630" width="1200" height="630">
  <defs><linearGradient id="b" x1="0%" y1="0%" x2="100%" y2="100%"><stop offset="0%" stop-color="#0b1120"/><stop offset="100%" stop-color="#111827"/></linearGradient><linearGradient id="g" x1="0%" y1="0%" x2="100%" y2="0%"><stop offset="0%" stop-color="#d4a017"/><stop offset="100%" stop-color="#eab308"/></linearGradient></defs>
  <rect width="1200" height="630" fill="url(#b)"/><rect x="0" y="0" width="1200" height="3" fill="url(#g)" opacity="0.6"/>
  <text x="600" y="80" text-anchor="middle" font-family="ui-monospace,monospace" font-size="26" font-weight="700" fill="#d4a017" letter-spacing="2">PUBLIC POLICY IMPACT</text>
  <text x="600" y="115" text-anchor="middle" font-family="sans-serif" font-size="16" fill="#cbd5e1">Simulator</text>
  <rect x="80" y="150" width="220" height="80" rx="8" fill="rgba(30,41,59,0.6)" stroke="#334155" stroke-width="1"/>
  <text x="190" y="180" text-anchor="middle" font-family="sans-serif" font-size="10" fill="#64748b">GDP GROWTH</text>
  <text x="190" y="205" text-anchor="middle" font-family="ui-monospace,monospace" font-size="22" font-weight="700" fill="#22c55e">2.1%</text>
  <rect x="315" y="150" width="220" height="80" rx="8" fill="rgba(30,41,59,0.6)" stroke="#334155" stroke-width="1"/>
  <text x="425" y="180" text-anchor="middle" font-family="sans-serif" font-size="10" fill="#64748b">UNEMPLOYMENT</text>
  <text x="425" y="205" text-anchor="middle" font-family="ui-monospace,monospace" font-size="22" font-weight="700" fill="#d4a017">4.8%</text>
  <rect x="550" y="150" width="220" height="80" rx="8" fill="rgba(30,41,59,0.6)" stroke="#334155" stroke-width="1"/>
  <text x="660" y="180" text-anchor="middle" font-family="sans-serif" font-size="10" fill="#64748b">INFLATION</text>
  <text x="660" y="205" text-anchor="middle" font-family="ui-monospace,monospace" font-size="22" font-weight="700" fill="#d4a017">2.3%</text>
  <rect x="785" y="150" width="220" height="80" rx="8" fill="rgba(30,41,59,0.6)" stroke="#334155" stroke-width="1"/>
  <text x="895" y="180" text-anchor="middle" font-family="sans-serif" font-size="10" fill="#64748b">CONFIDENCE</text>
  <text x="895" y="205" text-anchor="middle" font-family="ui-monospace,monospace" font-size="22" font-weight="700" fill="#22c55e">72</text>
  <rect x="100" y="270" width="1000" height="200" rx="10" fill="rgba(30,41,59,0.4)" stroke="#334155" stroke-width="1"/>
  <text x="600" y="300" text-anchor="middle" font-family="sans-serif" font-size="13" font-weight="600" fill="#93c5fd">ECONOMIC IMPACT TIMELINE</text>
  <rect x="140" y="390" width="40" height="60" rx="3" fill="#22c55e" opacity="0.7"/>
  <rect x="140" y="340" width="40" height="50" rx="3" fill="#ef4444" opacity="0.7"/>
  <rect x="140" y="360" width="40" height="30" rx="3" fill="#d4a017" opacity="0.7"/>
  <rect x="190" y="370" width="40" height="80" rx="3" fill="#22c55e" opacity="0.7"/>
  <rect x="190" y="320" width="40" height="70" rx="3" fill="#ef4444" opacity="0.7"/>
  <rect x="190" y="340" width="40" height="50" rx="3" fill="#d4a017" opacity="0.7"/>
  <rect x="240" y="350" width="40" height="100" rx="3" fill="#22c55e" opacity="0.7"/>
  <rect x="240" y="330" width="40" height="80" rx="3" fill="#ef4444" opacity="0.7"/>
  <rect x="240" y="360" width="40" height="40" rx="3" fill="#d4a017" opacity="0.7"/>
  <rect x="600" y="500" text-anchor="middle">
    <text x="600" y="510" text-anchor="middle" font-family="sans-serif" font-size="12" fill="#64748b">Policy Changes · Economic Effects</text>
  </rect>
  <rect x="300" y="530" width="600" height="50" rx="8" fill="rgba(30,58,95,0.3)" stroke="rgba(212,160,23,0.2)" stroke-width="1"/>
  <text x="600" y="555" text-anchor="middle" font-family="sans-serif" font-size="13" fill="#93c5fd">10 distinct policies to enact and observe</text>
  <text x="600" y="572" text-anchor="middle" font-family="sans-serif" font-size="11" fill="#64748b">Interactive Economic Policy Simulation</text>
</svg>
