<svg xmlns="http://www.w3.org/2000/svg" viewBox="0 0 1280 720" width="1280" height="720">
  <defs><linearGradient id="g" x1="0%" y1="0%" x2="0%" y2="100%"><stop offset="0%" stop-color="#0a0510"/><stop offset="60%" stop-color="#0d0a20"/><stop offset="100%" stop-color="#1a1a2e"/></linearGradient></defs>
  <rect width="1280" height="720" fill="url(#g)"/>
  <circle cx="400" cy="200" r="1.5" fill="#fff" opacity=".8"/><circle cx="500" cy="300" r="1" fill="#fff" opacity=".6"/><circle cx="600" cy="150" r="2" fill="#fff" opacity=".7"/><circle cx="700" cy="250" r="1" fill="#fff" opacity=".5"/><circle cx="300" cy="350" r="1.5" fill="#fff" opacity=".6"/><circle cx="800" cy="180" r="1" fill="#fff" opacity=".8"/><circle cx="350" cy="120" r="2" fill="#fff" opacity=".5"/><circle cx="550" cy="400" r="1" fill="#fff" opacity=".4"/><circle cx="250" cy="280" r="1.5" fill="#fff" opacity=".7"/><circle cx="900" cy="300" r="1" fill="#fff" opacity=".6"/>
  <path d="M380 100 L400 120 L420 140 L440 130 L460 150 L430 170 L390 160" fill="none" stroke="#64748b" stroke-width="1" stroke-dasharray="3 3"/>
  <circle cx="400" cy="300" r="20" fill="#eab308" opacity=".9"/><circle cx="408" cy="300" r="20" fill="#0a0510"/>
  <circle cx="300" cy="180" r="4" fill="#eab308"/><text x="312" y="184" fill="#eab308" font-family="monospace" font-size="10">Jupiter</text>
  <circle cx="550" cy="250" r="3" fill="#06b6d4"/><text x="562" y="254" fill="#06b6d4" font-family="monospace" font-size="10">Saturn</text>
  <circle cx="700" cy="150" r="3.5" fill="#f97316"/><text x="712" y="154" fill="#f97316" font-family="monospace" font-size="10">Mars</text>
  <circle cx="450" cy="400" r="5" fill="#a78bfa"/><text x="462" y="404" fill="#a78bfa" font-family="monospace" font-size="10">Venus</text>
  <rect x="0" y="620" width="1280" height="100" fill="#050505"/>
  <line x1="0" y1="620" x2="1280" y2="620" stroke="#334155" stroke-width="1"/>
  <text x="640" y="90" text-anchor="middle" font-family="ui-monospace,monospace" font-size="26" font-weight="800" fill="#f8fafc" letter-spacing="1">ASTRONOMY OBSERVATION PLANNER</text>
  <text x="640" y="115" text-anchor="middle" font-family="ui-monospace,monospace" font-size="13" fill="#64748b">Night Sky Planner · Celestial Events</text>
</svg>
