<?xml version="1.0" encoding="UTF-8"?>
<svg version="1.1" xmlns="http://www.w3.org/2000/svg" width="1918" height="1092">
<path d="M0 0 C632.94 0 1265.88 0 1918 0 C1918 360.36 1918 720.72 1918 1092 C1285.06 1092 652.12 1092 0 1092 C0 731.64 0 371.28 0 0 Z " fill="#EBADB6" transform="translate(0,0)"/>
<path d="M0 0 C0.69143933 -0.00436032 1.38287866 -0.00872064 2.09527069 -0.0132131 C4.4175054 -0.02418145 6.73914787 -0.01374034 9.06137848 -0.00342751 C10.74092714 -0.00688345 12.42047353 -0.01164759 14.10001516 -0.01760924 C18.71956742 -0.03015759 23.33893426 -0.02393145 27.95848727 -0.01465058 C32.93878623 -0.00787611 37.91905282 -0.01833336 42.8993454 -0.02659035 C52.65742787 -0.03994701 62.4154412 -0.03704134 72.17352641 -0.02835242 C80.10243271 -0.02158389 88.0313196 -0.02065556 95.96022797 -0.02392387 C97.08767893 -0.02438357 98.21512989 -0.02484327 99.37674603 -0.0253169 C101.66696871 -0.02627605 103.95719138 -0.02724869 106.24741405 -0.02823468 C127.73497061 -0.03679423 149.22248881 -0.02694556 170.71003908 -0.01083358 C189.15696472 0.00257011 207.60383374 0.00024218 226.05075836 -0.01358986 C247.46016641 -0.02963568 268.86954081 -0.03597021 290.27895403 -0.02675307 C292.56086508 -0.0257974 294.84277613 -0.02485428 297.12468719 -0.02392387 C298.80890876 -0.02322963 298.80890876 -0.02322963 300.52715501 -0.02252137 C308.44874254 -0.01992849 316.37030877 -0.0243089 324.29189301 -0.03136253 C333.94249645 -0.03976665 343.59302667 -0.03752034 353.24362171 -0.0215203 C358.16976508 -0.01362292 363.09578625 -0.01057094 368.02192879 -0.02046776 C372.52847327 -0.02938481 377.0347819 -0.02453132 381.54130489 -0.0085351 C383.17447482 -0.00517459 384.80766454 -0.00690975 386.44082183 -0.01416247 C388.65580541 -0.02324703 390.86997452 -0.01396776 393.08491516 0 C394.31667559 0.00048706 395.54843602 0.00097411 396.81752253 0.00147593 C401.54919931 0.55321888 403.90801885 2.31156618 407.32367188 5.52103001 C409.63046249 9.35474365 409.59428554 12.73781429 409.54302883 17.08141804 C409.55130008 18.40177441 409.55130008 18.40177441 409.55973843 19.74880466 C409.57338873 22.71337436 409.55840652 25.67711361 409.54366302 28.64166832 C409.5475539 30.78248259 409.55319263 32.92329429 409.56043392 35.06409985 C409.57523719 40.95872761 409.56497832 46.85308957 409.55069721 52.74770892 C409.53961892 59.10022864 409.55151962 65.4527101 409.56053925 71.80522728 C409.57368819 83.53468523 409.5686743 95.26404682 409.55446396 106.99350111 C409.54142069 117.82925512 409.53621456 128.66497841 409.53878212 139.50074005 C409.53902274 140.57818935 409.53902274 140.57818935 409.53926823 141.6774053 C409.5399318 144.59310695 409.54063421 147.50880859 409.54139357 150.42451022 C409.54842052 177.78641935 409.53291687 205.14827441 409.50677011 232.51016978 C409.48365685 256.82640425 409.47826565 281.14257927 409.4885025 305.45882225 C409.49110445 311.68461638 409.49368945 317.91041051 409.49610043 324.13620472 C409.49639787 324.9026421 409.49669532 325.66907948 409.49700178 326.45874224 C409.50461485 346.76857731 409.49820608 367.0784075 409.48740441 387.3882404 C409.48625659 389.57335836 409.48511341 391.75847633 409.48397758 393.94359431 C409.48322233 395.39318419 409.48245669 396.84277407 409.48168057 398.29236394 C409.47601919 409.12134288 409.47735428 419.95030643 409.4819088 430.77928543 C409.48701354 443.09161819 409.48087771 455.40388313 409.4610145 467.71620279 C409.45112544 474.00141246 409.4460548 480.28652829 409.45390701 486.57174301 C409.46094305 492.32119301 409.45420784 498.07045331 409.43630338 503.81987823 C409.43224537 505.90393656 409.43328129 507.98801207 409.43982225 510.07206409 C409.44793372 512.89753422 409.43770729 515.72235915 409.42277431 518.54778767 C409.42951197 519.36325163 409.43624962 520.1787156 409.44319144 521.01889059 C409.39335518 525.87077212 408.68307191 529.1534402 406.04245758 533.37752342 C401.75152975 537.26617677 397.99135514 537.50353336 392.3494215 537.5117445 C391.66227783 537.51409673 390.97513416 537.51644896 390.26716796 537.51887247 C387.94767585 537.52556843 385.62823968 537.52510407 383.30873871 537.52469444 C381.63575588 537.52799268 379.96277385 537.53171817 378.28979284 537.53583592 C373.6791144 537.54586834 369.06844898 537.5495747 364.45776117 537.55222523 C359.49036693 537.55612453 354.52298304 537.56570304 349.5555954 537.5744381 C337.55374954 537.5942117 325.55190282 537.60426924 313.55004475 537.61316589 C307.90188334 537.61754677 302.25372287 537.62291405 296.60556221 537.62815475 C277.83686232 537.6451669 259.06816302 537.65966238 240.2994566 537.6669035 C235.42757606 537.66881347 230.55569552 537.67073379 225.683815 537.67268944 C224.47289577 537.67317318 223.26197654 537.67365692 222.01436279 537.67415532 C202.38620344 537.68246051 182.75810494 537.70780576 163.12997218 537.74027012 C142.990766 537.77330902 122.85159078 537.79134933 102.71235734 537.79454774 C91.39976212 537.79671563 80.08725567 537.80550516 68.77468681 537.83100891 C59.14309197 537.85267254 49.51160746 537.8607877 39.87999102 537.85104213 C34.96381872 537.846485 30.04787426 537.84846548 25.13173294 537.86780357 C20.63302999 537.88534723 16.13472257 537.88450951 11.63601593 537.86890628 C10.00679894 537.86651679 8.37755518 537.8709228 6.74837925 537.88273493 C4.5361086 537.89778381 2.32525219 537.88823186 0.11301708 537.87250805 C-1.11641001 537.87348486 -2.3458371 537.87446167 -3.61251956 537.87546808 C-7.73268621 537.26213446 -9.79714392 536.07573203 -12.95754242 533.37752342 C-16.28688229 528.52298882 -16.38484719 524.24002062 -16.33785915 518.56619835 C-16.34251907 517.68649529 -16.34717899 516.80679224 -16.35198012 515.90043151 C-16.36395944 512.94383265 -16.35452328 509.98769082 -16.34522247 507.03108788 C-16.34939409 504.89353626 -16.35487065 502.75598686 -16.36154228 500.61844158 C-16.37603799 494.7375222 -16.37173928 488.85674246 -16.36437547 482.9758153 C-16.35965635 476.63626496 -16.37214245 470.29674538 -16.38239288 463.95720482 C-16.3986148 452.25354799 -16.40102121 440.5499472 -16.39608789 428.84628257 C-16.39153278 418.03471985 -16.39212732 407.22317374 -16.39792824 396.41161156 C-16.3986851 394.96202383 -16.39944108 393.51243611 -16.40019618 392.06284839 C-16.40134136 389.87852743 -16.40249124 387.69420648 -16.40365543 385.50988554 C-16.41436196 365.19964518 -16.41908402 344.88941037 -16.41118526 324.57916832 C-16.41088809 323.81339411 -16.41059092 323.0476199 -16.41028474 322.25864042 C-16.40783574 316.03978382 -16.40522418 309.82092729 -16.40260061 303.60207076 C-16.39249623 279.33936985 -16.40085656 255.07673813 -16.42409515 230.81404686 C-16.45015489 203.56172271 -16.46301926 176.30944023 -16.4559074 149.05710316 C-16.45519133 146.15254721 -16.45451694 143.24799125 -16.45386696 140.34343529 C-16.45369715 139.62824688 -16.45352734 138.91305847 -16.45335239 138.17619769 C-16.45104747 127.37078277 -16.45903547 116.56540648 -16.47215843 105.76000023 C-16.48705147 93.4751285 -16.48756183 81.19037552 -16.47008752 68.90550065 C-16.46154653 62.63442979 -16.45950346 56.36353222 -16.47473907 50.09247017 C-16.48850379 44.35597056 -16.48392934 38.61979406 -16.46449984 32.88331354 C-16.46071419 30.80399305 -16.46373487 28.72464719 -16.47411149 26.64534914 C-16.48718431 23.82612194 -16.47578488 21.00802603 -16.45811367 18.1888485 C-16.46776418 17.37527472 -16.47741469 16.56170095 -16.48735765 15.72347343 C-16.41986325 10.50494729 -15.49037405 7.46102528 -11.95754242 3.37752342 C-8.03068115 0.2372524 -4.95560698 0.00195952 0 0 Z " fill="#FAE3E5" transform="translate(763.9575424194336,279.6224765777588)"/>
<path d="M0 0 C1.26883616 -0.00935994 1.26883616 -0.00935994 2.56330538 -0.01890898 C5.40247108 -0.03488507 8.24078373 -0.02221679 11.07995605 -0.00964355 C13.11344403 -0.01506262 15.14692808 -0.02218406 17.18040466 -0.03088379 C22.70721722 -0.04914561 28.23373167 -0.04203773 33.76054955 -0.02936745 C39.53894237 -0.01925462 45.31730932 -0.02862834 51.09570312 -0.03491211 C60.80029899 -0.04219352 70.50477318 -0.03258782 80.20935059 -0.0135498 C91.4361415 0.00821981 102.66264188 0.00116879 113.88942575 -0.02085543 C123.52093703 -0.03899533 133.15236074 -0.04157463 142.78388357 -0.03110075 C148.53969175 -0.02485808 154.29536327 -0.02405148 160.05116272 -0.0372467 C165.46192111 -0.04878401 170.87230417 -0.04081809 176.28302193 -0.01766968 C178.27123452 -0.01237127 180.2594786 -0.01391562 182.24767876 -0.02272034 C184.95713387 -0.03361473 187.66537836 -0.01998652 190.37475586 0 C191.16580231 -0.00892289 191.95684876 -0.01784577 192.77186632 -0.02703905 C196.33833681 0.0241636 198.30452054 0.21423406 201.1751709 2.41638947 C202.83809877 4.71639771 203.19202754 5.768711 203.20495605 8.57043457 C203.2175647 9.35805176 203.23017334 10.14566895 203.24316406 10.95715332 C203.23506714 11.79891113 203.22697021 12.64066895 203.21862793 13.50793457 C203.22245483 14.38062988 203.22628174 15.2533252 203.23022461 16.15246582 C203.23294283 17.99492549 203.22558787 19.83742381 203.2088623 21.67980957 C203.18745041 24.49839391 203.20866594 27.31442942 203.23425293 30.13293457 C203.23160964 31.92460686 203.22648462 33.71627756 203.21862793 35.50793457 C203.22672485 36.34969238 203.23482178 37.1914502 203.24316406 38.05871582 C203.2242511 39.2401416 203.2242511 39.2401416 203.20495605 40.44543457 C203.20177368 41.13508301 203.19859131 41.82473145 203.1953125 42.53527832 C202.41849001 45.5522097 201.15776968 46.61282864 198.68737793 48.50793457 C195.78947102 48.90071238 193.27186662 49.04854812 190.37475586 49.01586914 C189.52886508 49.0221091 188.68297431 49.02834907 187.81145048 49.03477812 C184.97228478 49.05075421 182.13397213 49.03808593 179.2947998 49.0255127 C177.26131183 49.03093176 175.22782778 49.0380532 173.1943512 49.04675293 C167.66753864 49.06501475 162.14102419 49.05790687 156.61420631 49.04523659 C150.83581349 49.03512377 145.05744654 49.04449748 139.27905273 49.05078125 C129.57445687 49.05806266 119.86998268 49.04845696 110.16540527 49.02941895 C98.93861435 49.00764933 87.71211398 49.01470035 76.4853301 49.03672457 C66.85381883 49.05486447 57.22239512 49.05744378 47.59087229 49.04696989 C41.83506411 49.04072722 36.07939259 49.03992062 30.32359314 49.05311584 C24.91283475 49.06465315 19.50245169 49.05668723 14.09173393 49.03353882 C12.10352134 49.02824041 10.11527726 49.02978476 8.1270771 49.03858948 C5.41762199 49.04948387 2.70937749 49.03585566 0 49.01586914 C-1.18656968 49.02925347 -1.18656968 49.02925347 -2.39711046 49.04290819 C-5.96358095 48.99170554 -7.92976468 48.80163508 -10.80041504 46.59947968 C-12.46334291 44.29947143 -12.81727168 43.24715814 -12.8302002 40.44543457 C-12.84280884 39.65781738 -12.85541748 38.8702002 -12.8684082 38.05871582 C-12.86031128 37.21695801 -12.85221436 36.3752002 -12.84387207 35.50793457 C-12.84769897 34.63523926 -12.85152588 33.76254395 -12.85546875 32.86340332 C-12.85818697 31.02094365 -12.85083201 29.17844533 -12.83410645 27.33605957 C-12.81269455 24.51747523 -12.83391008 21.70143972 -12.85949707 18.88293457 C-12.85685378 17.09126228 -12.85172876 15.29959158 -12.84387207 13.50793457 C-12.85196899 12.66617676 -12.86006592 11.82441895 -12.8684082 10.95715332 C-12.85579956 10.16953613 -12.84319092 9.38191895 -12.8302002 8.57043457 C-12.82701782 7.88078613 -12.82383545 7.1911377 -12.82055664 6.48059082 C-11.14047716 -0.0443033 -5.73025321 -0.06463641 0 0 Z " fill="#FCFCFB" transform="translate(865.3126220703125,570.4920654296875)"/>
<path d="M0 0 C1.94324661 -0.01691895 1.94324661 -0.01691895 3.92575073 -0.03417969 C5.35943827 -0.02640264 6.7931236 -0.01820997 8.22680664 -0.00964355 C9.73813552 -0.01506426 11.24945912 -0.02218664 12.76077271 -0.03088379 C16.86411101 -0.04912645 20.96704724 -0.0420459 25.07039261 -0.02936745 C29.36334573 -0.01924459 33.65626429 -0.02863113 37.94921875 -0.03491211 C45.15867294 -0.04219061 52.36796326 -0.03259555 59.57739258 -0.0135498 C67.91404446 0.0082194 76.25030505 0.00116817 84.58694744 -0.02085543 C91.7429041 -0.0390037 98.89874292 -0.04157058 106.05471516 -0.03110075 C110.32941922 -0.02486264 114.60393933 -0.02403882 118.87863159 -0.0372467 C122.89740197 -0.04879635 126.91566758 -0.04079617 130.93438339 -0.01766968 C132.40980058 -0.01237778 133.88526021 -0.01390465 135.36066055 -0.02272034 C137.37340026 -0.03363846 139.38623274 -0.01752358 141.39892578 0 C142.52569229 0.0015081 143.6524588 0.0030162 144.81336975 0.00457001 C148.34235761 0.62006207 149.5188294 1.72344241 151.69946289 4.50793457 C152.20739746 6.48059082 152.20739746 6.48059082 152.21704102 8.57043457 C152.22964966 9.35805176 152.2422583 10.14566895 152.25524902 10.95715332 C152.2471521 11.79891113 152.23905518 12.64066895 152.23071289 13.50793457 C152.23453979 14.38062988 152.2383667 15.2533252 152.24230957 16.15246582 C152.24502779 17.99492549 152.23767283 19.83742381 152.22094727 21.67980957 C152.19953537 24.49839391 152.2207509 27.31442942 152.24633789 30.13293457 C152.2436946 31.92460686 152.23856958 33.71627756 152.23071289 35.50793457 C152.23880981 36.34969238 152.24690674 37.1914502 152.25524902 38.05871582 C152.23633606 39.2401416 152.23633606 39.2401416 152.21704102 40.44543457 C152.21385864 41.13508301 152.21067627 41.82473145 152.20739746 42.53527832 C151.45086597 45.47340592 150.04259324 46.6147562 147.69946289 48.50793457 C144.81336975 49.01129913 144.81336975 49.01129913 141.39892578 49.01586914 C139.45567917 49.03278809 139.45567917 49.03278809 137.47317505 49.05004883 C136.03948751 49.04227178 134.60580218 49.03407911 133.17211914 49.0255127 C131.66079026 49.0309334 130.14946666 49.03805578 128.63815308 49.04675293 C124.53481478 49.06499559 120.43187855 49.05791504 116.32853317 49.04523659 C112.03558005 49.03511373 107.74266149 49.04450027 103.44970703 49.05078125 C96.24025284 49.05805975 89.03096252 49.04846469 81.8215332 49.02941895 C73.48488133 49.00764974 65.14862073 49.01470097 56.81197834 49.03672457 C49.65602168 49.05487284 42.50018286 49.05743972 35.34421062 49.04696989 C31.06950656 49.04073178 26.79498645 49.03990796 22.52029419 49.05311584 C18.50152381 49.06466549 14.4832582 49.05666531 10.46454239 49.03353882 C8.9891252 49.02824692 7.51366557 49.02977379 6.03826523 49.03858948 C4.02552552 49.0495076 2.01269304 49.03339272 0 49.01586914 C-1.12676651 49.01436104 -2.25353302 49.01285294 -3.41444397 49.01129913 C-6.94343183 48.39580707 -8.11990362 47.29242673 -10.30053711 44.50793457 C-10.80847168 42.53527832 -10.80847168 42.53527832 -10.81811523 40.44543457 C-10.83072388 39.65781738 -10.84333252 38.8702002 -10.85632324 38.05871582 C-10.84822632 37.21695801 -10.84012939 36.3752002 -10.83178711 35.50793457 C-10.83561401 34.63523926 -10.83944092 33.76254395 -10.84338379 32.86340332 C-10.84610201 31.02094365 -10.83874705 29.17844533 -10.82202148 27.33605957 C-10.80060959 24.51747523 -10.82182512 21.70143972 -10.84741211 18.88293457 C-10.84476882 17.09126228 -10.8396438 15.29959158 -10.83178711 13.50793457 C-10.83988403 12.66617676 -10.84798096 11.82441895 -10.85632324 10.95715332 C-10.8437146 10.16953613 -10.83110596 9.38191895 -10.81811523 8.57043457 C-10.81493286 7.88078613 -10.81175049 7.1911377 -10.80847168 6.48059082 C-9.35714023 0.84408126 -5.20838742 0.00697108 0 0 Z " fill="#FCFCFC" transform="translate(889.300537109375,655.4920654296875)"/>
<path d="M0 0 C1.08376923 -0.00845947 2.16753845 -0.01691895 3.28414917 -0.02563477 C4.47332443 -0.01956207 5.66249969 -0.01348938 6.88771057 -0.00723267 C8.13993408 -0.01248962 9.39215759 -0.01774658 10.68232727 -0.02316284 C14.11844931 -0.03411699 17.55403062 -0.03153138 20.99012256 -0.02202559 C24.58506678 -0.01443529 28.17998774 -0.02147299 31.77493286 -0.02618408 C37.81338147 -0.03164419 43.85172007 -0.02444412 49.89015198 -0.01016235 C56.87083431 0.00615735 63.85125369 0.00088177 70.83192962 -0.01564157 C76.8243826 -0.02925804 82.81675644 -0.03117511 88.8092199 -0.02332556 C92.38862896 -0.01864895 95.96791447 -0.01802363 99.5473156 -0.02793503 C103.53848859 -0.03821425 107.52936746 -0.02396452 111.52052307 -0.00723267 C112.7076741 -0.01330536 113.89482513 -0.01937805 115.11795044 -0.02563477 C116.20453949 -0.01717529 117.29112854 -0.00871582 118.41064453 0 C119.35435126 0.00113108 120.29805799 0.00226215 121.2703619 0.00342751 C124.22696668 0.45017912 125.60736046 1.34706688 127.76881409 3.38095093 C128.27674866 5.3092804 128.27674866 5.3092804 128.28639221 7.51351929 C128.29900085 8.34125351 128.3116095 9.16898773 128.32460022 10.02180481 C128.3165033 10.91247147 128.30840637 11.80313812 128.30006409 12.72079468 C128.30389099 13.63929703 128.3077179 14.55779938 128.31166077 15.50413513 C128.31438277 17.44672745 128.30700142 19.38935624 128.29029846 21.33187866 C128.26891698 24.3041475 128.29007735 27.27399242 128.31568909 30.2461853 C128.31304538 32.13356043 128.30791952 34.02093405 128.30006409 35.90829468 C128.30816101 36.7969371 128.31625793 37.68557953 128.32460022 38.60115051 C128.30568726 39.84748009 128.30568726 39.84748009 128.28639221 41.11898804 C128.28320984 41.84718246 128.28002747 42.57537689 128.27674866 43.32563782 C127.54282269 46.2954055 126.10609783 47.44944582 123.76881409 49.38095093 C121.2703619 49.88431549 121.2703619 49.88431549 118.41064453 49.8888855 C117.32405548 49.90016479 116.23746643 49.91144409 115.11795044 49.92306519 C113.93079941 49.91496826 112.74364838 49.90687134 111.52052307 49.89852905 C109.63955933 49.90904297 109.63955933 49.90904297 107.72059631 49.91976929 C104.28445186 49.93435941 100.84927062 49.93093904 97.41318011 49.91825294 C93.81776813 49.90812411 90.22239724 49.91751808 86.62698364 49.92379761 C80.59028229 49.93107346 74.55377673 49.92148713 68.5171051 49.9024353 C61.5357443 49.88065661 54.55485058 49.88772505 47.57350105 49.90974092 C41.58017648 49.92788512 35.58699261 49.93045842 29.59364945 49.91998625 C26.01369414 49.91374709 22.43395849 49.9129272 18.85401726 49.9261322 C14.86506317 49.93981846 10.87663368 49.92085691 6.88771057 49.89852905 C5.69853531 49.90662598 4.50936005 49.9147229 3.28414917 49.92306519 C2.20037994 49.91178589 1.11661072 49.90050659 0 49.8888855 C-0.94332971 49.8873774 -1.88665941 49.88586929 -2.85857487 49.88431549 C-5.23118591 49.38095093 -5.23118591 49.38095093 -7.0343256 47.47766209 C-8.37204117 45.13419466 -8.61059003 43.79756182 -8.61936951 41.11898804 C-8.62882599 40.28810165 -8.63828247 39.45721527 -8.64802551 38.60115051 C-8.63891647 37.26818687 -8.63891647 37.26818687 -8.62962341 35.90829468 C-8.63249359 34.9888356 -8.63536377 34.06937653 -8.63832092 33.12205505 C-8.64035983 31.18124779 -8.63484206 29.2404199 -8.62229919 27.2996521 C-8.60622474 24.32563496 -8.62216316 21.35297305 -8.64134216 18.3789978 C-8.63936006 16.49292709 -8.63551707 14.60685722 -8.62962341 12.72079468 C-8.63569611 11.83012802 -8.6417688 10.93946136 -8.64802551 10.02180481 C-8.63856903 9.19407059 -8.62911255 8.36633636 -8.61936951 7.51351929 C-8.61698273 6.78612045 -8.61459595 6.05872162 -8.61213684 5.3092804 C-7.66313511 0.50554357 -4.37704647 0.00524819 0 0 Z " fill="#EA8484" transform="translate(900.2311859130859,717.6190490722656)"/>
<path d="M0 0 C2.8730228 2.17953454 3.62597641 3.93408158 4.8125 7.375 C5.52510717 14.31810499 5.38417806 20.28991887 1.8125 26.375 C-1.93797482 28.87531654 -3.74606266 28.91103554 -8.1875 28.375 C-11.66180426 25.65597928 -13.43927072 23.68298677 -14.1875 19.375 C-15.16495009 6.97260051 -15.16495009 6.97260051 -12.3125 2.625 C-8.66409601 -1.23801599 -5.07828815 -1.45093947 0 0 Z " fill="#DF7F90" transform="translate(862.1875,484.625)"/>
<path d="M0 0 C2.97 0 5.94 0 9 0 C10.42616285 3.96860158 11.85027476 7.93793111 13.27246094 11.90795898 C13.7569183 13.25939995 14.2419431 14.61063765 14.72753906 15.96166992 C15.42400762 17.89970028 16.11845571 19.83844411 16.8125 21.77734375 C17.23144531 22.94515381 17.65039062 24.11296387 18.08203125 25.31616211 C19 28 19 28 19 29 C16.69 29 14.38 29 12 29 C11.34 27.02 10.68 25.04 10 23 C6.04 22.67 2.08 22.34 -2 22 C-2.144375 22.969375 -2.28875 23.93875 -2.4375 24.9375 C-3 28 -3 28 -4 29 C-5.99958364 29.04080783 -8.00045254 29.04254356 -10 29 C-9.80365967 28.44127197 -9.60731934 27.88254395 -9.4050293 27.30688477 C-8.49845098 24.72568074 -7.59297046 22.14409285 -6.6875 19.5625 C-6.37876953 18.68400391 -6.07003906 17.80550781 -5.75195312 16.90039062 C-3.78285871 11.28328971 -1.8684654 5.65138918 0 0 Z " fill="#DE7B8C" transform="translate(853,340)"/>
<path d="M0 0 C1.98 0 3.96 0 6 0 C8.64 7.26 11.28 14.52 14 22 C16.2619525 15.13499057 16.2619525 15.13499057 18.51733398 8.26782227 C18.79907471 7.41760498 19.08081543 6.5673877 19.37109375 5.69140625 C19.65911865 4.81685791 19.94714355 3.94230957 20.24389648 3.04125977 C21 1 21 1 22 0 C23.65 0 25.3 0 27 0 C27 9.57 27 19.14 27 29 C25.68 29 24.36 29 23 29 C22.505 19.595 22.505 19.595 22 10 C20.18718968 15.87322392 20.18718968 15.87322392 18.41113281 21.75756836 C18.17749023 22.48596924 17.94384766 23.21437012 17.703125 23.96484375 C17.35749512 25.08814087 17.35749512 25.08814087 17.00488281 26.23413086 C16 28 16 28 13.89355469 28.75219727 C13.26868164 28.83397217 12.64380859 28.91574707 12 29 C11.39226026 27.5222978 10.78905496 26.04273073 10.1875 24.5625 C9.85105469 23.73878906 9.51460937 22.91507812 9.16796875 22.06640625 C7.65330356 18.08977692 6.34565194 14.03695582 5 10 C4.67 16.27 4.34 22.54 4 29 C2.68 29 1.36 29 0 29 C0 19.43 0 9.86 0 0 Z " fill="#DF7E92" transform="translate(1043,484)"/>
<path d="M0 0 C1.65 0 3.3 0 5 0 C5 0.66 5 1.32 5 2 C5.99 1.34 6.98 0.68 8 0 C14.32258065 -0.4516129 14.32258065 -0.4516129 18 2 C18.99 1.34 19.98 0.68 21 0 C24.4501392 -0.4404433 26.26484956 -0.49889922 29.17578125 1.4765625 C31.8423153 5.16517277 31.44087211 8.32323539 31.25 12.75 C31.23195313 13.54277344 31.21390625 14.33554687 31.1953125 15.15234375 C31.14833082 17.10208348 31.07659044 19.05119878 31 21 C29.02 21 27.04 21 25 21 C24.67 15.72 24.34 10.44 24 5 C22.68 5 21.36 5 20 5 C18.5192152 7.9615696 18.64685963 10.83506295 18.4375 14.125 C18.35371094 15.40632813 18.26992188 16.68765625 18.18359375 18.0078125 C18.12300781 18.99523437 18.06242188 19.98265625 18 21 C16.35 21 14.7 21 13 21 C12.67 16.05 12.34 11.1 12 6 C10.68 5.67 9.36 5.34 8 5 C6.00383446 6.99616554 6.59016573 10.81701963 6.4375 13.5625 C6.39431641 14.27341797 6.35113281 14.98433594 6.30664062 15.71679688 C6.20028223 17.47761912 6.09961154 19.2387832 6 21 C4.02 21 2.04 21 0 21 C0 14.07 0 7.14 0 0 Z " fill="#DE7B8C" transform="translate(923,348)"/>
<path d="M0 0 C3.8053125 -0.12375 3.8053125 -0.12375 7.6875 -0.25 C8.87218872 -0.30462402 8.87218872 -0.30462402 10.08081055 -0.36035156 C13.80490111 -0.41873912 15.68142658 -0.18513953 18.984375 1.734375 C21.22256949 4.25017501 21.65886204 5.18968068 21.5625 8.5 C21.56443359 9.62921875 21.56443359 9.62921875 21.56640625 10.78125 C20.75952976 13.94197997 19.64714585 15.10123949 17 17 C13.546875 17.390625 13.546875 17.390625 9.75 17.25 C8.48671875 17.21390625 7.2234375 17.1778125 5.921875 17.140625 C4.47554687 17.07101562 4.47554687 17.07101562 3 17 C3 20.96 3 24.92 3 29 C2.01 29 1.02 29 0 29 C0 19.43 0 9.86 0 0 Z " fill="#DD798A" transform="translate(1017,484)"/>
<path d="M0 0 C3.02508145 1.73602105 5.41790069 3.83580137 7 7 C7.2262475 12.0069555 6.69507747 15.16929766 3.4375 19.0625 C-0.66706584 21.37598256 -3.4070603 22.10486223 -8 21 C-11.41885274 19.07301027 -13.4095503 17.63879916 -14.765625 13.875 C-15.36623979 10.58274118 -15.60229224 8.13165066 -14 5.12109375 C-10.02228777 0.20814561 -6.19645586 -1.05765109 0 0 Z " fill="#DF7C8D" transform="translate(1024,348)"/>
<path d="M0 0 C0.66 0 1.32 0 2 0 C2 0.66 2 1.32 2 2 C4.64 2 7.28 2 10 2 C10 1.34 10 0.68 10 0 C10.66 0 11.32 0 12 0 C12 0.99 12 1.98 12 3 C13.32 3.33 14.64 3.66 16 4 C16.02685095 6.47923801 16.04676547 8.9581884 16.0625 11.4375 C16.07087891 12.14455078 16.07925781 12.85160156 16.08789062 13.58007812 C16.09653588 15.38693559 16.05220011 17.19387603 16 19 C14.4779041 20.5220959 13.11789918 20.12959521 11 20.1328125 C10.195625 20.13410156 9.39125 20.13539063 8.5625 20.13671875 C7.716875 20.13285156 6.87125 20.12898437 6 20.125 C5.154375 20.12886719 4.30875 20.13273438 3.4375 20.13671875 C2.633125 20.13542969 1.82875 20.13414062 1 20.1328125 C0.2575 20.13168457 -0.485 20.13055664 -1.25 20.12939453 C-3 20 -3 20 -4 19 C-4.07313567 16.46950598 -4.09247527 13.96695163 -4.0625 11.4375 C-4.05798828 10.72658203 -4.05347656 10.01566406 -4.04882812 9.28320312 C-4.03700864 7.52209987 -4.01907263 5.76103964 -4 4 C-2.68 3.34 -1.36 2.68 0 2 C0 1.34 0 0.68 0 0 Z " fill="#6B6B6B" transform="translate(1033,584)"/>
<path d="M0 0 C3.5 1.6875 3.5 1.6875 6 4 C6.875 6.75 6.875 6.75 7 9 C4.75 9.75 4.75 9.75 2 10 C1.38125 9.34 0.7625 8.68 0.125 8 C-0.57625 7.34 -1.2775 6.68 -2 6 C-5.66364808 5.9872962 -5.66364808 5.9872962 -9 7 C-10.29004296 9.58008592 -10.20410224 11.55741574 -10.25 14.4375 C-10.27578125 15.40558594 -10.3015625 16.37367188 -10.328125 17.37109375 C-10.20618558 20.01147098 -10.20618558 20.01147098 -8.70703125 21.8515625 C-6.85013219 23.33749737 -6.85013219 23.33749737 -3.4375 22.9375 C0.06468563 22.37693916 0.06468563 22.37693916 1.4375 19.9375 C1.623125 19.298125 1.80875 18.65875 2 18 C3.65 18.66 5.3 19.32 7 20 C6.79803569 23.63535761 6.21677989 24.7994786 3.5 27.3125 C-0.88337072 29.42591088 -4.21955026 29.72457833 -9 29 C-13.27030523 27.23617827 -14.97239333 25.08948274 -17 21 C-17.36328125 17.80859375 -17.36328125 17.80859375 -17.3125 14.4375 C-17.30863281 13.32246094 -17.30476562 12.20742188 -17.30078125 11.05859375 C-16.85821614 6.55822389 -15.82154192 4.72135388 -12.4375 1.75 C-8.08625283 -0.46518038 -4.79104707 -0.84698868 0 0 Z " fill="#DE7B8D" transform="translate(987,340)"/>
<path d="M0 0 C1.98 0 3.96 0 6 0 C6.33 4.29 6.66 8.58 7 13 C7.70125 12.175 8.4025 11.35 9.125 10.5 C12 8 12 8 15.3125 7.6875 C16.199375 7.790625 17.08625 7.89375 18 8 C16.70700306 10.88437779 15.34058637 12.87219421 13 15 C14.12188841 18.08519311 15.4616463 20.86805649 17.125 23.6875 C19 27 19 27 19 29 C17.02 29 15.04 29 13 29 C9 22.25 9 22.25 9 20 C8.34 20.33 7.68 20.66 7 21 C6.53476937 22.89533342 6.53476937 22.89533342 6.375 25.0625 C6.189375 27.0115625 6.189375 27.0115625 6 29 C4.02 29 2.04 29 0 29 C0 19.43 0 9.86 0 0 Z " fill="#DE7B8D" transform="translate(1057,340)"/>
<path d="M0 0 C2.375 1.5 2.375 1.5 4 3 C4.37125 2.505 4.7425 2.01 5.125 1.5 C7 0 7 0 10 -0.375 C13 0 13 0 14.875 1.375 C16 3 16 3 16 5 C14.68 5 13.36 5 12 5 C12 4.34 12 3.68 12 3 C10.68 3 9.36 3 8 3 C9.62366466 6.24732932 12.75387839 6.70155136 16 8 C16.1875 10.375 16.1875 10.375 16 13 C12.54754176 15.30163882 11.05261287 15.34490322 7 15 C6.34 14.34 5.68 13.68 5 13 C2.21762345 13.40528901 2.21762345 13.40528901 0 15 C-5.38297872 15.46808511 -5.38297872 15.46808511 -7.8125 13.625 C-10.20067625 10.35696935 -10.40265599 8.02655987 -10 4 C-7.20125452 -0.09047416 -4.83066808 -0.70447243 0 0 Z " fill="#FAE1E3" transform="translate(1089,408)"/>
<path d="M0 0 C0.76183594 -0.02835937 1.52367187 -0.05671875 2.30859375 -0.0859375 C5.60619635 0.58844223 6.63425851 1.6130399 8.5625 4.375 C9.17766032 7.28767131 9.25831919 10.15490671 9.3125 13.125 C9.34214844 13.91777344 9.37179687 14.71054687 9.40234375 15.52734375 C9.47277787 17.47602094 9.51993482 19.42551495 9.5625 21.375 C7.5825 21.375 5.6025 21.375 3.5625 21.375 C3.5625 20.715 3.5625 20.055 3.5625 19.375 C2.5725 20.035 1.5825 20.695 0.5625 21.375 C-5.50456793 21.91670249 -5.50456793 21.91670249 -8.375 20.25 C-9.97875059 17.41985189 -9.96833754 15.56002524 -9.4375 12.375 C-5.84922418 9.2216667 -2.08926347 8.83105524 2.5625 8.375 C2.2325 7.385 1.9025 6.395 1.5625 5.375 C-0.86251634 5.84653095 -3.24857261 6.32102074 -5.625 7 C-7.4375 7.375 -7.4375 7.375 -9.4375 6.375 C-7.4188498 1.71657645 -5.07402932 0.08556542 0 0 Z " fill="#DE7C8D" transform="translate(894.4375,347.625)"/>
<path d="M0 0 C5.61 0 11.22 0 17 0 C17.66 2.31 18.32 4.62 19 7 C19.99 4.69 20.98 2.38 22 0 C23.65 0 25.3 0 27 0 C27 4.95 27 9.9 27 15 C25.68 15 24.36 15 23 15 C22.67 14.01 22.34 13.02 22 12 C21.67 12.99 21.34 13.98 21 15 C20.01 15 19.02 15 18 15 C17.34 13.02 16.68 11.04 16 9 C15.67 10.98 15.34 12.96 15 15 C14.01 15 13.02 15 12 15 C12 11.04 12 7.08 12 3 C10.35 3 8.7 3 7 3 C7 6.96 7 10.92 7 15 C6.01 15 5.02 15 4 15 C4 11.04 4 7.08 4 3 C2.68 3 1.36 3 0 3 C0 2.01 0 1.02 0 0 Z " fill="#F0B3BA" transform="translate(1033,408)"/>
<path d="M0 0 C4.95 0 9.9 0 15 0 C15 0.99 15 1.98 15 3 C9.555 3.495 9.555 3.495 4 4 C4 5.65 4 7.3 4 9 C5.051875 8.896875 6.10375 8.79375 7.1875 8.6875 C11 9 11 9 13.9375 10.9375 C16.35784961 14.53135245 16.66703217 16.59941509 16.43359375 20.84375 C15.79285558 24.03012361 14.33398654 25.80330678 12 28 C8.89951072 29.55024464 6.42105782 29.28992015 3 29 C0.01643559 27.18391731 -1.61660986 26.06169578 -2.8125 22.75 C-2.9053125 21.88375 -2.9053125 21.88375 -3 21 C-1.68 21 -0.36 21 1 21 C1.474375 21.66 1.94875 22.32 2.4375 23 C3.84719104 25.27888688 3.84719104 25.27888688 6.5625 25.375 C9.17528109 25.21896136 9.17528109 25.21896136 11 23 C11.24287489 20.55987051 11.24287489 20.55987051 11.125 17.875 C11.10695313 16.96492188 11.08890625 16.05484375 11.0703125 15.1171875 C11.04710937 14.41851562 11.02390625 13.71984375 11 13 C7.58343976 12.83322718 7.58343976 12.83322718 4 13 C3.34 13.66 2.68 14.32 2 15 C0.68 15 -0.64 15 -2 15 C-1.85636473 13.62476865 -1.70996483 12.24982598 -1.5625 10.875 C-1.48128906 10.10929687 -1.40007813 9.34359375 -1.31640625 8.5546875 C-0.96178358 5.69143782 -0.4743119 2.84587143 0 0 Z " fill="#E07F8E" transform="translate(873,484)"/>
<path d="M0 0 C2.875 0.3125 2.875 0.3125 6 1 C8.44503999 4.66755999 8.26831152 6.57478137 8.25 10.9375 C8.25515625 12.16339844 8.2603125 13.38929688 8.265625 14.65234375 C8.01976284 17.75093005 7.82622669 19.51463852 6 22 C2.875 22.75 2.875 22.75 0 23 C-3.47251561 19.3988727 -3.40379635 16.37618271 -3.375 11.5 C-3.38273438 10.1903125 -3.39046875 8.880625 -3.3984375 7.53125 C-2.99356315 3.94295185 -2.46291002 2.55412891 0 0 Z " fill="#F9E0E1" transform="translate(855,487)"/>
<path d="M0 0 C3 1.875 3 1.875 5 4 C5 4.66 5 5.32 5 6 C3.02 6.33 1.04 6.66 -1 7 C-1.33 6.34 -1.66 5.68 -2 5 C-3.65 5.33 -5.3 5.66 -7 6 C-7 8.97 -7 11.94 -7 15 C-5.35 15.33 -3.7 15.66 -2 16 C-1.34 15.01 -0.68 14.02 0 13 C1.65 13.33 3.3 13.66 5 14 C4.64978759 16.53903996 4.15988127 17.82093298 2.4375 19.75 C-1.01829953 21.52220489 -4.24078214 21.6936652 -8 21 C-10.8100346 19.20636089 -12.50940468 17.98119065 -14 15 C-14.55512815 10.36786507 -14.6364242 7.01827873 -12.125 3 C-8.4613204 -0.44816904 -4.8812336 -0.6999857 0 0 Z " fill="#DE7D8D" transform="translate(1048,348)"/>
<path d="M0 0 C4.6 2.2 4.6 2.2 6 5 C6.5 7.625 6.5 7.625 6 11 C3.95084721 13.94962556 1.5218941 16.45194517 -1 19 C-1.74636719 19.80244141 -1.74636719 19.80244141 -2.5078125 20.62109375 C-3.62104874 21.7976578 -4.80457605 22.90704096 -6 24 C-6.66 24 -7.32 24 -8 24 C-8 24.66 -8 25.32 -8 26 C-3.38 26 1.24 26 6 26 C6 26.99 6 27.98 6 29 C-0.27 29 -6.54 29 -13 29 C-11.94329475 23.71647375 -11.34154133 22.87504378 -7.625 19.375 C-6.83351563 18.61960937 -6.04203125 17.86421875 -5.2265625 17.0859375 C-3.91768133 15.85972251 -2.59789 14.6446679 -1.25390625 13.45703125 C0.85111216 11.01101297 0.70625278 8.11372057 1 5 C-1.31 4.67 -3.62 4.34 -6 4 C-6.6496875 5.2375 -6.6496875 5.2375 -7.3125 6.5 C-7.869375 7.325 -8.42625 8.15 -9 9 C-9.99 9 -10.98 9 -12 9 C-11.52 3.6 -11.52 3.6 -9.375 1.125 C-6.04574611 -0.452015 -3.64527529 -0.38371319 0 0 Z " fill="#DF7C8D" transform="translate(972,484)"/>
<path d="M0 0 C2.9375 1.5 2.9375 1.5 5 4 C5.86119641 8.30598205 6.00172836 10.45973802 3.59765625 14.15625 C0.40638383 17.89918659 -3.09257332 21.01196783 -7 24 C-7.33 24.66 -7.66 25.32 -8 26 C-3.71 26 0.58 26 5 26 C5 26.99 5 27.98 5 29 C-1.27 29 -7.54 29 -14 29 C-11.98708466 22.96125398 -11.08967081 21.70768115 -6.5 17.8125 C-2.35036457 14.26463396 -2.35036457 14.26463396 1 10 C0.71725862 6.68913741 0.71725862 6.68913741 -1 4 C-3.33297433 3.95907063 -5.66705225 3.95758277 -8 4 C-8.33 5.65 -8.66 7.3 -9 9 C-10.32 9 -11.64 9 -13 9 C-12.71897086 5.62765029 -12.19628348 4.21360261 -9.875 1.6875 C-6.22304466 -0.45603901 -4.1758776 -0.59655394 0 0 Z " fill="#DF7C8C" transform="translate(917,484)"/>
<path d="M0 0 C1.98 0 3.96 0 6 0 C6 9.57 6 19.14 6 29 C4.02 29 2.04 29 0 29 C0 19.43 0 9.86 0 0 Z " fill="#DF7E8E" transform="translate(875,340)"/>
<path d="M0 0 C1.423125 -0.061875 2.84625 -0.12375 4.3125 -0.1875 C5.51326172 -0.23970703 5.51326172 -0.23970703 6.73828125 -0.29296875 C9 0 9 0 10.76953125 1.265625 C12.87754055 4.2369143 12.4792951 7.54768601 12 11 C11.0625 13.5 11.0625 13.5 9 15 C5.92076209 15.3275785 3.11411312 15.1805283 0 15 C0 10.05 0 5.1 0 0 Z " fill="#E28590" transform="translate(968,550)"/>
<path d="M0 0 C3.45838472 -0.02687864 6.91656225 -0.04677983 10.375 -0.0625 C11.35984375 -0.07087891 12.3446875 -0.07925781 13.359375 -0.08789062 C14.77089844 -0.09272461 14.77089844 -0.09272461 16.2109375 -0.09765625 C17.51490479 -0.10551147 17.51490479 -0.10551147 18.84521484 -0.11352539 C21 0 21 0 23 1 C23 4.3 23 7.6 23 11 C22.01 11 21.02 11 20 11 C20 8.03 20 5.06 20 2 C19.01 2.495 19.01 2.495 18 3 C17.53476937 4.89533342 17.53476937 4.89533342 17.375 7.0625 C17.25125 8.361875 17.1275 9.66125 17 11 C16.01 11 15.02 11 14 11 C13.8046875 8.94921875 13.609375 6.8984375 13.4140625 4.84765625 C13.27742187 4.23792969 13.14078125 3.62820313 13 3 C12.34 2.67 11.68 2.34 11 2 C11 4.97 11 7.94 11 11 C9.68 11 8.36 11 7 11 C7 8.03 7 5.06 7 2 C6.01 2.33 5.02 2.66 4 3 C3.67 5.64 3.34 8.28 3 11 C2.01 11 1.02 11 0 11 C0 7.37 0 3.74 0 0 Z " fill="#F0B4BD" transform="translate(904,412)"/>
<path d="M0 0 C5.28 0 10.56 0 16 0 C16 3.3 16 6.6 16 10 C10.72 10 5.44 10 0 10 C0 6.7 0 3.4 0 0 Z " fill="#FEFEFE" transform="translate(1031,592)"/>
<path d="M0 0 C5.94 0 11.88 0 18 0 C17.05931351 4.70343245 15.94710413 7.08951609 13.5625 11.125 C10.27274999 17.03711222 8.65873365 22.29167162 8 29 C6.68 29 5.36 29 4 29 C3.15521015 19.49611417 7.17181596 11.28523005 13 4 C8.71 3.67 4.42 3.34 0 3 C0 2.01 0 1.02 0 0 Z " fill="#E08191" transform="translate(982,484)"/>
<path d="M0 0 C4.33333333 0 8.66666667 0 13 0 C12.8125 2.375 12.8125 2.375 12 5 C10.35 5.66 8.7 6.32 7 7 C6.67 11.62 6.34 16.24 6 21 C4.02 21 2.04 21 0 21 C0 14.07 0 7.14 0 0 Z " fill="#DE7C8E" transform="translate(908,348)"/>
<path d="M0 0 C6.27 0 12.54 0 19 0 C18.07641648 3.69433408 17.1433899 5.56953948 15.125 8.6875 C11.1647434 15.13597537 8.96359658 21.4839467 8 29 C6.68 29 5.36 29 4 29 C4.65227938 18.72659973 8.42543645 11.51669431 14 3 C9.38 3 4.76 3 0 3 C0 2.01 0 1.02 0 0 Z " fill="#DF7D8C" transform="translate(926,484)"/>
<path d="M0 0 C1.5675 -0.04125 3.135 -0.0825 4.75 -0.125 C5.63171875 -0.14820313 6.5134375 -0.17140625 7.421875 -0.1953125 C10.1135858 0.00860498 11.69904974 0.63448279 14 2 C14.1875 5.375 14.1875 5.375 14 9 C9.43362969 12.04424687 5.43284541 11.12783166 0 11 C0 7.37 0 3.74 0 0 Z " fill="#F8DCE1" transform="translate(1020,487)"/>
<path d="M0 0 C1.65 0 3.3 0 5 0 C5 9.57 5 19.14 5 29 C3.35 29 1.7 29 0 29 C0 19.43 0 9.86 0 0 Z " fill="#DD7788" transform="translate(1000,340)"/>
<path d="M0 0 C0.12375 0.639375 0.2475 1.27875 0.375 1.9375 C0.58125 2.618125 0.7875 3.29875 1 4 C1.66 4.33 2.32 4.66 3 5 C2.34 5 1.68 5 1 5 C1 7.97 1 10.94 1 14 C1.66 14.33 2.32 14.66 3 15 C2.401875 14.835 1.80375 14.67 1.1875 14.5 C-1.64770716 13.85195265 -3.69550762 13.91626459 -6.5 14.6875 C-9 15 -9 15 -10.875 14 C-12.62020832 10.89740743 -11.69997967 8.3726293 -11 5 C-7.56484998 4.37542727 -4.50935186 4 -1 4 C-0.67 2.68 -0.34 1.36 0 0 Z " fill="#EEB8BD" transform="translate(958,550)"/>
<path d="M0 0 C2.4375 0.1875 2.4375 0.1875 3.4375 1.1875 C3.47813832 2.85367115 3.480221 4.52138095 3.4375 6.1875 C2.7775 6.1875 2.1175 6.1875 1.4375 6.1875 C2.0975 6.8475 2.7575 7.5075 3.4375 8.1875 C4.4275 8.1875 5.4175 8.1875 6.4375 8.1875 C6.7675 10.1675 7.0975 12.1475 7.4375 14.1875 C3.70529887 15.06566497 0.27203269 15.44313551 -3.5625 15.1875 C-5.5625 13.1875 -5.5625 13.1875 -5.8125 10.6875 C-5.5625 8.1875 -5.5625 8.1875 -3.5625 6.1875 C-3.7275 5.5275 -3.8925 4.8675 -4.0625 4.1875 C-4.2275 3.5275 -4.3925 2.8675 -4.5625 2.1875 C-2.5625 0.1875 -2.5625 0.1875 0 0 Z " fill="#F1B7BE" transform="translate(1131.5625,407.8125)"/>
<path d="M0 0 C7.3028169 -0.35915493 7.3028169 -0.35915493 10.0625 1.0625 C11.55238061 4.1415866 10.67482518 6.74856958 10 10 C8.02 10.33 6.04 10.66 4 11 C4 12.32 4 13.64 4 15 C2.68 15 1.36 15 0 15 C0 10.05 0 5.1 0 0 Z " fill="#F2B8BE" transform="translate(838,412)"/>
<path d="M0 0 C0.12375 0.639375 0.2475 1.27875 0.375 1.9375 C0.58125 2.618125 0.7875 3.29875 1 4 C1.66 4.33 2.32 4.66 3 5 C2.34 5 1.68 5 1 5 C1.144375 6.27875 1.28875 7.5575 1.4375 8.875 C1.51871094 9.59429688 1.59992187 10.31359375 1.68359375 11.0546875 C1.91292961 13.07404316 1.91292961 13.07404316 3 15 C2.38125 14.835 1.7625 14.67 1.125 14.5 C-0.96063386 13.92365356 -0.96063386 13.92365356 -3 14 C-3.33 14.33 -3.66 14.66 -4 15 C-6.4375 15.1875 -6.4375 15.1875 -9 15 C-11 13 -11 13 -11.25 9.5 C-11 6 -11 6 -9 4 C-5.375 4.375 -5.375 4.375 -2 5 C-1.34 3.35 -0.68 1.7 0 0 Z " fill="#F8DFE3" transform="translate(957,636)"/>
<path d="M0 0 C2.29160319 -0.02692484 4.58329546 -0.04636124 6.875 -0.0625 C8.15117188 -0.07410156 9.42734375 -0.08570313 10.7421875 -0.09765625 C14 0 14 0 16 1 C16 4.3 16 7.6 16 11 C15.01 11 14.02 11 13 11 C13 8.03 13 5.06 13 2 C12.01 2.495 12.01 2.495 11 3 C10.53476937 4.89533342 10.53476937 4.89533342 10.375 7.0625 C10.25125 8.361875 10.1275 9.66125 10 11 C9.01 11 8.02 11 7 11 C6.8046875 8.94921875 6.609375 6.8984375 6.4140625 4.84765625 C6.27742187 4.23792969 6.14078125 3.62820313 6 3 C5.34 2.67 4.68 2.34 4 2 C4 4.97 4 7.94 4 11 C2.68 11 1.36 11 0 11 C0 7.37 0 3.74 0 0 Z " fill="#F0B4BD" transform="translate(820,412)"/>
<path d="M0 0 C1.65 0 3.3 0 5 0 C6.65 4.95 8.3 9.9 10 15 C8.68 15 7.36 15 6 15 C6 14.01 6 13.02 6 12 C3.02934491 12.34227572 3.02934491 12.34227572 0 13 C-0.33 13.66 -0.66 14.32 -1 15 C-1.99 15 -2.98 15 -4 15 C-2.9318153 9.88634986 -1.76892524 4.92772031 0 0 Z " fill="#F0B1B9" transform="translate(876,408)"/>
<path d="M0 0 C1.65 0.33 3.3 0.66 5 1 C6.36328125 3.3984375 6.36328125 3.3984375 7.3125 6.375 C7.63863281 7.35210937 7.96476563 8.32921875 8.30078125 9.3359375 C9 12 9 12 9 15 C8.01 15 7.02 15 6 15 C6 14.01 6 13.02 6 12 C3.69 12 1.38 12 -1 12 C-1 12.99 -1 13.98 -1 15 C-2.32 14.67 -3.64 14.34 -5 14 C-3.35 9.38 -1.7 4.76 0 0 Z " fill="#F1B6BD" transform="translate(785,408)"/>
<path d="M0 0 C6.0546875 -0.1953125 6.0546875 -0.1953125 8 0 C10 2 10 2 10.25 5.5 C10 9 10 9 8 11 C6.68 11 5.36 11 4 11 C3.67 12.32 3.34 13.64 3 15 C2.01 15 1.02 15 0 15 C0 10.05 0 5.1 0 0 Z " fill="#F0B1B8" transform="translate(993,435)"/>
<path d="M0 0 C3.0625 0.3125 3.0625 0.3125 4.9375 1.6875 C6.0625 3.3125 6.0625 3.3125 6.0625 5.3125 C4.7425 5.3125 3.4225 5.3125 2.0625 5.3125 C2.0625 4.6525 2.0625 3.9925 2.0625 3.3125 C0.7425 3.3125 -0.5775 3.3125 -1.9375 3.3125 C-0.31383534 6.55982932 2.81637839 7.01405136 6.0625 8.3125 C6.25 10.6875 6.25 10.6875 6.0625 13.3125 C2.61004176 15.61413882 1.11511287 15.65740322 -2.9375 15.3125 C-3.5975 14.6525 -4.2575 13.9925 -4.9375 13.3125 C-4.9375 12.3225 -4.9375 11.3325 -4.9375 10.3125 C-2.6275 10.6425 -0.3175 10.9725 2.0625 11.3125 C-0.8059413 9.21017656 -0.8059413 9.21017656 -3.9375 8.3125 C-4.5625 5.4375 -4.5625 5.4375 -4.9375 2.3125 C-2.9375 0.3125 -2.9375 0.3125 0 0 Z " fill="#F0B1B8" transform="translate(1098.9375,407.6875)"/>
<path d="M0 0 C2.4375 0.8125 2.4375 0.8125 4.4375 2.8125 C4.98936722 8.88303942 4.98936722 8.88303942 3.25 11.8125 C1.4375 12.8125 1.4375 12.8125 -1.125 12.625 C-3.5625 11.8125 -3.5625 11.8125 -5.5625 9.8125 C-6.11436722 3.74196058 -6.11436722 3.74196058 -4.375 0.8125 C-2.5625 -0.1875 -2.5625 -0.1875 0 0 Z " fill="#F8E0E2" transform="translate(1020.5625,352.1875)"/>
<path d="M0 0 C3 0.25 3 0.25 5 2.25 C5 3.24 5 4.23 5 5.25 C4.01 5.25 3.02 5.25 2 5.25 C2 4.59 2 3.93 2 3.25 C0.02 4.24 0.02 4.24 -2 5.25 C-0.865625 5.641875 0.26875 6.03375 1.4375 6.4375 C5 8.25 5 8.25 5.9375 10.9375 C5.958125 11.700625 5.97875 12.46375 6 13.25 C2.53076119 15.56282587 1.07794425 15.67478586 -3 15.25 C-4.875 13.875 -4.875 13.875 -6 12.25 C-6 11.59 -6 10.93 -6 10.25 C-3.36 10.58 -0.72 10.91 2 11.25 C1.1028125 10.816875 1.1028125 10.816875 0.1875 10.375 C-2 9.25 -2 9.25 -5 7.25 C-5.3125 4.75 -5.3125 4.75 -5 2.25 C-3 0.25 -3 0.25 0 0 Z " fill="#EFB0B8" transform="translate(807,407.75)"/>
<path d="M0 0 C0.99 0 1.98 0 3 0 C3 1.98 3 3.96 3 6 C4.65 6 6.3 6 8 6 C8 4.02 8 2.04 8 0 C8.99 0 9.98 0 11 0 C11 4.95 11 9.9 11 15 C10.01 15 9.02 15 8 15 C8 13.02 8 11.04 8 9 C6.35 9 4.7 9 3 9 C3 10.98 3 12.96 3 15 C2.01 15 1.02 15 0 15 C0 10.05 0 5.1 0 0 Z " fill="#EFB0B9" transform="translate(1019,408)"/>
<path d="M0 0 C1.65 0 3.3 0 5 0 C5 9.57 5 19.14 5 29 C4.01 29 3.02 29 2 29 C1.67 21.74 1.34 14.48 1 7 C0.34 6.67 -0.32 6.34 -1 6 C-1.042721 4.33388095 -1.04063832 2.66617115 -1 1 C-0.67 0.67 -0.34 0.34 0 0 Z " fill="#DD7888" transform="translate(1065,484)"/>
<path d="M0 0 C3.125 0.25 3.125 0.25 5 1.625 C6.125 3.25 6.125 3.25 6.125 5.25 C3.45833333 4.58333333 0.79166667 3.91666667 -1.875 3.25 C-0.25133534 6.49732932 2.87887839 6.95155136 6.125 8.25 C6.25 10.625 6.25 10.625 6.125 13.25 C4.125 15.25 4.125 15.25 0.625 15.5 C-2.875 15.25 -2.875 15.25 -4.875 13.25 C-4.875 12.26 -4.875 11.27 -4.875 10.25 C-3.885 10.25 -2.895 10.25 -1.875 10.25 C-1.875 10.91 -1.875 11.57 -1.875 12.25 C-0.225 12.25 1.425 12.25 3.125 12.25 C3.125 11.26 3.125 10.27 3.125 9.25 C2.17625 9.12625 1.2275 9.0025 0.25 8.875 C-2.875 8.25 -2.875 8.25 -4.875 6.25 C-4.15688639 0.36146838 -4.15688639 0.36146838 0 0 Z " fill="#EFB0B8" transform="translate(959.875,430.75)"/>
<path d="M0 0 C0.33 1.32 0.66 2.64 1 4 C0.01 4 -0.98 4 -2 4 C-2 3.34 -2 2.68 -2 2 C-3.98 2.99 -3.98 2.99 -6 4 C-4.865625 4.4125 -3.73125 4.825 -2.5625 5.25 C1 7 1 7 2.125 9 C2 11 2 11 0.9375 12.75 C-1.84406161 14.54455588 -3.75749038 14.4053137 -7 14 C-8.875 12.625 -8.875 12.625 -10 11 C-10 10.34 -10 9.68 -10 9 C-7.36 9.33 -4.72 9.66 -2 10 C-2.8971875 9.566875 -2.8971875 9.566875 -3.8125 9.125 C-6 8 -6 8 -9 6 C-9.1875 2.875 -9.1875 2.875 -9 0 C-5.93109813 -1.53445094 -3.29905734 -0.54984289 0 0 Z " fill="#EFB0B8" transform="translate(1117,409)"/>
<path d="M0 0 C1.875 1.6875 1.875 1.6875 3 4 C2.75925978 7.37036311 2.41201979 8.58798021 0 11 C-6.57692308 10.42307692 -6.57692308 10.42307692 -8 9 C-8.45875252 3.72434608 -8.45875252 3.72434608 -6.8125 1.125 C-4.31963619 -0.42229478 -2.88032665 -0.50405716 0 0 Z " fill="#F0B3BC" transform="translate(963,412)"/>
<path d="M0 0 C1.859375 0.12890625 1.859375 0.12890625 4 1 C5.265625 3.65234375 5.265625 3.65234375 6.25 6.9375 C6.58515625 8.01902344 6.9203125 9.10054687 7.265625 10.21484375 C8 13 8 13 8 15 C7.01 15 6.02 15 5 15 C5 13.68 5 12.36 5 11 C3.02 11 1.04 11 -1 11 C-1.33 12.32 -1.66 13.64 -2 15 C-2.66 15 -3.32 15 -4 15 C-3.43179252 9.54520815 -2.05362055 5.08940744 0 0 Z " fill="#F3BEC0" transform="translate(956,735)"/>
<path d="M0 0 C1.32 0 2.64 0 4 0 C4.33 1.65 4.66 3.3 5 5 C6.65 4.67 8.3 4.34 10 4 C9.01 5.485 9.01 5.485 8 7 C8.35515029 9.84120234 9.09349251 12.28047752 10 15 C9.01 15 8.02 15 7 15 C5.3125 13 5.3125 13 4 11 C3.67 12.32 3.34 13.64 3 15 C2.01 15 1.02 15 0 15 C0 10.05 0 5.1 0 0 Z " fill="#F1B6BD" transform="translate(978,408)"/>
<path d="M0 0 C0 1.32 0 2.64 0 4 C-2.31 3.67 -4.62 3.34 -7 3 C-7 5.31 -7 7.62 -7 10 C-3.535 9.505 -3.535 9.505 0 9 C0 10.32 0 11.64 0 13 C-6.15730337 14.30250648 -6.15730337 14.30250648 -9.4375 13.125 C-11.62574431 10.14898774 -11.56200335 7.72806632 -11.37890625 4.1015625 C-11 2 -11 2 -9.4375 -0.125 C-6.04414867 -1.34312612 -3.47550934 -0.7352039 0 0 Z " fill="#EFB0B8" transform="translate(946,409)"/>
<path d="M0 0 C1.875 2 1.875 2 3 4 C-0.28976808 5.09658936 -1.71303767 4.79953138 -5 4 C-6.00217064 7.58327753 -6.00217064 7.58327753 -5 11 C-4.05125 10.79375 -3.1025 10.5875 -2.125 10.375 C-1.09375 10.25125 -0.0625 10.1275 1 10 C1.66 10.66 2.32 11.32 3 12 C1.875 13.5 1.875 13.5 0 15 C-5.15121951 15.64390244 -5.15121951 15.64390244 -7.8125 13.625 C-10.20067625 10.35696935 -10.40265599 8.02655987 -10 4 C-7.22943094 -0.04929323 -4.80283685 -0.81750414 0 0 Z " fill="#F0B1B9" transform="translate(1089,408)"/>
<path d="M0 0 C2.12472576 -0.05386629 4.24983652 -0.09273071 6.375 -0.125 C7.55835938 -0.14820313 8.74171875 -0.17140625 9.9609375 -0.1953125 C13 0 13 0 15 2 C15.1953125 4.1640625 15.1953125 4.1640625 15.125 6.625 C15.10695313 7.44226563 15.08890625 8.25953125 15.0703125 9.1015625 C15.03550781 10.04128906 15.03550781 10.04128906 15 11 C14.01 11 13.02 11 12 11 C12 8.03 12 5.06 12 2 C11.01 2.33 10.02 2.66 9 3 C8.67 5.64 8.34 8.28 8 11 C7.34 11 6.68 11 6 11 C6 8.03 6 5.06 6 2 C5.01 2.33 4.02 2.66 3 3 C2.67 5.64 2.34 8.28 2 11 C1.34 11 0.68 11 0 11 C0 7.37 0 3.74 0 0 Z " fill="#F2BDC3" transform="translate(987,739)"/>
<path d="M0 0 C2.875 -0.125 2.875 -0.125 6 0 C8 2 8 2 8.1953125 4.1640625 C8.17210937 4.97617187 8.14890625 5.78828125 8.125 6.625 C8.10695313 7.44226563 8.08890625 8.25953125 8.0703125 9.1015625 C8.03550781 10.04128906 8.03550781 10.04128906 8 11 C0.25 11.125 0.25 11.125 -2 10 C-1.67 8.35 -1.34 6.7 -1 5 C-0.360625 4.87625 0.27875 4.7525 0.9375 4.625 C1.618125 4.41875 2.29875 4.2125 3 4 C3.33 3.34 3.66 2.68 4 2 C2.35 2.33 0.7 2.66 -1 3 C-0.67 2.01 -0.34 1.02 0 0 Z " fill="#F0B4BD" transform="translate(945,435)"/>
<path d="M0 0 C2.875 -0.125 2.875 -0.125 6 0 C8 2 8 2 8.1953125 4.1640625 C8.17210937 4.97617187 8.14890625 5.78828125 8.125 6.625 C8.10695313 7.44226563 8.08890625 8.25953125 8.0703125 9.1015625 C8.03550781 10.04128906 8.03550781 10.04128906 8 11 C0.25 11.125 0.25 11.125 -2 10 C-1.67 8.35 -1.34 6.7 -1 5 C-0.360625 4.87625 0.27875 4.7525 0.9375 4.625 C1.618125 4.41875 2.29875 4.2125 3 4 C3.33 3.34 3.66 2.68 4 2 C2.35 2.33 0.7 2.66 -1 3 C-0.67 2.01 -0.34 1.02 0 0 Z " fill="#F0B4BD" transform="translate(894,412)"/>
<path d="M0 0 C2.875 -0.125 2.875 -0.125 6 0 C8 2 8 2 8.25 5.5 C8 9 8 9 6 11 C2.875 11.125 2.875 11.125 0 11 C0 7.37 0 3.74 0 0 Z " fill="#F7DDE3" transform="translate(970,552)"/>
<path d="M0 0 C2.14576637 -0.02685938 4.29162645 -0.04633088 6.4375 -0.0625 C7.63246094 -0.07410156 8.82742188 -0.08570313 10.05859375 -0.09765625 C13 0 13 0 14 1 C14.07205511 2.68608966 14.08386068 4.37500659 14.0625 6.0625 C14.05347656 6.98160156 14.04445313 7.90070312 14.03515625 8.84765625 C14.02355469 9.55792969 14.01195312 10.26820313 14 11 C13.34 11 12.68 11 12 11 C12 8.03 12 5.06 12 2 C11.01 2.33 10.02 2.66 9 3 C8.67 5.64 8.34 8.28 8 11 C7.34 11 6.68 11 6 11 C6 8.03 6 5.06 6 2 C5.01 2.33 4.02 2.66 3 3 C2.67 5.64 2.34 8.28 2 11 C1.34 11 0.68 11 0 11 C0 7.37 0 3.74 0 0 Z " fill="#E38897" transform="translate(983,640)"/>
<path d="M0 0 C0.66 0 1.32 0 2 0 C2 4.62 2 9.24 2 14 C0.02 14 -1.96 14 -4 14 C-6 12 -6 12 -6.25 9 C-6 6 -6 6 -4 4 C-2.68 4 -1.36 4 0 4 C0 2.68 0 1.36 0 0 Z " fill="#4A291F" transform="translate(887,587)"/>
<path d="M0 0 C0.66 0 1.32 0 2 0 C2 4.62 2 9.24 2 14 C0.02 14 -1.96 14 -4 14 C-6 12 -6 12 -6.25 9 C-6 6 -6 6 -4 4 C-2.68 4 -1.36 4 0 4 C0 2.68 0 1.36 0 0 Z " fill="#4A291F" transform="translate(876,587)"/>
<path d="M0 0 C3.0625 -0.25 3.0625 -0.25 6 0 C7.66342837 1.66342837 7.36048097 3.7825709 7.5625 6.0625 C7.64628906 6.98160156 7.73007812 7.90070313 7.81640625 8.84765625 C7.87699219 9.55792969 7.93757812 10.26820313 8 11 C5.03 11 2.06 11 -1 11 C-1.33 9.35 -1.66 7.7 -2 6 C-0.02 5.34 1.96 4.68 4 4 C4 3.34 4 2.68 4 2 C2.02 2.33 0.04 2.66 -2 3 C-1.34 2.01 -0.68 1.02 0 0 Z " fill="#F1B5BC" transform="translate(923,435)"/>
<path d="M0 0 C3.125 0.25 3.125 0.25 5 1.625 C6.125 3.25 6.125 3.25 6.125 5.25 C5.465 5.25 4.805 5.25 4.125 5.25 C3.795 4.59 3.465 3.93 3.125 3.25 C1.475 3.25 -0.175 3.25 -1.875 3.25 C-1.875 3.91 -1.875 4.57 -1.875 5.25 C0.765 6.24 3.405 7.23 6.125 8.25 C6.3125 10.625 6.3125 10.625 6.125 13.25 C2.67254176 15.55163882 1.17761287 15.59490322 -2.875 15.25 C-3.535 14.59 -4.195 13.93 -4.875 13.25 C-4.875 12.26 -4.875 11.27 -4.875 10.25 C-4.215 10.25 -3.555 10.25 -2.875 10.25 C-2.545 10.91 -2.215 11.57 -1.875 12.25 C-0.225 12.25 1.425 12.25 3.125 12.25 C3.125 11.59 3.125 10.93 3.125 10.25 C0.485 8.93 -2.155 7.61 -4.875 6.25 C-3.81271234 0.3315402 -3.81271234 0.3315402 0 0 Z " fill="#E18695" transform="translate(910.875,635.75)"/>
<path d="M0 0 C3 0.25 3 0.25 5 2.25 C5 3.24 5 4.23 5 5.25 C4.34 5.25 3.68 5.25 3 5.25 C2.67 4.59 2.34 3.93 2 3.25 C-0.52733235 2.59444881 -0.52733235 2.59444881 -3 2.25 C-2.67 3.24 -2.34 4.23 -2 5.25 C-0.2675 5.9615625 -0.2675 5.9615625 1.5 6.6875 C5 8.25 5 8.25 6.125 10.25 C6 12.25 6 12.25 4.9375 14 C2.15593839 15.79455588 0.24250962 15.6553137 -3 15.25 C-4.875 13.875 -4.875 13.875 -6 12.25 C-6 11.59 -6 10.93 -6 10.25 C-5.01 10.58 -4.02 10.91 -3 11.25 C-3 11.91 -3 12.57 -3 13.25 C-1.02 12.92 0.96 12.59 3 12.25 C3 11.59 3 10.93 3 10.25 C1.2984375 9.6621875 1.2984375 9.6621875 -0.4375 9.0625 C-4 7.25 -4 7.25 -5.0625 4.6875 C-4.96385212 0.84023257 -3.69537402 0.30794783 0 0 Z " fill="#E18595" transform="translate(912,549.75)"/>
<path d="M0 0 C2.875 -0.125 2.875 -0.125 6 0 C8 2 8 2 8.1953125 4.1640625 C8.17210937 4.97617187 8.14890625 5.78828125 8.125 6.625 C8.10695313 7.44226563 8.08890625 8.25953125 8.0703125 9.1015625 C8.03550781 10.04128906 8.03550781 10.04128906 8 11 C1.84765625 11.09765625 1.84765625 11.09765625 0 11 C-1 10 -1 10 -1.0625 7.4375 C-1.041875 6.633125 -1.02125 5.82875 -1 5 C0.98 4.67 2.96 4.34 5 4 C5 3.34 5 2.68 5 2 C3.35 2 1.7 2 0 2 C0 1.34 0 0.68 0 0 Z " fill="#F3C0C1" transform="translate(970,739)"/>
<path d="M0 0 C2 2 2 2 2 6 C0.02 6 -1.96 6 -4 6 C-4 6.99 -4 7.98 -4 9 C-2.02 8.67 -0.04 8.34 2 8 C1.01 9.485 1.01 9.485 0 11 C-2.86618213 11.4409511 -4.36655047 11.41501866 -6.8125 9.8125 C-8.42525784 7.35092224 -8.4334014 5.88934264 -8 3 C-5.84871852 -0.2835349 -3.77529378 -0.48401202 0 0 Z " fill="#F1B6BD" transform="translate(863,412)"/>
<path d="M0 0 C2 2 2 2 2.1953125 4.1640625 C2.17210937 4.97617187 2.14890625 5.78828125 2.125 6.625 C2.10695313 7.44226563 2.08890625 8.25953125 2.0703125 9.1015625 C2.03550781 10.04128906 2.03550781 10.04128906 2 11 C-0.64 11 -3.28 11 -6 11 C-6.33 9.35 -6.66 7.7 -7 6 C-4 4 -4 4 0 4 C0 3.34 0 2.68 0 2 C-2.31 2.33 -4.62 2.66 -7 3 C-7 2.34 -7 1.68 -7 1 C-4.48718205 -0.25640898 -2.78302919 -0.20872719 0 0 Z " fill="#EAA8B0" transform="translate(989,554)"/>
<path d="M0 0 C2.5625 0.3125 2.5625 0.3125 4.375 1.625 C5.5625 3.3125 5.5625 3.3125 5.5625 6.3125 C2.9225 6.3125 0.2825 6.3125 -2.4375 6.3125 C-2.1075 6.9725 -1.7775 7.6325 -1.4375 8.3125 C0.58713255 8.96463292 0.58713255 8.96463292 2.5625 9.3125 C2.5625 8.6525 2.5625 7.9925 2.5625 7.3125 C3.2225 7.3125 3.8825 7.3125 4.5625 7.3125 C3.9025 8.6325 3.2425 9.9525 2.5625 11.3125 C0.1875 11.4375 0.1875 11.4375 -2.4375 11.3125 C-4.4375 9.3125 -4.4375 9.3125 -4.6875 5.8125 C-4.40166115 1.81075612 -4.09542045 0.5250539 0 0 Z " fill="#E38A95" transform="translate(923.4375,639.6875)"/>
<path d="M0 0 C0.66 0.66 1.32 1.32 2 2 C2.66 1.67 3.32 1.34 4 1 C4 8.92 4 16.84 4 25 C3.67 25 3.34 25 3 25 C2.67 18.73 2.34 12.46 2 6 C0.68 9.96 -0.64 13.92 -2 18 C-2.99 18 -3.98 18 -5 18 C-3.75971762 11.82777121 -2.10396411 5.93317878 0 0 Z " fill="#EA9596" transform="translate(1063,488)"/>
<path d="M0 0 C2.5 0.25 2.5 0.25 4.5 2.25 C4.5 3.57 4.5 4.89 4.5 6.25 C2.19 6.25 -0.12 6.25 -2.5 6.25 C-2.5 7.24 -2.5 8.23 -2.5 9.25 C-0.19 8.59 2.12 7.93 4.5 7.25 C3.84 8.57 3.18 9.89 2.5 11.25 C0.125 11.375 0.125 11.375 -2.5 11.25 C-4.5 9.25 -4.5 9.25 -4.75 5.75 C-4.46177779 1.71488904 -4.15174939 0.41517494 0 0 Z " fill="#E1889B" transform="translate(939.5,639.75)"/>
<path d="M0 0 C0.33 1.65 0.66 3.3 1 5 C-1.64 5 -4.28 5 -7 5 C-6.67 5.66 -6.34 6.32 -6 7 C-4.02 6.67 -2.04 6.34 0 6 C0 6.99 0 7.98 0 9 C-5.3864279 10.31668238 -5.3864279 10.31668238 -7.9375 9 C-9.61956323 5.83376334 -8.81395841 3.38105802 -8 0 C-5.13822943 -1.43088528 -3.06624227 -0.59991697 0 0 Z " fill="#E595A2" transform="translate(1008,641)"/>
<path d="M0 0 C2.5 0.25 2.5 0.25 4.5 2.25 C4.5 3.57 4.5 4.89 4.5 6.25 C2.19 6.25 -0.12 6.25 -2.5 6.25 C-2.5 7.24 -2.5 8.23 -2.5 9.25 C-0.19 8.59 2.12 7.93 4.5 7.25 C3.84 8.57 3.18 9.89 2.5 11.25 C0.125 11.375 0.125 11.375 -2.5 11.25 C-4.5 9.25 -4.5 9.25 -4.75 5.75 C-4.46177779 1.71488904 -4.15174939 0.41517494 0 0 Z " fill="#E1889B" transform="translate(1003.5,553.75)"/>
<path d="M0 0 C2.5 0.25 2.5 0.25 4.5 2.25 C4.5 3.57 4.5 4.89 4.5 6.25 C2.19 6.25 -0.12 6.25 -2.5 6.25 C-2.5 7.24 -2.5 8.23 -2.5 9.25 C-0.19 8.59 2.12 7.93 4.5 7.25 C3.84 8.57 3.18 9.89 2.5 11.25 C0.125 11.375 0.125 11.375 -2.5 11.25 C-4.5 9.25 -4.5 9.25 -4.75 5.75 C-4.46177779 1.71488904 -4.15174939 0.41517494 0 0 Z " fill="#E1889B" transform="translate(924.5,553.75)"/>
<path d="M0 0 C0.33 1.65 0.66 3.3 1 5 C-1.64 5 -4.28 5 -7 5 C-6.67 5.66 -6.34 6.32 -6 7 C-4.02 6.67 -2.04 6.34 0 6 C0 6.99 0 7.98 0 9 C-5.3864279 10.31668238 -5.3864279 10.31668238 -7.9375 9 C-9.61956323 5.83376334 -8.81395841 3.38105802 -8 0 C-5.13822943 -1.43088528 -3.06624227 -0.59991697 0 0 Z " fill="#E595A2" transform="translate(944,555)"/>
<path d="M0 0 C6.15234375 -0.09765625 6.15234375 -0.09765625 8 0 C9 1 9 1 9.09765625 3.28515625 C9.08605469 4.20167969 9.07445312 5.11820312 9.0625 6.0625 C9.05347656 6.98160156 9.04445313 7.90070313 9.03515625 8.84765625 C9.02355469 9.55792969 9.01195312 10.26820313 9 11 C8.01 11 7.02 11 6 11 C6 8.03 6 5.06 6 2 C5.01 2.495 5.01 2.495 4 3 C3.53476937 4.89533342 3.53476937 4.89533342 3.375 7.0625 C3.25125 8.361875 3.1275 9.66125 3 11 C2.01 11 1.02 11 0 11 C0 7.37 0 3.74 0 0 Z " fill="#F0B1B9" transform="translate(1001,412)"/>
<path d="M0 0 C1.670625 0.061875 1.670625 0.061875 3.375 0.125 C3.045 1.115 2.715 2.105 2.375 3.125 C0.725 3.125 -0.925 3.125 -2.625 3.125 C-2.625 3.785 -2.625 4.445 -2.625 5.125 C-1.655625 5.516875 -0.68625 5.90875 0.3125 6.3125 C3.375 8.125 3.375 8.125 4.375 10.6875 C4.375 11.491875 4.375 12.29625 4.375 13.125 C2.375 15.125 2.375 15.125 -1.25 15.25 C-2.36375 15.20875 -3.4775 15.1675 -4.625 15.125 C-4.955 13.805 -5.285 12.485 -5.625 11.125 C-3.315 11.455 -1.005 11.785 1.375 12.125 C1.375 11.465 1.375 10.805 1.375 10.125 C-0.0790625 9.5371875 -0.0790625 9.5371875 -1.5625 8.9375 C-4.625 7.125 -4.625 7.125 -5.625 4.5625 C-5.625 0.30072448 -4.00423317 0.13807701 0 0 Z " fill="#F3C0C4" transform="translate(923.625,734.875)"/>
<path d="M0 0 C5.94 0 11.88 0 18 0 C17.67 1.65 17.34 3.3 17 5 C13.9375 6.8125 13.9375 6.8125 11 8 C11.66 6.68 12.32 5.36 13 4 C8.71 3.67 4.42 3.34 0 3 C0 2.01 0 1.02 0 0 Z " fill="#DD7889" transform="translate(982,484)"/>
<path d="M0 0 C6.93359375 -0.09765625 6.93359375 -0.09765625 9 0 C10 1 10 1 10.09765625 3.06640625 C10.08605469 3.89011719 10.07445312 4.71382812 10.0625 5.5625 C10.05347656 6.38878906 10.04445313 7.21507812 10.03515625 8.06640625 C10.02355469 8.70449219 10.01195312 9.34257813 10 10 C9.34 10 8.68 10 8 10 C7.67 7.69 7.34 5.38 7 3 C6.67 5.31 6.34 7.62 6 10 C5.34 10 4.68 10 4 10 C3.67 7.69 3.34 5.38 3 3 C2.67 5.31 2.34 7.62 2 10 C1.34 10 0.68 10 0 10 C0 6.7 0 3.4 0 0 Z " fill="#1E183A" transform="translate(921,591)"/>
<path d="M0 0 C6.93359375 -0.09765625 6.93359375 -0.09765625 9 0 C10 1 10 1 10.09765625 3.06640625 C10.08605469 3.89011719 10.07445312 4.71382812 10.0625 5.5625 C10.05347656 6.38878906 10.04445313 7.21507812 10.03515625 8.06640625 C10.02355469 8.70449219 10.01195312 9.34257813 10 10 C9.34 10 8.68 10 8 10 C7.67 7.69 7.34 5.38 7 3 C6.67 5.31 6.34 7.62 6 10 C5.34 10 4.68 10 4 10 C3.67 7.69 3.34 5.38 3 3 C2.67 5.31 2.34 7.62 2 10 C1.34 10 0.68 10 0 10 C0 6.7 0 3.4 0 0 Z " fill="#1E183A" transform="translate(910,591)"/>
<path d="M0 0 C0.99 0 1.98 0 3 0 C3.05386629 2.12472576 3.09273071 4.24983652 3.125 6.375 C3.14820313 7.55835938 3.17140625 8.74171875 3.1953125 9.9609375 C3 13 3 13 1 15 C-1.5 15.25 -1.5 15.25 -4 15 C-4.66 14.34 -5.32 13.68 -6 13 C-6 11.68 -6 10.36 -6 9 C-5.01 9 -4.02 9 -3 9 C-3 9.99 -3 10.98 -3 12 C-2.01 12 -1.02 12 0 12 C0 8.04 0 4.08 0 0 Z " fill="#F0B0BA" transform="translate(916,431)"/>
<path d="M0 0 C0.99 0 1.98 0 3 0 C3 3.96 3 7.92 3 12 C5.31 12 7.62 12 10 12 C10 12.99 10 13.98 10 15 C6.7 15 3.4 15 0 15 C0 10.05 0 5.1 0 0 Z " fill="#EFAFB9" transform="translate(1062,408)"/>
<path d="M0 0 C0.66 0 1.32 0 2 0 C3.0161692 4.62921525 2.83796731 8.34462607 2 13 C2.66 13 3.32 13 4 13 C4 13.66 4 14.32 4 15 C2.33388095 15.042721 0.66617115 15.04063832 -1 15 C-2.6314932 13.3685068 -2.47424901 11.42961821 -2.75 9.1875 C-2.86859375 8.31480469 -2.9871875 7.44210937 -3.109375 6.54296875 C-2.975057 3.42007525 -2.16331487 2.20967161 0 0 Z " fill="#F1B8BF" transform="translate(1007,431)"/>
<path d="M0 0 C0.66 0.99 1.32 1.98 2 3 C-1 4 -1 4 -4 3 C-4 4.65 -4 6.3 -4 8 C-3.38125 7.79375 -2.7625 7.5875 -2.125 7.375 C-1.42375 7.25125 -0.7225 7.1275 0 7 C0.66 7.66 1.32 8.32 2 9 C1.34 9.66 0.68 10.32 0 11 C-3.625 10.625 -3.625 10.625 -7 10 C-8.33359073 3.57451737 -8.33359073 3.57451737 -6.875 1.0625 C-4.37987679 -0.35140315 -2.82190981 -0.43413997 0 0 Z " fill="#F0B1B9" transform="translate(976,435)"/>
<path d="M0 0 C0.66 0.99 1.32 1.98 2 3 C-1 4 -1 4 -4 3 C-4 4.65 -4 6.3 -4 8 C-3.38125 7.79375 -2.7625 7.5875 -2.125 7.375 C-1.42375 7.25125 -0.7225 7.1275 0 7 C0.66 7.66 1.32 8.32 2 9 C1.34 9.66 0.68 10.32 0 11 C-3.625 10.625 -3.625 10.625 -7 10 C-8.33359073 3.57451737 -8.33359073 3.57451737 -6.875 1.0625 C-4.37987679 -0.35140315 -2.82190981 -0.43413997 0 0 Z " fill="#F0B1B9" transform="translate(975,412)"/>
<path d="M0 0 C4.95 0 9.9 0 15 0 C15 0.66 15 1.32 15 2 C12.36 2 9.72 2 7 2 C7 6.29 7 10.58 7 15 C6.34 15 5.68 15 5 15 C5 10.71 5 6.42 5 2 C3.35 2 1.7 2 0 2 C0 1.34 0 0.68 0 0 Z " fill="#E28697" transform="translate(966,636)"/>
<path d="M0 0 C0.99 0 1.98 0 3 0 C3.66 1.65 4.32 3.3 5 5 C5.66 3.35 6.32 1.7 7 0 C7.99 0 8.98 0 10 0 C9.01 3.63 8.02 7.26 7 11 C5.68 10.67 4.36 10.34 3 10 C1.953125 7.71484375 1.953125 7.71484375 1.25 4.9375 C1.00765625 4.01839844 0.7653125 3.09929687 0.515625 2.15234375 C0.34546875 1.44207031 0.1753125 0.73179687 0 0 Z " fill="#F0B2BA" transform="translate(932,435)"/>
<path d="M0 0 C2.31 0 4.62 0 7 0 C7 0.66 7 1.32 7 2 C6.01 2 5.02 2 4 2 C4 4.97 4 7.94 4 11 C2.68 11 1.36 11 0 11 C0 7.37 0 3.74 0 0 Z " fill="#F1B8BF" transform="translate(979,435)"/>
<path d="M0 0 C2.3129482 2.3129482 2.49580975 3.47904875 3.125 6.625 C3.29257812 7.44226563 3.46015625 8.25953125 3.6328125 9.1015625 C3.81457031 10.04128906 3.81457031 10.04128906 4 11 C1.69 11 -0.62 11 -3 11 C-2.53199289 6.94393835 -2.12046792 3.53411321 0 0 Z " fill="#F6DADC" transform="translate(857,346)"/>
<path d="M0 0 C0.99 0 1.98 0 3 0 C3.9827968 2.94839041 4 4.94130972 4 8 C4.33 8.66 4.66 9.32 5 10 C4.34 10 3.68 10 3 10 C3 11.65 3 13.3 3 15 C2.01 15 1.02 15 0 15 C0 10.05 0 5.1 0 0 Z " fill="#F0AFB8" transform="translate(993,435)"/>
<path d="M0 0 C1.32 0.33 2.64 0.66 4 1 C4.79953138 4.28696233 5.09658936 5.71023192 4 9 C2.35 9 0.7 9 -1 9 C-2.0326802 6.21176345 -2.04509293 5.1322726 -1.0625 2.25 C-0.711875 1.5075 -0.36125 0.765 0 0 Z " fill="#F0AEB1" transform="translate(956,735)"/>
<path d="M0 0 C0.66 0 1.32 0 2 0 C2.66 1.65 3.32 3.3 4 5 C5.93798263 2.22739701 5.93798263 2.22739701 7 0 C7.66 0.33 8.32 0.66 9 1 C8.29534531 2.98802578 7.56040302 4.96533728 6.8125 6.9375 C6.40644531 8.03964844 6.00039063 9.14179687 5.58203125 10.27734375 C4 13 4 13 1.32421875 13.87890625 C0.55722656 13.91886719 -0.20976563 13.95882812 -1 14 C-1 13.34 -1 12.68 -1 12 C-0.01 11.67 0.98 11.34 2 11 C1.40049704 7.31733897 0.75241109 3.65456815 0 0 Z " fill="#332531" transform="translate(984,591)"/>
<path d="M0 0 C0.66 0 1.32 0 2 0 C2.66 1.65 3.32 3.3 4 5 C5.93798263 2.22739701 5.93798263 2.22739701 7 0 C7.66 0.33 8.32 0.66 9 1 C8.29534531 2.98802578 7.56040302 4.96533728 6.8125 6.9375 C6.40644531 8.03964844 6.00039063 9.14179687 5.58203125 10.27734375 C4 13 4 13 1.32421875 13.87890625 C0.55722656 13.91886719 -0.20976563 13.95882812 -1 14 C-1 13.34 -1 12.68 -1 12 C-0.01 11.67 0.98 11.34 2 11 C1.40049704 7.31733897 0.75241109 3.65456815 0 0 Z " fill="#332531" transform="translate(973,591)"/>
<path d="M0 0 C0.66 0 1.32 0 2 0 C2.66 1.65 3.32 3.3 4 5 C5.93798263 2.22739701 5.93798263 2.22739701 7 0 C7.66 0.33 8.32 0.66 9 1 C8.29534531 2.98802578 7.56040302 4.96533728 6.8125 6.9375 C6.40644531 8.03964844 6.00039063 9.14179687 5.58203125 10.27734375 C4 13 4 13 1.32421875 13.87890625 C0.55722656 13.91886719 -0.20976563 13.95882812 -1 14 C-1 13.34 -1 12.68 -1 12 C-0.01 11.67 0.98 11.34 2 11 C1.40049704 7.31733897 0.75241109 3.65456815 0 0 Z " fill="#332531" transform="translate(962,591)"/>
<path d="M0 0 C0.66 0 1.32 0 2 0 C2.66 1.65 3.32 3.3 4 5 C5.93798263 2.22739701 5.93798263 2.22739701 7 0 C7.66 0.33 8.32 0.66 9 1 C8.29534531 2.98802578 7.56040302 4.96533728 6.8125 6.9375 C6.40644531 8.03964844 6.00039063 9.14179687 5.58203125 10.27734375 C4 13 4 13 1.32421875 13.87890625 C0.55722656 13.91886719 -0.20976563 13.95882812 -1 14 C-1 13.34 -1 12.68 -1 12 C-0.01 11.67 0.98 11.34 2 11 C1.40049704 7.31733897 0.75241109 3.65456815 0 0 Z " fill="#332531" transform="translate(951,591)"/>
<path d="M0 0 C1.32 0.33 2.64 0.66 4 1 C4.33 2.65 4.66 4.3 5 6 C2.69 6 0.38 6 -2 6 C-1.67 6.66 -1.34 7.32 -1 8 C0.98 8 2.96 8 5 8 C4.67 8.99 4.34 9.98 4 11 C1.125 11.125 1.125 11.125 -2 11 C-4 9 -4 9 -4.125 5.375 C-4.08375 4.26125 -4.0425 3.1475 -4 2 C-3.67 2.99 -3.34 3.98 -3 5 C-1.02 5 0.96 5 3 5 C2.2236068 1.9254644 2.2236068 1.9254644 0 0 Z " fill="#F3C2C7" transform="translate(933,739)"/>
<path d="M0 0 C0.66 0 1.32 0 2 0 C2 0.99 2 1.98 2 3 C3.32 3 4.64 3 6 3 C6 3.66 6 4.32 6 5 C4.68 5 3.36 5 2 5 C2 7.31 2 9.62 2 12 C3.32 12 4.64 12 6 12 C6 12.66 6 13.32 6 14 C4.33388095 14.042721 2.66617115 14.04063832 1 14 C-0.63717481 12.36282519 -0.39672144 10.37517442 -0.625 8.125 C-0.72039063 7.24070312 -0.81578125 6.35640625 -0.9140625 5.4453125 C-1 3 -1 3 0 0 Z " fill="#F3BFC4" transform="translate(940,736)"/>
<path d="M0 0 C0.99 0 1.98 0 3 0 C3 4.95 3 9.9 3 15 C2.01 15 1.02 15 0 15 C0 10.05 0 5.1 0 0 Z " fill="#EFB0BC" transform="translate(950,408)"/>
<path d="M0 0 C0.99 0 1.98 0 3 0 C3 4.95 3 9.9 3 15 C2.01 15 1.02 15 0 15 C0 10.05 0 5.1 0 0 Z " fill="#F1B5B7" transform="translate(887,408)"/>
<path d="M0 0 C0.99 0 1.98 0 3 0 C3 4.95 3 9.9 3 15 C2.01 15 1.02 15 0 15 C0 10.05 0 5.1 0 0 Z " fill="#EFB0BC" transform="translate(851,408)"/>
<path d="M0 0 C3.125 0.375 3.125 0.375 6 1 C6 1.99 6 2.98 6 4 C5.34 4 4.68 4 4 4 C4 3.34 4 2.68 4 2 C2.68 2 1.36 2 0 2 C0 4.31 0 6.62 0 9 C1.98 8.34 3.96 7.68 6 7 C5.67 8.32 5.34 9.64 5 11 C2.625 11.125 2.625 11.125 0 11 C-2 9 -2 9 -2.25 5.5 C-2 2 -2 2 0 0 Z " fill="#E1899B" transform="translate(948,640)"/>
<path d="M0 0 C2.31 0 4.62 0 7 0 C6.2884375 0.495 6.2884375 0.495 5.5625 1 C3.14208385 4.09813267 3.31801083 7.12026792 3 11 C2.01 11 1.02 11 0 11 C0 7.37 0 3.74 0 0 Z " fill="#F0B0B9" transform="translate(904,412)"/>
<path d="M0 0 C2 2 2 2 2.1953125 4.1640625 C2.17210937 4.97617187 2.14890625 5.78828125 2.125 6.625 C2.10695313 7.44226563 2.08890625 8.25953125 2.0703125 9.1015625 C2.03550781 10.04128906 2.03550781 10.04128906 2 11 C0.68 10.34 -0.64 9.68 -2 9 C-1.34 6.69 -0.68 4.38 0 2 C-2.31 2.33 -4.62 2.66 -7 3 C-7 2.34 -7 1.68 -7 1 C-4.48718205 -0.25640898 -2.78302919 -0.20872719 0 0 Z " fill="#E0869A" transform="translate(989,554)"/>
<path d="M0 0 C2.0625 0.4375 2.0625 0.4375 4 1 C5.34261242 7.46895075 5.34261242 7.46895075 3.75 9.9375 C2 11 2 11 -1 11 C-1 10.34 -1 9.68 -1 9 C-0.34 8.67 0.32 8.34 1 8 C1.16687448 5.58354218 1.16687448 5.58354218 1 3 C0.34 2.34 -0.32 1.68 -1 1 C-0.67 0.67 -0.34 0.34 0 0 Z " fill="#EFB0BA" transform="translate(844,412)"/>
<path d="M0 0 C0.185625 0.9590625 0.185625 0.9590625 0.375 1.9375 C0.684375 2.9584375 0.684375 2.9584375 1 4 C1.66 4.33 2.32 4.66 3 5 C2.34 5 1.68 5 1 5 C1.144375 6.27875 1.28875 7.5575 1.4375 8.875 C1.51871094 9.59429688 1.59992187 10.31359375 1.68359375 11.0546875 C1.91292961 13.07404316 1.91292961 13.07404316 3 15 C1.68 14.67 0.36 14.34 -1 14 C-1.22331199 12.41870971 -1.42804644 10.83478911 -1.625 9.25 C-1.74101563 8.36828125 -1.85703125 7.4865625 -1.9765625 6.578125 C-2.00207817 3.77140122 -1.44843844 2.36615134 0 0 Z " fill="#E58A92" transform="translate(957,636)"/>
<path d="M0 0 C0.33 1.32 0.66 2.64 1 4 C1.66 4 2.32 4 3 4 C3 4.66 3 5.32 3 6 C2.34 6 1.68 6 1 6 C1.33 8.97 1.66 11.94 2 15 C1.01 14.67 0.02 14.34 -1 14 C-1.22331199 12.41870971 -1.42804644 10.83478911 -1.625 9.25 C-1.74101563 8.36828125 -1.85703125 7.4865625 -1.9765625 6.578125 C-2.00207817 3.77140122 -1.44843844 2.36615134 0 0 Z " fill="#E087A1" transform="translate(995,550)"/>
<path d="M0 0 C0.185625 0.9590625 0.185625 0.9590625 0.375 1.9375 C0.684375 2.9584375 0.684375 2.9584375 1 4 C1.66 4.33 2.32 4.66 3 5 C2.34 5 1.68 5 1 5 C1 7.97 1 10.94 1 14 C1.66 14.33 2.32 14.66 3 15 C1.68 14.67 0.36 14.34 -1 14 C-1.22331199 12.41870971 -1.42804644 10.83478911 -1.625 9.25 C-1.74101563 8.36828125 -1.85703125 7.4865625 -1.9765625 6.578125 C-2.00207817 3.77140122 -1.44843844 2.36615134 0 0 Z " fill="#E18399" transform="translate(958,550)"/>
<path d="M0 0 C0.99 0 1.98 0 3 0 C3 3.63 3 7.26 3 11 C2.01 11 1.02 11 0 11 C0 7.37 0 3.74 0 0 Z " fill="#EFB2BF" transform="translate(988,435)"/>
<path d="M0 0 C0.99 0 1.98 0 3 0 C3 3.63 3 7.26 3 11 C2.01 11 1.02 11 0 11 C0 7.37 0 3.74 0 0 Z " fill="#F1B5B7" transform="translate(995,412)"/>
<path d="M0 0 C0.99 0 1.98 0 3 0 C3 3.63 3 7.26 3 11 C2.01 11 1.02 11 0 11 C0 7.37 0 3.74 0 0 Z " fill="#F0B2B7" transform="translate(815,412)"/>
<path d="M0 0 C-0.33 1.32 -0.66 2.64 -1 4 C-2.98 4.33 -4.96 4.66 -7 5 C-7 3.35 -7 1.7 -7 0 C-4.3333581 -1.33332095 -2.83319697 -0.67102033 0 0 Z " fill="#EFA7AC" transform="translate(976,744)"/>
<path d="M0 0 C0.78375 0.04125 1.5675 0.0825 2.375 0.125 C2.375 0.785 2.375 1.445 2.375 2.125 C1.055 2.455 -0.265 2.785 -1.625 3.125 C-1.955 4.775 -2.285 6.425 -2.625 8.125 C-1.305 8.455 0.015 8.785 1.375 9.125 C-0.5 9.75 -0.5 9.75 -2.625 10.125 C-4.625 8.125 -4.625 8.125 -4.875 5.125 C-4.55416156 1.2749387 -3.94115238 0.18767392 0 0 Z " fill="#1E141C" transform="translate(885.625,590.875)"/>
<path d="M0 0 C0.78375 0.04125 1.5675 0.0825 2.375 0.125 C2.375 0.785 2.375 1.445 2.375 2.125 C1.055 2.455 -0.265 2.785 -1.625 3.125 C-1.955 4.775 -2.285 6.425 -2.625 8.125 C-1.305 8.455 0.015 8.785 1.375 9.125 C-0.5 9.75 -0.5 9.75 -2.625 10.125 C-4.625 8.125 -4.625 8.125 -4.875 5.125 C-4.55416156 1.2749387 -3.94115238 0.18767392 0 0 Z " fill="#1E141C" transform="translate(874.625,590.875)"/>
<path d="M0 0 C2.86724686 0.57344937 3.8614515 0.8614515 6 3 C6 3.99 6 4.98 6 6 C3.36 5.67 0.72 5.34 -2 5 C-1.34 3.35 -0.68 1.7 0 0 Z " fill="#E9A9B4" transform="translate(923,640)"/>
<path d="M0 0 C-0.33 1.65 -0.66 3.3 -1 5 C-2.65 5.33 -4.3 5.66 -6 6 C-6.33 4.68 -6.66 3.36 -7 2 C-2.25 0 -2.25 0 0 0 Z " fill="#F6DADE" transform="translate(897,359)"/>
<path d="M0 0 C1.98 0 3.96 0 6 0 C6 0.66 6 1.32 6 2 C5.01 2.33 4.02 2.66 3 3 C2.67 5.64 2.34 8.28 2 11 C1.34 11 0.68 11 0 11 C0 7.37 0 3.74 0 0 Z " fill="#F3C5C6" transform="translate(980,739)"/>
<path d="M0 0 C1.65 0.33 3.3 0.66 5 1 C5 2.65 5 4.3 5 6 C2.03 5.505 2.03 5.505 -1 5 C-0.67 3.35 -0.34 1.7 0 0 Z " fill="#F2BEC3" transform="translate(944,440)"/>
<path d="M0 0 C1.65 0.33 3.3 0.66 5 1 C5 2.65 5 4.3 5 6 C2.03 5.505 2.03 5.505 -1 5 C-0.67 3.35 -0.34 1.7 0 0 Z " fill="#F2BEC3" transform="translate(893,417)"/>
<path d="M0 0 C1.65 0 3.3 0 5 0 C5.33 1.65 5.66 3.3 6 5 C3.69 4.34 1.38 3.68 -1 3 C-0.67 2.01 -0.34 1.02 0 0 Z " fill="#F6DADC" transform="translate(909,638)"/>
<path d="M0 0 C1.32 0.33 2.64 0.66 4 1 C4 2.65 4 4.3 4 6 C2.68 6.33 1.36 6.66 0 7 C0 4.69 0 2.38 0 0 Z " fill="#FADFDE" transform="translate(842,414)"/>
<path d="M0 0 C2.475 0.99 2.475 0.99 5 2 C5 2.99 5 3.98 5 5 C3.02 5 1.04 5 -1 5 C-0.67 3.35 -0.34 1.7 0 0 Z " fill="#EFA3A5" transform="translate(931,739)"/>
<path d="M0 0 C0.99 0.33 1.98 0.66 3 1 C3 2.65 3 4.3 3 6 C1.68 6 0.36 6 -1 6 C-1.042721 4.33388095 -1.04063832 2.66617115 -1 1 C-0.67 0.67 -0.34 0.34 0 0 Z " fill="#F8E2E5" transform="translate(997,437)"/>
<path d="M0 0 C0.99 0.33 1.98 0.66 3 1 C3 2.65 3 4.3 3 6 C1.68 6 0.36 6 -1 6 C-1.042721 4.33388095 -1.04063832 2.66617115 -1 1 C-0.67 0.67 -0.34 0.34 0 0 Z " fill="#F9E2E6" transform="translate(959,414)"/>
<path d="M0 0 C1.32 0 2.64 0 4 0 C4.33 1.98 4.66 3.96 5 6 C4.01 6 3.02 6 2 6 C1.67 5.34 1.34 4.68 1 4 C0.01 4.495 0.01 4.495 -1 5 C-0.67 3.35 -0.34 1.7 0 0 Z " fill="#F5CACD" transform="translate(875,411)"/>
<path d="M0 0 C2.64 0 5.28 0 8 0 C8 0.66 8 1.32 8 2 C7.05125 2.268125 6.1025 2.53625 5.125 2.8125 C1.74732727 3.74986588 1.74732727 3.74986588 0 7 C0 4.69 0 2.38 0 0 Z " fill="#FADED7" transform="translate(981,556)"/>
<path d="M0 0 C0.99 0 1.98 0 3 0 C3 1.65 3 3.3 3 5 C1.68 5.33 0.36 5.66 -1 6 C-1.042721 4.33388095 -1.04063832 2.66617115 -1 1 C-0.67 0.67 -0.34 0.34 0 0 Z " fill="#EFF6F4" transform="translate(884,593)"/>
<path d="M0 0 C0.99 0 1.98 0 3 0 C3 1.65 3 3.3 3 5 C1.68 5.33 0.36 5.66 -1 6 C-1.042721 4.33388095 -1.04063832 2.66617115 -1 1 C-0.67 0.67 -0.34 0.34 0 0 Z " fill="#EFF6F4" transform="translate(873,593)"/>
<path d="M0 0 C1.65 0 3.3 0 5 0 C5.33 0.66 5.66 1.32 6 2 C5.67 2.66 5.34 3.32 5 4 C3.35 4 1.7 4 0 4 C0 2.68 0 1.36 0 0 Z " fill="#ECB2BA" transform="translate(937,640)"/>
<path d="M0 0 C0.66 0 1.32 0 2 0 C3.231394 3.69418201 2.64432764 6.2056261 2 10 C1.34 10 0.68 10 0 10 C0 6.7 0 3.4 0 0 Z " fill="#382132" transform="translate(921,591)"/>
<path d="M0 0 C0.66 0 1.32 0 2 0 C3.231394 3.69418201 2.64432764 6.2056261 2 10 C1.34 10 0.68 10 0 10 C0 6.7 0 3.4 0 0 Z " fill="#382132" transform="translate(910,591)"/>
<path d="M0 0 C1.65 0 3.3 0 5 0 C5.33 0.66 5.66 1.32 6 2 C5.67 2.66 5.34 3.32 5 4 C3.35 4 1.7 4 0 4 C0 2.68 0 1.36 0 0 Z " fill="#ECB2BA" transform="translate(1001,554)"/>
<path d="M0 0 C1.65 0 3.3 0 5 0 C5.33 0.66 5.66 1.32 6 2 C5.67 2.66 5.34 3.32 5 4 C3.35 4 1.7 4 0 4 C0 2.68 0 1.36 0 0 Z " fill="#ECB2BA" transform="translate(922,554)"/>
<path d="M0 0 C2.64 0 5.28 0 8 0 C7.67 0.99 7.34 1.98 7 3 C4.57202689 3 2.37092995 2.49914315 0 2 C0 1.34 0 0.68 0 0 Z " fill="#F5DAE0" transform="translate(1001,646)"/>
<path d="M0 0 C2.64 0 5.28 0 8 0 C7.67 0.99 7.34 1.98 7 3 C4.57202689 3 2.37092995 2.49914315 0 2 C0 1.34 0 0.68 0 0 Z " fill="#F5DAE0" transform="translate(937,560)"/>
</svg>
