<svg width="800" height="500" viewBox="0 0 800 500" xmlns="http://www.w3.org/2000/svg">
  <defs>
    <linearGradient id="g" x1="0%" y1="0%" x2="100%" y2="100%">
      <stop offset="0%" stop-color="#1e1600"/>
      <stop offset="100%" stop-color="#120e00"/>
    </linearGradient>
    <linearGradient id="bar" x1="0%" y1="0%" x2="100%" y2="0%">
      <stop offset="0%" stop-color="#fcd34d" stop-opacity="0.9"/>
      <stop offset="100%" stop-color="#d97706" stop-opacity="0.7"/>
    </linearGradient>
    <clipPath id="clip"><rect width="800" height="500" rx="0"/></clipPath>
  </defs>

  <!-- Background -->
  <rect width="800" height="500" fill="url(#g)" clip-path="url(#clip)"/>

  <!-- Subtle glow behind center -->
  <ellipse cx="400" cy="220" rx="280" ry="160" fill="#fcd34d" opacity="0.04"/>

  <!-- Editor window -->
  <rect x="32" y="32" width="736" height="348" rx="12" fill="rgba(0,0,0,0.45)"/>

  <!-- Title bar -->
  <rect x="32" y="32" width="736" height="38" rx="12" fill="#150f00"/>
  <rect x="32" y="56" width="736" height="14" fill="#150f00"/>

  <!-- Traffic lights -->
  <circle cx="62"  cy="51" r="7" fill="#ff5f57" opacity="0.95"/>
  <circle cx="88"  cy="51" r="7" fill="#febc2e" opacity="0.95"/>
  <circle cx="114" cy="51" r="7" fill="#28c840" opacity="0.95"/>

  <!-- Tab/filename -->
  <rect x="140" y="38" width="160" height="26" rx="5" fill="rgba(255,255,255,0.07)"/>
  <text x="160" y="55" fill="rgba(255,255,255,0.55)" font-size="11" font-family="monospace">blog.html</text>

  <!-- Gutter -->
  <rect x="32" y="70" width="52" height="310" fill="rgba(0,0,0,0.2)"/>

  <!-- Code lines -->
  <text x="52" y="92" text-anchor="end" fill="rgba(255,255,255,0.15)" font-size="10" font-family="monospace">1</text>
  <rect x="100" y="82" width="649" height="13" rx="2" fill="rgba(255,255,255,0.09529157078715311)" opacity="1"/>
  <text x="52" y="110" text-anchor="end" fill="rgba(255,255,255,0.15)" font-size="10" font-family="monospace">2</text>
  <rect x="80" y="100" width="390" height="13" rx="2" fill="rgba(255,255,255,0.060764969419866095)" opacity="1"/>
  <rect x="482" y="100" width="83" height="13" rx="2" fill="rgba(255,255,255,0.05081076986408112)" opacity="0.6"/>
  <text x="52" y="128" text-anchor="end" fill="rgba(255,255,255,0.15)" font-size="10" font-family="monospace">3</text>
  <rect x="60" y="118" width="572" height="13" rx="2" fill="rgba(255,255,255,0.10088761220706804)" opacity="1"/>
  <rect x="644" y="118" width="34" height="13" rx="2" fill="rgba(255,255,255,0.07369317225499386)" opacity="0.6"/>
  <text x="52" y="146" text-anchor="end" fill="rgba(255,255,255,0.15)" font-size="10" font-family="monospace">4</text>
  <rect x="100" y="136" width="506" height="13" rx="2" fill="rgba(255,255,255,0.07452966641972998)" opacity="1"/>
  <rect x="618" y="136" width="71" height="13" rx="2" fill="rgba(255,255,255,0.0578044550977192)" opacity="0.6"/>
  <text x="52" y="164" text-anchor="end" fill="rgba(255,255,255,0.15)" font-size="10" font-family="monospace">5</text>
  <rect x="80" y="154" width="469" height="13" rx="2" fill="rgba(255,255,255,0.08742601268632011)" opacity="1"/>
  <text x="52" y="182" text-anchor="end" fill="rgba(255,255,255,0.15)" font-size="10" font-family="monospace">6</text>
  <rect x="60" y="172" width="382" height="13" rx="2" fill="rgba(255,255,255,0.09484308571434652)" opacity="1"/>
  <text x="52" y="200" text-anchor="end" fill="rgba(255,255,255,0.15)" font-size="10" font-family="monospace">7</text>
  <rect x="60" y="190" width="253" height="13" rx="2" fill="rgba(255,255,255,0.07363919683118332)" opacity="1"/>
  <text x="52" y="218" text-anchor="end" fill="rgba(255,255,255,0.15)" font-size="10" font-family="monospace">8</text>
  <rect x="100" y="208" width="270" height="13" rx="2" fill="#fcd34d" opacity="0.55"/>
  <text x="52" y="236" text-anchor="end" fill="rgba(255,255,255,0.15)" font-size="10" font-family="monospace">9</text>
  <rect x="100" y="226" width="491" height="13" rx="2" fill="rgba(255,255,255,0.07505122684292756)" opacity="1"/>
  <text x="52" y="254" text-anchor="end" fill="rgba(255,255,255,0.15)" font-size="10" font-family="monospace">10</text>
  <rect x="60" y="244" width="167" height="13" rx="2" fill="rgba(255,255,255,0.060417580604650446)" opacity="1"/>
  <rect x="239" y="244" width="85" height="13" rx="2" fill="rgba(255,255,255,0.08740691159325814)" opacity="0.6"/>
  <text x="52" y="272" text-anchor="end" fill="rgba(255,255,255,0.15)" font-size="10" font-family="monospace">11</text>
  <rect x="60" y="262" width="377" height="13" rx="2" fill="rgba(255,255,255,0.08121820223080418)" opacity="1"/>
  <text x="52" y="290" text-anchor="end" fill="rgba(255,255,255,0.15)" font-size="10" font-family="monospace">12</text>
  <rect x="60" y="280" width="306" height="13" rx="2" fill="#fcd34d" opacity="0.55"/>
  <text x="52" y="308" text-anchor="end" fill="rgba(255,255,255,0.15)" font-size="10" font-family="monospace">13</text>
  <rect x="60" y="298" width="652" height="13" rx="2" fill="rgba(255,255,255,0.0760006901286544)" opacity="1"/>
  <text x="52" y="326" text-anchor="end" fill="rgba(255,255,255,0.15)" font-size="10" font-family="monospace">14</text>
  <rect x="60" y="316" width="299" height="13" rx="2" fill="rgba(255,255,255,0.11536805379562268)" opacity="1"/>

  <!-- Big dimmed project name in center -->
  <text x="400" y="295" text-anchor="middle" fill="rgba(255,255,255,0.05)" font-size="52" font-weight="900" font-family="system-ui,sans-serif" letter-spacing="-2">Blog</text>

  <!-- Bottom info bar -->
  <rect x="0" y="400" width="800" height="100" fill="rgba(0,0,0,0.55)"/>

  <!-- Accent line -->
  <rect x="0" y="400" width="800" height="3" fill="url(#bar)"/>

  <!-- Author initials circle -->
  <circle cx="72" cy="450" r="28" fill="#fcd34d" opacity="0.18"/>
  <circle cx="72" cy="450" r="22" fill="#fcd34d" opacity="0.22"/>
  <text x="72" y="456" text-anchor="middle" fill="#fcd34d" font-size="15" font-weight="800" font-family="system-ui,sans-serif">AR</text>

  <!-- Project name -->
  <text x="112" y="440" fill="rgba(255,255,255,0.92)" font-size="17" font-weight="800" font-family="system-ui,sans-serif" letter-spacing="-0.5">Blog</text>

  <!-- Tag pills -->
  <rect x="112" y="455" width="44" height="20" rx="10" fill="#fcd34d" opacity="0.22"/>
  <text x="134" y="469" text-anchor="middle" fill="#fcd34d" font-size="10" font-weight="700" font-family="system-ui,sans-serif">BLOG</text>

  <rect x="162" y="455" width="86" height="20" rx="10" fill="rgba(255,255,255,0.08)"/>
  <text x="205" y="469" text-anchor="middle" fill="rgba(255,255,255,0.5)" font-size="10" font-weight="600" font-family="system-ui,sans-serif">RESPONSIVE</text>

  <rect x="254" y="455" width="79" height="20" rx="10" fill="rgba(255,255,255,0.06)"/>
  <text x="293.5" y="469" text-anchor="middle" fill="rgba(255,255,255,0.35)" font-size="10" font-weight="600" font-family="system-ui,sans-serif">DARK-MODE</text>
</svg>