<svg width="800" height="500" viewBox="0 0 800 500" xmlns="http://www.w3.org/2000/svg">
  <defs>
    <linearGradient id="g" x1="0%" y1="0%" x2="100%" y2="100%">
      <stop offset="0%" stop-color="#1e0a1e"/>
      <stop offset="100%" stop-color="#120612"/>
    </linearGradient>
    <linearGradient id="bar" x1="0%" y1="0%" x2="100%" y2="0%">
      <stop offset="0%" stop-color="#f0abfc" stop-opacity="0.9"/>
      <stop offset="100%" stop-color="#c026d3" stop-opacity="0.7"/>
    </linearGradient>
    <clipPath id="clip"><rect width="800" height="500" rx="0"/></clipPath>
  </defs>

  <!-- Background -->
  <rect width="800" height="500" fill="url(#g)" clip-path="url(#clip)"/>

  <!-- Subtle glow behind center -->
  <ellipse cx="400" cy="220" rx="280" ry="160" fill="#f0abfc" opacity="0.04"/>

  <!-- Editor window -->
  <rect x="32" y="32" width="736" height="348" rx="12" fill="rgba(0,0,0,0.45)"/>

  <!-- Title bar -->
  <rect x="32" y="32" width="736" height="38" rx="12" fill="#150815"/>
  <rect x="32" y="56" width="736" height="14" fill="#150815"/>

  <!-- Traffic lights -->
  <circle cx="62"  cy="51" r="7" fill="#ff5f57" opacity="0.95"/>
  <circle cx="88"  cy="51" r="7" fill="#febc2e" opacity="0.95"/>
  <circle cx="114" cy="51" r="7" fill="#28c840" opacity="0.95"/>

  <!-- Tab/filename -->
  <rect x="140" y="38" width="160" height="26" rx="5" fill="rgba(255,255,255,0.07)"/>
  <text x="160" y="55" fill="rgba(255,255,255,0.55)" font-size="11" font-family="monospace">browser-whiteboard.html</text>

  <!-- Gutter -->
  <rect x="32" y="70" width="52" height="310" fill="rgba(0,0,0,0.2)"/>

  <!-- Code lines -->
  <text x="52" y="92" text-anchor="end" fill="rgba(255,255,255,0.15)" font-size="10" font-family="monospace">1</text>
  <rect x="100" y="82" width="137" height="13" rx="2" fill="rgba(255,255,255,0.07513236824775403)" opacity="1"/>
  <rect x="249" y="82" width="45" height="13" rx="2" fill="rgba(255,255,255,0.0807167559933655)" opacity="0.6"/>
  <text x="52" y="110" text-anchor="end" fill="rgba(255,255,255,0.15)" font-size="10" font-family="monospace">2</text>
  <rect x="80" y="100" width="453" height="13" rx="2" fill="rgba(255,255,255,0.07312701508708461)" opacity="1"/>
  <text x="52" y="128" text-anchor="end" fill="rgba(255,255,255,0.15)" font-size="10" font-family="monospace">3</text>
  <rect x="100" y="118" width="511" height="13" rx="2" fill="rgba(255,255,255,0.06283671997553593)" opacity="1"/>
  <rect x="623" y="118" width="56" height="13" rx="2" fill="rgba(255,255,255,0.05121692104759089)" opacity="0.6"/>
  <text x="52" y="146" text-anchor="end" fill="rgba(255,255,255,0.15)" font-size="10" font-family="monospace">4</text>
  <rect x="60" y="136" width="531" height="13" rx="2" fill="#f0abfc" opacity="0.55"/>
  <text x="52" y="164" text-anchor="end" fill="rgba(255,255,255,0.15)" font-size="10" font-family="monospace">5</text>
  <rect x="80" y="154" width="606" height="13" rx="2" fill="rgba(255,255,255,0.13394930733226923)" opacity="1"/>
  <text x="52" y="182" text-anchor="end" fill="rgba(255,255,255,0.15)" font-size="10" font-family="monospace">6</text>
  <rect x="60" y="172" width="189" height="13" rx="2" fill="rgba(255,255,255,0.13749940087960555)" opacity="1"/>
  <text x="52" y="200" text-anchor="end" fill="rgba(255,255,255,0.15)" font-size="10" font-family="monospace">7</text>
  <rect x="80" y="190" width="582" height="13" rx="2" fill="rgba(255,255,255,0.09745528307684122)" opacity="1"/>
  <text x="52" y="218" text-anchor="end" fill="rgba(255,255,255,0.15)" font-size="10" font-family="monospace">8</text>
  <rect x="80" y="208" width="459" height="13" rx="2" fill="#f0abfc" opacity="0.55"/>
  <text x="52" y="236" text-anchor="end" fill="rgba(255,255,255,0.15)" font-size="10" font-family="monospace">9</text>
  <rect x="80" y="226" width="402" height="13" rx="2" fill="rgba(255,255,255,0.13912035938331865)" opacity="1"/>
  <rect x="494" y="226" width="69" height="13" rx="2" fill="rgba(255,255,255,0.04322586644981659)" opacity="0.6"/>
  <text x="52" y="254" text-anchor="end" fill="rgba(255,255,255,0.15)" font-size="10" font-family="monospace">10</text>
  <rect x="100" y="244" width="136" height="13" rx="2" fill="rgba(255,255,255,0.09743841341637038)" opacity="1"/>
  <rect x="248" y="244" width="39" height="13" rx="2" fill="rgba(255,255,255,0.08040390812801289)" opacity="0.6"/>
  <text x="52" y="272" text-anchor="end" fill="rgba(255,255,255,0.15)" font-size="10" font-family="monospace">11</text>
  <rect x="80" y="262" width="446" height="13" rx="2" fill="rgba(255,255,255,0.09128548758832866)" opacity="1"/>
  <rect x="538" y="262" width="60" height="13" rx="2" fill="rgba(255,255,255,0.05704136550357597)" opacity="0.6"/>
  <text x="52" y="290" text-anchor="end" fill="rgba(255,255,255,0.15)" font-size="10" font-family="monospace">12</text>
  <rect x="100" y="280" width="595" height="13" rx="2" fill="#f0abfc" opacity="0.55"/>
  <text x="52" y="308" text-anchor="end" fill="rgba(255,255,255,0.15)" font-size="10" font-family="monospace">13</text>
  <rect x="60" y="298" width="623" height="13" rx="2" fill="rgba(255,255,255,0.09228364667675543)" opacity="1"/>
  <rect x="695" y="298" width="41" height="13" rx="2" fill="rgba(255,255,255,0.08468527493176173)" opacity="0.6"/>
  <text x="52" y="326" text-anchor="end" fill="rgba(255,255,255,0.15)" font-size="10" font-family="monospace">14</text>
  <rect x="80" y="316" width="474" height="13" rx="2" fill="rgba(255,255,255,0.07432066368272543)" opacity="1"/>

  <!-- Big dimmed project name in center -->
  <text x="400" y="295" text-anchor="middle" fill="rgba(255,255,255,0.05)" font-size="52" font-weight="900" font-family="system-ui,sans-serif" letter-spacing="-2">Browser Whiteboard</text>

  <!-- Bottom info bar -->
  <rect x="0" y="400" width="800" height="100" fill="rgba(0,0,0,0.55)"/>

  <!-- Accent line -->
  <rect x="0" y="400" width="800" height="3" fill="url(#bar)"/>

  <!-- Author initials circle -->
  <circle cx="72" cy="450" r="28" fill="#f0abfc" opacity="0.18"/>
  <circle cx="72" cy="450" r="22" fill="#f0abfc" opacity="0.22"/>
  <text x="72" y="456" text-anchor="middle" fill="#f0abfc" font-size="15" font-weight="800" font-family="system-ui,sans-serif">YN</text>

  <!-- Project name -->
  <text x="112" y="440" fill="rgba(255,255,255,0.92)" font-size="17" font-weight="800" font-family="system-ui,sans-serif" letter-spacing="-0.5">Browser Whiteboard</text>

  <!-- Tag pills -->
  <rect x="112" y="455" width="58" height="20" rx="10" fill="#f0abfc" opacity="0.22"/>
  <text x="141" y="469" text-anchor="middle" fill="#f0abfc" font-size="10" font-weight="700" font-family="system-ui,sans-serif">CANVAS</text>

  <rect x="176" y="455" width="65" height="20" rx="10" fill="rgba(255,255,255,0.08)"/>
  <text x="208.5" y="469" text-anchor="middle" fill="rgba(255,255,255,0.5)" font-size="10" font-weight="600" font-family="system-ui,sans-serif">DRAWING</text>

  <rect x="247" y="455" width="65" height="20" rx="10" fill="rgba(255,255,255,0.06)"/>
  <text x="279.5" y="469" text-anchor="middle" fill="rgba(255,255,255,0.35)" font-size="10" font-weight="600" font-family="system-ui,sans-serif">UTILITY</text>
</svg>