<svg xmlns="http://www.w3.org/2000/svg" viewBox="0 0 1280 720" width="1280" height="720">
  <defs><linearGradient id="g" x1="0%" y1="0%" x2="100%" y2="100%"><stop offset="0%" stop-color="#0b1220"/><stop offset="100%" stop-color="#1a0a0a"/></linearGradient></defs>
  <rect width="1280" height="720" fill="url(#g)"/>
  <!-- network nodes -->
  <rect x="200" y="200" width="140" height="100" rx="8" fill="#1f2937" stroke="#334155" stroke-width="2"/>
  <text x="270" y="235" text-anchor="middle" font-size="28">🌐</text><text x="270" y="260" text-anchor="middle" font-family="monospace" font-size="12" fill="#cbd5e1">Web Server</text>
  <rect x="550" y="200" width="140" height="100" rx="8" fill="#1f2937" stroke="#334155" stroke-width="2"/>
  <text x="620" y="235" text-anchor="middle" font-size="28">🗄️</text><text x="620" y="260" text-anchor="middle" font-family="monospace" font-size="12" fill="#cbd5e1">Database</text>
  <rect x="900" y="200" width="140" height="100" rx="8" fill="#1f2937" stroke="#334155" stroke-width="2"/>
  <text x="970" y="235" text-anchor="middle" font-size="28">📧</text><text x="970" y="260" text-anchor="middle" font-family="monospace" font-size="12" fill="#cbd5e1">Mail Server</text>
  <rect x="370" y="380" width="140" height="100" rx="8" fill="#1f2937" stroke="#334155" stroke-width="2"/>
  <text x="440" y="415" text-anchor="middle" font-size="28">🔗</text><text x="440" y="440" text-anchor="middle" font-family="monospace" font-size="12" fill="#cbd5e1">DNS</text>
  <rect x="740" y="380" width="140" height="100" rx="8" fill="#1f2937" stroke="#334155" stroke-width="2"/>
  <text x="810" y="415" text-anchor="middle" font-size="28">📱</text><text x="810" y="440" text-anchor="middle" font-family="monospace" font-size="12" fill="#cbd5e1">App Server</text>
  <!-- attack arrows -->
  <path d="M50 250 L180 250" stroke="#ef4444" stroke-width="3" stroke-dasharray="8 4" marker-end="url(#arrow)"/>
  <defs><marker id="arrow" markerWidth="10" markerHeight="7" refX="9" refY="3.5" orient="auto"><polygon points="0 0 10 3.5 0 7" fill="#ef4444"/></marker></defs>
  <text x="60" y="230" font-family="monospace" font-size="12" fill="#ef4444" font-weight="700">DDoS</text>
  <!-- shield -->
  <path d="M50 380 Q90 350 130 380 Q110 420 90 440 Q70 420 50 380 Z" fill="#22c55e" opacity=".5" stroke="#22c55e" stroke-width="2"/>
  <text x="90" y="470" text-anchor="middle" font-family="monospace" font-size="11" fill="#22c55e">Firewall</text>
  <text x="640" y="100" text-anchor="middle" font-family="ui-monospace,monospace" font-size="26" font-weight="800" fill="#f8fafc" letter-spacing="1">CYBER ATTACK DEFENSE SIMULATOR</text>
  <text x="640" y="125" text-anchor="middle" font-family="ui-monospace,monospace" font-size="13" fill="#64748b">Defend Your Network · Stop the Attack</text>
</svg>
