<svg xmlns="http://www.w3.org/2000/svg" viewBox="0 0 320 200">
  <rect width="320" height="200" fill="#dfe7df"/>
  <g transform="translate(160 100)">
    <circle r="78" fill="#1c1c1e"/>
    <g stroke="#1c1c1e" stroke-width="2">
      <path d="M0 0 L74 0 A74 74 0 0 0 22.87 -70.41 Z" fill="#b86a2b"/>
      <path d="M0 0 L22.87 -70.41 A74 74 0 0 0 -59.87 -43.51 Z" fill="#efe1cf"/>
      <path d="M0 0 L-59.87 -43.51 A74 74 0 0 0 -59.87 43.51 Z" fill="#2e6b3e"/>
      <path d="M0 0 L-59.87 43.51 A74 74 0 0 0 22.87 70.41 Z" fill="#d4a76a"/>
      <path d="M0 0 L22.87 70.41 A74 74 0 0 0 74 0 Z" fill="#7a4a1c"/>
    </g>
    <circle r="14" fill="#fbf8f3"/>
    <polygon points="74,-12 96,0 74,12" fill="#1c1c1e"/>
  </g>
</svg>
