<?xml version="1.0" encoding="UTF-8"?>
<svg version="1.1" xmlns="http://www.w3.org/2000/svg" width="1050" height="457">
<path d="M0 0 C346.5 0 693 0 1050 0 C1050 150.81 1050 301.62 1050 457 C703.5 457 357 457 0 457 C0 306.19 0 155.38 0 0 Z " fill="#EEEEEE" transform="translate(0,0)"/>
<path d="M0 0 C0.86694541 -0.00235223 1.73389081 -0.00470446 2.62710729 -0.00712797 C5.56424619 -0.01384341 8.5013411 -0.01335899 11.43848705 -0.01294994 C13.55267298 -0.01624698 15.66685827 -0.0199722 17.78104275 -0.02409142 C23.6158793 -0.03413764 29.45070555 -0.03783241 35.28554952 -0.04048073 C41.56856341 -0.04437599 47.85156909 -0.05395479 54.13457775 -0.0626936 C68.60173777 -0.08154378 83.06889682 -0.09171692 97.53606606 -0.10015428 C104.68172763 -0.10435822 111.82738835 -0.10958053 118.9730492 -0.11483881 C143.42271232 -0.13272969 167.87237568 -0.14772704 192.32204437 -0.155159 C193.857455 -0.15563376 195.39286563 -0.15610965 196.92827625 -0.15658666 C197.68971804 -0.15682303 198.45115983 -0.15705941 199.23567561 -0.15730295 C203.09365927 -0.15850418 206.95164293 -0.15971962 210.80962658 -0.16094494 C211.95807868 -0.16130516 211.95807868 -0.16130516 213.12973183 -0.16167267 C237.96286793 -0.16956856 262.79595631 -0.19300602 287.62907156 -0.22550088 C313.87043343 -0.25977594 340.11176736 -0.27950794 366.35315198 -0.28280324 C369.23219503 -0.28322079 372.11123807 -0.28370036 374.99028111 -0.28422642 C376.05367023 -0.28441121 376.05367023 -0.28441121 377.13854196 -0.28459973 C388.56139943 -0.28693458 399.9842016 -0.30261032 411.40703934 -0.32306826 C422.882311 -0.34329454 434.35749138 -0.34848454 445.83278219 -0.33929763 C452.05307713 -0.33473568 458.27319201 -0.33674881 464.49346256 -0.35605907 C470.18256462 -0.3735685 475.87135363 -0.37279308 481.56045844 -0.35716178 C483.6237348 -0.35476703 485.68703216 -0.35920486 487.75027625 -0.37099043 C490.54550227 -0.38597415 493.33959953 -0.37653106 496.13479614 -0.36076355 C497.34877981 -0.37609686 497.34877981 -0.37609686 498.58728841 -0.39173993 C502.35540685 -0.34504473 504.52701151 -0.01251712 507.73249501 2.04015762 C511.17329126 5.60065133 510.88340074 7.92988527 510.89038086 12.80070686 C510.89273309 13.49712653 510.89508532 14.19354619 510.89750883 14.91106948 C510.90421894 17.26812761 510.90374001 19.62513086 510.9033308 21.98219776 C510.90662817 23.67977902 510.91035347 25.37735949 510.91447228 27.07493895 C510.92451474 31.75821678 510.92821267 36.44148178 510.93086159 41.12476885 C510.93475796 46.16850846 510.9443367 51.21223785 510.95307446 56.25597095 C510.97285699 68.44510516 510.982907 80.63424021 510.99180225 92.82338646 C510.99618191 98.55834812 511.00154952 104.29330885 511.00679111 110.02826977 C511.0238046 129.08344837 511.03830013 148.13862638 511.04553986 167.19381142 C511.04744986 172.14115175 511.04937018 177.08849209 511.0513258 182.03583241 C511.05180954 183.26552314 511.05229328 184.49521387 511.05279168 185.76216795 C511.06109701 205.69499274 511.08644189 225.62775761 511.11890648 245.56055621 C511.15193914 266.00821927 511.16998515 286.45585185 511.1731841 306.90354174 C511.17535263 318.39105931 511.18415147 329.87848948 511.20964527 341.3659811 C511.23130045 351.14658137 511.23942829 360.92707304 511.22967849 370.70769457 C511.22511881 375.70069479 511.22711647 380.69347069 511.24643993 385.68644047 C511.26396569 390.25421156 511.26316067 394.82159292 511.24754264 399.38936754 C511.24515038 401.04484134 511.2495732 402.70034138 511.26137129 404.35577486 C511.27638643 406.60106568 511.26689168 408.84495691 511.25114441 411.09021187 C511.25212122 412.33878733 511.25309803 413.58736279 511.25410444 414.87377387 C510.66440454 418.73501699 509.47246762 420.38135191 506.75615978 423.13422108 C503.54270678 424.74094758 500.04229802 424.27485752 496.51231956 424.26844215 C495.64537416 424.27079438 494.77842875 424.27314661 493.88521227 424.27557012 C490.94807338 424.28228556 488.01097846 424.28180114 485.07383251 424.2813921 C482.95964659 424.28468913 480.84546129 424.28841436 478.73127681 424.29253358 C472.89644027 424.3025798 467.06161401 424.30627457 461.22677004 424.30892289 C454.94375616 424.31281814 448.66075048 424.32239694 442.37774181 424.33113575 C427.91058179 424.34998593 413.44342275 424.36015907 398.9762535 424.36859643 C391.83059194 424.37280038 384.68493122 424.37802268 377.53927037 424.38328096 C353.08960724 424.40117184 328.63994388 424.41616919 304.19027519 424.42360115 C302.65486457 424.42407591 301.11945394 424.4245518 299.58404331 424.42502881 C298.44188063 424.42538338 298.44188063 424.42538338 297.27664395 424.4257451 C293.41866029 424.42694633 289.56067664 424.42816177 285.70269299 424.42938709 C284.55424088 424.42974732 284.55424088 424.42974732 283.38258773 424.43011482 C258.54945163 424.43801072 233.71636325 424.46144817 208.883248 424.49394304 C182.64188614 424.52821809 156.40055221 424.5479501 130.15916759 424.55124539 C127.28012453 424.55166295 124.4010815 424.55214251 121.52203846 424.55266857 C120.81311238 424.55279176 120.1041863 424.55291495 119.37377761 424.55304188 C107.95092014 424.55537673 96.52811797 424.57105247 85.10528023 424.59151042 C73.63000856 424.6117367 62.15482819 424.6169267 50.67953738 424.60773978 C44.45924243 424.60317783 38.23912755 424.60519096 32.018857 424.62450123 C26.32975494 424.64201066 20.64096594 424.64123523 14.95186112 424.62560394 C12.88858476 424.62320918 10.82528741 424.62764701 8.76204332 424.63943259 C5.96681729 424.65441631 3.17272003 424.64497321 0.37752342 424.6292057 C-0.43179903 424.63942791 -1.24112147 424.64965012 -2.07496884 424.66018209 C-5.84308728 424.61348688 -8.01469194 424.28095927 -11.22017545 422.22828454 C-14.6609717 418.66779082 -14.37108117 416.33855688 -14.37806129 411.46773529 C-14.38041352 410.77131563 -14.38276576 410.07489596 -14.38518927 409.35737267 C-14.39189938 407.00031455 -14.39142044 404.64331129 -14.39101124 402.28624439 C-14.39430861 400.58866314 -14.3980339 398.89108266 -14.40215272 397.1935032 C-14.41219518 392.51022538 -14.41589311 387.82696037 -14.41854203 383.1436733 C-14.4224384 378.09993369 -14.43201713 373.0562043 -14.44075489 368.0124712 C-14.46053743 355.823337 -14.47058743 343.63420194 -14.47948268 331.44505569 C-14.48386234 325.71009404 -14.48922996 319.97513331 -14.49447155 314.24017239 C-14.51148504 295.18499379 -14.52598056 276.12981577 -14.53322029 257.07463074 C-14.5351303 252.1272904 -14.53705061 247.17995007 -14.53900623 242.23260975 C-14.53948997 241.00291902 -14.53997371 239.77322829 -14.54047211 238.5062742 C-14.54877745 218.57344942 -14.57412232 198.64068455 -14.60658691 178.70788594 C-14.63961957 158.26022288 -14.65766558 137.81259031 -14.66086453 117.36490041 C-14.66303307 105.87738285 -14.6718319 94.38995267 -14.69732571 82.90246105 C-14.71898088 73.12186078 -14.72710872 63.34136911 -14.71735892 53.56074759 C-14.71279924 48.56774736 -14.7147969 43.57497147 -14.73412037 38.58200169 C-14.75164612 34.01423059 -14.7508411 29.44684923 -14.73522308 24.87907461 C-14.73283082 23.22360082 -14.73725363 21.56810078 -14.74905173 19.9126673 C-14.76406686 17.66737648 -14.75457211 15.42348524 -14.73882484 13.17823029 C-14.73980165 11.92965482 -14.74077846 10.68107936 -14.74178487 9.39466828 C-14.15208498 5.53342516 -12.96014805 3.88709025 -10.24384022 1.13422108 C-7.03038722 -0.47250542 -3.52997846 -0.00641537 0 0 Z " fill="#FDFEFD" transform="translate(282.24384021759033,15.865778923034668)"/>
<path d="M0 0 C0.99 0.495 0.99 0.495 2 1 C4.32106252 1.09828559 6.64506193 1.12867042 8.96820366 1.13061053 C10.06367767 1.1335693 10.06367767 1.1335693 11.18128247 1.13658784 C13.65857181 1.14203825 16.13580595 1.14029933 18.61310005 1.1386652 C20.40272019 1.14111032 22.19233977 1.14399349 23.98195857 1.14727798 C28.94158247 1.15509203 33.90119216 1.15662183 38.86082147 1.1572054 C44.24061584 1.1589268 49.62040256 1.1664078 55.00019252 1.17318195 C64.44274178 1.18426736 73.88528834 1.19162177 83.32784271 1.19658089 C97.36872426 1.20397165 111.40959641 1.2170512 125.45047245 1.23132664 C149.06590815 1.25517396 172.68134542 1.27436986 196.29678726 1.29092598 C219.69002638 1.30734044 243.0832624 1.3258139 266.47649765 1.34705925 C267.20249045 1.34771764 267.92848325 1.34837604 268.67647583 1.34905439 C275.30711617 1.35506874 281.93775648 1.36110854 288.56839677 1.36717889 C305.05282962 1.38227006 321.53726276 1.39704195 338.02169609 1.41159725 C339.14780323 1.41259196 339.14780323 1.41259196 340.29666001 1.41360676 C376.83269972 1.44585167 413.36874219 1.47441829 449.90478516 1.50268555 C462.58662926 1.5124993 475.26847335 1.52232929 487.95031738 1.53222656 C488.73682622 1.53284036 489.52333505 1.53345416 490.33367748 1.53408656 C526.88347498 1.56263257 563.43327012 1.59378834 599.98306489 1.62561907 C602.35534969 1.62768502 604.72763449 1.62974984 607.09991928 1.63181442 C622.8209232 1.64549814 638.54192707 1.65922688 654.26293092 1.67298577 C685.54492406 1.7003631 716.82691743 1.72747587 748.10891095 1.75440695 C749.59870515 1.75568953 751.08849934 1.7569723 752.57829354 1.75825526 C835.24270521 1.82944091 917.90712067 1.8958084 1050 2 C1050 3.32 1050 4.64 1050 6 C703.5 6 357 6 0 6 C0 4.02 0 2.04 0 0 Z " fill="#2A2B2C" transform="translate(0,451)"/>
<path d="M0 0 C346.5 0 693 0 1050 0 C1050 0.66 1050 1.32 1050 2 C1049.09051731 2.00071214 1048.18103463 2.00142429 1047.24399186 2.00215801 C960.82533829 2.06985648 874.40668446 2.13765599 750.34542847 2.2436676 C748.85337914 2.24495213 747.36132982 2.24623666 745.8692805 2.24752118 C714.55285902 2.27448634 683.23643773 2.30165687 651.92001664 2.32906473 C636.18944981 2.34283177 620.45888294 2.35655933 604.72831605 2.37024957 C602.35537453 2.37231496 599.98243302 2.37438148 597.6094915 2.37644804 C561.05643453 2.40827168 524.50337709 2.43924714 487.95031738 2.46777344 C486.77084773 2.46869393 486.77084773 2.46869393 485.5675504 2.46963302 C472.88932888 2.47952232 460.2111073 2.48934064 447.53288572 2.49914955 C411.0291545 2.52739288 374.52542403 2.5561585 338.02169609 2.58840275 C337.27150469 2.58906515 336.5213133 2.58972755 335.74838883 2.59041002 C319.28244598 2.60495843 302.81650338 2.61977698 286.35056101 2.63485154 C279.72587325 2.64091167 273.10118546 2.64693289 266.47649765 2.65294075 C265.38891238 2.65392848 265.38891238 2.65392848 264.27935569 2.65493616 C240.89278075 2.67615609 217.50620467 2.6942047 194.11962589 2.71060037 C169.92010041 2.72758082 145.72058055 2.74806463 121.52106155 2.77266841 C107.55534214 2.78675654 93.58962688 2.79802975 79.62390224 2.80536438 C70.31218846 2.81052588 61.00048262 2.81926257 51.6887748 2.83098774 C46.37198845 2.83757779 41.05521356 2.8425364 35.73842289 2.84316199 C30.91172687 2.8437603 26.08505845 2.8488622 21.25837072 2.85772062 C19.51336992 2.86010478 17.76836584 2.86077758 16.02336379 2.8596265 C13.67161021 2.85831268 11.31994711 2.86303764 8.96820366 2.86938947 C7.66077407 2.87048134 6.35334448 2.8715732 5.00629581 2.87269815 C2.07620941 2.79149009 2.07620941 2.79149009 0 4 C0 2.68 0 1.36 0 0 Z " fill="#1D1E1F" transform="translate(0,0)"/>
<path d="M0 0 C0.75865456 -0.00436032 1.51730912 -0.00872064 2.29895321 -0.0132131 C4.86184927 -0.02423242 7.42421441 -0.01371656 9.98710728 -0.00342751 C11.83475905 -0.00688144 13.68240878 -0.01164422 15.53005415 -0.01760924 C20.62351433 -0.03018532 25.71680686 -0.02391894 30.81026781 -0.01465058 C36.29706222 -0.00788732 41.78382698 -0.01832778 47.27061558 -0.02659035 C58.0259316 -0.03995933 68.78118497 -0.0370358 79.53650349 -0.02835242 C88.27496238 -0.02158836 97.01340367 -0.02065362 105.75186443 -0.02392387 C107.61456514 -0.02461342 107.61456514 -0.02461342 109.51489617 -0.0253169 C112.03728465 -0.02627604 114.55967313 -0.02724868 117.0820616 -0.02823468 C140.08255097 -0.03655362 163.08301253 -0.02791348 186.08349508 -0.01220688 C207.08976001 0.00202881 228.09597039 0.00075819 249.10223484 -0.01358986 C272.68960923 -0.02964695 296.27696037 -0.03597213 319.86434084 -0.02675307 C322.37796564 -0.02579738 324.89159045 -0.02485427 327.40521526 -0.02392387 C328.64208885 -0.02346105 329.87896244 -0.02299822 331.15331705 -0.02252137 C339.88436875 -0.01992726 348.61540114 -0.02431157 357.34644985 -0.03136253 C367.98234069 -0.03976265 378.61816509 -0.03752886 389.25404828 -0.0215203 C394.68434141 -0.01361726 400.11452362 -0.01058049 405.54481602 -0.02046776 C410.51090182 -0.02937328 415.47677335 -0.02455053 420.44283957 -0.0085351 C422.24428747 -0.00516963 424.04575329 -0.00692068 425.84718978 -0.01416247 C428.28673918 -0.02322105 430.72554447 -0.01399413 433.16505432 0 C434.22612606 -0.01053525 434.22612606 -0.01053525 435.3086336 -0.02128333 C438.35618066 0.01390897 440.39911244 0.23970693 443.08122641 1.74026144 C445.35320201 4.11832599 445.15297932 5.82088646 445.16302586 9.07063866 C445.1756345 10.23872566 445.18824314 11.40681267 445.20123386 12.61029625 C445.18908848 14.50407761 445.18908848 14.50407761 445.17669773 16.43611717 C445.18052464 17.73195229 445.18435154 19.0277874 445.18829441 20.36289024 C445.19419093 23.10599901 445.18562413 25.8485866 445.16693211 28.59163475 C445.14416358 32.10367962 445.15724921 35.61450038 445.18122196 39.12650013 C445.19917616 42.47980319 445.18659362 45.83277935 445.17669773 49.18611717 C445.18479465 50.44661385 445.19289158 51.70711052 445.20123386 53.00580406 C445.1823209 54.76266281 445.1823209 54.76266281 445.16302586 56.55501366 C445.15984348 57.58521126 445.15666111 58.61540886 445.1533823 59.67682457 C444.48810234 63.21413217 443.49605174 64.19763535 440.64544773 66.37752342 C438.0120102 66.76980619 435.79643722 66.91572354 433.16505432 66.88088799 C432.40494632 66.88670175 431.64483832 66.89251551 430.86169675 66.89850545 C428.29974793 66.91317143 425.73874731 66.89919002 423.17680454 66.88545799 C421.32757483 66.8900643 419.47834878 66.8964154 417.62913042 66.90436697 C412.53595558 66.92112035 407.44307914 66.91278671 402.34990299 66.9004221 C396.86177281 66.89139851 391.37369515 66.90532788 385.88557529 66.91634178 C375.13004787 66.93416007 364.37463188 66.9302724 353.61910003 66.91869122 C344.88112911 66.90967064 336.1431895 66.90842693 327.40521526 66.91278648 C326.16326156 66.91339942 324.92130785 66.91401235 323.64171918 66.91464385 C321.1190065 66.91592271 318.59629383 66.91721956 316.07358117 66.91853422 C293.07486368 66.92962395 270.07619565 66.91810911 247.07749028 66.89716383 C226.07105742 66.87817846 205.06472154 66.87988127 184.05828953 66.8990078 C160.46944812 66.92041373 136.88064802 66.92885319 113.29179579 66.91655874 C110.77848535 66.91528449 108.26517489 66.91402701 105.75186443 66.91278648 C104.51514512 66.91216938 103.27842581 66.91155228 102.00423015 66.91091648 C93.27219032 66.90745693 84.54018481 66.91330488 75.80815029 66.9227047 C65.17333381 66.93390078 54.53863548 66.93093502 43.90383261 66.90958172 C38.47362745 66.89903939 33.04361959 66.89500352 27.61341572 66.90817833 C22.64859497 66.92004224 17.68415556 66.9136395 12.71936972 66.89226812 C10.91729825 66.88777648 9.11519497 66.89012519 7.31314372 66.89977127 C4.87496248 66.91182769 2.43811023 66.89957184 0 66.88088799 C-1.06458349 66.89493498 -1.06458349 66.89493498 -2.15067372 66.90926576 C-5.3433209 66.85991863 -6.94277203 66.77373659 -9.29040235 64.51485682 C-10.67529304 61.73331911 -10.73554122 59.66041299 -10.74273586 56.55501366 C-10.75219234 55.38377449 -10.76164883 54.21253532 -10.77139187 53.00580406 C-10.76531918 51.74530739 -10.75924648 50.48481071 -10.75298977 49.18611717 C-10.75585995 47.88932533 -10.75873013 46.59253349 -10.76168728 45.25644493 C-10.76610429 42.51520095 -10.75969908 39.77425077 -10.74566555 37.033041 C-10.72855654 33.51999112 -10.73842877 30.00762797 -10.75638294 26.49460316 C-10.76982891 23.14171938 -10.7604162 19.78902047 -10.75298977 16.43611717 C-10.75906246 15.17359627 -10.76513515 13.91107536 -10.77139187 12.61029625 C-10.76193539 11.44220924 -10.7524789 10.27412224 -10.74273586 9.07063866 C-10.74034908 8.04123665 -10.7379623 7.01183464 -10.7355032 5.95123863 C-10.35455227 3.37752342 -10.35455227 3.37752342 -9.29040235 1.74026144 C-6.3727366 -0.31362386 -3.43960098 -0.03403871 0 0 Z M-8.35455227 4.37752342 C-8.66145012 6.91175021 -8.66145012 6.91175021 -8.61334133 9.89705467 C-8.61964565 11.05165184 -8.62594997 12.20624901 -8.63244534 13.39583397 C-8.62839687 14.64791649 -8.62434841 15.89999901 -8.62017727 17.19002342 C-8.62209072 18.46982079 -8.62400417 19.74961815 -8.62597561 21.06819725 C-8.62892608 23.77845135 -8.62463182 26.48857369 -8.61529446 29.19881248 C-8.60389979 32.67601573 -8.6104597 36.15291025 -8.62243938 39.63010216 C-8.63139652 42.94176747 -8.62512862 46.25334933 -8.62017727 49.56502342 C-8.62422573 50.81710594 -8.62827419 52.06918846 -8.63244534 53.35921288 C-8.62614101 54.51381004 -8.61983669 55.66840721 -8.61334133 56.85799217 C-8.61175014 57.87788231 -8.61015896 58.89777245 -8.60851955 59.94856834 C-8.59334585 62.5585565 -8.59334585 62.5585565 -6.35455227 64.37752342 C-3.9100072 64.57443527 -1.57878384 64.64530487 0.86692142 64.6292057 C1.62333296 64.63211259 2.37974449 64.63501947 3.15907758 64.63801444 C5.72024626 64.64537395 8.2811798 64.63834361 10.84234715 64.63149071 C12.68643489 64.63379279 14.53052172 64.63696761 16.37460661 64.6409452 C21.46275488 64.64933652 26.55082866 64.64514836 31.63897729 64.63897276 C37.11824611 64.63446691 42.59750169 64.64142271 48.07676792 64.6469326 C58.81883857 64.6558483 69.56088136 64.65389493 80.30295312 64.64810732 C89.02953183 64.64359937 97.75610269 64.64297416 106.48268223 64.64515495 C108.3422893 64.64561465 108.3422893 64.64561465 110.23946419 64.64608364 C112.75758867 64.64672306 115.27571314 64.64737148 117.79383761 64.64802882 C140.75849444 64.65357557 163.7231389 64.64781327 186.6877927 64.63734363 C207.66701269 64.6278519 228.64620841 64.62870113 249.6254282 64.63826561 C273.17724816 64.64896696 296.72905778 64.65318911 320.28088045 64.64704108 C322.78999138 64.64640395 325.2991023 64.64577521 327.80821323 64.64515495 C329.04289912 64.6448464 330.27758501 64.64453785 331.54968563 64.64421995 C340.2706406 64.64248961 348.99158698 64.64541538 357.71254063 64.65011406 C368.3334941 64.65571037 378.95441799 64.65423289 389.57536805 64.64355257 C394.99930998 64.63827894 400.42320251 64.63626772 405.84714413 64.64285088 C410.80510348 64.64877766 415.76296729 64.64558979 420.72091788 64.63489577 C422.52168835 64.63264776 424.32246676 64.63382905 426.12323219 64.63864735 C428.55693021 64.64466342 430.99029397 64.63855831 433.42397404 64.6292057 C434.13529073 64.63388804 434.84660742 64.63857037 435.57947916 64.64339459 C439.55689208 64.71660782 439.55689208 64.71660782 442.64544773 62.37752342 C442.95234558 59.84329664 442.95234558 59.84329664 442.90423679 56.85799217 C442.91369328 55.12609642 442.91369328 55.12609642 442.9233408 53.35921288 C442.91929234 52.10713036 442.91524387 50.85504784 442.91107273 49.56502342 C442.91298618 48.28522606 442.91489964 47.0054287 442.91687107 45.68684959 C442.91982155 42.97659549 442.91552728 40.26647316 442.90618992 37.55623436 C442.89479526 34.07903112 442.90135516 30.6021366 442.91333485 27.12494469 C442.92229198 23.81327938 442.91602409 20.50169751 442.91107273 17.19002342 C442.91714542 15.31189964 442.91714542 15.31189964 442.9233408 13.39583397 C442.91703648 12.2412368 442.91073215 11.08663963 442.90423679 9.89705467 C442.90264561 8.87716454 442.90105442 7.8572744 442.89941502 6.8064785 C442.88424132 4.19649034 442.88424132 4.19649034 440.64544773 2.37752342 C438.20090266 2.18061158 435.86967931 2.10974198 433.42397404 2.12584114 C432.28935674 2.12148082 432.28935674 2.12148082 431.13181788 2.11703241 C428.5706492 2.10967289 426.00971566 2.11670323 423.44854832 2.12355614 C421.60446057 2.12125405 419.76037374 2.11807923 417.91628885 2.11410165 C412.82814058 2.10571032 407.7400668 2.10989849 402.65191817 2.11607409 C397.17264935 2.12057993 391.69339377 2.11362414 386.21412754 2.10811424 C375.47205689 2.09919855 364.73001411 2.10115191 353.98794234 2.10693952 C345.26136363 2.11144748 336.53479277 2.11207269 327.80821323 2.10989189 C325.94860616 2.10943219 325.94860616 2.10943219 324.05143127 2.10896321 C321.5333068 2.10832379 319.01518232 2.10767536 316.49705786 2.10701802 C293.53240102 2.10147128 270.56775657 2.10723357 247.60310277 2.11770322 C226.62388277 2.12719495 205.64468705 2.12634571 184.66546726 2.11678123 C161.1136473 2.10607988 137.56183768 2.10185774 114.01001501 2.10800576 C111.50090409 2.10864289 108.99179316 2.10927163 106.48268223 2.10989189 C104.63065339 2.11035472 104.63065339 2.11035472 102.74120983 2.11082689 C94.02025486 2.11255723 85.29930848 2.10963146 76.57835484 2.10493279 C65.95740137 2.09933648 55.33647748 2.10081395 44.71552742 2.11149427 C39.29158548 2.1167679 33.86769295 2.11877913 28.44375134 2.11219597 C23.48579198 2.10626918 18.52792817 2.10945706 13.56997758 2.12015107 C11.76920712 2.12239908 9.9684287 2.1212178 8.16766328 2.1163995 C5.73396525 2.11038342 3.3006015 2.11648853 0.86692142 2.12584114 C0.15560474 2.12115881 -0.55571195 2.11647648 -1.2885837 2.11165226 C-5.26599662 2.03843902 -5.26599662 2.03843902 -8.35455227 4.37752342 Z " fill="#4D59FB" transform="translate(313.35455226898193,132.6224765777588)"/>
<path d="M0 0 C2.39652528 -0.08139142 4.79025436 -0.14067009 7.1875 -0.1875 C7.86103516 -0.21263672 8.53457031 -0.23777344 9.22851562 -0.26367188 C13.72194081 -0.32942932 16.46230907 0.20377893 20 3 C22.73004414 5.88570456 23.45074685 7.92243474 23.5 11.875 C23.39804712 15.50774201 22.97398424 17.70957556 20.6875 20.5625 C16.44689565 24.40862952 12.74906459 24.12849005 7.3125 24.0625 C6.61060547 24.05798828 5.90871094 24.05347656 5.18554688 24.04882812 C3.45699462 24.03706927 1.72848635 24.01913454 0 24 C0.99 23.67 1.98 23.34 3 23 C3 15.74 3 8.48 3 1 C2.01 0.67 1.02 0.34 0 0 Z " fill="#180D0D" transform="translate(499,54)"/>
<path d="M0 0 C3.3 0 6.6 0 10 0 C10.103125 1.19625 10.20625 2.3925 10.3125 3.625 C10.78891352 7.5624176 12.01130716 10.54140375 14 14 C16.22532845 9.68024478 16.06433568 6.70081591 15 2 C14.34 1.34 13.68 0.68 13 0 C16.63 0 20.26 0 24 0 C23.01 0.495 23.01 0.495 22 1 C23.32 4.96 24.64 8.92 26 13 C27.32 10.36 28.64 7.72 30 5 C31.21038612 9.84154446 29.95063588 12.37877952 28.0625 16.75 C27.77181641 17.44738281 27.48113281 18.14476563 27.18164062 18.86328125 C26.46448297 20.57975695 25.73356598 22.29047232 25 24 C24.34 24 23.68 24 23 24 C22.32968281 22.0429132 21.66385317 20.08428887 21 18.125 C20.62875 17.03445312 20.2575 15.94390625 19.875 14.8203125 C19 12 19 12 19 10 C18.34 10 17.68 10 17 10 C16.87625 10.9590625 16.87625 10.9590625 16.75 11.9375 C15.70479628 16.20541517 13.85908174 20.03107667 12 24 C9.30814992 22.65407496 9.15246858 21.36989398 8.0546875 18.59765625 C7.70019531 17.70755859 7.34570312 16.81746094 6.98046875 15.90039062 C6.61566406 14.96388672 6.25085938 14.02738281 5.875 13.0625 C5.31619141 11.66354492 5.31619141 11.66354492 4.74609375 10.23632812 C2 3.28056319 2 3.28056319 2 1 C1.34 0.67 0.68 0.34 0 0 Z " fill="#18121C" transform="translate(404,54)"/>
<path d="M0 0 C2.31 0 4.62 0 7 0 C7 7.26 7 14.52 7 22 C7.66 22.33 8.32 22.66 9 23 C3.59981872 23.80002686 -0.648516 24.22638175 -6 23 C-8.4567061 19.31494085 -8.68887481 16.27963474 -8 12 C-6.375 9.5 -6.375 9.5 -4 8 C-0.75 7.75 -0.75 7.75 2 8 C2 5.69 2 3.38 2 1 C1.34 0.67 0.68 0.34 0 0 Z " fill="#150805" transform="translate(480,54)"/>
<path d="M0 0 C1.90625 0.4140625 1.90625 0.4140625 4.40625 1.9765625 C6.43326444 5.27046097 6.25798852 7.61528651 5.90625 11.4140625 C5.57625 12.0740625 5.24625 12.7340625 4.90625 13.4140625 C5.545625 13.6615625 6.185 13.9090625 6.84375 14.1640625 C8.90625 15.4140625 8.90625 15.4140625 9.65625 17.5390625 C9.78 18.4671875 9.78 18.4671875 9.90625 19.4140625 C7.03900314 18.84061313 6.0447985 18.552611 3.90625 16.4140625 C2.648125 16.4553125 1.39 16.4965625 0.09375 16.5390625 C-3.08741702 16.60268584 -4.09335531 16.41427244 -7.03125 14.8515625 C-9.76177141 11.62458265 -10.16758065 9.62240981 -10.09375 5.4140625 C-7.71263448 0.54830469 -5.12993754 -0.3636896 0 0 Z " fill="#5C66FB" transform="translate(335.09375,155.5859375)"/>
<path d="M0 0 C0.99 0 1.98 0 3 0 C3 22.44 3 44.88 3 68 C2.01 68 1.02 68 0 68 C0 45.56 0 23.12 0 0 Z " fill="#4D59FB" transform="translate(303,316)"/>
<path d="M0 0 C4.99268902 1.47931526 4.99268902 1.47931526 6.375 4 C7.13412409 10.83211679 7.13412409 10.83211679 4.75 14.5 C1.61186002 16.48198314 0.02626535 16.67064058 -3.625 16 C-6.94774404 13.54405875 -8.40118008 12.0743356 -9.25 8 C-8.11814245 2.56708374 -5.59993233 0 0 0 Z " fill="#1E1214" transform="translate(628.625,62)"/>
<path d="M0 0 C2.375 1.5 2.375 1.5 4 4 C4.81753559 8.07099353 4.65416433 10.99359333 2.375 14.5 C-0.72140596 16.45562482 -2.39853135 16.60024477 -6 16 C-8.375 14.5 -8.375 14.5 -10 12 C-10.81753559 7.92900647 -10.65416433 5.00640667 -8.375 1.5 C-5.27859404 -0.45562482 -3.60146865 -0.60024477 0 0 Z " fill="#191D27" transform="translate(449,62)"/>
<path d="M0 0 C2.12472576 -0.05386629 4.24983652 -0.09273071 6.375 -0.125 C7.55835938 -0.14820313 8.74171875 -0.17140625 9.9609375 -0.1953125 C13 0 13 0 15 2 C15.1953125 5.0390625 15.1953125 5.0390625 15.125 8.625 C15.10695313 9.81351563 15.08890625 11.00203125 15.0703125 12.2265625 C15.04710937 13.14179687 15.02390625 14.05703125 15 15 C15.66 15.33 16.32 15.66 17 16 C14.36 16 11.72 16 9 16 C9.33 11.38 9.66 6.76 10 2 C9.01 2.495 9.01 2.495 8 3 C8 7.29 8 11.58 8 16 C5.36 16 2.72 16 0 16 C0.33 15.34 0.66 14.68 1 14 C1.09649939 12.0018949 1.12980872 10.0004282 1.125 8 C1.12757813 6.9275 1.13015625 5.855 1.1328125 4.75 C1.1872341 2.03817948 1.1872341 2.03817948 0 0 Z " fill="#160C11" transform="translate(638,62)"/>
<path d="M0 0 C2.12472576 -0.05386629 4.24983652 -0.09273071 6.375 -0.125 C7.55835938 -0.14820313 8.74171875 -0.17140625 9.9609375 -0.1953125 C13 0 13 0 15 2 C15.1953125 5.0390625 15.1953125 5.0390625 15.125 8.625 C15.10695313 9.81351563 15.08890625 11.00203125 15.0703125 12.2265625 C15.04710937 13.14179687 15.02390625 14.05703125 15 15 C15.66 15.33 16.32 15.66 17 16 C14.36 16 11.72 16 9 16 C9.33 11.38 9.66 6.76 10 2 C9.01 2.495 9.01 2.495 8 3 C8 7.29 8 11.58 8 16 C5.36 16 2.72 16 0 16 C0.33 15.34 0.66 14.68 1 14 C1.09649939 12.0018949 1.12980872 10.0004282 1.125 8 C1.12757813 6.9275 1.13015625 5.855 1.1328125 4.75 C1.1872341 2.03817948 1.1872341 2.03817948 0 0 Z " fill="#160C11" transform="translate(562,62)"/>
<path d="M0 0 C0.99386719 0.02707031 1.98773437 0.05414063 3.01171875 0.08203125 C4.15060547 0.13423828 4.15060547 0.13423828 5.3125 0.1875 C5.6425 1.5075 5.9725 2.8275 6.3125 4.1875 C2.93432575 5.03204356 0.63784757 5.29594919 -2.6875 4.1875 C-3.0175 5.5075 -3.3475 6.8275 -3.6875 8.1875 C-3.0275 8.1875 -2.3675 8.1875 -1.6875 8.1875 C-1.6875 8.8475 -1.6875 9.5075 -1.6875 10.1875 C-2.3475 10.1875 -3.0075 10.1875 -3.6875 10.1875 C-3.6875 14.4775 -3.6875 18.7675 -3.6875 23.1875 C-3.0275 23.5175 -2.3675 23.8475 -1.6875 24.1875 C-4.6575 24.1875 -7.6275 24.1875 -10.6875 24.1875 C-10.0275 23.8575 -9.3675 23.5275 -8.6875 23.1875 C-8.6875 18.8975 -8.6875 14.6075 -8.6875 10.1875 C-9.3475 10.1875 -10.0075 10.1875 -10.6875 10.1875 C-10.6875 9.5275 -10.6875 8.8675 -10.6875 8.1875 C-10.0275 8.1875 -9.3675 8.1875 -8.6875 8.1875 C-8.7803125 7.0428125 -8.7803125 7.0428125 -8.875 5.875 C-8.6875 3.1875 -8.6875 3.1875 -7.53125 1.53125 C-4.96007941 -0.34265399 -3.1429375 -0.11092721 0 0 Z " fill="#040A15" transform="translate(551.6875,53.8125)"/>
<path d="M0 0 C2.97 0.495 2.97 0.495 6 1 C8.37310654 4.55965981 8.26915041 6.21962224 8.25 10.4375 C8.25515625 11.57058594 8.2603125 12.70367187 8.265625 13.87109375 C7.85147849 18.74949597 7.85147849 18.74949597 6 21 C4.02 21.33 2.04 21.66 0 22 C0 14.74 0 7.48 0 0 Z " fill="#F2F9F4" transform="translate(508,55)"/>
<path d="M0 0 C1 1 1 1 1.25 4.875 C1.21168933 7.54716922 1.18575122 8.70279804 -0.25 11 C-2 12 -2 12 -6 12 C-6.33 13.65 -6.66 15.3 -7 17 C-6.34 17.33 -5.68 17.66 -5 18 C-7.31 18 -9.62 18 -12 18 C-11.34 17.67 -10.68 17.34 -10 17 C-10.33 11.39 -10.66 5.78 -11 0 C-7.37615673 -1.81192163 -3.77763575 -0.91888437 0 0 Z " fill="#F2F9F2" transform="translate(340,235)"/>
<path d="M0 0 C0.99 0.66 1.98 1.32 3 2 C3.51171875 5.0390625 3.51171875 5.0390625 3.6875 8.625 C3.78611328 10.40777344 3.78611328 10.40777344 3.88671875 12.2265625 C3.92410156 13.14179687 3.96148438 14.05703125 4 15 C2.34385343 15.38218767 0.67542976 15.71395102 -1 16 C-2.58272601 14.41727399 -2.34735747 12.61965997 -2.5625 10.4375 C-2.64628906 9.61121094 -2.73007812 8.78492187 -2.81640625 7.93359375 C-2.87699219 7.29550781 -2.93757812 6.65742187 -3 6 C-4.94566951 9.47547073 -5.07637127 11.12506344 -4 15 C-5.65614657 15.38218767 -7.32457024 15.71395102 -9 16 C-10 15 -10 15 -10.0625 12.4375 C-10.041875 11.633125 -10.02125 10.82875 -10 10 C-9.01 9.67 -8.02 9.34 -7 9 C-7 8.01 -7 7.02 -7 6 C-7.99 5.67 -8.98 5.34 -10 5 C-7.66670505 -0.16658167 -5.58295061 -0.3418133 0 0 Z " fill="#150915" transform="translate(592,62)"/>
<path d="M0 0 C2 2 2 2 2.375 4.875 C2 8 2 8 0.25 10.375 C-2 12 -2 12 -6 12 C-5.67 13.98 -5.34 15.96 -5 18 C-6.98 18 -8.96 18 -11 18 C-10.34 17.67 -9.68 17.34 -9 17 C-9 11.72 -9 6.44 -9 1 C-9.66 0.67 -10.32 0.34 -11 0 C-7.40315242 -1.79842379 -3.74443974 -0.98537888 0 0 Z " fill="#2A1C23" transform="translate(326,235)"/>
<path d="M0 0 C3.3 0 6.6 0 10 0 C10.103125 1.19625 10.20625 2.3925 10.3125 3.625 C10.7953792 7.5790108 12.04954716 10.50543866 14 14 C15.39195915 18.17587745 13.82323219 20.13474776 12 24 C9.30814992 22.65407496 9.15246858 21.36989398 8.0546875 18.59765625 C7.70019531 17.70755859 7.34570312 16.81746094 6.98046875 15.90039062 C6.61566406 14.96388672 6.25085938 14.02738281 5.875 13.0625 C5.31619141 11.66354492 5.31619141 11.66354492 4.74609375 10.23632812 C2 3.28056319 2 3.28056319 2 1 C1.34 0.67 0.68 0.34 0 0 Z " fill="#120D12" transform="translate(404,54)"/>
<path d="M0 0 C2.00240549 0.31856451 4.00211562 0.65421232 6 1 C7.0725 0.814375 8.145 0.62875 9.25 0.4375 C10.1575 0.293125 11.065 0.14875 12 0 C14 2 14 2 14.125 4.625 C14.08375 5.40875 14.0425 6.1925 14 7 C15.32 7.33 16.64 7.66 18 8 C17.67 8.66 17.34 9.32 17 10 C16.01 9.67 15.02 9.34 14 9 C12.824375 9 11.64875 9 10.4375 9 C7 9 7 9 5 8 C4.175 8.185625 3.35 8.37125 2.5 8.5625 C1.675 8.706875 0.85 8.85125 0 9 C-2 7 -2 7 -2.25 4.5 C-2 2 -2 2 0 0 Z " fill="#D2CFCD" transform="translate(380,373)"/>
<path d="M0 0 C1.81242052 -0.02687279 3.62495233 -0.04633715 5.4375 -0.0625 C6.44683594 -0.07410156 7.45617187 -0.08570313 8.49609375 -0.09765625 C11 0 11 0 12 1 C12.04092937 3.33297433 12.04241723 5.66705225 12 8 C12.66 8 13.32 8 14 8 C14 5.36 14 2.72 14 0 C14.99 0.33 15.98 0.66 17 1 C17 3.64 17 6.28 17 9 C10.73 9 4.46 9 -2 9 C-1.34 8.67 -0.68 8.34 0 8 C0 5.36 0 2.72 0 0 Z " fill="#B8B7B8" transform="translate(355,350)"/>
<path d="M0 0 C2.79780523 0.58901163 3.77358635 1.14002199 5.375 3.5 C5.375 4.82 5.375 6.14 5.375 7.5 C2.735 7.5 0.095 7.5 -2.625 7.5 C-2.295 9.48 -1.965 11.46 -1.625 13.5 C0.025 13.83 1.675 14.16 3.375 14.5 C3.045 15.16 2.715 15.82 2.375 16.5 C-0.375 16.8125 -0.375 16.8125 -3.625 16.5 C-6.48312053 13.94273427 -7.48067742 12.26972041 -8.1875 8.5 C-7.30091418 3.77154231 -4.79780103 0.91386686 0 0 Z " fill="#171115" transform="translate(532.625,61.5)"/>
<path d="M0 0 C2.31 0 4.62 0 7 0 C7 7.26 7 14.52 7 22 C7.66 22.33 8.32 22.66 9 23 C6.69 23.33 4.38 23.66 2 24 C1.01852541 21.05557623 0.95631967 19.63545419 1.19140625 16.62109375 C1.24876953 15.78255859 1.30613281 14.94402344 1.36523438 14.08007812 C1.49705669 12.31418113 1.6324909 10.54855015 1.77148438 8.78320312 C1.82755859 7.94595703 1.88363281 7.10871094 1.94140625 6.24609375 C2.00013916 5.47966553 2.05887207 4.7132373 2.11938477 3.92358398 C2.1979318 1.7566335 2.1979318 1.7566335 0 0 Z " fill="#0E0408" transform="translate(480,54)"/>
<path d="M0 0 C0.33 0 0.66 0 1 0 C1 1.98 1 3.96 1 6 C2.32 6 3.64 6 5 6 C5 6.66 5 7.32 5 8 C3.68 8 2.36 8 1 8 C1 11.96 1 15.92 1 20 C1.66 20.33 2.32 20.66 3 21 C0.625 21.625 0.625 21.625 -2 22 C-4 20 -4 20 -4.1953125 17.1796875 C-4.17210937 16.08914062 -4.14890625 14.99859375 -4.125 13.875 C-4.10695313 12.77929688 -4.08890625 11.68359375 -4.0703125 10.5546875 C-4.04710937 9.71164063 -4.02390625 8.86859375 -4 8 C-4.66 7.67 -5.32 7.34 -6 7 C-5.02433888 5.83040013 -4.044375 4.66438823 -3.0625 3.5 C-2.51722656 2.8503125 -1.97195313 2.200625 -1.41015625 1.53125 C-0.71212891 0.77328125 -0.71212891 0.77328125 0 0 Z " fill="#1D0C0A" transform="translate(604,56)"/>
<path d="M0 0 C2.31 0 4.62 0 7 0 C9 2 9 2 9.25 5.5 C9 9 9 9 7 11 C5.68 11 4.36 11 3 11 C2.67 12.32 2.34 13.64 2 15 C1.34 15 0.68 15 0 15 C0 10.05 0 5.1 0 0 Z " fill="#48312D" transform="translate(370,161)"/>
<path d="M0 0 C1.671549 0.30791692 3.33805547 0.64386903 5 1 C5.99 1 6.98 1 8 1 C9.5625 2.4375 9.5625 2.4375 11 4 C11.66 4.33 12.32 4.66 13 5 C12.67 6.32 12.34 7.64 12 9 C7.46527914 9 3.43908976 8.93454521 -1 8 C-1.04241723 5.66705225 -1.04092937 3.33297433 -1 1 C-0.67 0.67 -0.34 0.34 0 0 Z " fill="#D4D3D3" transform="translate(629,373)"/>
<path d="M0 0 C0.66 0 1.32 0 2 0 C2 4.62 2 9.24 2 14 C0.68 13.34 -0.64 12.68 -2 12 C-3.99220557 11.31039038 -5.99105606 10.63920943 -8 10 C-8 8.02 -8 6.04 -8 4 C-6.865625 3.525625 -5.73125 3.05125 -4.5625 2.5625 C-1.24259834 1.36377917 -1.24259834 1.36377917 0 0 Z " fill="#A09EA0" transform="translate(743,242)"/>
<path d="M0 0 C1.32 0.33 2.64 0.66 4 1 C4.66 0.67 5.32 0.34 6 0 C6.598125 0.165 7.19625 0.33 7.8125 0.5 C10.47489706 1.1085479 12.35942386 0.57093538 15 0 C16 1 16 1 16.09765625 2.84765625 C16.06510417 4.8984375 16.03255208 6.94921875 16 9 C15.34 9 14.68 9 14 9 C13.67 7.68 13.34 6.36 13 5 C13 5.99 13 6.98 13 8 C12.01 8.33 11.02 8.66 10 9 C9.34 8.01 8.68 7.02 8 6 C6.68 6.99 5.36 7.98 4 9 C2.68 6.03 1.36 3.06 0 0 Z " fill="#D3D3D2" transform="translate(437,373)"/>
<path d="M0 0 C6 0 6 0 7.9375 1.125 C9 3 9 3 8.8125 6.0625 C8 9 8 9 6 11 C4.68 11 3.36 11 2 11 C1.34 12.32 0.68 13.64 0 15 C0 10.05 0 5.1 0 0 Z " fill="#151625" transform="translate(382,161)"/>
<path d="M0 0 C0.99 0 1.98 0 3 0 C3.83739781 2.1234016 4.66980283 4.2487728 5.5 6.375 C5.9640625 7.55835938 6.428125 8.74171875 6.90625 9.9609375 C8 13 8 13 8 15 C7.34 15 6.68 15 6 15 C5.67 13.68 5.34 12.36 5 11 C2.69 11 0.38 11 -2 11 C-2.33 12.32 -2.66 13.64 -3 15 C-3.66 15 -4.32 15 -5 15 C-4.54705135 13.24859857 -4.08741252 11.49892656 -3.625 9.75 C-3.36976563 8.77546875 -3.11453125 7.8009375 -2.8515625 6.796875 C-2.10401491 4.34162697 -1.22876183 2.24382595 0 0 Z " fill="#4D322D" transform="translate(361,157)"/>
<path d="M0 0 C2.5 0.25 2.5 0.25 4.5 2.25 C4.75 5.75 4.75 5.75 4.5 9.25 C2.5 11.25 2.5 11.25 0 11.5 C-2.5 11.25 -2.5 11.25 -4.5 9.25 C-4.75 5.75 -4.75 5.75 -4.5 2.25 C-2.5 0.25 -2.5 0.25 0 0 Z " fill="#AAA6A9" transform="translate(714.5,161.75)"/>
<path d="M0 0 C2.49505962 2.49505962 2.35948376 3.67328888 2.625 7.125 C2.69976562 8.03507813 2.77453125 8.94515625 2.8515625 9.8828125 C2.90054687 10.58148438 2.94953125 11.28015625 3 12 C-0.69541586 12.95024979 -3.30458414 12.95024979 -7 12 C-6.75 9.625 -6.75 9.625 -6 7 C-4.68352881 6.30062468 -3.34977849 5.63270867 -2 5 C-1.19471111 2.94999129 -1.19471111 2.94999129 -1 1 C-1.99 1 -2.98 1 -4 1 C-4.33 1.99 -4.66 2.98 -5 4 C-5.66 4 -6.32 4 -7 4 C-7 3.01 -7 2.02 -7 1 C-4.48718205 -0.25640898 -2.78302919 -0.20872719 0 0 Z " fill="#0B223F" transform="translate(311,234)"/>
<path d="M0 0 C2.31 0 4.62 0 7 0 C7 4.95 7 9.9 7 15 C7.66 15.33 8.32 15.66 9 16 C6.03 16 3.06 16 0 16 C0.66 15.67 1.32 15.34 2 15 C2 10.38 2 5.76 2 1 C1.34 0.67 0.68 0.34 0 0 Z " fill="#10010F" transform="translate(610,62)"/>
<path d="M0 0 C2.31 0 4.62 0 7 0 C7 4.95 7 9.9 7 15 C7.66 15.33 8.32 15.66 9 16 C6.03 16 3.06 16 0 16 C0.66 15.67 1.32 15.34 2 15 C2 10.38 2 5.76 2 1 C1.34 0.67 0.68 0.34 0 0 Z " fill="#0A0714" transform="translate(456,62)"/>
<path d="M0 0 C1.98 0 3.96 0 6 0 C7.4807848 2.9615696 7.35314037 5.83506295 7.5625 9.125 C7.64628906 10.40632813 7.73007812 11.68765625 7.81640625 13.0078125 C7.90728516 14.48894531 7.90728516 14.48894531 8 16 C5.36 16 2.72 16 0 16 C0.33 15.34 0.66 14.68 1 14 C1.09649939 12.0018949 1.12980872 10.0004282 1.125 8 C1.12757813 6.9275 1.13015625 5.855 1.1328125 4.75 C1.1872341 2.03817948 1.1872341 2.03817948 0 0 Z " fill="#09131E" transform="translate(638,62)"/>
<path d="M0 0 C1.98 0 3.96 0 6 0 C7.4807848 2.9615696 7.35314037 5.83506295 7.5625 9.125 C7.64628906 10.40632813 7.73007812 11.68765625 7.81640625 13.0078125 C7.90728516 14.48894531 7.90728516 14.48894531 8 16 C5.36 16 2.72 16 0 16 C0.33 15.34 0.66 14.68 1 14 C1.09649939 12.0018949 1.12980872 10.0004282 1.125 8 C1.12757813 6.9275 1.13015625 5.855 1.1328125 4.75 C1.1872341 2.03817948 1.1872341 2.03817948 0 0 Z " fill="#09131E" transform="translate(562,62)"/>
<path d="M0 0 C1.98 0 3.96 0 6 0 C6.06058594 0.98742188 6.12117187 1.97484375 6.18359375 2.9921875 C6.26738281 4.27351563 6.35117187 5.55484375 6.4375 6.875 C6.51871094 8.15117188 6.59992187 9.42734375 6.68359375 10.7421875 C6.79206027 13.88300152 6.79206027 13.88300152 8 16 C5.36 16 2.72 16 0 16 C0 10.72 0 5.44 0 0 Z " fill="#221507" transform="translate(552,62)"/>
<path d="M0 0 C0.66 0 1.32 0 2 0 C2 2.64 2 5.28 2 8 C2.99 8 3.98 8 5 8 C5 5.36 5 2.72 5 0 C6.99954746 -0.04254356 9.00041636 -0.04080783 11 0 C13.04698414 2.04698414 12.70045693 6.30411241 13 9 C8.38 9 3.76 9 -1 9 C-0.67 6.03 -0.34 3.06 0 0 Z " fill="#949AAB" transform="translate(484,373)"/>
<path d="M0 0 C1.671549 0.30791692 3.33805547 0.64386903 5 1 C7.23167185 0.63143136 7.23167185 0.63143136 9 0 C9 2.64 9 5.28 9 8 C9.66 8.33 10.32 8.66 11 9 C10.38125 8.835 9.7625 8.67 9.125 8.5 C6.51052783 7.88483008 5.12542799 7.968643 2.5 8.625 C1.675 8.74875 0.85 8.8725 0 9 C-2 7 -2 7 -2.25 4.5 C-2 2 -2 2 0 0 Z " fill="#C2BFC1" transform="translate(406,373)"/>
<path d="M0 0 C0.33 0.66 0.66 1.32 1 2 C3.97 2 6.94 2 10 2 C10 2.66 10 3.32 10 4 C9.01 4 8.02 4 7 4 C7.33 6.31 7.66 8.62 8 11 C1.84765625 11.09765625 1.84765625 11.09765625 0 11 C-1.87666329 9.12333671 -1.63286005 6.42523027 -2.01171875 3.91015625 C-2 2 -2 2 0 0 Z " fill="#EBF0E5" transform="translate(623,348)"/>
<path d="M0 0 C1.99954746 -0.04254356 4.00041636 -0.04080783 6 0 C7 1 7 1 7.0625 4.5625 C7.041875 5.696875 7.02125 6.83125 7 8 C8.32 8 9.64 8 11 8 C10.34 5.36 9.68 2.72 9 0 C9.99 0 10.98 0 12 0 C12 2.64 12 5.28 12 8 C12.66 8.33 13.32 8.66 14 9 C9.05 9 4.1 9 -1 9 C-0.67 6.03 -0.34 3.06 0 0 Z " fill="#B1ADAB" transform="translate(516,373)"/>
<path d="M0 0 C1.99954746 -0.04254356 4.00041636 -0.04080783 6 0 C7 1 7 1 7.0625 4.5625 C7.041875 5.696875 7.02125 6.83125 7 8 C8.32 8 9.64 8 11 8 C10.34 5.36 9.68 2.72 9 0 C9.99 0 10.98 0 12 0 C12 2.64 12 5.28 12 8 C12.66 8.33 13.32 8.66 14 9 C9.05 9 4.1 9 -1 9 C-0.67 6.03 -0.34 3.06 0 0 Z " fill="#B1ADAB" transform="translate(338,373)"/>
<path d="M0 0 C2.33294775 -0.04241723 4.66702567 -0.04092937 7 0 C9.16090886 2.16090886 8.72400131 7.2005847 9 10 C5.7 10 2.4 10 -1 10 C-0.67 6.7 -0.34 3.4 0 0 Z " fill="#A19D94" transform="translate(357,325)"/>
<path d="M0 0 C2 2 2 2 2.3125 4.4375 C2 7 2 7 0.8125 8.875 C-1 10 -1 10 -3.5625 9.8125 C-6 9 -6 9 -8 7 C-7.75 3.9375 -7.75 3.9375 -7 1 C-4.48718205 -0.25640898 -2.78302919 -0.20872719 0 0 Z " fill="#F4F8FE" transform="translate(336,159)"/>
<path d="M0 0 C0.33 0.66 0.66 1.32 1 2 C2.98 2 4.96 2 7 2 C7.33 4.97 7.66 7.94 8 11 C1.84765625 11.09765625 1.84765625 11.09765625 0 11 C-1.87666329 9.12333671 -1.63286005 6.42523027 -2.01171875 3.91015625 C-2 2 -2 2 0 0 Z " fill="#CECFD1" transform="translate(369,371)"/>
<path d="M0 0 C0.66 0 1.32 0 2 0 C2.33 1.32 2.66 2.64 3 4 C4.32 4.33 5.64 4.66 7 5 C7.33 7.64 7.66 10.28 8 13 C5.03 13 2.06 13 -1 13 C-0.67 8.71 -0.34 4.42 0 0 Z " fill="#9F8F90" transform="translate(600,346)"/>
<path d="M0 0 C0.66 0 1.32 0 2 0 C2.33 1.32 2.66 2.64 3 4 C4.32 4.33 5.64 4.66 7 5 C7.625 7.3125 7.625 7.3125 8 10 C7.01 11.485 7.01 11.485 6 13 C3.4375 13.25 3.4375 13.25 1 13 C0 12 0 12 -0.09765625 9.27734375 C-0.08605469 8.17519531 -0.07445312 7.07304687 -0.0625 5.9375 C-0.05347656 4.83277344 -0.04445313 3.72804688 -0.03515625 2.58984375 C-0.02355469 1.73519531 -0.01195312 0.88054687 0 0 Z " fill="#9F9396" transform="translate(571,346)"/>
<path d="M0 0 C2 2 2 2 2 5 C-0.64 5 -3.28 5 -6 5 C-5.67 6.65 -5.34 8.3 -5 10 C-1.37114676 10.15149298 -1.37114676 10.15149298 2 9 C1.67 9.99 1.34 10.98 1 12 C-4.4 13.32 -4.4 13.32 -6.875 12 C-8.61178961 8.91237402 -8.37142345 6.4666189 -8 3 C-5.94362059 -0.35514536 -3.76397853 -0.48256135 0 0 Z " fill="#231520" transform="translate(359,234)"/>
<path d="M0 0 C1.65 0 3.3 0 5 0 C4.52232146 4.09438748 4.03446577 8.00991776 3 12 C3 12.99 3 13.98 3 15 C1.35 14.67 -0.3 14.34 -2 14 C-2 12.35 -2 10.7 -2 9 C-1.01 8.67 -0.02 8.34 1 8 C1 7.01 1 6.02 1 5 C0.01 4.67 -0.98 4.34 -2 4 C-1.34 2.68 -0.68 1.36 0 0 Z " fill="#ECF2F0" transform="translate(584,63)"/>
<path d="M0 0 C0.33 0 0.66 0 1 0 C1 3.96 1 7.92 1 12 C1.66 12.33 2.32 12.66 3 13 C-0.96 13 -4.92 13 -9 13 C-9.33 11.68 -9.66 10.36 -10 9 C-9.34 8.67 -8.68 8.34 -8 8 C-8 6.68 -8 5.36 -8 4 C-6.35 4.33 -4.7 4.66 -3 5 C-2.87625 5.969375 -2.7525 6.93875 -2.625 7.9375 C-2.315625 9.4534375 -2.315625 9.4534375 -2 11 C-1.34 11.33 -0.68 11.66 0 12 C0 8.04 0 4.08 0 0 Z " fill="#9396A0" transform="translate(681,346)"/>
<path d="M0 0 C2.5 0.25 2.5 0.25 4.5 2.25 C4.5 3.57 4.5 4.89 4.5 6.25 C2.19 6.25 -0.12 6.25 -2.5 6.25 C-2.5 7.24 -2.5 8.23 -2.5 9.25 C-0.85 9.25 0.8 9.25 2.5 9.25 C2.5 8.59 2.5 7.93 2.5 7.25 C3.16 7.25 3.82 7.25 4.5 7.25 C3.84 8.57 3.18 9.89 2.5 11.25 C0.125 11.375 0.125 11.375 -2.5 11.25 C-4.5 9.25 -4.5 9.25 -4.75 5.75 C-4.46177779 1.71488904 -4.15174939 0.41517494 0 0 Z " fill="#4D4D58" transform="translate(401.5,160.75)"/>
<path d="M0 0 C1.67542976 0.28604898 3.34385343 0.61781233 5 1 C6.32854177 6.9180497 5.66464729 9.77729131 3 15 C-0.15558516 10.26662227 -1.39111365 6.73633351 -1 1 C-0.67 0.67 -0.34 0.34 0 0 Z " fill="#F3F3E9" transform="translate(415,55)"/>
<path d="M0 0 C1.98 0 3.96 0 6 0 C7 1 7 1 7.1875 3.9375 C7 7 7 7 5 9 C4.01 9 3.02 9 2 9 C2.33 10.32 2.66 11.64 3 13 C1.35 13 -0.3 13 -2 13 C-1.34 12.67 -0.68 12.34 0 12 C0 8.04 0 4.08 0 0 Z " fill="#9FA1AA" transform="translate(497,350)"/>
<path d="M0 0 C0.66 0 1.32 0 2 0 C2 4.29 2 8.58 2 13 C0.02 13 -1.96 13 -4 13 C-5 12 -5 12 -5.1875 9.0625 C-5 6 -5 6 -3 4 C-2.01 4 -1.02 4 0 4 C0 2.68 0 1.36 0 0 Z " fill="#A49C9C" transform="translate(474,369)"/>
<path d="M0 0 C0.66 0 1.32 0 2 0 C2 4.29 2 8.58 2 13 C0.02 13 -1.96 13 -4 13 C-5 12 -5 12 -5.1875 9.0625 C-5 6 -5 6 -3 4 C-2.01 4 -1.02 4 0 4 C0 2.68 0 1.36 0 0 Z " fill="#A49C9C" transform="translate(324,369)"/>
<path d="M0 0 C0.66 0 1.32 0 2 0 C2 4.29 2 8.58 2 13 C0.02 13 -1.96 13 -4 13 C-5 12 -5 12 -5.1875 9.0625 C-5 6 -5 6 -3 4 C-2.01 4 -1.02 4 0 4 C0 2.68 0 1.36 0 0 Z " fill="#A49C9C" transform="translate(562,346)"/>
<path d="M0 0 C0.33 0.66 0.66 1.32 1 2 C2.98 2 4.96 2 7 2 C7.33 4.97 7.66 7.94 8 11 C5.36 11 2.72 11 0 11 C-0.19491452 9.54263913 -0.38069358 8.08405407 -0.5625 6.625 C-0.66691406 5.81289063 -0.77132813 5.00078125 -0.87890625 4.1640625 C-1 2 -1 2 0 0 Z " fill="#BFBABD" transform="translate(428,371)"/>
<path d="M0 0 C0 6.27 0 12.54 0 19 C0.66 19.33 1.32 19.66 2 20 C-0.31 20 -2.62 20 -5 20 C-4.34 19.67 -3.68 19.34 -3 19 C-3 13.39 -3 7.78 -3 2 C-3.66 1.67 -4.32 1.34 -5 1 C-2 0 -2 0 0 0 Z " fill="#363743" transform="translate(348,227)"/>
<path d="M0 0 C1.98 0.495 1.98 0.495 4 1 C4 4.96 4 8.92 4 13 C2.68 13.33 1.36 13.66 0 14 C-1.31164842 11.37670316 -1.13262846 9.36301375 -1.125 6.4375 C-1.12757813 5.44621094 -1.13015625 4.45492187 -1.1328125 3.43359375 C-1 1 -1 1 0 0 Z " fill="#DEEDF2" transform="translate(626,63)"/>
<path d="M0 0 C0.33 0 0.66 0 1 0 C1 2.64 1 5.28 1 8 C2.32 8 3.64 8 5 8 C5 6.02 5 4.04 5 2 C5.33 2 5.66 2 6 2 C6 3.98 6 5.96 6 8 C7.32 8 8.64 8 10 8 C10 5.69 10 3.38 10 1 C10.66 1 11.32 1 12 1 C12 3.31 12 5.62 12 8 C12.66 8 13.32 8 14 8 C14 5.36 14 2.72 14 0 C14.99 0.33 15.98 0.66 17 1 C17 3.64 17 6.28 17 9 C10.73 9 4.46 9 -2 9 C-1.34 8.67 -0.68 8.34 0 8 C0 5.36 0 2.72 0 0 Z " fill="#8E909B" transform="translate(355,350)"/>
<path d="M0 0 C2.64 0 5.28 0 8 0 C8.33 2.97 8.66 5.94 9 9 C6.36 9 3.72 9 1 9 C-0.4783226 6.04335481 -0.06032783 3.25770263 0 0 Z " fill="#CBCBCA" transform="translate(476,350)"/>
<path d="M0 0 C1.99954746 -0.04254356 4.00041636 -0.04080783 6 0 C8.04698414 2.04698414 7.70045693 6.30411241 8 9 C5.03 9 2.06 9 -1 9 C-0.67 6.03 -0.34 3.06 0 0 Z " fill="#949BAB" transform="translate(437,350)"/>
<path d="M0 0 C1.99954746 -0.04254356 4.00041636 -0.04080783 6 0 C8.04698414 2.04698414 7.70045693 6.30411241 8 9 C5.03 9 2.06 9 -1 9 C-0.67 6.03 -0.34 3.06 0 0 Z " fill="#C5C5C6" transform="translate(393,350)"/>
<path d="M0 0 C1.93703061 5.81109182 1.21715636 12.06636277 0 18 C0.66 18.33 1.32 18.66 2 19 C-0.31 19 -2.62 19 -5 19 C-4.34 18.67 -3.68 18.34 -3 18 C-3.33 12.39 -3.66 6.78 -4 1 C-2 0 -2 0 0 0 Z " fill="#3E302E" transform="translate(333,234)"/>
<path d="M0 0 C1.99954746 -0.04254356 4.00041636 -0.04080783 6 0 C7 1 7 1 7.1875 3.9375 C7 7 7 7 5 9 C4.01 9 3.02 9 2 9 C2 9.66 2 10.32 2 11 C1.34 11 0.68 11 0 11 C0 7.37 0 3.74 0 0 Z " fill="#9FA1AA" transform="translate(531,373)"/>
<path d="M0 0 C1.32 0.66 2.64 1.32 4 2 C4.05422947 3.4370809 4.09289723 4.87475462 4.125 6.3125 C4.14820313 7.11300781 4.17140625 7.91351563 4.1953125 8.73828125 C4 11 4 11 2 14 C1.01 13.67 0.02 13.34 -1 13 C-1.02686553 11.02090602 -1.04633375 9.04171029 -1.0625 7.0625 C-1.07410156 5.96035156 -1.08570313 4.85820313 -1.09765625 3.72265625 C-1 1 -1 1 0 0 Z " fill="#F7F0E2" transform="translate(445,63)"/>
<path d="M0 0 C4.55555556 0.55555556 4.55555556 0.55555556 6 2 C6.1875 4.4375 6.1875 4.4375 6 7 C5.34 7.66 4.68 8.32 4 9 C-0.55555556 8.44444444 -0.55555556 8.44444444 -2 7 C-2.1875 4.5625 -2.1875 4.5625 -2 2 C-1.34 1.34 -0.68 0.68 0 0 Z " fill="#A49491" transform="translate(330,373)"/>
<path d="M0 0 C4.55555556 0.55555556 4.55555556 0.55555556 6 2 C6.1875 4.4375 6.1875 4.4375 6 7 C5.34 7.66 4.68 8.32 4 9 C-0.55555556 8.44444444 -0.55555556 8.44444444 -2 7 C-2.1875 4.5625 -2.1875 4.5625 -2 2 C-1.34 1.34 -0.68 0.68 0 0 Z " fill="#A49491" transform="translate(419,350)"/>
<path d="M0 0 C4.55555556 0.55555556 4.55555556 0.55555556 6 2 C6.1875 4.4375 6.1875 4.4375 6 7 C5.34 7.66 4.68 8.32 4 9 C-0.55555556 8.44444444 -0.55555556 8.44444444 -2 7 C-2.1875 4.5625 -2.1875 4.5625 -2 2 C-1.34 1.34 -0.68 0.68 0 0 Z " fill="#A49491" transform="translate(346,350)"/>
<path d="M0 0 C4.55555556 0.55555556 4.55555556 0.55555556 6 2 C6.1875 4.4375 6.1875 4.4375 6 7 C5.34 7.66 4.68 8.32 4 9 C-0.55555556 8.44444444 -0.55555556 8.44444444 -2 7 C-2.1875 4.5625 -2.1875 4.5625 -2 2 C-1.34 1.34 -0.68 0.68 0 0 Z " fill="#9A9195" transform="translate(514,350)"/>
<path d="M0 0 C2.625 0.375 2.625 0.375 5 1 C5.625 3.3125 5.625 3.3125 6 6 C5.01 7.485 5.01 7.485 4 9 C-0.875 8.125 -0.875 8.125 -2 7 C-2.1875 4.5625 -2.1875 4.5625 -2 2 C-1.34 1.34 -0.68 0.68 0 0 Z " fill="#9092A2" transform="translate(385,350)"/>
<path d="M0 0 C2.94678433 2.94678433 4.32041919 5.24093818 6 9 C6 9.66 6 10.32 6 11 C6.66 11.33 7.32 11.66 8 12 C6.02 12 4.04 12 2 12 C2.33 10.68 2.66 9.36 3 8 C1.35 8.33 -0.3 8.66 -2 9 C-2 9.99 -2 10.98 -2 12 C-3.32 11.67 -4.64 11.34 -6 11 C-4.02 7.37 -2.04 3.74 0 0 Z " fill="#9A9393" transform="translate(324,347)"/>
<path d="M0 0 C0.66 0.33 1.32 0.66 2 1 C1.67 1.33 1.34 1.66 1 2 C0.76518307 4.18292774 0.58636677 6.37203174 0.4375 8.5625 C0.31181641 10.35880859 0.31181641 10.35880859 0.18359375 12.19140625 C0.12300781 13.11824219 0.06242188 14.04507813 0 15 C-3.875 13.25 -3.875 13.25 -5 11 C-5.375 8.1875 -5.375 8.1875 -5 5 C-2.5 2.125 -2.5 2.125 0 0 Z " fill="#291508" transform="translate(625,62)"/>
<path d="M0 0 C1.32 0.66 2.64 1.32 4 2 C4 5.3 4 8.6 4 12 C2.68 12.33 1.36 12.66 0 13 C-1 12 -1 12 -1.1328125 9.53125 C-1.13023437 8.5309375 -1.12765625 7.530625 -1.125 6.5 C-1.12757813 5.4996875 -1.13015625 4.499375 -1.1328125 3.46875 C-1 1 -1 1 0 0 Z " fill="#F1F7F2" transform="translate(478,63)"/>
<path d="M0 0 C4.875 0.875 4.875 0.875 6 2 C6.04063832 3.66617115 6.042721 5.33388095 6 7 C7.32 7.33 8.64 7.66 10 8 C9.67 8.66 9.34 9.32 9 10 C8.01 9.67 7.02 9.34 6 9 C3.66700175 8.96045766 1.33291811 8.95598268 -1 9 C-0.50168276 5.31245243 0.10067643 3.39509338 3 1 C2.34 1 1.68 1 1 1 C1 1.66 1 2.32 1 3 C0.34 3 -0.32 3 -1 3 C-0.67 2.01 -0.34 1.02 0 0 Z " fill="#A5A5AE" transform="translate(388,373)"/>
<path d="M0 0 C1.65 0.33 3.3 0.66 5 1 C4.01 1.495 4.01 1.495 3 2 C2.34 1.67 1.68 1.34 1 1 C1 1.99 1 2.98 1 4 C1.66 4.33 2.32 4.66 3 5 C2.34 5 1.68 5 1 5 C1 7.31 1 9.62 1 12 C1.99 12 2.98 12 4 12 C4 9.36 4 6.72 4 4 C4.66 4 5.32 4 6 4 C6.33 6.97 6.66 9.94 7 13 C3.7 13 0.4 13 -3 13 C-2.34 12.67 -1.68 12.34 -1 12 C-1 9.69 -1 7.38 -1 5 C-1.66 4.67 -2.32 4.34 -3 4 C-2.34 4 -1.68 4 -1 4 C-0.67 2.68 -0.34 1.36 0 0 Z " fill="#988D8D" transform="translate(462,346)"/>
<path d="M0 0 C1.9375 0.375 1.9375 0.375 4 1 C5.59643412 4.19286823 5.51370451 7.53420693 5 11 C3.125 13.5 3.125 13.5 1 15 C0.34 15 -0.32 15 -1 15 C-0.83628906 14.45859375 -0.67257812 13.9171875 -0.50390625 13.359375 C0.08590587 10.59777407 0.09609308 8.07181861 0.0625 5.25 C0.05347656 4.26515625 0.04445313 3.2803125 0.03515625 2.265625 C0.02355469 1.51796875 0.01195312 0.7703125 0 0 Z " fill="#0D0C13" transform="translate(448,63)"/>
<path d="M0 0 C0 2.64 0 5.28 0 8 C-1.65614657 8.38218767 -3.32457024 8.71395102 -5 9 C-6 8 -6 8 -6.09765625 6.15234375 C-6.06510417 4.1015625 -6.03255208 2.05078125 -6 0 C-3.50907189 -1.24546405 -2.58919267 -0.7767578 0 0 Z " fill="#E5EEEE" transform="translate(325,237)"/>
<path d="M0 0 C2.625 0.375 2.625 0.375 5 1 C5.33 2.32 5.66 3.64 6 5 C4.02 5 2.04 5 0 5 C0.33 5.99 0.66 6.98 1 8 C2.65 8 4.3 8 6 8 C6 8.66 6 9.32 6 10 C3.125 10.625 3.125 10.625 0 11 C-2 9 -2 9 -2.25 5.5 C-2 2 -2 2 0 0 Z " fill="#A3A2A6" transform="translate(732,162)"/>
<path d="M0 0 C1.32 0 2.64 0 4 0 C5.32 2.97 6.64 5.94 8 9 C8.66 8.67 9.32 8.34 10 8 C9.625 10.4375 9.625 10.4375 9 13 C8.01 13.495 8.01 13.495 7 14 C5.68 11.03 4.36 8.06 3 5 C2.67 7.64 2.34 10.28 2 13 C2.66 13.33 3.32 13.66 4 14 C2.35 14 0.7 14 -1 14 C-0.34 13.67 0.32 13.34 1 13 C0.67 8.71 0.34 4.42 0 0 Z " fill="#4B3231" transform="translate(319,321)"/>
<path d="M0 0 C1.65 0.33 3.3 0.66 5 1 C5 3.97 5 6.94 5 10 C3.02 10 1.04 10 -1 10 C-1.8125 8.3125 -1.8125 8.3125 -2 6 C0.4375 3.25 0.4375 3.25 3 1 C2.34 1 1.68 1 1 1 C1 1.66 1 2.32 1 3 C0.34 3 -0.32 3 -1 3 C-0.67 2.01 -0.34 1.02 0 0 Z " fill="#382A37" transform="translate(349,325)"/>
<path d="M0 0 C-0.33 0.99 -0.66 1.98 -1 3 C-1.99 2.34 -2.98 1.68 -4 1 C-3.319375 1.5775 -2.63875 2.155 -1.9375 2.75 C-1.298125 3.4925 -0.65875 4.235 0 5 C-0.25 7.25 -0.25 7.25 -1 9 C-2.66611905 9.042721 -4.33382885 9.04063832 -6 9 C-7 8 -7 8 -7.0625 4.4375 C-7.041875 3.303125 -7.02125 2.16875 -7 1 C-4.53721199 -0.231394 -2.7204945 -0.07159196 0 0 Z " fill="#C5C1C1" transform="translate(700,350)"/>
<path d="M0 0 C2.33944736 0.28730055 4.6739143 0.61936779 7 1 C7.625 2.875 7.625 2.875 8 5 C6 7 6 7 2.9375 7.1875 C0 7 0 7 -1 6 C-1.125 3.5 -1.125 3.5 -1 1 C-0.67 0.67 -0.34 0.34 0 0 Z " fill="#7D7A80" transform="translate(385,332)"/>
<path d="M0 0 C3.63 0 7.26 0 11 0 C11.33 1.32 11.66 2.64 12 4 C8.62182575 4.84454356 6.32534757 5.10844919 3 4 C2.34 5.32 1.68 6.64 1 8 C0.67 5.36 0.34 2.72 0 0 Z " fill="#1F2327" transform="translate(546,54)"/>
<path d="M0 0 C0.66 0 1.32 0 2 0 C2 4.29 2 8.58 2 13 C1.34 13 0.68 13 0 13 C-0.33 10.69 -0.66 8.38 -1 6 C-1.66 6 -2.32 6 -3 6 C-3.16687448 8.41645782 -3.16687448 8.41645782 -3 11 C-2.34 11.66 -1.68 12.32 -1 13 C-4.875 12.125 -4.875 12.125 -6 11 C-6.1875 8.5625 -6.1875 8.5625 -6 6 C-5.34 5.34 -4.68 4.68 -4 4 C-2.68 4 -1.36 4 0 4 C0 2.68 0 1.36 0 0 Z " fill="#9A959D" transform="translate(527,346)"/>
<path d="M0 0 C0.66 0 1.32 0 2 0 C2 4.29 2 8.58 2 13 C1.34 13 0.68 13 0 13 C-0.33 10.69 -0.66 8.38 -1 6 C-1.66 6 -2.32 6 -3 6 C-3.16687448 8.41645782 -3.16687448 8.41645782 -3 11 C-2.34 11.66 -1.68 12.32 -1 13 C-4.875 12.125 -4.875 12.125 -6 11 C-6.1875 8.5625 -6.1875 8.5625 -6 6 C-5.34 5.34 -4.68 4.68 -4 4 C-2.68 4 -1.36 4 0 4 C0 2.68 0 1.36 0 0 Z " fill="#9A959D" transform="translate(451,346)"/>
<path d="M0 0 C1.134375 0.020625 2.26875 0.04125 3.4375 0.0625 C2.7775 2.0425 2.1175 4.0225 1.4375 6.0625 C-0.9375 6.6875 -0.9375 6.6875 -3.5625 7.0625 C-4.2225 6.4025 -4.8825 5.7425 -5.5625 5.0625 C-4.90400312 0.71642062 -4.57278902 0.08022437 0 0 Z " fill="#31252F" transform="translate(389.5625,324.9375)"/>
<path d="M0 0 C2.625 0.375 2.625 0.375 5 1 C5.33 3.64 5.66 6.28 6 9 C5.01 8.67 4.02 8.34 3 8 C3 7.01 3 6.02 3 5 C2.34 5 1.68 5 1 5 C1.33 6.32 1.66 7.64 2 9 C0.68 8.67 -0.64 8.34 -2 8 C-2.125 5.125 -2.125 5.125 -2 2 C-1.34 1.34 -0.68 0.68 0 0 Z " fill="#B9B3B0" transform="translate(615,373)"/>
<path d="M0 0 C1.2065625 0.0309375 1.2065625 0.0309375 2.4375 0.0625 C3.0975 2.3725 3.7575 4.6825 4.4375 7.0625 C1.7975 7.0625 -0.8425 7.0625 -3.5625 7.0625 C-3.60504356 5.06295254 -3.60330783 3.06208364 -3.5625 1.0625 C-2.5625 0.0625 -2.5625 0.0625 0 0 Z " fill="#B1ABB0" transform="translate(328.5625,264.9375)"/>
<path d="M0 0 C2.625 0.375 2.625 0.375 5 1 C5.33 1.99 5.66 2.98 6 4 C3.69 4 1.38 4 -1 4 C1.0072908 7.0109362 1.83884224 7.63016497 5 9 C2.625 9.625 2.625 9.625 0 10 C-2 8 -2 8 -2.25 5 C-2 2 -2 2 0 0 Z " fill="#46444E" transform="translate(340,325)"/>
<path d="M0 0 C1.2065625 0.0309375 1.2065625 0.0309375 2.4375 0.0625 C3.0625 2.4375 3.0625 2.4375 3.4375 5.0625 C2.7775 5.7225 2.1175 6.3825 1.4375 7.0625 C0.4475 7.0625 -0.5425 7.0625 -1.5625 7.0625 C-1.2325 8.0525 -0.9025 9.0425 -0.5625 10.0625 C-1.5525 9.7325 -2.5425 9.4025 -3.5625 9.0625 C-3.66015625 2.91015625 -3.66015625 2.91015625 -3.5625 1.0625 C-2.5625 0.0625 -2.5625 0.0625 0 0 Z " fill="#BBBEC5" transform="translate(363.5625,264.9375)"/>
<path d="M0 0 C0.66 0 1.32 0 2 0 C2 2.64 2 5.28 2 8 C2.99 8 3.98 8 5 8 C5 5.36 5 2.72 5 0 C5.99 0.33 6.98 0.66 8 1 C8 3.64 8 6.28 8 9 C5.03 9 2.06 9 -1 9 C-0.67 6.03 -0.34 3.06 0 0 Z " fill="#9E9499" transform="translate(595,373)"/>
<path d="M0 0 C2.625 0.375 2.625 0.375 5 1 C5 1.99 5 2.98 5 4 C3.35 4 1.7 4 0 4 C0.33 4.66 0.66 5.32 1 6 C2.32 6 3.64 6 5 6 C4.67 6.99 4.34 7.98 4 9 C-0.875 8.125 -0.875 8.125 -2 7 C-2.1875 4.5625 -2.1875 4.5625 -2 2 C-1.34 1.34 -0.68 0.68 0 0 Z " fill="#8E919A" transform="translate(509,373)"/>
<path d="M0 0 C2.625 0.375 2.625 0.375 5 1 C5 1.99 5 2.98 5 4 C3.35 4 1.7 4 0 4 C0.33 4.66 0.66 5.32 1 6 C2.32 6 3.64 6 5 6 C4.67 6.99 4.34 7.98 4 9 C-0.875 8.125 -0.875 8.125 -2 7 C-2.1875 4.5625 -2.1875 4.5625 -2 2 C-1.34 1.34 -0.68 0.68 0 0 Z " fill="#8E919A" transform="translate(462,373)"/>
<path d="M0 0 C2.625 0.375 2.625 0.375 5 1 C5 1.99 5 2.98 5 4 C3.35 4 1.7 4 0 4 C0.33 4.66 0.66 5.32 1 6 C2.32 6 3.64 6 5 6 C4.67 6.99 4.34 7.98 4 9 C-0.875 8.125 -0.875 8.125 -2 7 C-2.1875 4.5625 -2.1875 4.5625 -2 2 C-1.34 1.34 -0.68 0.68 0 0 Z " fill="#8E919A" transform="translate(635,350)"/>
<path d="M0 0 C0.33 0.66 0.66 1.32 1 2 C1.66 2 2.32 2 3 2 C3 1.34 3 0.68 3 0 C3.66 0 4.32 0 5 0 C4.67 0.99 4.34 1.98 4 3 C1.4375 4.1875 1.4375 4.1875 -1 5 C-1 5.66 -1 6.32 -1 7 C-2.65 7 -4.3 7 -6 7 C-6.66 5.68 -7.32 4.36 -8 3 C-5.69 3 -3.38 3 -1 3 C-0.67 2.01 -0.34 1.02 0 0 Z " fill="#EFEEE7" transform="translate(347,326)"/>
<path d="M0 0 C0.78375 0.04125 1.5675 0.0825 2.375 0.125 C2.375 2.105 2.375 4.085 2.375 6.125 C0.395 6.455 -1.585 6.785 -3.625 7.125 C-4.25 4.75 -4.25 4.75 -4.625 2.125 C-2.625 0.125 -2.625 0.125 0 0 Z " fill="#2C2835" transform="translate(308.625,239.875)"/>
<path d="M0 0 C0 0.66 0 1.32 0 2 C-0.99 2 -1.98 2 -3 2 C-3 1.34 -3 0.68 -3 0 C-3.99 0.66 -4.98 1.32 -6 2 C-5.67 3.65 -5.34 5.3 -5 7 C-3.35 6.67 -1.7 6.34 0 6 C-0.66 7.32 -1.32 8.64 -2 10 C-4.97 9.505 -4.97 9.505 -8 9 C-9.32561852 2.61292897 -9.32561852 2.61292897 -7.9375 0 C-5.08594286 -1.47177143 -3.03295907 -0.74138999 0 0 Z " fill="#AEAAAC" transform="translate(702,163)"/>
<path d="M0 0 C1.32 0.66 2.64 1.32 4 2 C4 3.65 4 5.3 4 7 C2.02 7.99 2.02 7.99 0 9 C-2 7 -2 7 -2.25 4.5 C-2 2 -2 2 0 0 Z " fill="#D9E1DE" transform="translate(385,162)"/>
<path d="M0 0 C1.99954746 -0.04254356 4.00041636 -0.04080783 6 0 C7 1 7 1 7.09765625 2.84765625 C7.04882812 5.92382812 7.04882812 5.92382812 7 9 C7.66 9.33 8.32 9.66 9 10 C7.35 10 5.7 10 4 10 C4.66 9.67 5.32 9.34 6 9 C5.67 6.69 5.34 4.38 5 2 C4.01 2 3.02 2 2 2 C2.33 4.64 2.66 7.28 3 10 C1.68 9.67 0.36 9.34 -1 9 C-0.67 6.03 -0.34 3.06 0 0 Z " fill="#232135" transform="translate(374,325)"/>
<path d="M0 0 C2.31 0 4.62 0 7 0 C7.33 0.99 7.66 1.98 8 3 C6.68 3 5.36 3 4 3 C3.67 4.32 3.34 5.64 3 7 C1.68 7 0.36 7 -1 7 C-0.7525 6.1028125 -0.7525 6.1028125 -0.5 5.1875 C0.1114124 2.88655664 0.1114124 2.88655664 0 0 Z " fill="#B8B5B7" transform="translate(351,265)"/>
<path d="M0 0 C2.625 0.375 2.625 0.375 5 1 C5 1.99 5 2.98 5 4 C3.35 4 1.7 4 0 4 C0 4.99 0 5.98 0 7 C1.65 6.67 3.3 6.34 5 6 C5 6.66 5 7.32 5 8 C2.625 8.625 2.625 8.625 0 9 C-2 7 -2 7 -2.25 4.5 C-2 2 -2 2 0 0 Z " fill="#A4A0A4" transform="translate(354,373)"/>
<path d="M0 0 C4 1 4 1 5.30078125 2.7421875 C5.63464844 3.44601562 5.96851563 4.14984375 6.3125 4.875 C6.83263672 5.92300781 6.83263672 5.92300781 7.36328125 6.9921875 C8 9 8 9 7 12 C5.49440461 10.03617993 4.10868317 8.21736634 3 6 C2.67 7.65 2.34 9.3 2 11 C2.66 11.33 3.32 11.66 4 12 C2.35 12 0.7 12 -1 12 C-0.34 11.67 0.32 11.34 1 11 C0.67 7.37 0.34 3.74 0 0 Z " fill="#9B94A0" transform="translate(655,347)"/>
<path d="M0 0 C1.32 0.33 2.64 0.66 4 1 C4 4.63 4 8.26 4 12 C2.35 12 0.7 12 -1 12 C-0.34 11.67 0.32 11.34 1 11 C0.67 9.02 0.34 7.04 0 5 C-0.99 6.32 -1.98 7.64 -3 9 C-2.44271087 5.65626525 -1.64826111 2.96687001 0 0 Z " fill="#9899A5" transform="translate(666,347)"/>
<path d="M0 0 C2.625 0.375 2.625 0.375 5 1 C4.67 2.98 4.34 4.96 4 7 C2.35 6.67 0.7 6.34 -1 6 C-1.625 4.125 -1.625 4.125 -2 2 C-1.34 1.34 -0.68 0.68 0 0 Z " fill="#CAC7C9" transform="translate(312,265)"/>
<path d="M0 0 C1.65 0 3.3 0 5 0 C4.67 0.99 4.34 1.98 4 3 C4 2.34 4 1.68 4 1 C3.01 1 2.02 1 1 1 C1 1.99 1 2.98 1 4 C3.475 4.99 3.475 4.99 6 6 C5.67 7.65 5.34 9.3 5 11 C3.02 11 1.04 11 -1 11 C-0.67 9.68 -0.34 8.36 0 7 C0.33 7.66 0.66 8.32 1 9 C1.99 9.33 2.98 9.66 4 10 C3.33131686 6.88667752 3.33131686 6.88667752 0.9375 5.8125 C0.298125 5.544375 -0.34125 5.27625 -1 5 C-0.67 3.35 -0.34 1.7 0 0 Z " fill="#AFA9AA" transform="translate(722,162)"/>
<path d="M0 0 C1 3 1 3 0 6 C-1.65 6 -3.3 6 -5 6 C-5 5.01 -5 4.02 -5 3 C-6.98 3.99 -6.98 3.99 -9 5 C-6.81610567 0.16423399 -5.20641855 -0.13701101 0 0 Z " fill="#452311" transform="translate(535,62)"/>
<path d="M0 0 C0.99 0 1.98 0 3 0 C3.83739781 2.1234016 4.66980283 4.2487728 5.5 6.375 C5.9640625 7.55835938 6.428125 8.74171875 6.90625 9.9609375 C8 13 8 13 8 15 C7.34 15 6.68 15 6 15 C5.6596875 14.0409375 5.6596875 14.0409375 5.3125 13.0625 C4.14749104 10.72806339 4.14749104 10.72806339 1.375 10.25 C0.59125 10.1675 -0.1925 10.085 -1 10 C0.32 9.34 1.64 8.68 3 8 C2.690625 7.4225 2.38125 6.845 2.0625 6.25 C1.07416636 4.15705816 0.4831387 2.25464725 0 0 Z " fill="#1A1B34" transform="translate(361,157)"/>
<path d="M0 0 C2.0625 0.4375 2.0625 0.4375 4 1 C4 3.31 4 5.62 4 8 C2.68 8 1.36 8 0 8 C-1 7 -1 7 -1.125 4 C-1 1 -1 1 0 0 Z " fill="#F9FBF8" transform="translate(713,163)"/>
<path d="M0 0 C1.67542976 0.28604898 3.34385343 0.61781233 5 1 C5.33 1.99 5.66 2.98 6 4 C4.02 4 2.04 4 0 4 C1.25541557 6.51083114 2.50063488 6.87125446 5 8 C3.34385343 8.38218767 1.67542976 8.71395102 0 9 C-1 8 -1 8 -1.125 4.5 C-1 1 -1 1 0 0 Z " fill="#A1A0A4" transform="translate(629,373)"/>
<path d="M0 0 C1.67542976 0.28604898 3.34385343 0.61781233 5 1 C5.33 1.99 5.66 2.98 6 4 C4.02 4 2.04 4 0 4 C1.25541557 6.51083114 2.50063488 6.87125446 5 8 C3.34385343 8.38218767 1.67542976 8.71395102 0 9 C-1 8 -1 8 -1.125 4.5 C-1 1 -1 1 0 0 Z " fill="#A1A0A4" transform="translate(569,373)"/>
<path d="M0 0 C1.67542976 0.28604898 3.34385343 0.61781233 5 1 C5.33 1.99 5.66 2.98 6 4 C4.02 4 2.04 4 0 4 C1.25541557 6.51083114 2.50063488 6.87125446 5 8 C3.34385343 8.38218767 1.67542976 8.71395102 0 9 C-1 8 -1 8 -1.125 4.5 C-1 1 -1 1 0 0 Z " fill="#A1A0A4" transform="translate(541,373)"/>
<path d="M0 0 C1.67542976 0.28604898 3.34385343 0.61781233 5 1 C5.33 1.99 5.66 2.98 6 4 C4.02 4 2.04 4 0 4 C1.25541557 6.51083114 2.50063488 6.87125446 5 8 C3.34385343 8.38218767 1.67542976 8.71395102 0 9 C-1 8 -1 8 -1.125 4.5 C-1 1 -1 1 0 0 Z " fill="#A1A0A4" transform="translate(643,350)"/>
<path d="M0 0 C1.67542976 0.28604898 3.34385343 0.61781233 5 1 C5.33 1.99 5.66 2.98 6 4 C4.02 4 2.04 4 0 4 C1.25541557 6.51083114 2.50063488 6.87125446 5 8 C3.34385343 8.38218767 1.67542976 8.71395102 0 9 C-1 8 -1 8 -1.125 4.5 C-1 1 -1 1 0 0 Z " fill="#A1A0A4" transform="translate(550,350)"/>
<path d="M0 0 C2.36810318 0.94724127 3.75207953 1.65291134 5.25 3.75 C6.2635576 6.79067281 6.44744327 8.80397662 6 12 C4.51902558 14.27048342 2.88425005 16.02153745 1 18 C1 15 1 15 2.0625 13.25 C3.44826746 9.9241581 2.74300309 7.46734777 2 4 C1.04415562 1.66411677 1.04415562 1.66411677 0 0 Z " fill="#A4A5AF" transform="translate(751,240)"/>
<path d="M0 0 C4.70588235 0.70588235 4.70588235 0.70588235 6 2 C6.4664723 9.2303207 6.4664723 9.2303207 4.75 12.0625 C3 13 3 13 0.8125 12.6875 C0.214375 12.460625 -0.38375 12.23375 -1 12 C0.32 11.34 1.64 10.68 3 10 C3.33397787 7.12586875 3.33397787 7.12586875 3 4 C1.11922127 2.08743288 1.11922127 2.08743288 -1 1 C-0.67 0.67 -0.34 0.34 0 0 Z " fill="#26171A" transform="translate(335,234)"/>
<path d="M0 0 C1.2065625 0.0309375 1.2065625 0.0309375 2.4375 0.0625 C2.7675 2.3725 3.0975 4.6825 3.4375 7.0625 C1.1275 7.0625 -1.1825 7.0625 -3.5625 7.0625 C-3.60504356 5.06295254 -3.60330783 3.06208364 -3.5625 1.0625 C-2.5625 0.0625 -2.5625 0.0625 0 0 Z " fill="#BBBCC1" transform="translate(306.5625,264.9375)"/>
<path d="M0 0 C1.32 0.33 2.64 0.66 4 1 C3.34 1 2.68 1 2 1 C2 4.96 2 8.92 2 13 C2.66 13.33 3.32 13.66 4 14 C2.02 14 0.04 14 -2 14 C-1.34 13.67 -0.68 13.34 0 13 C-0.12568359 11.84371094 -0.12568359 11.84371094 -0.25390625 10.6640625 C-0.35574219 9.66117187 -0.45757812 8.65828125 -0.5625 7.625 C-0.66691406 6.62726563 -0.77132813 5.62953125 -0.87890625 4.6015625 C-1 2 -1 2 0 0 Z " fill="#3C1F08" transform="translate(332,321)"/>
<path d="M0 0 C0 0.99 0 1.98 0 3 C0.31088368 4.67099977 0.64080332 6.33871537 1 8 C-0.65614657 8.38218767 -2.32457024 8.71395102 -4 9 C-5 8 -5 8 -5.375 5.625 C-5.25125 4.75875 -5.1275 3.8925 -5 3 C-2.5 1.1875 -2.5 1.1875 0 0 Z " fill="#151115" transform="translate(587,69)"/>
<path d="M0 0 C0.33 0 0.66 0 1 0 C1.0825 1.27875 1.165 2.5575 1.25 3.875 C1.45869931 6.05333418 1.45869931 6.05333418 2 8 C3.92064793 9.5899433 3.92064793 9.5899433 6 10 C4.68 10 3.36 10 2 10 C2.33 11.98 2.66 13.96 3 16 C1.02 16 -0.96 16 -3 16 C-2.34 15.34 -1.68 14.68 -1 14 C-0.69940057 11.63490639 -0.50484988 9.25558119 -0.375 6.875 C-0.30023438 5.59367188 -0.22546875 4.31234375 -0.1484375 2.9921875 C-0.09945313 2.00476563 -0.05046875 1.01734375 0 0 Z " fill="#19263B" transform="translate(318,237)"/>
<path d="M0 0 C1.32 0 2.64 0 4 0 C4 2.31 4 4.62 4 7 C2.35 6.67 0.7 6.34 -1 6 C-1.042721 4.33388095 -1.04063832 2.66617115 -1 1 C-0.67 0.67 -0.34 0.34 0 0 Z " fill="#EFF8F6" transform="translate(373,163)"/>
<path d="M0 0 C2.375 -0.125 2.375 -0.125 5 0 C7 2 7 2 7 5 C4.36 4.67 1.72 4.34 -1 4 C-0.67 2.68 -0.34 1.36 0 0 Z " fill="#7B7878" transform="translate(354,234)"/>
<path d="M0 0 C0.66 0 1.32 0 2 0 C2 0.66 2 1.32 2 2 C3.32 1.67 4.64 1.34 6 1 C5.67 2.32 5.34 3.64 5 5 C3.02 5.33 1.04 5.66 -1 6 C-1.042721 4.33388095 -1.04063832 2.66617115 -1 1 C-0.67 0.67 -0.34 0.34 0 0 Z " fill="#FAF5ED" transform="translate(543,351)"/>
<path d="M0 0 C0.66 0.33 1.32 0.66 2 1 C2 3.31 2 5.62 2 8 C1.01 8.33 0.02 8.66 -1 9 C-2 8 -2 8 -2.0625 4.4375 C-2.041875 3.303125 -2.02125 2.16875 -2 1 C-1.34 0.67 -0.68 0.34 0 0 Z " fill="#F3E5D0" transform="translate(378,326)"/>
<path d="M0 0 C0.33 0 0.66 0 1 0 C1 3.96 1 7.92 1 12 C0.01 12 -0.98 12 -2 12 C-3.12377697 8.69564916 -2.89554742 6.9493138 -1.5625 3.75 C-1.27503906 3.04359375 -0.98757813 2.3371875 -0.69140625 1.609375 C-0.46324219 1.07828125 -0.23507812 0.5471875 0 0 Z " fill="#D3E2D0" transform="translate(589,64)"/>
<path d="M0 0 C1.65 0 3.3 0 5 0 C5 0.66 5 1.32 5 2 C4.34 2 3.68 2 3 2 C2.67 3.98 2.34 5.96 2 8 C2.66 8.33 3.32 8.66 4 9 C2.35 9 0.7 9 -1 9 C-0.67 6.03 -0.34 3.06 0 0 Z " fill="#ABA19E" transform="translate(548,373)"/>
<path d="M0 0 C1.485 0.99 1.485 0.99 3 2 C3.1875 5.125 3.1875 5.125 3 8 C1.68 8 0.36 8 -1 8 C-1.04241723 5.66705225 -1.04092937 3.33297433 -1 1 C-0.67 0.67 -0.34 0.34 0 0 Z " fill="#E8E7E1" transform="translate(524,373)"/>
<path d="M0 0 C1.485 0.99 1.485 0.99 3 2 C3.1875 5.125 3.1875 5.125 3 8 C1.68 8 0.36 8 -1 8 C-1.04241723 5.66705225 -1.04092937 3.33297433 -1 1 C-0.67 0.67 -0.34 0.34 0 0 Z " fill="#E8E7E1" transform="translate(346,373)"/>
<path d="M0 0 C1.65 0 3.3 0 5 0 C5 0.66 5 1.32 5 2 C4.34 2 3.68 2 3 2 C2.67 3.98 2.34 5.96 2 8 C2.66 8.33 3.32 8.66 4 9 C2.35 9 0.7 9 -1 9 C-0.67 6.03 -0.34 3.06 0 0 Z " fill="#ABA19E" transform="translate(506,350)"/>
<path d="M0 0 C1.65 0.33 3.3 0.66 5 1 C5 2.65 5 4.3 5 6 C3.35 6.33 1.7 6.66 0 7 C-0.33 6.01 -0.66 5.02 -1 4 C0.32 4 1.64 4 3 4 C3 3.01 3 2.02 3 1 C1.68 1.33 0.36 1.66 -1 2 C-0.67 1.34 -0.34 0.68 0 0 Z " fill="#B8B2B3" transform="translate(372,265)"/>
<path d="M0 0 C0.33 0 0.66 0 1 0 C1 2.64 1 5.28 1 8 C-0.66666667 8 -2.33333333 8 -4 8 C-4.33 10.97 -4.66 13.94 -5 17 C-5.33 17 -5.66 17 -6 17 C-6 13.37 -6 9.74 -6 6 C-4.02 6 -2.04 6 0 6 C0 4.02 0 2.04 0 0 Z " fill="#453F4C" transform="translate(482,56)"/>
<path d="M0 0 C1.65 0 3.3 0 5 0 C5 0.66 5 1.32 5 2 C4.01 2 3.02 2 2 2 C2.33 4.31 2.66 6.62 3 9 C1.35 9 -0.3 9 -2 9 C-1.34 8.67 -0.68 8.34 0 8 C0 5.36 0 2.72 0 0 Z " fill="#99A0AD" transform="translate(412,350)"/>
<path d="M0 0 C0 2.31 0 4.62 0 7 C-0.66 6.34 -1.32 5.68 -2 5 C-3.32 5 -4.64 5 -6 5 C-6 3.68 -6 2.36 -6 1 C-3.92446352 0.4465236 -2.15634036 0 0 0 Z " fill="#E8E3DD" transform="translate(361,267)"/>
<path d="M0 0 C0.33 0.99 0.66 1.98 1 3 C1.66 3.33 2.32 3.66 3 4 C2.34 4 1.68 4 1 4 C1.33 6.64 1.66 9.28 2 12 C1.01 12 0.02 12 -1 12 C-1.2226746 10.56465159 -1.42761906 9.12654475 -1.625 7.6875 C-1.74101563 6.88699219 -1.85703125 6.08648437 -1.9765625 5.26171875 C-2 3 -2 3 0 0 Z " fill="#989BAD" transform="translate(624,370)"/>
<path d="M0 0 C0.33 0.99 0.66 1.98 1 3 C1.66 3.33 2.32 3.66 3 4 C2.34 4 1.68 4 1 4 C1.33 6.64 1.66 9.28 2 12 C1.01 12 0.02 12 -1 12 C-1.2226746 10.56465159 -1.42761906 9.12654475 -1.625 7.6875 C-1.74101562 6.88699219 -1.85703125 6.08648437 -1.9765625 5.26171875 C-2 3 -2 3 0 0 Z " fill="#989BAD" transform="translate(457,370)"/>
<path d="M0 0 C0.66 0 1.32 0 2 0 C2 2.31 2 4.62 2 7 C0.68 7.33 -0.64 7.66 -2 8 C-2.33 6.68 -2.66 5.36 -3 4 C-2.34 3.67 -1.68 3.34 -1 3 C-0.67 2.01 -0.34 1.02 0 0 Z " fill="#CBC5BD" transform="translate(674,351)"/>
<path d="M0 0 C1.65 0 3.3 0 5 0 C5 0.66 5 1.32 5 2 C4.01 2 3.02 2 2 2 C2.33 4.31 2.66 6.62 3 9 C1.68 8.67 0.36 8.34 -1 8 C-0.67 5.36 -0.34 2.72 0 0 Z " fill="#969FAF" transform="translate(628,350)"/>
<path d="M0 0 C0.33 0.99 0.66 1.98 1 3 C1.66 3.33 2.32 3.66 3 4 C2.34 4 1.68 4 1 4 C1.33 6.64 1.66 9.28 2 12 C1.01 12 0.02 12 -1 12 C-1.2226746 10.56465159 -1.42761906 9.12654475 -1.625 7.6875 C-1.74101563 6.88699219 -1.85703125 6.08648437 -1.9765625 5.26171875 C-2 3 -2 3 0 0 Z " fill="#989BAD" transform="translate(596,347)"/>
<path d="M0 0 C0.99 0.33 1.98 0.66 3 1 C3 3.31 3 5.62 3 8 C1.68 7.34 0.36 6.68 -1 6 C-1.042721 4.33388095 -1.04063832 2.66617115 -1 1 C-0.67 0.67 -0.34 0.34 0 0 Z " fill="#EFF7F4" transform="translate(524,351)"/>
<path d="M0 0 C0.99 0.33 1.98 0.66 3 1 C3 3.31 3 5.62 3 8 C1.68 7.34 0.36 6.68 -1 6 C-1.042721 4.33388095 -1.04063832 2.66617115 -1 1 C-0.67 0.67 -0.34 0.34 0 0 Z " fill="#EFF7F4" transform="translate(448,351)"/>
<path d="M0 0 C2.50037734 2.17424117 3.43628586 3.73045798 4 7 C2.02 7 0.04 7 -2 7 C-1.125 2.25 -1.125 2.25 0 0 Z " fill="#B7B5BA" transform="translate(324,347)"/>
<path d="M0 0 C0.33 0.66 0.66 1.32 1 2 C1.66 2.33 2.32 2.66 3 3 C2.34 3 1.68 3 1 3 C1 5.31 1 7.62 1 10 C1.66 10.33 2.32 10.66 3 11 C1.68 10.67 0.36 10.34 -1 10 C-1.9765625 3.9453125 -1.9765625 3.9453125 -2 2 C-1.34 1.34 -0.68 0.68 0 0 Z " fill="#A99796" transform="translate(369,371)"/>
<path d="M0 0 C0.99 0.33 1.98 0.66 3 1 C3 2.98 3 4.96 3 7 C1.68 6.67 0.36 6.34 -1 6 C-1.042721 4.33388095 -1.04063832 2.66617115 -1 1 C-0.67 0.67 -0.34 0.34 0 0 Z " fill="#F0F8F9" transform="translate(331,374)"/>
<path d="M0 0 C1.65 0.33 3.3 0.66 5 1 C5 3.64 5 6.28 5 9 C4.34 9 3.68 9 3 9 C1.875 3.25 1.875 3.25 3 1 C2.34 1 1.68 1 1 1 C1 1.66 1 2.32 1 3 C0.34 3 -0.32 3 -1 3 C-0.67 2.01 -0.34 1.02 0 0 Z " fill="#9D9194" transform="translate(448,373)"/>
<path d="M0 0 C0.33 0 0.66 0 1 0 C1.103125 1.11375 1.20625 2.2275 1.3125 3.375 C1.539375 4.57125 1.76625 5.7675 2 7 C2.99 7.66 3.98 8.32 5 9 C4.01 9 3.02 9 2 9 C2.33 10.32 2.66 11.64 3 13 C1.35 13 -0.3 13 -2 13 C-1.34 12.67 -0.68 12.34 0 12 C0 8.04 0 4.08 0 0 Z " fill="#8E8B91" transform="translate(497,350)"/>
<path d="M0 0 C0.99 0.33 1.98 0.66 3 1 C3 2.98 3 4.96 3 7 C1.68 6.67 0.36 6.34 -1 6 C-1.042721 4.33388095 -1.04063832 2.66617115 -1 1 C-0.67 0.67 -0.34 0.34 0 0 Z " fill="#F6F9F6" transform="translate(515,351)"/>
<path d="M0 0 C0.99 0.33 1.98 0.66 3 1 C3 2.98 3 4.96 3 7 C1.68 6.67 0.36 6.34 -1 6 C-1.042721 4.33388095 -1.04063832 2.66617115 -1 1 C-0.67 0.67 -0.34 0.34 0 0 Z " fill="#F0F8F9" transform="translate(420,351)"/>
<path d="M0 0 C1.32 0.33 2.64 0.66 4 1 C4 2.65 4 4.3 4 6 C2.68 6 1.36 6 0 6 C0 4.02 0 2.04 0 0 Z " fill="#F9F9F0" transform="translate(385,351)"/>
<path d="M0 0 C0.99 0.33 1.98 0.66 3 1 C3 2.98 3 4.96 3 7 C1.68 6.67 0.36 6.34 -1 6 C-1.042721 4.33388095 -1.04063832 2.66617115 -1 1 C-0.67 0.67 -0.34 0.34 0 0 Z " fill="#F0F8F9" transform="translate(347,351)"/>
<path d="M0 0 C1.65 0.33 3.3 0.66 5 1 C4.01 1.495 4.01 1.495 3 2 C2.34 1.67 1.68 1.34 1 1 C1 1.99 1 2.98 1 4 C1.66 4.33 2.32 4.66 3 5 C2.34 5 1.68 5 1 5 C1 7.31 1 9.62 1 12 C0.67 12 0.34 12 0 12 C0 9.69 0 7.38 0 5 C-0.99 4.67 -1.98 4.34 -3 4 C-2.34 4 -1.68 4 -1 4 C-0.67 2.68 -0.34 1.36 0 0 Z " fill="#929EB1" transform="translate(462,346)"/>
<path d="M0 0 C0.99 0 1.98 0 3 0 C3 1.65 3 3.3 3 5 C1.68 5.33 0.36 5.66 -1 6 C-1.625 4.125 -1.625 4.125 -2 2 C-1.34 1.34 -0.68 0.68 0 0 Z " fill="#838188" transform="translate(349,329)"/>
<path d="M0 0 C0.33 0.66 0.66 1.32 1 2 C1.66 2.33 2.32 2.66 3 3 C2.34 3 1.68 3 1 3 C1.33 5.64 1.66 8.28 2 11 C1.01 10.67 0.02 10.34 -1 10 C-1.9765625 3.9453125 -1.9765625 3.9453125 -2 2 C-1.34 1.34 -0.68 0.68 0 0 Z " fill="#9F9498" transform="translate(564,371)"/>
<path d="M0 0 C0.33 0.66 0.66 1.32 1 2 C1.66 2.33 2.32 2.66 3 3 C2.34 3 1.68 3 1 3 C1.33 5.64 1.66 8.28 2 11 C1.01 10.67 0.02 10.34 -1 10 C-1.9765625 3.9453125 -1.9765625 3.9453125 -2 2 C-1.34 1.34 -0.68 0.68 0 0 Z " fill="#AA9693" transform="translate(623,348)"/>
<path d="M0 0 C0.33 0.66 0.66 1.32 1 2 C1.66 2.33 2.32 2.66 3 3 C2.34 3 1.68 3 1 3 C1.33 5.64 1.66 8.28 2 11 C1.01 10.67 0.02 10.34 -1 10 C-1.9765625 3.9453125 -1.9765625 3.9453125 -2 2 C-1.34 1.34 -0.68 0.68 0 0 Z " fill="#9F9498" transform="translate(488,348)"/>
<path d="M0 0 C1.65 0 3.3 0 5 0 C5.144375 1.11375 5.28875 2.2275 5.4375 3.375 C5.78372035 6.82142047 5.78372035 6.82142047 7 9 C5.68 8.67 4.36 8.34 3 8 C2.814375 6.576875 2.814375 6.576875 2.625 5.125 C2.28312823 1.91332809 2.28312823 1.91332809 0 0 Z " fill="#A49495" transform="translate(469,350)"/>
<path d="M0 0 C1.32 0.33 2.64 0.66 4 1 C4.33 3.97 4.66 6.94 5 10 C3.68 9.67 2.36 9.34 1 9 C1.020625 7.88625 1.04125 6.7725 1.0625 5.625 C1.26380718 2.16784079 1.26380718 2.16784079 0 0 Z " fill="#32233A" transform="translate(361,325)"/>
<path d="M0 0 C3 1 3 1 4 3 C4.3125 5.9375 4.3125 5.9375 4 9 C2 10.875 2 10.875 0 12 C0.08378906 11.38511719 0.16757812 10.77023438 0.25390625 10.13671875 C0.35574219 9.32847656 0.45757813 8.52023438 0.5625 7.6875 C0.66691406 6.88699219 0.77132812 6.08648437 0.87890625 5.26171875 C1.14755178 2.83182884 1.14755178 2.83182884 0 0 Z " fill="#A5A2A8" transform="translate(749,243)"/>
<path d="M0 0 C3.465 1.98 3.465 1.98 7 4 C7 4.99 7 5.98 7 7 C5.68 6.67 4.36 6.34 3 6 C3 5.34 3 4.68 3 4 C2.01 4 1.02 4 0 4 C0 2.68 0 1.36 0 0 Z " fill="#EBF1F4" transform="translate(719,165)"/>
<path d="M0 0 C2.29013653 3.4352048 2.17842973 4.985331 2 9 C1.38125 8.360625 0.7625 7.72125 0.125 7.0625 C-1.82597612 4.96116416 -1.82597612 4.96116416 -4 4 C-4 3.01 -4 2.02 -4 1 C-2.68 0.67 -1.36 0.34 0 0 Z " fill="#E9F3F9" transform="translate(727,162)"/>
<path d="M0 0 C1.32 0 2.64 0 4 0 C4 1.65 4 3.3 4 5 C2.68 5.33 1.36 5.66 0 6 C0 4.02 0 2.04 0 0 Z " fill="#F0F9F2" transform="translate(573,352)"/>
<path d="M0 0 C1.2065625 0.0309375 1.2065625 0.0309375 2.4375 0.0625 C2.1075 2.0425 1.7775 4.0225 1.4375 6.0625 C0.4475 6.0625 -0.5425 6.0625 -1.5625 6.0625 C-1.5625 4.7425 -1.5625 3.4225 -1.5625 2.0625 C-2.2225 1.7325 -2.8825 1.4025 -3.5625 1.0625 C-2.5625 0.0625 -2.5625 0.0625 0 0 Z " fill="#CDD0D4" transform="translate(328.5625,264.9375)"/>
<path d="M0 0 C1.65 0.33 3.3 0.66 5 1 C5 1.99 5 2.98 5 4 C3.02 4 1.04 4 -1 4 C-0.67 2.68 -0.34 1.36 0 0 Z " fill="#D0CDCD" transform="translate(732,162)"/>
<path d="M0 0 C0.66 0 1.32 0 2 0 C2 2.31 2 4.62 2 7 C1.01 7 0.02 7 -1 7 C-1.04254356 5.00045254 -1.04080783 2.99958364 -1 1 C-0.67 0.67 -0.34 0.34 0 0 Z " fill="#F9FAEF" transform="translate(603,374)"/>
<path d="M0 0 C0.99 0.33 1.98 0.66 3 1 C3 2.98 3 4.96 3 7 C2.01 7 1.02 7 0 7 C0 4.69 0 2.38 0 0 Z " fill="#EEF0E7" transform="translate(565,374)"/>
<path d="M0 0 C0.33 1.32 0.66 2.64 1 4 C-0.98 4 -2.96 4 -5 4 C-5.33 3.01 -5.66 2.02 -6 1 C-4.02 0.67 -2.04 0.34 0 0 Z " fill="#F2F0E9" transform="translate(556,353)"/>
<path d="M0 0 C0.99 0.33 1.98 0.66 3 1 C3 3.64 3 6.28 3 9 C1.68 8.67 0.36 8.34 -1 8 C-0.67 5.36 -0.34 2.72 0 0 Z " fill="#9295A7" transform="translate(393,350)"/>
<path d="M0 0 C0.66 0 1.32 0 2 0 C2 2.31 2 4.62 2 7 C1.01 7 0.02 7 -1 7 C-1.04254356 5.00045254 -1.04080783 2.99958364 -1 1 C-0.67 0.67 -0.34 0.34 0 0 Z " fill="#F9FAEF" transform="translate(372,351)"/>
<path d="M0 0 C0.99 0 1.98 0 3 0 C3.144375 1.11375 3.28875 2.2275 3.4375 3.375 C3.78372035 6.82142047 3.78372035 6.82142047 5 9 C3.68 8.67 2.36 8.34 1 8 C0.67 5.36 0.34 2.72 0 0 Z " fill="#A79696" transform="translate(684,350)"/>
<path d="M0 0 C0.99 0 1.98 0 3 0 C3.144375 1.11375 3.28875 2.2275 3.4375 3.375 C3.78372035 6.82142047 3.78372035 6.82142047 5 9 C3.68 8.67 2.36 8.34 1 8 C0.67 5.36 0.34 2.72 0 0 Z " fill="#A79696" transform="translate(530,350)"/>
<path d="M0 0 C0.66 0 1.32 0 2 0 C2 1.98 2 3.96 2 6 C2.66 5.67 3.32 5.34 4 5 C4 3.35 4 1.7 4 0 C4.66 0 5.32 0 6 0 C6.38133299 1.9914056 6.71325582 3.99279077 7 6 C6 7 6 7 3.4375 7.0625 C2.2309375 7.0315625 2.2309375 7.0315625 1 7 C0.67 4.69 0.34 2.38 0 0 Z " fill="#9E9BA9" transform="translate(318,265)"/>
<path d="M0 0 C1.98 0.495 1.98 0.495 4 1 C3.67 2.32 3.34 3.64 3 5 C1.68 4.67 0.36 4.34 -1 4 C-0.67 2.68 -0.34 1.36 0 0 Z " fill="#120A19" transform="translate(613,54)"/>
<path d="M0 0 C0.66 0 1.32 0 2 0 C2 2.31 2 4.62 2 7 C1.01 7 0.02 7 -1 7 C-1.04254356 5.00045254 -1.04080783 2.99958364 -1 1 C-0.67 0.67 -0.34 0.34 0 0 Z " fill="#F4FBFA" transform="translate(608,374)"/>
<path d="M0 0 C2.625 0.375 2.625 0.375 5 1 C4.67 1.66 4.34 2.32 4 3 C2.35 3 0.7 3 -1 3 C-1.33 4.32 -1.66 5.64 -2 7 C-2.125 4.625 -2.125 4.625 -2 2 C-1.34 1.34 -0.68 0.68 0 0 Z " fill="#C3B6B0" transform="translate(509,373)"/>
<path d="M0 0 C2.625 0.375 2.625 0.375 5 1 C4.67 1.66 4.34 2.32 4 3 C2.35 3 0.7 3 -1 3 C-1.33 4.32 -1.66 5.64 -2 7 C-2.125 4.625 -2.125 4.625 -2 2 C-1.34 1.34 -0.68 0.68 0 0 Z " fill="#C3B6B0" transform="translate(462,373)"/>
<path d="M0 0 C0.33 0 0.66 0 1 0 C1 2.64 1 5.28 1 8 C-0.32 8 -1.64 8 -3 8 C-1.125 2.25 -1.125 2.25 0 0 Z " fill="#F3F2E2" transform="translate(666,350)"/>
<path d="M0 0 C0.66 0 1.32 0 2 0 C2 2.31 2 4.62 2 7 C1.01 7 0.02 7 -1 7 C-1.04254356 5.00045254 -1.04080783 2.99958364 -1 1 C-0.67 0.67 -0.34 0.34 0 0 Z " fill="#EDFBFA" transform="translate(603,351)"/>
<path d="M0 0 C0.66 0 1.32 0 2 0 C2 2.31 2 4.62 2 7 C1.01 7 0.02 7 -1 7 C-1.04254356 5.00045254 -1.04080783 2.99958364 -1 1 C-0.67 0.67 -0.34 0.34 0 0 Z " fill="#F4FBFA" transform="translate(377,351)"/>
<path d="M0 0 C0.99 0 1.98 0 3 0 C3 2.97 3 5.94 3 9 C2.01 8.67 1.02 8.34 0 8 C0 5.36 0 2.72 0 0 Z " fill="#AC9896" transform="translate(689,350)"/>
<path d="M0 0 C0.99 0 1.98 0 3 0 C3 2.97 3 5.94 3 9 C2.01 8.67 1.02 8.34 0 8 C0 5.36 0 2.72 0 0 Z " fill="#AC9896" transform="translate(535,350)"/>
<path d="M0 0 C0.99 0 1.98 0 3 0 C3 2.97 3 5.94 3 9 C2.01 8.67 1.02 8.34 0 8 C0 5.36 0 2.72 0 0 Z " fill="#AC9896" transform="translate(476,350)"/>
<path d="M0 0 C2.625 0.375 2.625 0.375 5 1 C4.67 1.66 4.34 2.32 4 3 C2.35 3 0.7 3 -1 3 C-1.33 4.32 -1.66 5.64 -2 7 C-2.125 4.625 -2.125 4.625 -2 2 C-1.34 1.34 -0.68 0.68 0 0 Z " fill="#C3B6B0" transform="translate(635,350)"/>
<path d="M0 0 C-0.33 1.65 -0.66 3.3 -1 5 C-2.32 5 -3.64 5 -5 5 C-4.625 3.0625 -4.625 3.0625 -4 1 C-2 0 -2 0 0 0 Z " fill="#E1DDCD" transform="translate(311,240)"/>
<path d="M0 0 C0.99 0 1.98 0 3 0 C3 1.65 3 3.3 3 5 C1.68 5 0.36 5 -1 5 C-0.67 3.35 -0.34 1.7 0 0 Z " fill="#BBC1C4" transform="translate(388,377)"/>
<path d="M0 0 C1.70884005 1.62339805 3.37446717 3.29319053 5 5 C5 5.66 5 6.32 5 7 C3.35 7.33 1.7 7.66 0 8 C0 5.36 0 2.72 0 0 Z " fill="#F7F4E5" transform="translate(360,374)"/>
<path d="M0 0 C0.33 0 0.66 0 1 0 C1 1.65 1 3.3 1 5 C-0.98 5 -2.96 5 -5 5 C-5 4.01 -5 3.02 -5 2 C-3.35 2 -1.7 2 0 2 C0 1.34 0 0.68 0 0 Z " fill="#EFF8FA" transform="translate(359,375)"/>
<path d="M0 0 C1.65 0 3.3 0 5 0 C4.67 1.65 4.34 3.3 4 5 C2.68 4.34 1.36 3.68 0 3 C0 2.01 0 1.02 0 0 Z " fill="#C6D0D7" transform="translate(637,373)"/>
<path d="M0 0 C0.66 0.33 1.32 0.66 2 1 C2 2.98 2 4.96 2 7 C1.01 7 0.02 7 -1 7 C-1.04254356 5.00045254 -1.04080783 2.99958364 -1 1 C-0.67 0.67 -0.34 0.34 0 0 Z " fill="#FDFBEC" transform="translate(492,374)"/>
<path d="M0 0 C0.66 0 1.32 0 2 0 C2 2.31 2 4.62 2 7 C1.01 6.67 0.02 6.34 -1 6 C-1.042721 4.33388095 -1.04063832 2.66617115 -1 1 C-0.67 0.67 -0.34 0.34 0 0 Z " fill="#FCFCF9" transform="translate(472,374)"/>
<path d="M0 0 C0.66 0 1.32 0 2 0 C2 2.31 2 4.62 2 7 C1.01 6.67 0.02 6.34 -1 6 C-1.042721 4.33388095 -1.04063832 2.66617115 -1 1 C-0.67 0.67 -0.34 0.34 0 0 Z " fill="#FCFCF9" transform="translate(322,374)"/>
<path d="M0 0 C0.66 0 1.32 0 2 0 C2 2.31 2 4.62 2 7 C1.01 6.67 0.02 6.34 -1 6 C-1.042721 4.33388095 -1.04063832 2.66617115 -1 1 C-0.67 0.67 -0.34 0.34 0 0 Z " fill="#FCFCF9" transform="translate(560,351)"/>
<path d="M0 0 C0.66 0.33 1.32 0.66 2 1 C2 2.98 2 4.96 2 7 C1.01 7 0.02 7 -1 7 C-1.04254356 5.00045254 -1.04080783 2.99958364 -1 1 C-0.67 0.67 -0.34 0.34 0 0 Z " fill="#FDFBEC" transform="translate(440,351)"/>
<path d="M0 0 C0.66 0.33 1.32 0.66 2 1 C2 2.98 2 4.96 2 7 C1.01 7 0.02 7 -1 7 C-1.04254356 5.00045254 -1.04080783 2.99958364 -1 1 C-0.67 0.67 -0.34 0.34 0 0 Z " fill="#FDF6E7" transform="translate(363,351)"/>
<path d="M0 0 C0 2.31 0 4.62 0 7 C-0.99 7 -1.98 7 -3 7 C-3 5.02 -3 3.04 -3 1 C-1 0 -1 0 0 0 Z " fill="#E8F6FC" transform="translate(359,351)"/>
<path d="M0 0 C1.74627478 2.61941217 2.38722388 4.03824877 3 7 C1.35 7 -0.3 7 -2 7 C-1.34 4.69 -0.68 2.38 0 0 Z " fill="#D3DED3" transform="translate(362,159)"/>
<path d="M0 0 C1 2 1 2 1 5 C2.32 5.66 3.64 6.32 5 7 C3.34385343 7.38218767 1.67542976 7.71395102 0 8 C-1 7 -1 7 -1.125 4 C-1 1 -1 1 0 0 Z " fill="#9A969E" transform="translate(582,374)"/>
<path d="M0 0 C1.32 0.33 2.64 0.66 4 1 C4.66 3.31 5.32 5.62 6 8 C5.01 8.495 5.01 8.495 4 9 C2.68 6.03 1.36 3.06 0 0 Z " fill="#928C96" transform="translate(437,373)"/>
<path d="M0 0 C0.33 0 0.66 0 1 0 C1.103125 1.11375 1.20625 2.2275 1.3125 3.375 C1.539375 4.57125 1.76625 5.7675 2 7 C2.99 7.66 3.98 8.32 5 9 C4.01 9 3.02 9 2 9 C2 9.66 2 10.32 2 11 C1.34 11 0.68 11 0 11 C0 7.37 0 3.74 0 0 Z " fill="#8D898F" transform="translate(531,373)"/>
<path d="M0 0 C0.99 0 1.98 0 3 0 C3 1.98 3 3.96 3 6 C2.01 6 1.02 6 0 6 C0 4.02 0 2.04 0 0 Z " fill="#FBFBF9" transform="translate(533,375)"/>
<path d="M0 0 C0.99 0 1.98 0 3 0 C3 1.98 3 3.96 3 6 C2.01 6 1.02 6 0 6 C0 4.02 0 2.04 0 0 Z " fill="#FBFBF9" transform="translate(499,352)"/>
<path d="M0 0 C0.66 0.33 1.32 0.66 2 1 C2 2.32 2 3.64 2 5 C-0.64 5 -3.28 5 -6 5 C-6 4.67 -6 4.34 -6 4 C-4.35 4 -2.7 4 -1 4 C-0.67 2.68 -0.34 1.36 0 0 Z " fill="#00020A" transform="translate(536,64)"/>
<path d="M0 0 C0.66 0 1.32 0 2 0 C2.33 1.32 2.66 2.64 3 4 C1.68 4.33 0.36 4.66 -1 5 C-1 1 -1 1 0 0 Z " fill="#121124" transform="translate(584,63)"/>
<path d="M0 0 C0.99 0.33 1.98 0.66 3 1 C3 2.32 3 3.64 3 5 C1.68 5 0.36 5 -1 5 C-0.67 3.35 -0.34 1.7 0 0 Z " fill="#E9F8F9" transform="translate(531,63)"/>
<path d="M0 0 C2.0625 0.4375 2.0625 0.4375 4 1 C3.67 2.32 3.34 3.64 3 5 C2.01 4.67 1.02 4.34 0 4 C-0.33 3.01 -0.66 2.02 -1 1 C-0.67 0.67 -0.34 0.34 0 0 Z " fill="#1A121E" transform="translate(466,62)"/>
<path d="M0 0 C1.98 0 3.96 0 6 0 C6 0.99 6 1.98 6 3 C4.35 3 2.7 3 1 3 C0.67 2.01 0.34 1.02 0 0 Z " fill="#EDF3F6" transform="translate(610,354)"/>
<path d="M0 0 C0.99 0.33 1.98 0.66 3 1 C3 2.32 3 3.64 3 5 C1.68 4.67 0.36 4.34 -1 4 C-0.67 2.68 -0.34 1.36 0 0 Z " fill="#DBE6DC" transform="translate(387,326)"/>
<path d="M0 0 C0 1.65 0 3.3 0 5 C-0.33 3.68 -0.66 2.36 -1 1 C-1.99 1 -2.98 1 -4 1 C-4.33 1.99 -4.66 2.98 -5 4 C-5.66 4 -6.32 4 -7 4 C-7 3.01 -7 2.02 -7 1 C-4.53721199 -0.231394 -2.7204945 -0.07159196 0 0 Z " fill="#4B342A" transform="translate(311,234)"/>
<path d="M0 0 C2.31 0 4.62 0 7 0 C6.01 0.495 6.01 0.495 5 1 C5 1.66 5 2.32 5 3 C3.35 3 1.7 3 0 3 C0 2.01 0 1.02 0 0 Z " fill="#F5F6F0" transform="translate(399,167)"/>
</svg>
