<svg width="800" height="500" viewBox="0 0 800 500" xmlns="http://www.w3.org/2000/svg">
  <defs>
    <linearGradient id="g" x1="0%" y1="0%" x2="100%" y2="100%">
      <stop offset="0%" stop-color="#0a1e0a"/>
      <stop offset="100%" stop-color="#040f04"/>
    </linearGradient>
    <linearGradient id="bar" x1="0%" y1="0%" x2="100%" y2="0%">
      <stop offset="0%" stop-color="#4ade80" stop-opacity="0.9"/>
      <stop offset="100%" stop-color="#16a34a" stop-opacity="0.7"/>
    </linearGradient>
    <clipPath id="clip"><rect width="800" height="500" rx="0"/></clipPath>
  </defs>

  <!-- Background -->
  <rect width="800" height="500" fill="url(#g)" clip-path="url(#clip)"/>

  <!-- Subtle glow behind center -->
  <ellipse cx="400" cy="220" rx="280" ry="160" fill="#4ade80" opacity="0.04"/>

  <!-- Editor window -->
  <rect x="32" y="32" width="736" height="348" rx="12" fill="rgba(0,0,0,0.45)"/>

  <!-- Title bar -->
  <rect x="32" y="32" width="736" height="38" rx="12" fill="#071407"/>
  <rect x="32" y="56" width="736" height="14" fill="#071407"/>

  <!-- Traffic lights -->
  <circle cx="62"  cy="51" r="7" fill="#ff5f57" opacity="0.95"/>
  <circle cx="88"  cy="51" r="7" fill="#febc2e" opacity="0.95"/>
  <circle cx="114" cy="51" r="7" fill="#28c840" opacity="0.95"/>

  <!-- Tab/filename -->
  <rect x="140" y="38" width="160" height="26" rx="5" fill="rgba(255,255,255,0.07)"/>
  <text x="160" y="55" fill="rgba(255,255,255,0.55)" font-size="11" font-family="monospace">digital-vision-board.html</text>

  <!-- Gutter -->
  <rect x="32" y="70" width="52" height="310" fill="rgba(0,0,0,0.2)"/>

  <!-- Code lines -->
  <text x="52" y="92" text-anchor="end" fill="rgba(255,255,255,0.15)" font-size="10" font-family="monospace">1</text>
  <rect x="80" y="82" width="575" height="13" rx="2" fill="rgba(255,255,255,0.09536968878362553)" opacity="1"/>
  <rect x="667" y="82" width="74" height="13" rx="2" fill="rgba(255,255,255,0.07564607762630239)" opacity="0.6"/>
  <text x="52" y="110" text-anchor="end" fill="rgba(255,255,255,0.15)" font-size="10" font-family="monospace">2</text>
  <rect x="100" y="100" width="149" height="13" rx="2" fill="rgba(255,255,255,0.07675746577250712)" opacity="1"/>
  <text x="52" y="128" text-anchor="end" fill="rgba(255,255,255,0.15)" font-size="10" font-family="monospace">3</text>
  <rect x="100" y="118" width="333" height="13" rx="2" fill="rgba(255,255,255,0.08854005123221782)" opacity="1"/>
  <rect x="445" y="118" width="108" height="13" rx="2" fill="rgba(255,255,255,0.05855541759136958)" opacity="0.6"/>
  <text x="52" y="146" text-anchor="end" fill="rgba(255,255,255,0.15)" font-size="10" font-family="monospace">4</text>
  <rect x="80" y="136" width="313" height="13" rx="2" fill="#4ade80" opacity="0.55"/>
  <rect x="405" y="136" width="82" height="13" rx="2" fill="#16a34a" opacity="0.6"/>
  <text x="52" y="164" text-anchor="end" fill="rgba(255,255,255,0.15)" font-size="10" font-family="monospace">5</text>
  <rect x="60" y="154" width="625" height="13" rx="2" fill="rgba(255,255,255,0.1002379793394911)" opacity="1"/>
  <text x="52" y="182" text-anchor="end" fill="rgba(255,255,255,0.15)" font-size="10" font-family="monospace">6</text>
  <rect x="100" y="172" width="320" height="13" rx="2" fill="rgba(255,255,255,0.1185258684816132)" opacity="1"/>
  <text x="52" y="200" text-anchor="end" fill="rgba(255,255,255,0.15)" font-size="10" font-family="monospace">7</text>
  <rect x="100" y="190" width="162" height="13" rx="2" fill="rgba(255,255,255,0.0865390767591398)" opacity="1"/>
  <text x="52" y="218" text-anchor="end" fill="rgba(255,255,255,0.15)" font-size="10" font-family="monospace">8</text>
  <rect x="60" y="208" width="599" height="13" rx="2" fill="#4ade80" opacity="0.55"/>
  <rect x="671" y="208" width="45" height="13" rx="2" fill="#16a34a" opacity="0.6"/>
  <text x="52" y="236" text-anchor="end" fill="rgba(255,255,255,0.15)" font-size="10" font-family="monospace">9</text>
  <rect x="80" y="226" width="336" height="13" rx="2" fill="rgba(255,255,255,0.09538566785757097)" opacity="1"/>
  <text x="52" y="254" text-anchor="end" fill="rgba(255,255,255,0.15)" font-size="10" font-family="monospace">10</text>
  <rect x="80" y="244" width="319" height="13" rx="2" fill="rgba(255,255,255,0.07702666128450694)" opacity="1"/>
  <text x="52" y="272" text-anchor="end" fill="rgba(255,255,255,0.15)" font-size="10" font-family="monospace">11</text>
  <rect x="100" y="262" width="215" height="13" rx="2" fill="rgba(255,255,255,0.12961470219996168)" opacity="1"/>
  <rect x="327" y="262" width="85" height="13" rx="2" fill="rgba(255,255,255,0.05087960729163131)" opacity="0.6"/>
  <text x="52" y="290" text-anchor="end" fill="rgba(255,255,255,0.15)" font-size="10" font-family="monospace">12</text>
  <rect x="100" y="280" width="266" height="13" rx="2" fill="rgba(255,255,255,0.13982643848281037)" opacity="1"/>
  <text x="52" y="308" text-anchor="end" fill="rgba(255,255,255,0.15)" font-size="10" font-family="monospace">13</text>
  <rect x="60" y="298" width="422" height="13" rx="2" fill="rgba(255,255,255,0.11216710967295038)" opacity="1"/>
  <text x="52" y="326" text-anchor="end" fill="rgba(255,255,255,0.15)" font-size="10" font-family="monospace">14</text>
  <rect x="60" y="316" width="230" height="13" rx="2" fill="rgba(255,255,255,0.10127854068793322)" opacity="1"/>
  <rect x="302" y="316" width="87" height="13" rx="2" fill="rgba(255,255,255,0.08266418698072997)" opacity="0.6"/>

  <!-- Big dimmed project name in center -->
  <text x="400" y="295" text-anchor="middle" fill="rgba(255,255,255,0.05)" font-size="52" font-weight="900" font-family="system-ui,sans-serif" letter-spacing="-2">Digital Vision Board</text>

  <!-- Bottom info bar -->
  <rect x="0" y="400" width="800" height="100" fill="rgba(0,0,0,0.55)"/>

  <!-- Accent line -->
  <rect x="0" y="400" width="800" height="3" fill="url(#bar)"/>

  <!-- Author initials circle -->
  <circle cx="72" cy="450" r="28" fill="#4ade80" opacity="0.18"/>
  <circle cx="72" cy="450" r="22" fill="#4ade80" opacity="0.22"/>
  <text x="72" y="456" text-anchor="middle" fill="#4ade80" font-size="15" font-weight="800" font-family="system-ui,sans-serif">M</text>

  <!-- Project name -->
  <text x="112" y="440" fill="rgba(255,255,255,0.92)" font-size="17" font-weight="800" font-family="system-ui,sans-serif" letter-spacing="-0.5">Digital Vision Board</text>

  <!-- Tag pills -->
  <rect x="112" y="455" width="100" height="20" rx="10" fill="#4ade80" opacity="0.22"/>
  <text x="162" y="469" text-anchor="middle" fill="#4ade80" font-size="10" font-weight="700" font-family="system-ui,sans-serif">PRODUCTIVITY</text>

  <rect x="218" y="455" width="72" height="20" rx="10" fill="rgba(255,255,255,0.08)"/>
  <text x="254" y="469" text-anchor="middle" fill="rgba(255,255,255,0.5)" font-size="10" font-weight="600" font-family="system-ui,sans-serif">FRONTEND</text>

  <rect x="296" y="455" width="86" height="20" rx="10" fill="rgba(255,255,255,0.06)"/>
  <text x="339" y="469" text-anchor="middle" fill="rgba(255,255,255,0.35)" font-size="10" font-weight="600" font-family="system-ui,sans-serif">JAVASCRIPT</text>
</svg>