<svg xmlns="http://www.w3.org/2000/svg" viewBox="0 0 400 400" width="400" height="400">
<rect width="400" height="400" fill="#f4f7f5" rx="8"/>
<g stroke="#e2ebd9" stroke-width="0.5" opacity="0.4">
<line x1="40" y1="40" x2="40" y2="360"/>
<line x1="40" y1="200" x2="360" y2="200"/>
<line x1="40" y1="360" x2="360" y2="360"/>
<line x1="200" y1="40" x2="200" y2="360"/>
<line x1="360" y1="40" x2="360" y2="360"/>
</g>
<circle cx="200" cy="50" r="4" fill="#1b3a24"/>
<line x1="200" y1="50" x2="160" y2="160" stroke="#1b3a24" stroke-width="3" stroke-linecap="round"/>
<circle cx="160" cy="160" r="8" fill="#81c784" stroke="#1b3a24" stroke-width="1.5"/>
<line x1="160" y1="160" x2="220" y2="260" stroke="#2e7d32" stroke-width="2.5" stroke-linecap="round"/>
<circle cx="220" cy="260" r="6" fill="#4caf50" stroke="#2e7d32" stroke-width="1.5"/>
<path d="M 235 270 C 260 310, 290 340, 330 355 C 315 330, 285 295, 270 260 C 255 230, 250 200, 265 170 C 280 145, 305 130, 340 125" fill="none" stroke="#a5d6a7" stroke-width="2" stroke-linecap="round" opacity="0.7"/>
<path d="M 235 275 C 250 300, 260 315, 240 330 C 230 340, 210 345, 195 340 C 175 335, 165 315, 175 295 C 185 280, 210 270, 235 275" fill="none" stroke="#81c784" stroke-width="1.5" stroke-linecap="round" opacity="0.4"/>
<path d="M 220 260 C 195 280, 170 295, 145 290 C 125 285, 115 270, 120 250 C 128 230, 155 220, 175 230 C 190 238, 210 250, 220 260" fill="none" stroke="#4caf50" stroke-width="1.2" stroke-linecap="round" opacity="0.3"/>
<text x="120" y="380" font-family="system-ui, sans-serif" font-size="10" fill="#1b3a24" font-weight="700" letter-spacing="1.5">DOUBLE PENDULUM</text>
<text x="155" y="393" font-family="system-ui, sans-serif" font-size="8" fill="#557a61" letter-spacing="0.8">CHAOS SIMULATOR</text>
<rect x="38" y="38" width="324" height="360" fill="none" stroke="#e2ebd9" stroke-width="1" rx="4"/>
</svg>
