<svg width="800" height="500" viewBox="0 0 800 500" xmlns="http://www.w3.org/2000/svg">
  <defs>
    <linearGradient id="g" x1="0%" y1="0%" x2="100%" y2="100%">
      <stop offset="0%" stop-color="#0a1829"/>
      <stop offset="100%" stop-color="#050f1a"/>
    </linearGradient>
    <linearGradient id="bar" x1="0%" y1="0%" x2="100%" y2="0%">
      <stop offset="0%" stop-color="#60a5fa" stop-opacity="0.9"/>
      <stop offset="100%" stop-color="#2563eb" stop-opacity="0.7"/>
    </linearGradient>
    <clipPath id="clip"><rect width="800" height="500" rx="0"/></clipPath>
  </defs>

  <!-- Background -->
  <rect width="800" height="500" fill="url(#g)" clip-path="url(#clip)"/>

  <!-- Subtle glow behind center -->
  <ellipse cx="400" cy="220" rx="280" ry="160" fill="#60a5fa" opacity="0.04"/>

  <!-- Editor window -->
  <rect x="32" y="32" width="736" height="348" rx="12" fill="rgba(0,0,0,0.45)"/>

  <!-- Title bar -->
  <rect x="32" y="32" width="736" height="38" rx="12" fill="#070d1a"/>
  <rect x="32" y="56" width="736" height="14" fill="#070d1a"/>

  <!-- Traffic lights -->
  <circle cx="62"  cy="51" r="7" fill="#ff5f57" opacity="0.95"/>
  <circle cx="88"  cy="51" r="7" fill="#febc2e" opacity="0.95"/>
  <circle cx="114" cy="51" r="7" fill="#28c840" opacity="0.95"/>

  <!-- Tab/filename -->
  <rect x="140" y="38" width="160" height="26" rx="5" fill="rgba(255,255,255,0.07)"/>
  <text x="160" y="55" fill="rgba(255,255,255,0.55)" font-size="11" font-family="monospace">habit-tracker.html</text>

  <!-- Gutter -->
  <rect x="32" y="70" width="52" height="310" fill="rgba(0,0,0,0.2)"/>

  <!-- Code lines -->
  <text x="52" y="92" text-anchor="end" fill="rgba(255,255,255,0.15)" font-size="10" font-family="monospace">1</text>
  <rect x="60" y="82" width="261" height="13" rx="2" fill="rgba(255,255,255,0.13272935461083646)" opacity="1"/>
  <text x="52" y="110" text-anchor="end" fill="rgba(255,255,255,0.15)" font-size="10" font-family="monospace">2</text>
  <rect x="80" y="100" width="489" height="13" rx="2" fill="rgba(255,255,255,0.1152641208784804)" opacity="1"/>
  <rect x="581" y="100" width="34" height="13" rx="2" fill="rgba(255,255,255,0.04392636887354925)" opacity="0.6"/>
  <text x="52" y="128" text-anchor="end" fill="rgba(255,255,255,0.15)" font-size="10" font-family="monospace">3</text>
  <rect x="60" y="118" width="419" height="13" rx="2" fill="rgba(255,255,255,0.13415998533232137)" opacity="1"/>
  <rect x="491" y="118" width="54" height="13" rx="2" fill="rgba(255,255,255,0.06500047567882586)" opacity="0.6"/>
  <text x="52" y="146" text-anchor="end" fill="rgba(255,255,255,0.15)" font-size="10" font-family="monospace">4</text>
  <rect x="80" y="136" width="640" height="13" rx="2" fill="#60a5fa" opacity="0.55"/>
  <text x="52" y="164" text-anchor="end" fill="rgba(255,255,255,0.15)" font-size="10" font-family="monospace">5</text>
  <rect x="80" y="154" width="90" height="13" rx="2" fill="rgba(255,255,255,0.07200433142762731)" opacity="1"/>
  <text x="52" y="182" text-anchor="end" fill="rgba(255,255,255,0.15)" font-size="10" font-family="monospace">6</text>
  <rect x="80" y="172" width="396" height="13" rx="2" fill="rgba(255,255,255,0.11302574263257574)" opacity="1"/>
  <rect x="488" y="172" width="82" height="13" rx="2" fill="rgba(255,255,255,0.08674355836975006)" opacity="0.6"/>
  <text x="52" y="200" text-anchor="end" fill="rgba(255,255,255,0.15)" font-size="10" font-family="monospace">7</text>
  <rect x="80" y="190" width="133" height="13" rx="2" fill="rgba(255,255,255,0.13171241281361143)" opacity="1"/>
  <text x="52" y="218" text-anchor="end" fill="rgba(255,255,255,0.15)" font-size="10" font-family="monospace">8</text>
  <rect x="60" y="208" width="600" height="13" rx="2" fill="rgba(255,255,255,0.10864871639028395)" opacity="1"/>
  <rect x="672" y="208" width="60" height="13" rx="2" fill="rgba(255,255,255,0.04832218646731279)" opacity="0.6"/>
  <text x="52" y="236" text-anchor="end" fill="rgba(255,255,255,0.15)" font-size="10" font-family="monospace">9</text>
  <rect x="100" y="226" width="546" height="13" rx="2" fill="rgba(255,255,255,0.10383707179777257)" opacity="1"/>
  <text x="52" y="254" text-anchor="end" fill="rgba(255,255,255,0.15)" font-size="10" font-family="monospace">10</text>
  <rect x="60" y="244" width="588" height="13" rx="2" fill="rgba(255,255,255,0.12530655108050132)" opacity="1"/>
  <text x="52" y="272" text-anchor="end" fill="rgba(255,255,255,0.15)" font-size="10" font-family="monospace">11</text>
  <rect x="60" y="262" width="483" height="13" rx="2" fill="rgba(255,255,255,0.11782499700268381)" opacity="1"/>
  <rect x="555" y="262" width="31" height="13" rx="2" fill="rgba(255,255,255,0.07811755595684927)" opacity="0.6"/>
  <text x="52" y="290" text-anchor="end" fill="rgba(255,255,255,0.15)" font-size="10" font-family="monospace">12</text>
  <rect x="100" y="280" width="542" height="13" rx="2" fill="#60a5fa" opacity="0.55"/>
  <rect x="654" y="280" width="49" height="13" rx="2" fill="#2563eb" opacity="0.6"/>
  <text x="52" y="308" text-anchor="end" fill="rgba(255,255,255,0.15)" font-size="10" font-family="monospace">13</text>
  <rect x="60" y="298" width="440" height="13" rx="2" fill="rgba(255,255,255,0.13084593558470858)" opacity="1"/>
  <rect x="512" y="298" width="32" height="13" rx="2" fill="rgba(255,255,255,0.08218140065022311)" opacity="0.6"/>
  <text x="52" y="326" text-anchor="end" fill="rgba(255,255,255,0.15)" font-size="10" font-family="monospace">14</text>
  <rect x="60" y="316" width="301" height="13" rx="2" fill="rgba(255,255,255,0.11187588070795776)" opacity="1"/>
  <rect x="373" y="316" width="71" height="13" rx="2" fill="rgba(255,255,255,0.08066270147232868)" opacity="0.6"/>

  <!-- Big dimmed project name in center -->
  <text x="400" y="295" text-anchor="middle" fill="rgba(255,255,255,0.05)" font-size="52" font-weight="900" font-family="system-ui,sans-serif" letter-spacing="-2">Habit Tracker</text>

  <!-- Bottom info bar -->
  <rect x="0" y="400" width="800" height="100" fill="rgba(0,0,0,0.55)"/>

  <!-- Accent line -->
  <rect x="0" y="400" width="800" height="3" fill="url(#bar)"/>

  <!-- Author initials circle -->
  <circle cx="72" cy="450" r="28" fill="#60a5fa" opacity="0.18"/>
  <circle cx="72" cy="450" r="22" fill="#60a5fa" opacity="0.22"/>
  <text x="72" y="456" text-anchor="middle" fill="#60a5fa" font-size="15" font-weight="800" font-family="system-ui,sans-serif">AK</text>

  <!-- Project name -->
  <text x="112" y="440" fill="rgba(255,255,255,0.92)" font-size="17" font-weight="800" font-family="system-ui,sans-serif" letter-spacing="-0.5">Habit Tracker</text>

  <!-- Tag pills -->
  <rect x="112" y="455" width="107" height="20" rx="10" fill="#60a5fa" opacity="0.22"/>
  <text x="165.5" y="469" text-anchor="middle" fill="#60a5fa" font-size="10" font-weight="700" font-family="system-ui,sans-serif">RESPONSIVE UI</text>

  <rect x="225" y="455" width="107" height="20" rx="10" fill="rgba(255,255,255,0.08)"/>
  <text x="278.5" y="469" text-anchor="middle" fill="rgba(255,255,255,0.5)" font-size="10" font-weight="600" font-family="system-ui,sans-serif">LOCAL STORAGE</text>

  <rect x="338" y="455" width="79" height="20" rx="10" fill="rgba(255,255,255,0.06)"/>
  <text x="377.5" y="469" text-anchor="middle" fill="rgba(255,255,255,0.35)" font-size="10" font-weight="600" font-family="system-ui,sans-serif">DARK MODE</text>
</svg>