<svg xmlns="http://www.w3.org/2000/svg" viewBox="0 0 400 300" width="400" height="300">
  <defs>
    <linearGradient id="bg" x1="0" y1="0" x2="1" y2="1">
      <stop offset="0%" stop-color="#070a13"/>
      <stop offset="100%" stop-color="#111827"/>
    </linearGradient>
    <linearGradient id="accent" x1="0" y1="0" x2="1" y2="0">
      <stop offset="0%" stop-color="#3b82f6"/>
      <stop offset="100%" stop-color="#10b981"/>
    </linearGradient>
  </defs>
  <rect width="400" height="300" fill="url(#bg)" rx="8"/>
  <rect x="20" y="20" width="172" height="200" fill="#0f172a" stroke="#1f2937" stroke-width="1.5" rx="6"/>
  <rect x="208" y="20" width="172" height="200" fill="#0f172a" stroke="#1f2937" stroke-width="1.5" rx="6"/>
  <rect x="195" y="20" width="10" height="200" fill="#1f2937" rx="2"/>
  <circle cx="70" cy="80" r="28" fill="none" stroke="#3b82f6" stroke-width="2"/>
  <rect x="130" y="100" width="35" height="35" fill="none" stroke="#f59e0b" stroke-width="2" rx="4" transform="rotate(25 147 117)"/>
  <polygon points="60,160 85,140 110,160 100,190 70,190" fill="none" stroke="#8b5cf6" stroke-width="2"/>
  <circle cx="250" cy="80" r="25" fill="none" stroke="#10b981" stroke-width="2"/>
  <circle cx="250" cy="80" r="12" fill="none" stroke="#10b981" stroke-width="1.5"/>
  <rect x="310" y="100" width="35" height="35" fill="none" stroke="#f59e0b" stroke-width="2" rx="4" transform="rotate(65 327 117)"/>
  <polygon points="240,160 265,140 290,160 280,190 250,190" fill="none" stroke="#ef4444" stroke-width="2"/>
  <text x="106" y="240" font-family="ui-monospace,Consolas,monospace" font-size="8" fill="#4b5563" text-anchor="middle" letter-spacing="1">SOURCE MATRIX</text>
  <text x="294" y="240" font-family="ui-monospace,Consolas,monospace" font-size="8" fill="#4b5563" text-anchor="middle" letter-spacing="1">REPLICA MATRIX</text>
  <line x1="20" y1="258" x2="380" y2="258" stroke="#1f2937" stroke-width="1"/>
  <text x="200" y="280" font-family="ui-monospace,Consolas,monospace" font-size="13" fill="#f8fafc" text-anchor="middle" font-weight="700" letter-spacing="1.5">HIDDEN DIFFERENCE</text>
  <text x="200" y="294" font-family="ui-monospace,Consolas,monospace" font-size="9" fill="#94a3b8" text-anchor="middle" letter-spacing="0.8">// Visual Verification Deck</text>
</svg>
