<svg width="800" height="500" viewBox="0 0 800 500" xmlns="http://www.w3.org/2000/svg">
  <defs>
    <linearGradient id="g" x1="0%" y1="0%" x2="100%" y2="100%">
      <stop offset="0%" stop-color="#1e1600"/>
      <stop offset="100%" stop-color="#120e00"/>
    </linearGradient>
    <linearGradient id="bar" x1="0%" y1="0%" x2="100%" y2="0%">
      <stop offset="0%" stop-color="#fcd34d" stop-opacity="0.9"/>
      <stop offset="100%" stop-color="#d97706" stop-opacity="0.7"/>
    </linearGradient>
    <clipPath id="clip"><rect width="800" height="500" rx="0"/></clipPath>
  </defs>

  <!-- Background -->
  <rect width="800" height="500" fill="url(#g)" clip-path="url(#clip)"/>

  <!-- Subtle glow behind center -->
  <ellipse cx="400" cy="220" rx="280" ry="160" fill="#fcd34d" opacity="0.04"/>

  <!-- Editor window -->
  <rect x="32" y="32" width="736" height="348" rx="12" fill="rgba(0,0,0,0.45)"/>

  <!-- Title bar -->
  <rect x="32" y="32" width="736" height="38" rx="12" fill="#150f00"/>
  <rect x="32" y="56" width="736" height="14" fill="#150f00"/>

  <!-- Traffic lights -->
  <circle cx="62"  cy="51" r="7" fill="#ff5f57" opacity="0.95"/>
  <circle cx="88"  cy="51" r="7" fill="#febc2e" opacity="0.95"/>
  <circle cx="114" cy="51" r="7" fill="#28c840" opacity="0.95"/>

  <!-- Tab/filename -->
  <rect x="140" y="38" width="160" height="26" rx="5" fill="rgba(255,255,255,0.07)"/>
  <text x="160" y="55" fill="rgba(255,255,255,0.55)" font-size="11" font-family="monospace">interview-preparation.html</text>

  <!-- Gutter -->
  <rect x="32" y="70" width="52" height="310" fill="rgba(0,0,0,0.2)"/>

  <!-- Code lines -->
  <text x="52" y="92" text-anchor="end" fill="rgba(255,255,255,0.15)" font-size="10" font-family="monospace">1</text>
  <rect x="60" y="82" width="298" height="13" rx="2" fill="rgba(255,255,255,0.11770582351314506)" opacity="1"/>
  <text x="52" y="110" text-anchor="end" fill="rgba(255,255,255,0.15)" font-size="10" font-family="monospace">2</text>
  <rect x="60" y="100" width="593" height="13" rx="2" fill="rgba(255,255,255,0.07087884942322942)" opacity="1"/>
  <rect x="665" y="100" width="51" height="13" rx="2" fill="rgba(255,255,255,0.048077887098323065)" opacity="0.6"/>
  <text x="52" y="128" text-anchor="end" fill="rgba(255,255,255,0.15)" font-size="10" font-family="monospace">3</text>
  <rect x="60" y="118" width="168" height="13" rx="2" fill="rgba(255,255,255,0.11107381678444189)" opacity="1"/>
  <rect x="240" y="118" width="105" height="13" rx="2" fill="rgba(255,255,255,0.07155204086367788)" opacity="0.6"/>
  <text x="52" y="146" text-anchor="end" fill="rgba(255,255,255,0.15)" font-size="10" font-family="monospace">4</text>
  <rect x="80" y="136" width="229" height="13" rx="2" fill="#fcd34d" opacity="0.55"/>
  <text x="52" y="164" text-anchor="end" fill="rgba(255,255,255,0.15)" font-size="10" font-family="monospace">5</text>
  <rect x="60" y="154" width="350" height="13" rx="2" fill="rgba(255,255,255,0.10378662894568094)" opacity="1"/>
  <text x="52" y="182" text-anchor="end" fill="rgba(255,255,255,0.15)" font-size="10" font-family="monospace">6</text>
  <rect x="100" y="172" width="547" height="13" rx="2" fill="rgba(255,255,255,0.11482561427513735)" opacity="1"/>
  <text x="52" y="200" text-anchor="end" fill="rgba(255,255,255,0.15)" font-size="10" font-family="monospace">7</text>
  <rect x="60" y="190" width="329" height="13" rx="2" fill="rgba(255,255,255,0.13485839085533713)" opacity="1"/>
  <text x="52" y="218" text-anchor="end" fill="rgba(255,255,255,0.15)" font-size="10" font-family="monospace">8</text>
  <rect x="100" y="208" width="283" height="13" rx="2" fill="#fcd34d" opacity="0.55"/>
  <rect x="395" y="208" width="60" height="13" rx="2" fill="#d97706" opacity="0.6"/>
  <text x="52" y="236" text-anchor="end" fill="rgba(255,255,255,0.15)" font-size="10" font-family="monospace">9</text>
  <rect x="100" y="226" width="502" height="13" rx="2" fill="rgba(255,255,255,0.07291322319137705)" opacity="1"/>
  <text x="52" y="254" text-anchor="end" fill="rgba(255,255,255,0.15)" font-size="10" font-family="monospace">10</text>
  <rect x="60" y="244" width="470" height="13" rx="2" fill="rgba(255,255,255,0.0747803202864668)" opacity="1"/>
  <rect x="542" y="244" width="104" height="13" rx="2" fill="rgba(255,255,255,0.05789239859625055)" opacity="0.6"/>
  <text x="52" y="272" text-anchor="end" fill="rgba(255,255,255,0.15)" font-size="10" font-family="monospace">11</text>
  <rect x="60" y="262" width="144" height="13" rx="2" fill="rgba(255,255,255,0.10102164271311406)" opacity="1"/>
  <rect x="216" y="262" width="98" height="13" rx="2" fill="rgba(255,255,255,0.06334024755361961)" opacity="0.6"/>
  <text x="52" y="290" text-anchor="end" fill="rgba(255,255,255,0.15)" font-size="10" font-family="monospace">12</text>
  <rect x="100" y="280" width="264" height="13" rx="2" fill="rgba(255,255,255,0.12424653803562898)" opacity="1"/>
  <rect x="376" y="280" width="36" height="13" rx="2" fill="rgba(255,255,255,0.08703559544799747)" opacity="0.6"/>
  <text x="52" y="308" text-anchor="end" fill="rgba(255,255,255,0.15)" font-size="10" font-family="monospace">13</text>
  <rect x="100" y="298" width="112" height="13" rx="2" fill="rgba(255,255,255,0.1053133346245888)" opacity="1"/>
  <rect x="224" y="298" width="50" height="13" rx="2" fill="rgba(255,255,255,0.07111660053979527)" opacity="0.6"/>
  <text x="52" y="326" text-anchor="end" fill="rgba(255,255,255,0.15)" font-size="10" font-family="monospace">14</text>
  <rect x="80" y="316" width="127" height="13" rx="2" fill="rgba(255,255,255,0.1268396916768606)" opacity="1"/>

  <!-- Big dimmed project name in center -->
  <text x="400" y="295" text-anchor="middle" fill="rgba(255,255,255,0.05)" font-size="52" font-weight="900" font-family="system-ui,sans-serif" letter-spacing="-2">Interview Preparation</text>

  <!-- Bottom info bar -->
  <rect x="0" y="400" width="800" height="100" fill="rgba(0,0,0,0.55)"/>

  <!-- Accent line -->
  <rect x="0" y="400" width="800" height="3" fill="url(#bar)"/>

  <!-- Author initials circle -->
  <circle cx="72" cy="450" r="28" fill="#fcd34d" opacity="0.18"/>
  <circle cx="72" cy="450" r="22" fill="#fcd34d" opacity="0.22"/>
  <text x="72" y="456" text-anchor="middle" fill="#fcd34d" font-size="15" font-weight="800" font-family="system-ui,sans-serif">AR</text>

  <!-- Project name -->
  <text x="112" y="440" fill="rgba(255,255,255,0.92)" font-size="17" font-weight="800" font-family="system-ui,sans-serif" letter-spacing="-0.5">Interview Preparation</text>

  <!-- Tag pills -->
  <rect x="112" y="455" width="79" height="20" rx="10" fill="#fcd34d" opacity="0.22"/>
  <text x="151.5" y="469" text-anchor="middle" fill="#fcd34d" font-size="10" font-weight="700" font-family="system-ui,sans-serif">INTERVIEW</text>

  <rect x="197" y="455" width="79" height="20" rx="10" fill="rgba(255,255,255,0.08)"/>
  <text x="236.5" y="469" text-anchor="middle" fill="rgba(255,255,255,0.5)" font-size="10" font-weight="600" font-family="system-ui,sans-serif">EDUCATION</text>

  <rect x="282" y="455" width="100" height="20" rx="10" fill="rgba(255,255,255,0.06)"/>
  <text x="332" y="469" text-anchor="middle" fill="rgba(255,255,255,0.35)" font-size="10" font-weight="600" font-family="system-ui,sans-serif">PRODUCTIVITY</text>
</svg>