<svg width="800" height="500" viewBox="0 0 800 500" xmlns="http://www.w3.org/2000/svg">
  <defs>
    <linearGradient id="g" x1="0%" y1="0%" x2="100%" y2="100%">
      <stop offset="0%" stop-color="#0c0a1e"/>
      <stop offset="100%" stop-color="#06051a"/>
    </linearGradient>
    <linearGradient id="bar" x1="0%" y1="0%" x2="100%" y2="0%">
      <stop offset="0%" stop-color="#a5b4fc" stop-opacity="0.9"/>
      <stop offset="100%" stop-color="#6366f1" stop-opacity="0.7"/>
    </linearGradient>
    <clipPath id="clip"><rect width="800" height="500" rx="0"/></clipPath>
  </defs>

  <!-- Background -->
  <rect width="800" height="500" fill="url(#g)" clip-path="url(#clip)"/>

  <!-- Subtle glow behind center -->
  <ellipse cx="400" cy="220" rx="280" ry="160" fill="#a5b4fc" opacity="0.04"/>

  <!-- Editor window -->
  <rect x="32" y="32" width="736" height="348" rx="12" fill="rgba(0,0,0,0.45)"/>

  <!-- Title bar -->
  <rect x="32" y="32" width="736" height="38" rx="12" fill="#080715"/>
  <rect x="32" y="56" width="736" height="14" fill="#080715"/>

  <!-- Traffic lights -->
  <circle cx="62"  cy="51" r="7" fill="#ff5f57" opacity="0.95"/>
  <circle cx="88"  cy="51" r="7" fill="#febc2e" opacity="0.95"/>
  <circle cx="114" cy="51" r="7" fill="#28c840" opacity="0.95"/>

  <!-- Tab/filename -->
  <rect x="140" y="38" width="160" height="26" rx="5" fill="rgba(255,255,255,0.07)"/>
  <text x="160" y="55" fill="rgba(255,255,255,0.55)" font-size="11" font-family="monospace">interactive-typography-playground.html</text>

  <!-- Gutter -->
  <rect x="32" y="70" width="52" height="310" fill="rgba(0,0,0,0.2)"/>

  <!-- Code lines -->
  <text x="52" y="92" text-anchor="end" fill="rgba(255,255,255,0.15)" font-size="10" font-family="monospace">1</text>
  <rect x="60" y="82" width="144" height="13" rx="2" fill="rgba(255,255,255,0.07051336711517381)" opacity="1"/>
  <text x="52" y="110" text-anchor="end" fill="rgba(255,255,255,0.15)" font-size="10" font-family="monospace">2</text>
  <rect x="100" y="100" width="183" height="13" rx="2" fill="rgba(255,255,255,0.12206171407877973)" opacity="1"/>
  <text x="52" y="128" text-anchor="end" fill="rgba(255,255,255,0.15)" font-size="10" font-family="monospace">3</text>
  <rect x="100" y="118" width="207" height="13" rx="2" fill="rgba(255,255,255,0.1292316099231205)" opacity="1"/>
  <text x="52" y="146" text-anchor="end" fill="rgba(255,255,255,0.15)" font-size="10" font-family="monospace">4</text>
  <rect x="80" y="136" width="597" height="13" rx="2" fill="rgba(255,255,255,0.09890927498203453)" opacity="1"/>
  <text x="52" y="164" text-anchor="end" fill="rgba(255,255,255,0.15)" font-size="10" font-family="monospace">5</text>
  <rect x="100" y="154" width="239" height="13" rx="2" fill="rgba(255,255,255,0.07738412242787521)" opacity="1"/>
  <text x="52" y="182" text-anchor="end" fill="rgba(255,255,255,0.15)" font-size="10" font-family="monospace">6</text>
  <rect x="60" y="172" width="228" height="13" rx="2" fill="rgba(255,255,255,0.12097308298129894)" opacity="1"/>
  <text x="52" y="200" text-anchor="end" fill="rgba(255,255,255,0.15)" font-size="10" font-family="monospace">7</text>
  <rect x="80" y="190" width="94" height="13" rx="2" fill="rgba(255,255,255,0.07469090041115202)" opacity="1"/>
  <text x="52" y="218" text-anchor="end" fill="rgba(255,255,255,0.15)" font-size="10" font-family="monospace">8</text>
  <rect x="60" y="208" width="171" height="13" rx="2" fill="#a5b4fc" opacity="0.55"/>
  <text x="52" y="236" text-anchor="end" fill="rgba(255,255,255,0.15)" font-size="10" font-family="monospace">9</text>
  <rect x="60" y="226" width="170" height="13" rx="2" fill="rgba(255,255,255,0.1200821520155487)" opacity="1"/>
  <text x="52" y="254" text-anchor="end" fill="rgba(255,255,255,0.15)" font-size="10" font-family="monospace">10</text>
  <rect x="60" y="244" width="559" height="13" rx="2" fill="rgba(255,255,255,0.07389963675613972)" opacity="1"/>
  <rect x="631" y="244" width="81" height="13" rx="2" fill="rgba(255,255,255,0.07933316184890762)" opacity="0.6"/>
  <text x="52" y="272" text-anchor="end" fill="rgba(255,255,255,0.15)" font-size="10" font-family="monospace">11</text>
  <rect x="100" y="262" width="295" height="13" rx="2" fill="rgba(255,255,255,0.06219960361770345)" opacity="1"/>
  <text x="52" y="290" text-anchor="end" fill="rgba(255,255,255,0.15)" font-size="10" font-family="monospace">12</text>
  <rect x="100" y="280" width="547" height="13" rx="2" fill="rgba(255,255,255,0.06264589345144245)" opacity="1"/>
  <text x="52" y="308" text-anchor="end" fill="rgba(255,255,255,0.15)" font-size="10" font-family="monospace">13</text>
  <rect x="80" y="298" width="119" height="13" rx="2" fill="rgba(255,255,255,0.09213290675360078)" opacity="1"/>
  <rect x="211" y="298" width="94" height="13" rx="2" fill="rgba(255,255,255,0.04019067130055993)" opacity="0.6"/>
  <text x="52" y="326" text-anchor="end" fill="rgba(255,255,255,0.15)" font-size="10" font-family="monospace">14</text>
  <rect x="100" y="316" width="384" height="13" rx="2" fill="rgba(255,255,255,0.11171053420093621)" opacity="1"/>
  <rect x="496" y="316" width="81" height="13" rx="2" fill="rgba(255,255,255,0.08834085948493818)" opacity="0.6"/>

  <!-- Big dimmed project name in center -->
  <text x="400" y="295" text-anchor="middle" fill="rgba(255,255,255,0.05)" font-size="52" font-weight="900" font-family="system-ui,sans-serif" letter-spacing="-2">Interactive Typograp…</text>

  <!-- Bottom info bar -->
  <rect x="0" y="400" width="800" height="100" fill="rgba(0,0,0,0.55)"/>

  <!-- Accent line -->
  <rect x="0" y="400" width="800" height="3" fill="url(#bar)"/>

  <!-- Author initials circle -->
  <circle cx="72" cy="450" r="28" fill="#a5b4fc" opacity="0.18"/>
  <circle cx="72" cy="450" r="22" fill="#a5b4fc" opacity="0.22"/>
  <text x="72" y="456" text-anchor="middle" fill="#a5b4fc" font-size="15" font-weight="800" font-family="system-ui,sans-serif">PM</text>

  <!-- Project name -->
  <text x="112" y="440" fill="rgba(255,255,255,0.92)" font-size="17" font-weight="800" font-family="system-ui,sans-serif" letter-spacing="-0.5">Interactive Typography Playground</text>

  <!-- Tag pills -->
  <rect x="112" y="455" width="37" height="20" rx="10" fill="#a5b4fc" opacity="0.22"/>
  <text x="130.5" y="469" text-anchor="middle" fill="#a5b4fc" font-size="10" font-weight="700" font-family="system-ui,sans-serif">CSS</text>

  <rect x="155" y="455" width="65" height="20" rx="10" fill="rgba(255,255,255,0.08)"/>
  <text x="187.5" y="469" text-anchor="middle" fill="rgba(255,255,255,0.5)" font-size="10" font-weight="600" font-family="system-ui,sans-serif">UTILITY</text>

  <rect x="226" y="455" width="86" height="20" rx="10" fill="rgba(255,255,255,0.06)"/>
  <text x="269" y="469" text-anchor="middle" fill="rgba(255,255,255,0.35)" font-size="10" font-weight="600" font-family="system-ui,sans-serif">VANILLA-JS</text>
</svg>