<svg xmlns="http://www.w3.org/2000/svg" viewBox="0 0 1280 720" width="1280" height="720">
  <defs><linearGradient id="g" x1="0%" y1="0%" x2="0%" y2="100%"><stop offset="0%" stop-color="#0b1220"/><stop offset="100%" stop-color="#0a100a"/></linearGradient></defs>
  <rect width="1280" height="720" fill="url(#g)"/>
  <!-- heatmap grid -->
  <rect x="200" y="160" width="400" height="300" rx="6" fill="#0a0f1a" stroke="#334155" stroke-width="1"/>
  <rect x="200" y="160" width="200" height="150" fill="rgba(59,130,246,0.3)" stroke="#3b82f6" stroke-width="1"/>
  <rect x="400" y="160" width="200" height="150" fill="rgba(34,197,94,0.3)" stroke="#22c55e" stroke-width="1"/>
  <rect x="200" y="310" width="200" height="150" fill="rgba(234,179,8,0.3)" stroke="#eab308" stroke-width="1"/>
  <rect x="400" y="310" width="200" height="150" fill="rgba(239,68,68,0.3)" stroke="#ef4444" stroke-width="1"/>
  <text x="250" y="310" font-family="monospace" font-size="10" fill="#64748b">Sector A</text>
  <text x="530" y="200" font-family="monospace" font-size="10" fill="#64748b">Sector B</text>
  <!-- legend -->
  <rect x="680" y="200" width="20" height="20" rx="3" fill="#3b82f6" opacity=".6"/>
  <text x="710" y="214" font-family="monospace" font-size="10" fill="#64748b">Low</text>
  <rect x="680" y="250" width="20" height="20" rx="3" fill="#22c55e" opacity=".6"/>
  <text x="710" y="264" font-family="monospace" font-size="10" fill="#64748b">Medium</text>
  <rect x="680" y="300" width="20" height="20" rx="3" fill="#eab308" opacity=".6"/>
  <text x="710" y="314" font-family="monospace" font-size="10" fill="#64748b">High</text>
  <rect x="680" y="350" width="20" height="20" rx="3" fill="#ef4444" opacity=".6"/>
  <text x="710" y="364" font-family="monospace" font-size="10" fill="#64748b">Very High</text>
  <text x="640" y="100" text-anchor="middle" font-family="ui-monospace,monospace" font-size="26" font-weight="800" fill="#f8fafc" letter-spacing="1">MISSING PERSON SEARCH SIMULATOR</text>
  <text x="640" y="125" text-anchor="middle" font-family="ui-monospace,monospace" font-size="13" fill="#64748b">Search Areas · Analyze Clues · Probability Heatmap</text>
</svg>
