<svg xmlns="http://www.w3.org/2000/svg" viewBox="0 0 1280 720" width="1280" height="720">
  <defs><linearGradient id="g" x1="0%" y1="0%" x2="0%" y2="100%"><stop offset="0%" stop-color="#0b1220"/><stop offset="100%" stop-color="#10101a"/></linearGradient></defs>
  <rect width="1280" height="720" fill="url(#g)"/>
  <!-- exhibit grid -->
  <rect x="180" y="180" width="220" height="220" rx="8" fill="#111827" stroke="#a78bfa" stroke-width="2"/>
  <text x="290" y="240" text-anchor="middle" font-size="36">🏺</text>
  <text x="290" y="280" text-anchor="middle" font-family="monospace" font-size="12" fill="#a78bfa" font-weight="600">Greek Vase</text>
  <text x="290" y="300" text-anchor="middle" font-family="monospace" font-size="9" fill="#64748b">Black-figure pottery...</text>
  <rect x="420" y="180" width="220" height="220" rx="8" fill="#111827" stroke="#a78bfa" stroke-width="2"/>
  <text x="530" y="240" text-anchor="middle" font-size="36">🗿</text>
  <text x="530" y="280" text-anchor="middle" font-family="monospace" font-size="12" fill="#a78bfa" font-weight="600">Marble Statue</text>
  <text x="530" y="300" text-anchor="middle" font-family="monospace" font-size="9" fill="#64748b">Hellenistic sculpture...</text>
  <rect x="660" y="180" width="220" height="220" rx="8" fill="#111827" stroke="#a78bfa" stroke-width="2"/>
  <text x="770" y="240" text-anchor="middle" font-size="36">🪙</text>
  <text x="770" y="280" text-anchor="middle" font-family="monospace" font-size="12" fill="#a78bfa" font-weight="600">Ancient Coin</text>
  <text x="770" y="300" text-anchor="middle" font-family="monospace" font-size="9" fill="#64748b">Silver tetradrachm...</text>
  <rect x="900" y="180" width="220" height="220" rx="8" fill="#111827" stroke="#334155" stroke-width="2" stroke-dasharray="8 4"/>
  <text x="1010" y="270" text-anchor="middle" font-size="24" fill="#64748b">➕</text>
  <text x="1010" y="300" text-anchor="middle" font-family="monospace" font-size="11" fill="#64748b">Add Artifact</text>
  <!-- header -->
  <rect x="180" y="430" width="940" height="50" rx="8" fill="#111827" stroke="#334155" stroke-width="1.5"/>
  <text x="220" y="460" font-family="ui-monospace,monospace" font-size="16" font-weight="700" fill="#f8fafc">Ancient Wonders</text>
  <rect x="420" y="446" width="120" height="20" rx="8" fill="none" stroke="#a78bfa" stroke-width="1"/>
  <text x="480" y="460" text-anchor="middle" font-family="monospace" font-size="9" fill="#a78bfa">🏛️ Classical Greece</text>
  <!-- sidebar -->
  <rect x="20" y="180" width="130" height="300" rx="8" fill="#111827" stroke="#334155" stroke-width="1.5"/>
  <text x="85" y="210" text-anchor="middle" font-family="monospace" font-size="10" fill="#cbd5e1" font-weight="600">ARTIFACTS</text>
  <rect x="35" y="225" width="100" height="22" rx="4" fill="#1f2937" stroke="#334155" stroke-width="1"/>
  <text x="85" y="240" text-anchor="middle" font-family="monospace" font-size="9" fill="#64748b">🏺 Greek Vase</text>
  <rect x="35" y="252" width="100" height="22" rx="4" fill="#1f2937" stroke="#334155" stroke-width="1"/>
  <text x="85" y="267" text-anchor="middle" font-family="monospace" font-size="9" fill="#64748b">🗿 Marble Statue</text>
  <rect x="35" y="279" width="100" height="22" rx="4" fill="#1f2937" stroke="#334155" stroke-width="1"/>
  <text x="85" y="294" text-anchor="middle" font-family="monospace" font-size="9" fill="#64748b">🪙 Ancient Coin</text>
  <rect x="35" y="306" width="100" height="22" rx="4" fill="#1f2937" stroke="#334155" stroke-width="1"/>
  <text x="85" y="321" text-anchor="middle" font-family="monospace" font-size="9" fill="#64748b">📜 Papyrus Scroll</text>
  <rect x="35" y="333" width="100" height="22" rx="4" fill="#1f2937" stroke="#334155" stroke-width="1"/>
  <text x="85" y="348" text-anchor="middle" font-family="monospace" font-size="9" fill="#64748b">⚔️ Bronze Armor</text>
  <rect x="35" y="360" width="100" height="22" rx="4" fill="#1f2937" stroke="#334155" stroke-width="1"/>
  <text x="85" y="375" text-anchor="middle" font-family="monospace" font-size="9" fill="#64748b">💍 Gold Jewelry</text>
  <text x="640" y="100" text-anchor="middle" font-family="ui-monospace,monospace" font-size="26" font-weight="800" fill="#f8fafc" letter-spacing="1">MUSEUM EXHIBIT CREATOR</text>
  <text x="640" y="125" text-anchor="middle" font-family="ui-monospace,monospace" font-size="13" fill="#64748b">Virtual Exhibits · Artifact Cards · Curate History</text>
</svg>
