<svg width="800" height="500" viewBox="0 0 800 500" xmlns="http://www.w3.org/2000/svg">
  <defs>
    <linearGradient id="g" x1="0%" y1="0%" x2="100%" y2="100%">
      <stop offset="0%" stop-color="#1a0d2e"/>
      <stop offset="100%" stop-color="#0d0718"/>
    </linearGradient>
    <linearGradient id="bar" x1="0%" y1="0%" x2="100%" y2="0%">
      <stop offset="0%" stop-color="#a78bfa" stop-opacity="0.9"/>
      <stop offset="100%" stop-color="#7c3aed" stop-opacity="0.7"/>
    </linearGradient>
    <clipPath id="clip"><rect width="800" height="500" rx="0"/></clipPath>
  </defs>

  <!-- Background -->
  <rect width="800" height="500" fill="url(#g)" clip-path="url(#clip)"/>

  <!-- Subtle glow behind center -->
  <ellipse cx="400" cy="220" rx="280" ry="160" fill="#a78bfa" opacity="0.04"/>

  <!-- Editor window -->
  <rect x="32" y="32" width="736" height="348" rx="12" fill="rgba(0,0,0,0.45)"/>

  <!-- Title bar -->
  <rect x="32" y="32" width="736" height="38" rx="12" fill="#130926"/>
  <rect x="32" y="56" width="736" height="14" fill="#130926"/>

  <!-- Traffic lights -->
  <circle cx="62"  cy="51" r="7" fill="#ff5f57" opacity="0.95"/>
  <circle cx="88"  cy="51" r="7" fill="#febc2e" opacity="0.95"/>
  <circle cx="114" cy="51" r="7" fill="#28c840" opacity="0.95"/>

  <!-- Tab/filename -->
  <rect x="140" y="38" width="160" height="26" rx="5" fill="rgba(255,255,255,0.07)"/>
  <text x="160" y="55" fill="rgba(255,255,255,0.55)" font-size="11" font-family="monospace">odd-one-out-game.html</text>

  <!-- Gutter -->
  <rect x="32" y="70" width="52" height="310" fill="rgba(0,0,0,0.2)"/>

  <!-- Code lines -->
  <text x="52" y="92" text-anchor="end" fill="rgba(255,255,255,0.15)" font-size="10" font-family="monospace">1</text>
  <rect x="80" y="82" width="376" height="13" rx="2" fill="rgba(255,255,255,0.09165513225636798)" opacity="1"/>
  <rect x="468" y="82" width="104" height="13" rx="2" fill="rgba(255,255,255,0.07287631009772334)" opacity="0.6"/>
  <text x="52" y="110" text-anchor="end" fill="rgba(255,255,255,0.15)" font-size="10" font-family="monospace">2</text>
  <rect x="60" y="100" width="541" height="13" rx="2" fill="rgba(255,255,255,0.0916003837137484)" opacity="1"/>
  <rect x="613" y="100" width="50" height="13" rx="2" fill="rgba(255,255,255,0.06398603106243211)" opacity="0.6"/>
  <text x="52" y="128" text-anchor="end" fill="rgba(255,255,255,0.15)" font-size="10" font-family="monospace">3</text>
  <rect x="60" y="118" width="165" height="13" rx="2" fill="rgba(255,255,255,0.08563890696168852)" opacity="1"/>
  <rect x="237" y="118" width="31" height="13" rx="2" fill="rgba(255,255,255,0.048761183651807066)" opacity="0.6"/>
  <text x="52" y="146" text-anchor="end" fill="rgba(255,255,255,0.15)" font-size="10" font-family="monospace">4</text>
  <rect x="80" y="136" width="605" height="13" rx="2" fill="#a78bfa" opacity="0.55"/>
  <text x="52" y="164" text-anchor="end" fill="rgba(255,255,255,0.15)" font-size="10" font-family="monospace">5</text>
  <rect x="100" y="154" width="572" height="13" rx="2" fill="rgba(255,255,255,0.09109264184513424)" opacity="1"/>
  <text x="52" y="182" text-anchor="end" fill="rgba(255,255,255,0.15)" font-size="10" font-family="monospace">6</text>
  <rect x="80" y="172" width="498" height="13" rx="2" fill="rgba(255,255,255,0.08188922610643534)" opacity="1"/>
  <rect x="590" y="172" width="47" height="13" rx="2" fill="rgba(255,255,255,0.08911934714743852)" opacity="0.6"/>
  <text x="52" y="200" text-anchor="end" fill="rgba(255,255,255,0.15)" font-size="10" font-family="monospace">7</text>
  <rect x="100" y="190" width="514" height="13" rx="2" fill="rgba(255,255,255,0.0891335345127465)" opacity="1"/>
  <rect x="626" y="190" width="95" height="13" rx="2" fill="rgba(255,255,255,0.0432666392282738)" opacity="0.6"/>
  <text x="52" y="218" text-anchor="end" fill="rgba(255,255,255,0.15)" font-size="10" font-family="monospace">8</text>
  <rect x="60" y="208" width="627" height="13" rx="2" fill="#a78bfa" opacity="0.55"/>
  <text x="52" y="236" text-anchor="end" fill="rgba(255,255,255,0.15)" font-size="10" font-family="monospace">9</text>
  <rect x="80" y="226" width="501" height="13" rx="2" fill="rgba(255,255,255,0.0795580255658268)" opacity="1"/>
  <text x="52" y="254" text-anchor="end" fill="rgba(255,255,255,0.15)" font-size="10" font-family="monospace">10</text>
  <rect x="80" y="244" width="504" height="13" rx="2" fill="rgba(255,255,255,0.11346286450826164)" opacity="1"/>
  <rect x="596" y="244" width="82" height="13" rx="2" fill="rgba(255,255,255,0.044895155540410236)" opacity="0.6"/>
  <text x="52" y="272" text-anchor="end" fill="rgba(255,255,255,0.15)" font-size="10" font-family="monospace">11</text>
  <rect x="80" y="262" width="239" height="13" rx="2" fill="rgba(255,255,255,0.0982750167041726)" opacity="1"/>
  <rect x="331" y="262" width="55" height="13" rx="2" fill="rgba(255,255,255,0.08322199618751697)" opacity="0.6"/>
  <text x="52" y="290" text-anchor="end" fill="rgba(255,255,255,0.15)" font-size="10" font-family="monospace">12</text>
  <rect x="60" y="280" width="257" height="13" rx="2" fill="rgba(255,255,255,0.09944209615686958)" opacity="1"/>
  <rect x="329" y="280" width="53" height="13" rx="2" fill="rgba(255,255,255,0.05199843923374974)" opacity="0.6"/>
  <text x="52" y="308" text-anchor="end" fill="rgba(255,255,255,0.15)" font-size="10" font-family="monospace">13</text>
  <rect x="60" y="298" width="645" height="13" rx="2" fill="rgba(255,255,255,0.10150248861906642)" opacity="1"/>
  <text x="52" y="326" text-anchor="end" fill="rgba(255,255,255,0.15)" font-size="10" font-family="monospace">14</text>
  <rect x="60" y="316" width="565" height="13" rx="2" fill="rgba(255,255,255,0.08420831485283754)" opacity="1"/>

  <!-- Big dimmed project name in center -->
  <text x="400" y="295" text-anchor="middle" fill="rgba(255,255,255,0.05)" font-size="52" font-weight="900" font-family="system-ui,sans-serif" letter-spacing="-2">Odd One Out Game</text>

  <!-- Bottom info bar -->
  <rect x="0" y="400" width="800" height="100" fill="rgba(0,0,0,0.55)"/>

  <!-- Accent line -->
  <rect x="0" y="400" width="800" height="3" fill="url(#bar)"/>

  <!-- Author initials circle -->
  <circle cx="72" cy="450" r="28" fill="#a78bfa" opacity="0.18"/>
  <circle cx="72" cy="450" r="22" fill="#a78bfa" opacity="0.22"/>
  <text x="72" y="456" text-anchor="middle" fill="#a78bfa" font-size="15" font-weight="800" font-family="system-ui,sans-serif">J</text>

  <!-- Project name -->
  <text x="112" y="440" fill="rgba(255,255,255,0.92)" font-size="17" font-weight="800" font-family="system-ui,sans-serif" letter-spacing="-0.5">Odd One Out Game</text>

  <!-- Tag pills -->
  <rect x="112" y="455" width="93" height="20" rx="10" fill="#a78bfa" opacity="0.22"/>
  <text x="158.5" y="469" text-anchor="middle" fill="#a78bfa" font-size="10" font-weight="700" font-family="system-ui,sans-serif">HTML-CSS-JS</text>

  <rect x="211" y="455" width="44" height="20" rx="10" fill="rgba(255,255,255,0.08)"/>
  <text x="233" y="469" text-anchor="middle" fill="rgba(255,255,255,0.5)" font-size="10" font-weight="600" font-family="system-ui,sans-serif">GAME</text>

  <rect x="261" y="455" width="51" height="20" rx="10" fill="rgba(255,255,255,0.06)"/>
  <text x="286.5" y="469" text-anchor="middle" fill="rgba(255,255,255,0.35)" font-size="10" font-weight="600" font-family="system-ui,sans-serif">LOGIC</text>
</svg>