<svg width="800" height="500" viewBox="0 0 800 500" xmlns="http://www.w3.org/2000/svg">
  <defs>
    <linearGradient id="g" x1="0%" y1="0%" x2="100%" y2="100%">
      <stop offset="0%" stop-color="#1a0d2e"/>
      <stop offset="100%" stop-color="#0d0718"/>
    </linearGradient>
    <linearGradient id="bar" x1="0%" y1="0%" x2="100%" y2="0%">
      <stop offset="0%" stop-color="#a78bfa" stop-opacity="0.9"/>
      <stop offset="100%" stop-color="#7c3aed" stop-opacity="0.7"/>
    </linearGradient>
    <clipPath id="clip"><rect width="800" height="500" rx="0"/></clipPath>
  </defs>

  <!-- Background -->
  <rect width="800" height="500" fill="url(#g)" clip-path="url(#clip)"/>

  <!-- Subtle glow behind center -->
  <ellipse cx="400" cy="220" rx="280" ry="160" fill="#a78bfa" opacity="0.04"/>

  <!-- Editor window -->
  <rect x="32" y="32" width="736" height="348" rx="12" fill="rgba(0,0,0,0.45)"/>

  <!-- Title bar -->
  <rect x="32" y="32" width="736" height="38" rx="12" fill="#130926"/>
  <rect x="32" y="56" width="736" height="14" fill="#130926"/>

  <!-- Traffic lights -->
  <circle cx="62"  cy="51" r="7" fill="#ff5f57" opacity="0.95"/>
  <circle cx="88"  cy="51" r="7" fill="#febc2e" opacity="0.95"/>
  <circle cx="114" cy="51" r="7" fill="#28c840" opacity="0.95"/>

  <!-- Tab/filename -->
  <rect x="140" y="38" width="160" height="26" rx="5" fill="rgba(255,255,255,0.07)"/>
  <text x="160" y="55" fill="rgba(255,255,255,0.55)" font-size="11" font-family="monospace">pattern-prediction-challenge.html</text>

  <!-- Gutter -->
  <rect x="32" y="70" width="52" height="310" fill="rgba(0,0,0,0.2)"/>

  <!-- Code lines -->
  <text x="52" y="92" text-anchor="end" fill="rgba(255,255,255,0.15)" font-size="10" font-family="monospace">1</text>
  <rect x="60" y="82" width="695" height="13" rx="2" fill="rgba(255,255,255,0.07226170538278802)" opacity="1"/>
  <text x="52" y="110" text-anchor="end" fill="rgba(255,255,255,0.15)" font-size="10" font-family="monospace">2</text>
  <rect x="60" y="100" width="667" height="13" rx="2" fill="rgba(255,255,255,0.074750774562068)" opacity="1"/>
  <text x="52" y="128" text-anchor="end" fill="rgba(255,255,255,0.15)" font-size="10" font-family="monospace">3</text>
  <rect x="80" y="118" width="477" height="13" rx="2" fill="rgba(255,255,255,0.13067188992879164)" opacity="1"/>
  <text x="52" y="146" text-anchor="end" fill="rgba(255,255,255,0.15)" font-size="10" font-family="monospace">4</text>
  <rect x="80" y="136" width="274" height="13" rx="2" fill="rgba(255,255,255,0.08504144218402017)" opacity="1"/>
  <rect x="366" y="136" width="94" height="13" rx="2" fill="rgba(255,255,255,0.07321226257439989)" opacity="0.6"/>
  <text x="52" y="164" text-anchor="end" fill="rgba(255,255,255,0.15)" font-size="10" font-family="monospace">5</text>
  <rect x="60" y="154" width="630" height="13" rx="2" fill="rgba(255,255,255,0.1255677396956756)" opacity="1"/>
  <text x="52" y="182" text-anchor="end" fill="rgba(255,255,255,0.15)" font-size="10" font-family="monospace">6</text>
  <rect x="100" y="172" width="635" height="13" rx="2" fill="rgba(255,255,255,0.06976647898782196)" opacity="1"/>
  <text x="52" y="200" text-anchor="end" fill="rgba(255,255,255,0.15)" font-size="10" font-family="monospace">7</text>
  <rect x="80" y="190" width="87" height="13" rx="2" fill="rgba(255,255,255,0.0795525159732328)" opacity="1"/>
  <rect x="179" y="190" width="90" height="13" rx="2" fill="rgba(255,255,255,0.04543416930721937)" opacity="0.6"/>
  <text x="52" y="218" text-anchor="end" fill="rgba(255,255,255,0.15)" font-size="10" font-family="monospace">8</text>
  <rect x="80" y="208" width="648" height="13" rx="2" fill="rgba(255,255,255,0.13439819175619588)" opacity="1"/>
  <text x="52" y="236" text-anchor="end" fill="rgba(255,255,255,0.15)" font-size="10" font-family="monospace">9</text>
  <rect x="80" y="226" width="343" height="13" rx="2" fill="rgba(255,255,255,0.13865301804585686)" opacity="1"/>
  <text x="52" y="254" text-anchor="end" fill="rgba(255,255,255,0.15)" font-size="10" font-family="monospace">10</text>
  <rect x="60" y="244" width="466" height="13" rx="2" fill="rgba(255,255,255,0.06241487078424889)" opacity="1"/>
  <text x="52" y="272" text-anchor="end" fill="rgba(255,255,255,0.15)" font-size="10" font-family="monospace">11</text>
  <rect x="80" y="262" width="602" height="13" rx="2" fill="rgba(255,255,255,0.12570752175192057)" opacity="1"/>
  <text x="52" y="290" text-anchor="end" fill="rgba(255,255,255,0.15)" font-size="10" font-family="monospace">12</text>
  <rect x="100" y="280" width="163" height="13" rx="2" fill="#a78bfa" opacity="0.55"/>
  <rect x="275" y="280" width="107" height="13" rx="2" fill="#7c3aed" opacity="0.6"/>
  <text x="52" y="308" text-anchor="end" fill="rgba(255,255,255,0.15)" font-size="10" font-family="monospace">13</text>
  <rect x="100" y="298" width="387" height="13" rx="2" fill="rgba(255,255,255,0.1010323603919317)" opacity="1"/>
  <rect x="499" y="298" width="101" height="13" rx="2" fill="rgba(255,255,255,0.054570876528641885)" opacity="0.6"/>
  <text x="52" y="326" text-anchor="end" fill="rgba(255,255,255,0.15)" font-size="10" font-family="monospace">14</text>
  <rect x="60" y="316" width="494" height="13" rx="2" fill="rgba(255,255,255,0.11952279271081154)" opacity="1"/>
  <rect x="566" y="316" width="44" height="13" rx="2" fill="rgba(255,255,255,0.05374237771698795)" opacity="0.6"/>

  <!-- Big dimmed project name in center -->
  <text x="400" y="295" text-anchor="middle" fill="rgba(255,255,255,0.05)" font-size="52" font-weight="900" font-family="system-ui,sans-serif" letter-spacing="-2">Pattern Prediction C…</text>

  <!-- Bottom info bar -->
  <rect x="0" y="400" width="800" height="100" fill="rgba(0,0,0,0.55)"/>

  <!-- Accent line -->
  <rect x="0" y="400" width="800" height="3" fill="url(#bar)"/>

  <!-- Author initials circle -->
  <circle cx="72" cy="450" r="28" fill="#a78bfa" opacity="0.18"/>
  <circle cx="72" cy="450" r="22" fill="#a78bfa" opacity="0.22"/>
  <text x="72" y="456" text-anchor="middle" fill="#a78bfa" font-size="15" font-weight="800" font-family="system-ui,sans-serif">M</text>

  <!-- Project name -->
  <text x="112" y="440" fill="rgba(255,255,255,0.92)" font-size="17" font-weight="800" font-family="system-ui,sans-serif" letter-spacing="-0.5">Pattern Prediction Challenge</text>

  <!-- Tag pills -->
  <rect x="112" y="455" width="44" height="20" rx="10" fill="#a78bfa" opacity="0.22"/>
  <text x="134" y="469" text-anchor="middle" fill="#a78bfa" font-size="10" font-weight="700" font-family="system-ui,sans-serif">GAME</text>

  <rect x="162" y="455" width="72" height="20" rx="10" fill="rgba(255,255,255,0.08)"/>
  <text x="198" y="469" text-anchor="middle" fill="rgba(255,255,255,0.5)" font-size="10" font-weight="600" font-family="system-ui,sans-serif">PATTERNS</text>

  <rect x="240" y="455" width="86" height="20" rx="10" fill="rgba(255,255,255,0.06)"/>
  <text x="283" y="469" text-anchor="middle" fill="rgba(255,255,255,0.35)" font-size="10" font-weight="600" font-family="system-ui,sans-serif">JAVASCRIPT</text>
</svg>