<svg xmlns="http://www.w3.org/2000/svg" viewBox="0 0 400 400" width="400" height="400">
<rect width="400" height="400" fill="#f4f7f5" rx="8"/>
<g stroke="#e2ebd9" stroke-width="0.5" opacity="0.5">
<line x1="40" y1="40" x2="40" y2="360"/>
<line x1="40" y1="360" x2="360" y2="360"/>
<line x1="40" y1="120" x2="360" y2="120"/>
<line x1="40" y1="200" x2="360" y2="200"/>
<line x1="40" y1="280" x2="360" y2="280"/>
<line x1="120" y1="40" x2="120" y2="360"/>
<line x1="200" y1="40" x2="200" y2="360"/>
<line x1="280" y1="40" x2="280" y2="360"/>
</g>
<text x="40" y="378" font-family="ui-monospace, monospace" font-size="9" fill="#557a61" opacity="0.6">0</text>
<text x="115" y="378" font-family="ui-monospace, monospace" font-size="9" fill="#557a61" opacity="0.6">t</text>
<text x="8" y="364" font-family="ui-monospace, monospace" font-size="9" fill="#557a61" opacity="0.6">0</text>
<text x="8" y="204" font-family="ui-monospace, monospace" font-size="9" fill="#557a61" opacity="0.6">K</text>
<text x="8" y="124" font-family="ui-monospace, monospace" font-size="9" fill="#557a61" opacity="0.6">N</text>
<path d="M 40 340 C 100 340, 160 338, 200 330 C 240 318, 280 260, 310 180 C 330 130, 345 80, 360 45" fill="none" stroke="#2e7d32" stroke-width="2.5" stroke-linecap="round"/>
<path d="M 40 340 C 120 340, 180 335, 220 320 C 260 300, 290 240, 310 170 C 325 120, 340 70, 360 30" fill="none" stroke="#4caf50" stroke-width="1.5" stroke-linecap="round" opacity="0.5" stroke-dasharray="5,3"/>
<line x1="40" y1="200" x2="360" y2="200" stroke="#c62828" stroke-width="1.8" stroke-dasharray="6,4" opacity="0.8"/>
<text x="290" y="194" font-family="ui-monospace, monospace" font-size="10" fill="#c62828" font-weight="600">K</text>
<circle cx="180" cy="330" r="10" fill="none" stroke="#009688" stroke-width="1.5" opacity="0.6"/>
<circle cx="180" cy="330" r="3" fill="#009688" opacity="0.8"/>
<g transform="translate(280, 30)">
<path d="M0,0 C2,-8 6,-12 10,-14 C14,-12 18,-8 20,0 C18,-2 14,-4 10,-4 C6,-4 2,-2 0,0Z" fill="#2e7d32" opacity="0.7"/>
<path d="M2,2 C4,-4 8,-8 12,-10 C16,-8 20,-4 22,2 C20,0 16,-2 12,-2 C8,-2 4,0 2,2Z" fill="#4caf50" opacity="0.5"/>
</g>
<circle cx="285" cy="46" r="2.5" fill="#2e7d32" opacity="0.8"/>
<circle cx="300" cy="70" r="2" fill="#4caf50" opacity="0.6"/>
<circle cx="320" cy="100" r="1.5" fill="#009688" opacity="0.5"/>
<text x="135" y="310" font-family="ui-monospace, monospace" font-size="8" fill="#557a61" opacity="0.5">N₀</text>
<g transform="translate(40, 360)">
<path d="M-3,0 L0,-6 L3,0" fill="none" stroke="#2e7d32" stroke-width="1.2"/>
</g>
<g transform="translate(360, 200)">
<path d="M0,-3 L6,0 L0,3" fill="none" stroke="#c62828" stroke-width="1.2"/>
</g>
<text x="140" y="55" font-family="system-ui, sans-serif" font-size="11" fill="#1b3a24" font-weight="700" letter-spacing="1.5">POPULATION</text>
<text x="145" y="70" font-family="system-ui, sans-serif" font-size="11" fill="#1b3a24" font-weight="700" letter-spacing="1.5">DYNAMICS</text>
<rect x="38" y="38" width="324" height="324" fill="none" stroke="#e2ebd9" stroke-width="1" rx="4"/>
</svg>
