<svg width="800" height="500" viewBox="0 0 800 500" xmlns="http://www.w3.org/2000/svg">
  <defs>
    <linearGradient id="g" x1="0%" y1="0%" x2="100%" y2="100%">
      <stop offset="0%" stop-color="#0a1829"/>
      <stop offset="100%" stop-color="#050f1a"/>
    </linearGradient>
    <linearGradient id="bar" x1="0%" y1="0%" x2="100%" y2="0%">
      <stop offset="0%" stop-color="#60a5fa" stop-opacity="0.9"/>
      <stop offset="100%" stop-color="#2563eb" stop-opacity="0.7"/>
    </linearGradient>
    <clipPath id="clip"><rect width="800" height="500" rx="0"/></clipPath>
  </defs>

  <!-- Background -->
  <rect width="800" height="500" fill="url(#g)" clip-path="url(#clip)"/>

  <!-- Subtle glow behind center -->
  <ellipse cx="400" cy="220" rx="280" ry="160" fill="#60a5fa" opacity="0.04"/>

  <!-- Editor window -->
  <rect x="32" y="32" width="736" height="348" rx="12" fill="rgba(0,0,0,0.45)"/>

  <!-- Title bar -->
  <rect x="32" y="32" width="736" height="38" rx="12" fill="#070d1a"/>
  <rect x="32" y="56" width="736" height="14" fill="#070d1a"/>

  <!-- Traffic lights -->
  <circle cx="62"  cy="51" r="7" fill="#ff5f57" opacity="0.95"/>
  <circle cx="88"  cy="51" r="7" fill="#febc2e" opacity="0.95"/>
  <circle cx="114" cy="51" r="7" fill="#28c840" opacity="0.95"/>

  <!-- Tab/filename -->
  <rect x="140" y="38" width="160" height="26" rx="5" fill="rgba(255,255,255,0.07)"/>
  <text x="160" y="55" fill="rgba(255,255,255,0.55)" font-size="11" font-family="monospace">real-estate-listing.html</text>

  <!-- Gutter -->
  <rect x="32" y="70" width="52" height="310" fill="rgba(0,0,0,0.2)"/>

  <!-- Code lines -->
  <text x="52" y="92" text-anchor="end" fill="rgba(255,255,255,0.15)" font-size="10" font-family="monospace">1</text>
  <rect x="100" y="82" width="252" height="13" rx="2" fill="rgba(255,255,255,0.11680345147308041)" opacity="1"/>
  <rect x="364" y="82" width="40" height="13" rx="2" fill="rgba(255,255,255,0.07690683623703821)" opacity="0.6"/>
  <text x="52" y="110" text-anchor="end" fill="rgba(255,255,255,0.15)" font-size="10" font-family="monospace">2</text>
  <rect x="60" y="100" width="277" height="13" rx="2" fill="rgba(255,255,255,0.09905071969121944)" opacity="1"/>
  <text x="52" y="128" text-anchor="end" fill="rgba(255,255,255,0.15)" font-size="10" font-family="monospace">3</text>
  <rect x="60" y="118" width="167" height="13" rx="2" fill="rgba(255,255,255,0.09448096277995058)" opacity="1"/>
  <text x="52" y="146" text-anchor="end" fill="rgba(255,255,255,0.15)" font-size="10" font-family="monospace">4</text>
  <rect x="80" y="136" width="594" height="13" rx="2" fill="#60a5fa" opacity="0.55"/>
  <rect x="686" y="136" width="59" height="13" rx="2" fill="#2563eb" opacity="0.6"/>
  <text x="52" y="164" text-anchor="end" fill="rgba(255,255,255,0.15)" font-size="10" font-family="monospace">5</text>
  <rect x="80" y="154" width="93" height="13" rx="2" fill="rgba(255,255,255,0.08258314408887717)" opacity="1"/>
  <rect x="185" y="154" width="30" height="13" rx="2" fill="rgba(255,255,255,0.0831178124372656)" opacity="0.6"/>
  <text x="52" y="182" text-anchor="end" fill="rgba(255,255,255,0.15)" font-size="10" font-family="monospace">6</text>
  <rect x="100" y="172" width="444" height="13" rx="2" fill="rgba(255,255,255,0.1003173326422268)" opacity="1"/>
  <text x="52" y="200" text-anchor="end" fill="rgba(255,255,255,0.15)" font-size="10" font-family="monospace">7</text>
  <rect x="80" y="190" width="357" height="13" rx="2" fill="rgba(255,255,255,0.11043267873358742)" opacity="1"/>
  <rect x="449" y="190" width="64" height="13" rx="2" fill="rgba(255,255,255,0.07981408867747852)" opacity="0.6"/>
  <text x="52" y="218" text-anchor="end" fill="rgba(255,255,255,0.15)" font-size="10" font-family="monospace">8</text>
  <rect x="60" y="208" width="591" height="13" rx="2" fill="#60a5fa" opacity="0.55"/>
  <rect x="663" y="208" width="65" height="13" rx="2" fill="#2563eb" opacity="0.6"/>
  <text x="52" y="236" text-anchor="end" fill="rgba(255,255,255,0.15)" font-size="10" font-family="monospace">9</text>
  <rect x="100" y="226" width="262" height="13" rx="2" fill="rgba(255,255,255,0.13066090032240862)" opacity="1"/>
  <rect x="374" y="226" width="59" height="13" rx="2" fill="rgba(255,255,255,0.06213316574276732)" opacity="0.6"/>
  <text x="52" y="254" text-anchor="end" fill="rgba(255,255,255,0.15)" font-size="10" font-family="monospace">10</text>
  <rect x="80" y="244" width="212" height="13" rx="2" fill="rgba(255,255,255,0.07250060985155883)" opacity="1"/>
  <rect x="304" y="244" width="63" height="13" rx="2" fill="rgba(255,255,255,0.046716421830169025)" opacity="0.6"/>
  <text x="52" y="272" text-anchor="end" fill="rgba(255,255,255,0.15)" font-size="10" font-family="monospace">11</text>
  <rect x="60" y="262" width="505" height="13" rx="2" fill="rgba(255,255,255,0.0863645411157898)" opacity="1"/>
  <rect x="577" y="262" width="74" height="13" rx="2" fill="rgba(255,255,255,0.05906056302112075)" opacity="0.6"/>
  <text x="52" y="290" text-anchor="end" fill="rgba(255,255,255,0.15)" font-size="10" font-family="monospace">12</text>
  <rect x="100" y="280" width="375" height="13" rx="2" fill="#60a5fa" opacity="0.55"/>
  <rect x="487" y="280" width="50" height="13" rx="2" fill="#2563eb" opacity="0.6"/>
  <text x="52" y="308" text-anchor="end" fill="rgba(255,255,255,0.15)" font-size="10" font-family="monospace">13</text>
  <rect x="80" y="298" width="136" height="13" rx="2" fill="rgba(255,255,255,0.07288377911152406)" opacity="1"/>
  <text x="52" y="326" text-anchor="end" fill="rgba(255,255,255,0.15)" font-size="10" font-family="monospace">14</text>
  <rect x="80" y="316" width="313" height="13" rx="2" fill="rgba(255,255,255,0.1348050905193214)" opacity="1"/>

  <!-- Big dimmed project name in center -->
  <text x="400" y="295" text-anchor="middle" fill="rgba(255,255,255,0.05)" font-size="52" font-weight="900" font-family="system-ui,sans-serif" letter-spacing="-2">Real Estate Listing</text>

  <!-- Bottom info bar -->
  <rect x="0" y="400" width="800" height="100" fill="rgba(0,0,0,0.55)"/>

  <!-- Accent line -->
  <rect x="0" y="400" width="800" height="3" fill="url(#bar)"/>

  <!-- Author initials circle -->
  <circle cx="72" cy="450" r="28" fill="#60a5fa" opacity="0.18"/>
  <circle cx="72" cy="450" r="22" fill="#60a5fa" opacity="0.22"/>
  <text x="72" y="456" text-anchor="middle" fill="#60a5fa" font-size="15" font-weight="800" font-family="system-ui,sans-serif">JS</text>

  <!-- Project name -->
  <text x="112" y="440" fill="rgba(255,255,255,0.92)" font-size="17" font-weight="800" font-family="system-ui,sans-serif" letter-spacing="-0.5">Real Estate Listing</text>

  <!-- Tag pills -->
  <rect x="112" y="455" width="93" height="20" rx="10" fill="#60a5fa" opacity="0.22"/>
  <text x="158.5" y="469" text-anchor="middle" fill="#60a5fa" font-size="10" font-weight="700" font-family="system-ui,sans-serif">REAL-ESTATE</text>

  <rect x="211" y="455" width="79" height="20" rx="10" fill="rgba(255,255,255,0.08)"/>
  <text x="250.5" y="469" text-anchor="middle" fill="rgba(255,255,255,0.5)" font-size="10" font-weight="600" font-family="system-ui,sans-serif">UI-DESIGN</text>

  <rect x="296" y="455" width="100" height="20" rx="10" fill="rgba(255,255,255,0.06)"/>
  <text x="346" y="469" text-anchor="middle" fill="rgba(255,255,255,0.35)" font-size="10" font-weight="600" font-family="system-ui,sans-serif">LOCALSTORAGE</text>
</svg>