<svg width="800" height="500" viewBox="0 0 800 500" xmlns="http://www.w3.org/2000/svg">
  <defs>
    <linearGradient id="g" x1="0%" y1="0%" x2="100%" y2="100%">
      <stop offset="0%" stop-color="#1a1400"/>
      <stop offset="100%" stop-color="#110d00"/>
    </linearGradient>
    <linearGradient id="bar" x1="0%" y1="0%" x2="100%" y2="0%">
      <stop offset="0%" stop-color="#fbbf24" stop-opacity="0.9"/>
      <stop offset="100%" stop-color="#f59e0b" stop-opacity="0.7"/>
    </linearGradient>
    <clipPath id="clip"><rect width="800" height="500" rx="0"/></clipPath>
  </defs>

  <!-- Background -->
  <rect width="800" height="500" fill="url(#g)" clip-path="url(#clip)"/>

  <!-- Subtle glow behind center -->
  <ellipse cx="400" cy="220" rx="280" ry="160" fill="#fbbf24" opacity="0.04"/>

  <!-- Editor window -->
  <rect x="32" y="32" width="736" height="348" rx="12" fill="rgba(0,0,0,0.45)"/>

  <!-- Title bar -->
  <rect x="32" y="32" width="736" height="38" rx="12" fill="#130f00"/>
  <rect x="32" y="56" width="736" height="14" fill="#130f00"/>

  <!-- Traffic lights -->
  <circle cx="62"  cy="51" r="7" fill="#ff5f57" opacity="0.95"/>
  <circle cx="88"  cy="51" r="7" fill="#febc2e" opacity="0.95"/>
  <circle cx="114" cy="51" r="7" fill="#28c840" opacity="0.95"/>

  <!-- Tab/filename -->
  <rect x="140" y="38" width="160" height="26" rx="5" fill="rgba(255,255,255,0.07)"/>
  <text x="160" y="55" fill="rgba(255,255,255,0.55)" font-size="11" font-family="monospace">rock-paper-scissors.html</text>

  <!-- Gutter -->
  <rect x="32" y="70" width="52" height="310" fill="rgba(0,0,0,0.2)"/>

  <!-- Code lines -->
  <text x="52" y="92" text-anchor="end" fill="rgba(255,255,255,0.15)" font-size="10" font-family="monospace">1</text>
  <rect x="80" y="82" width="125" height="13" rx="2" fill="rgba(255,255,255,0.1046054662681663)" opacity="1"/>
  <rect x="217" y="82" width="63" height="13" rx="2" fill="rgba(255,255,255,0.04291262338937089)" opacity="0.6"/>
  <text x="52" y="110" text-anchor="end" fill="rgba(255,255,255,0.15)" font-size="10" font-family="monospace">2</text>
  <rect x="100" y="100" width="639" height="13" rx="2" fill="rgba(255,255,255,0.13225919645099415)" opacity="1"/>
  <text x="52" y="128" text-anchor="end" fill="rgba(255,255,255,0.15)" font-size="10" font-family="monospace">3</text>
  <rect x="100" y="118" width="604" height="13" rx="2" fill="rgba(255,255,255,0.07814854331737117)" opacity="1"/>
  <text x="52" y="146" text-anchor="end" fill="rgba(255,255,255,0.15)" font-size="10" font-family="monospace">4</text>
  <rect x="80" y="136" width="477" height="13" rx="2" fill="rgba(255,255,255,0.07145224733544799)" opacity="1"/>
  <text x="52" y="164" text-anchor="end" fill="rgba(255,255,255,0.15)" font-size="10" font-family="monospace">5</text>
  <rect x="100" y="154" width="548" height="13" rx="2" fill="rgba(255,255,255,0.09101632824889765)" opacity="1"/>
  <text x="52" y="182" text-anchor="end" fill="rgba(255,255,255,0.15)" font-size="10" font-family="monospace">6</text>
  <rect x="60" y="172" width="233" height="13" rx="2" fill="rgba(255,255,255,0.07492657123481077)" opacity="1"/>
  <rect x="305" y="172" width="83" height="13" rx="2" fill="rgba(255,255,255,0.06770530791666948)" opacity="0.6"/>
  <text x="52" y="200" text-anchor="end" fill="rgba(255,255,255,0.15)" font-size="10" font-family="monospace">7</text>
  <rect x="100" y="190" width="583" height="13" rx="2" fill="rgba(255,255,255,0.11811434592542107)" opacity="1"/>
  <text x="52" y="218" text-anchor="end" fill="rgba(255,255,255,0.15)" font-size="10" font-family="monospace">8</text>
  <rect x="100" y="208" width="571" height="13" rx="2" fill="rgba(255,255,255,0.1335206454418415)" opacity="1"/>
  <text x="52" y="236" text-anchor="end" fill="rgba(255,255,255,0.15)" font-size="10" font-family="monospace">9</text>
  <rect x="60" y="226" width="100" height="13" rx="2" fill="rgba(255,255,255,0.12080589206442374)" opacity="1"/>
  <rect x="172" y="226" width="40" height="13" rx="2" fill="rgba(255,255,255,0.07402932576928971)" opacity="0.6"/>
  <text x="52" y="254" text-anchor="end" fill="rgba(255,255,255,0.15)" font-size="10" font-family="monospace">10</text>
  <rect x="80" y="244" width="225" height="13" rx="2" fill="rgba(255,255,255,0.11977350158145965)" opacity="1"/>
  <text x="52" y="272" text-anchor="end" fill="rgba(255,255,255,0.15)" font-size="10" font-family="monospace">11</text>
  <rect x="80" y="262" width="212" height="13" rx="2" fill="rgba(255,255,255,0.12829716404627478)" opacity="1"/>
  <text x="52" y="290" text-anchor="end" fill="rgba(255,255,255,0.15)" font-size="10" font-family="monospace">12</text>
  <rect x="100" y="280" width="473" height="13" rx="2" fill="#fbbf24" opacity="0.55"/>
  <rect x="585" y="280" width="48" height="13" rx="2" fill="#f59e0b" opacity="0.6"/>
  <text x="52" y="308" text-anchor="end" fill="rgba(255,255,255,0.15)" font-size="10" font-family="monospace">13</text>
  <rect x="80" y="298" width="524" height="13" rx="2" fill="rgba(255,255,255,0.11473908203997163)" opacity="1"/>
  <text x="52" y="326" text-anchor="end" fill="rgba(255,255,255,0.15)" font-size="10" font-family="monospace">14</text>
  <rect x="100" y="316" width="521" height="13" rx="2" fill="rgba(255,255,255,0.12431160356484158)" opacity="1"/>
  <rect x="633" y="316" width="75" height="13" rx="2" fill="rgba(255,255,255,0.06493877478990209)" opacity="0.6"/>

  <!-- Big dimmed project name in center -->
  <text x="400" y="295" text-anchor="middle" fill="rgba(255,255,255,0.05)" font-size="52" font-weight="900" font-family="system-ui,sans-serif" letter-spacing="-2">Rock Paper Scissors</text>

  <!-- Bottom info bar -->
  <rect x="0" y="400" width="800" height="100" fill="rgba(0,0,0,0.55)"/>

  <!-- Accent line -->
  <rect x="0" y="400" width="800" height="3" fill="url(#bar)"/>

  <!-- Author initials circle -->
  <circle cx="72" cy="450" r="28" fill="#fbbf24" opacity="0.18"/>
  <circle cx="72" cy="450" r="22" fill="#fbbf24" opacity="0.22"/>
  <text x="72" y="456" text-anchor="middle" fill="#fbbf24" font-size="15" font-weight="800" font-family="system-ui,sans-serif">JS</text>

  <!-- Project name -->
  <text x="112" y="440" fill="rgba(255,255,255,0.92)" font-size="17" font-weight="800" font-family="system-ui,sans-serif" letter-spacing="-0.5">Rock Paper Scissors</text>

  <!-- Tag pills -->
  <rect x="112" y="455" width="86" height="20" rx="10" fill="#fbbf24" opacity="0.22"/>
  <text x="155" y="469" text-anchor="middle" fill="#fbbf24" font-size="10" font-weight="700" font-family="system-ui,sans-serif">VANILLA-JS</text>

  <rect x="204" y="455" width="86" height="20" rx="10" fill="rgba(255,255,255,0.08)"/>
  <text x="247" y="469" text-anchor="middle" fill="rgba(255,255,255,0.5)" font-size="10" font-weight="600" font-family="system-ui,sans-serif">GAME-LOGIC</text>

  <rect x="296" y="455" width="72" height="20" rx="10" fill="rgba(255,255,255,0.06)"/>
  <text x="332" y="469" text-anchor="middle" fill="rgba(255,255,255,0.35)" font-size="10" font-weight="600" font-family="system-ui,sans-serif">CSS-GRID</text>
</svg>