<svg width="800" height="500" viewBox="0 0 800 500" xmlns="http://www.w3.org/2000/svg">
  <defs>
    <linearGradient id="g" x1="0%" y1="0%" x2="100%" y2="100%">
      <stop offset="0%" stop-color="#1a0d2e"/>
      <stop offset="100%" stop-color="#0d0718"/>
    </linearGradient>
    <linearGradient id="bar" x1="0%" y1="0%" x2="100%" y2="0%">
      <stop offset="0%" stop-color="#a78bfa" stop-opacity="0.9"/>
      <stop offset="100%" stop-color="#7c3aed" stop-opacity="0.7"/>
    </linearGradient>
    <clipPath id="clip"><rect width="800" height="500" rx="0"/></clipPath>
  </defs>

  <!-- Background -->
  <rect width="800" height="500" fill="url(#g)" clip-path="url(#clip)"/>

  <!-- Subtle glow behind center -->
  <ellipse cx="400" cy="220" rx="280" ry="160" fill="#a78bfa" opacity="0.04"/>

  <!-- Editor window -->
  <rect x="32" y="32" width="736" height="348" rx="12" fill="rgba(0,0,0,0.45)"/>

  <!-- Title bar -->
  <rect x="32" y="32" width="736" height="38" rx="12" fill="#130926"/>
  <rect x="32" y="56" width="736" height="14" fill="#130926"/>

  <!-- Traffic lights -->
  <circle cx="62"  cy="51" r="7" fill="#ff5f57" opacity="0.95"/>
  <circle cx="88"  cy="51" r="7" fill="#febc2e" opacity="0.95"/>
  <circle cx="114" cy="51" r="7" fill="#28c840" opacity="0.95"/>

  <!-- Tab/filename -->
  <rect x="140" y="38" width="160" height="26" rx="5" fill="rgba(255,255,255,0.07)"/>
  <text x="160" y="55" fill="rgba(255,255,255,0.55)" font-size="11" font-family="monospace">rotation-matching-game.html</text>

  <!-- Gutter -->
  <rect x="32" y="70" width="52" height="310" fill="rgba(0,0,0,0.2)"/>

  <!-- Code lines -->
  <text x="52" y="92" text-anchor="end" fill="rgba(255,255,255,0.15)" font-size="10" font-family="monospace">1</text>
  <rect x="100" y="82" width="101" height="13" rx="2" fill="rgba(255,255,255,0.12727369116322923)" opacity="1"/>
  <text x="52" y="110" text-anchor="end" fill="rgba(255,255,255,0.15)" font-size="10" font-family="monospace">2</text>
  <rect x="80" y="100" width="169" height="13" rx="2" fill="rgba(255,255,255,0.07600294255092808)" opacity="1"/>
  <text x="52" y="128" text-anchor="end" fill="rgba(255,255,255,0.15)" font-size="10" font-family="monospace">3</text>
  <rect x="80" y="118" width="224" height="13" rx="2" fill="rgba(255,255,255,0.10759207845842281)" opacity="1"/>
  <rect x="316" y="118" width="93" height="13" rx="2" fill="rgba(255,255,255,0.06973833728575575)" opacity="0.6"/>
  <text x="52" y="146" text-anchor="end" fill="rgba(255,255,255,0.15)" font-size="10" font-family="monospace">4</text>
  <rect x="80" y="136" width="617" height="13" rx="2" fill="#a78bfa" opacity="0.55"/>
  <text x="52" y="164" text-anchor="end" fill="rgba(255,255,255,0.15)" font-size="10" font-family="monospace">5</text>
  <rect x="100" y="154" width="559" height="13" rx="2" fill="rgba(255,255,255,0.07498595882556074)" opacity="1"/>
  <text x="52" y="182" text-anchor="end" fill="rgba(255,255,255,0.15)" font-size="10" font-family="monospace">6</text>
  <rect x="100" y="172" width="149" height="13" rx="2" fill="rgba(255,255,255,0.12466024009153717)" opacity="1"/>
  <rect x="261" y="172" width="64" height="13" rx="2" fill="rgba(255,255,255,0.0717591806831209)" opacity="0.6"/>
  <text x="52" y="200" text-anchor="end" fill="rgba(255,255,255,0.15)" font-size="10" font-family="monospace">7</text>
  <rect x="60" y="190" width="214" height="13" rx="2" fill="rgba(255,255,255,0.12971240410341706)" opacity="1"/>
  <rect x="286" y="190" width="107" height="13" rx="2" fill="rgba(255,255,255,0.07722262081858297)" opacity="0.6"/>
  <text x="52" y="218" text-anchor="end" fill="rgba(255,255,255,0.15)" font-size="10" font-family="monospace">8</text>
  <rect x="100" y="208" width="337" height="13" rx="2" fill="rgba(255,255,255,0.13243100885125597)" opacity="1"/>
  <text x="52" y="236" text-anchor="end" fill="rgba(255,255,255,0.15)" font-size="10" font-family="monospace">9</text>
  <rect x="80" y="226" width="629" height="13" rx="2" fill="rgba(255,255,255,0.12886801849791502)" opacity="1"/>
  <text x="52" y="254" text-anchor="end" fill="rgba(255,255,255,0.15)" font-size="10" font-family="monospace">10</text>
  <rect x="100" y="244" width="384" height="13" rx="2" fill="rgba(255,255,255,0.10010725059549028)" opacity="1"/>
  <text x="52" y="272" text-anchor="end" fill="rgba(255,255,255,0.15)" font-size="10" font-family="monospace">11</text>
  <rect x="80" y="262" width="307" height="13" rx="2" fill="rgba(255,255,255,0.0893054510721251)" opacity="1"/>
  <rect x="399" y="262" width="58" height="13" rx="2" fill="rgba(255,255,255,0.04032736082801767)" opacity="0.6"/>
  <text x="52" y="290" text-anchor="end" fill="rgba(255,255,255,0.15)" font-size="10" font-family="monospace">12</text>
  <rect x="60" y="280" width="391" height="13" rx="2" fill="#a78bfa" opacity="0.55"/>
  <rect x="463" y="280" width="72" height="13" rx="2" fill="#7c3aed" opacity="0.6"/>
  <text x="52" y="308" text-anchor="end" fill="rgba(255,255,255,0.15)" font-size="10" font-family="monospace">13</text>
  <rect x="100" y="298" width="431" height="13" rx="2" fill="rgba(255,255,255,0.07070551799859515)" opacity="1"/>
  <text x="52" y="326" text-anchor="end" fill="rgba(255,255,255,0.15)" font-size="10" font-family="monospace">14</text>
  <rect x="100" y="316" width="532" height="13" rx="2" fill="rgba(255,255,255,0.09366868073904623)" opacity="1"/>
  <rect x="644" y="316" width="72" height="13" rx="2" fill="rgba(255,255,255,0.076353456353851)" opacity="0.6"/>

  <!-- Big dimmed project name in center -->
  <text x="400" y="295" text-anchor="middle" fill="rgba(255,255,255,0.05)" font-size="52" font-weight="900" font-family="system-ui,sans-serif" letter-spacing="-2">Rotation Matching Game</text>

  <!-- Bottom info bar -->
  <rect x="0" y="400" width="800" height="100" fill="rgba(0,0,0,0.55)"/>

  <!-- Accent line -->
  <rect x="0" y="400" width="800" height="3" fill="url(#bar)"/>

  <!-- Author initials circle -->
  <circle cx="72" cy="450" r="28" fill="#a78bfa" opacity="0.18"/>
  <circle cx="72" cy="450" r="22" fill="#a78bfa" opacity="0.22"/>
  <text x="72" y="456" text-anchor="middle" fill="#a78bfa" font-size="15" font-weight="800" font-family="system-ui,sans-serif">J</text>

  <!-- Project name -->
  <text x="112" y="440" fill="rgba(255,255,255,0.92)" font-size="17" font-weight="800" font-family="system-ui,sans-serif" letter-spacing="-0.5">Rotation Matching Game</text>

  <!-- Tag pills -->
  <rect x="112" y="455" width="44" height="20" rx="10" fill="#a78bfa" opacity="0.22"/>
  <text x="134" y="469" text-anchor="middle" fill="#a78bfa" font-size="10" font-weight="700" font-family="system-ui,sans-serif">GAME</text>

  <rect x="162" y="455" width="86" height="20" rx="10" fill="rgba(255,255,255,0.08)"/>
  <text x="205" y="469" text-anchor="middle" fill="rgba(255,255,255,0.5)" font-size="10" font-weight="600" font-family="system-ui,sans-serif">JAVASCRIPT</text>

  <rect x="254" y="455" width="72" height="20" rx="10" fill="rgba(255,255,255,0.06)"/>
  <text x="290" y="469" text-anchor="middle" fill="rgba(255,255,255,0.35)" font-size="10" font-weight="600" font-family="system-ui,sans-serif">ROTATION</text>
</svg>