<svg width="800" height="500" viewBox="0 0 800 500" xmlns="http://www.w3.org/2000/svg">
  <defs>
    <linearGradient id="g" x1="0%" y1="0%" x2="100%" y2="100%">
      <stop offset="0%" stop-color="#1a0d2e"/>
      <stop offset="100%" stop-color="#0d0718"/>
    </linearGradient>
    <linearGradient id="bar" x1="0%" y1="0%" x2="100%" y2="0%">
      <stop offset="0%" stop-color="#a78bfa" stop-opacity="0.9"/>
      <stop offset="100%" stop-color="#7c3aed" stop-opacity="0.7"/>
    </linearGradient>
    <clipPath id="clip"><rect width="800" height="500" rx="0"/></clipPath>
  </defs>

  <!-- Background -->
  <rect width="800" height="500" fill="url(#g)" clip-path="url(#clip)"/>

  <!-- Subtle glow behind center -->
  <ellipse cx="400" cy="220" rx="280" ry="160" fill="#a78bfa" opacity="0.04"/>

  <!-- Editor window -->
  <rect x="32" y="32" width="736" height="348" rx="12" fill="rgba(0,0,0,0.45)"/>

  <!-- Title bar -->
  <rect x="32" y="32" width="736" height="38" rx="12" fill="#130926"/>
  <rect x="32" y="56" width="736" height="14" fill="#130926"/>

  <!-- Traffic lights -->
  <circle cx="62"  cy="51" r="7" fill="#ff5f57" opacity="0.95"/>
  <circle cx="88"  cy="51" r="7" fill="#febc2e" opacity="0.95"/>
  <circle cx="114" cy="51" r="7" fill="#28c840" opacity="0.95"/>

  <!-- Tab/filename -->
  <rect x="140" y="38" width="160" height="26" rx="5" fill="rgba(255,255,255,0.07)"/>
  <text x="160" y="55" fill="rgba(255,255,255,0.55)" font-size="11" font-family="monospace">shape-recognition-game.html</text>

  <!-- Gutter -->
  <rect x="32" y="70" width="52" height="310" fill="rgba(0,0,0,0.2)"/>

  <!-- Code lines -->
  <text x="52" y="92" text-anchor="end" fill="rgba(255,255,255,0.15)" font-size="10" font-family="monospace">1</text>
  <rect x="100" y="82" width="530" height="13" rx="2" fill="rgba(255,255,255,0.11339429936683604)" opacity="1"/>
  <text x="52" y="110" text-anchor="end" fill="rgba(255,255,255,0.15)" font-size="10" font-family="monospace">2</text>
  <rect x="80" y="100" width="566" height="13" rx="2" fill="rgba(255,255,255,0.12692819863253463)" opacity="1"/>
  <rect x="658" y="100" width="83" height="13" rx="2" fill="rgba(255,255,255,0.054598858778970055)" opacity="0.6"/>
  <text x="52" y="128" text-anchor="end" fill="rgba(255,255,255,0.15)" font-size="10" font-family="monospace">3</text>
  <rect x="80" y="118" width="325" height="13" rx="2" fill="rgba(255,255,255,0.10606418545499076)" opacity="1"/>
  <rect x="417" y="118" width="66" height="13" rx="2" fill="rgba(255,255,255,0.07672479552606233)" opacity="0.6"/>
  <text x="52" y="146" text-anchor="end" fill="rgba(255,255,255,0.15)" font-size="10" font-family="monospace">4</text>
  <rect x="60" y="136" width="326" height="13" rx="2" fill="#a78bfa" opacity="0.55"/>
  <rect x="398" y="136" width="78" height="13" rx="2" fill="#7c3aed" opacity="0.6"/>
  <text x="52" y="164" text-anchor="end" fill="rgba(255,255,255,0.15)" font-size="10" font-family="monospace">5</text>
  <rect x="60" y="154" width="472" height="13" rx="2" fill="rgba(255,255,255,0.10835066531979262)" opacity="1"/>
  <text x="52" y="182" text-anchor="end" fill="rgba(255,255,255,0.15)" font-size="10" font-family="monospace">6</text>
  <rect x="80" y="172" width="182" height="13" rx="2" fill="rgba(255,255,255,0.12324538601172282)" opacity="1"/>
  <text x="52" y="200" text-anchor="end" fill="rgba(255,255,255,0.15)" font-size="10" font-family="monospace">7</text>
  <rect x="100" y="190" width="134" height="13" rx="2" fill="rgba(255,255,255,0.08365224529608438)" opacity="1"/>
  <text x="52" y="218" text-anchor="end" fill="rgba(255,255,255,0.15)" font-size="10" font-family="monospace">8</text>
  <rect x="60" y="208" width="315" height="13" rx="2" fill="#a78bfa" opacity="0.55"/>
  <text x="52" y="236" text-anchor="end" fill="rgba(255,255,255,0.15)" font-size="10" font-family="monospace">9</text>
  <rect x="100" y="226" width="329" height="13" rx="2" fill="rgba(255,255,255,0.10896571283437445)" opacity="1"/>
  <text x="52" y="254" text-anchor="end" fill="rgba(255,255,255,0.15)" font-size="10" font-family="monospace">10</text>
  <rect x="60" y="244" width="86" height="13" rx="2" fill="rgba(255,255,255,0.08709974568968167)" opacity="1"/>
  <rect x="158" y="244" width="63" height="13" rx="2" fill="rgba(255,255,255,0.04875966017105609)" opacity="0.6"/>
  <text x="52" y="272" text-anchor="end" fill="rgba(255,255,255,0.15)" font-size="10" font-family="monospace">11</text>
  <rect x="100" y="262" width="565" height="13" rx="2" fill="rgba(255,255,255,0.11802236044267712)" opacity="1"/>
  <text x="52" y="290" text-anchor="end" fill="rgba(255,255,255,0.15)" font-size="10" font-family="monospace">12</text>
  <rect x="60" y="280" width="649" height="13" rx="2" fill="rgba(255,255,255,0.13666090369146805)" opacity="1"/>
  <text x="52" y="308" text-anchor="end" fill="rgba(255,255,255,0.15)" font-size="10" font-family="monospace">13</text>
  <rect x="80" y="298" width="87" height="13" rx="2" fill="rgba(255,255,255,0.07260919755618302)" opacity="1"/>
  <text x="52" y="326" text-anchor="end" fill="rgba(255,255,255,0.15)" font-size="10" font-family="monospace">14</text>
  <rect x="80" y="316" width="477" height="13" rx="2" fill="rgba(255,255,255,0.11857980861761137)" opacity="1"/>
  <rect x="569" y="316" width="89" height="13" rx="2" fill="rgba(255,255,255,0.0547835082874595)" opacity="0.6"/>

  <!-- Big dimmed project name in center -->
  <text x="400" y="295" text-anchor="middle" fill="rgba(255,255,255,0.05)" font-size="52" font-weight="900" font-family="system-ui,sans-serif" letter-spacing="-2">Shape Recognition Game</text>

  <!-- Bottom info bar -->
  <rect x="0" y="400" width="800" height="100" fill="rgba(0,0,0,0.55)"/>

  <!-- Accent line -->
  <rect x="0" y="400" width="800" height="3" fill="url(#bar)"/>

  <!-- Author initials circle -->
  <circle cx="72" cy="450" r="28" fill="#a78bfa" opacity="0.18"/>
  <circle cx="72" cy="450" r="22" fill="#a78bfa" opacity="0.22"/>
  <text x="72" y="456" text-anchor="middle" fill="#a78bfa" font-size="15" font-weight="800" font-family="system-ui,sans-serif">M</text>

  <!-- Project name -->
  <text x="112" y="440" fill="rgba(255,255,255,0.92)" font-size="17" font-weight="800" font-family="system-ui,sans-serif" letter-spacing="-0.5">Shape Recognition Game</text>

  <!-- Tag pills -->
  <rect x="112" y="455" width="44" height="20" rx="10" fill="#a78bfa" opacity="0.22"/>
  <text x="134" y="469" text-anchor="middle" fill="#a78bfa" font-size="10" font-weight="700" font-family="system-ui,sans-serif">GAME</text>

  <rect x="162" y="455" width="58" height="20" rx="10" fill="rgba(255,255,255,0.08)"/>
  <text x="191" y="469" text-anchor="middle" fill="rgba(255,255,255,0.5)" font-size="10" font-weight="600" font-family="system-ui,sans-serif">SHAPES</text>

  <rect x="226" y="455" width="86" height="20" rx="10" fill="rgba(255,255,255,0.06)"/>
  <text x="269" y="469" text-anchor="middle" fill="rgba(255,255,255,0.35)" font-size="10" font-weight="600" font-family="system-ui,sans-serif">JAVASCRIPT</text>
</svg>