<?xml version="1.0" encoding="UTF-8"?>
<svg version="1.1" xmlns="http://www.w3.org/2000/svg" width="1057" height="450">
<path d="M0 0 C348.81 0 697.62 0 1057 0 C1057 148.5 1057 297 1057 450 C708.19 450 359.38 450 0 450 C0 301.5 0 153 0 0 Z " fill="#F8F8F8" transform="translate(0,0)"/>
<path d="M0 0 C1.25197939 -0.00666801 2.50395878 -0.01333602 3.79387695 -0.02020609 C7.28212496 -0.03806963 10.76966888 -0.02466251 14.25788877 -0.00631597 C18.0477429 0.00813576 21.83750237 -0.00634968 25.62735319 -0.01720095 C32.27385947 -0.03220534 38.92015457 -0.02854989 45.56665611 -0.01278305 C55.45002485 0.01059799 65.33323389 0.00544768 75.21661682 -0.00549195 C92.86600814 -0.0241009 110.5152987 -0.01434745 128.16468181 0.00698569 C143.60969118 0.02552306 159.05466668 0.03396601 174.49968719 0.0324173 C175.52312814 0.03232562 176.54656909 0.03223395 177.6010234 0.03213949 C181.7552247 0.03174635 185.90942598 0.03129673 190.06362726 0.0307681 C229.05450018 0.02589405 268.04531297 0.04857892 307.0361672 0.08472433 C341.69748665 0.11671898 376.35875472 0.12876814 411.0200882 0.12264252 C413.24559234 0.12225567 415.47109648 0.12186922 417.69660062 0.12148315 C418.79683344 0.1212918 419.89706626 0.12110046 421.03063947 0.12090331 C426.56875598 0.11994901 432.10687249 0.11903464 437.64498901 0.11816406 C438.73751074 0.11799027 439.83003247 0.11781647 440.95566092 0.11763741 C469.89545907 0.1132848 498.83525166 0.12329106 527.77504587 0.13800192 C528.80417683 0.13852206 529.83330779 0.1390422 530.89362454 0.13957811 C532.43454453 0.14035712 532.43454453 0.14035712 534.00659421 0.14115188 C535.03202415 0.14166962 536.0574541 0.14218736 537.11395768 0.14272078 C539.17912893 0.14376888 541.24430018 0.14482909 543.30947142 0.1459015 C557.72308277 0.15329012 572.13668626 0.15536885 586.55029927 0.1539075 C605.12256274 0.15206393 623.69477775 0.16009117 642.26702535 0.18554896 C652.09519977 0.19873959 661.92329683 0.20370998 671.75147822 0.19691042 C678.3088821 0.19321036 684.86621512 0.20035956 691.42360006 0.21650281 C695.16473638 0.22541303 698.90571303 0.2295247 702.64685291 0.22057563 C706.66970682 0.21107541 710.69214775 0.22457322 714.71498108 0.24050903 C715.88602805 0.23405723 717.05707503 0.22760543 718.26360828 0.22095811 C719.33285893 0.22898112 720.40210958 0.23700413 721.50376177 0.24527025 C722.88415004 0.24624639 722.88415004 0.24624639 724.29242495 0.24724224 C727.41417093 0.70530183 729.30944101 1.79214459 731.85749054 3.62361908 C733.45237822 6.81339444 733.02050208 10.26867737 733.02545929 13.77205658 C733.02878769 14.58099365 733.03211609 15.38993073 733.03554535 16.22338104 C733.0406124 17.93654054 733.04295374 19.64970991 733.04279327 21.36287689 C733.04497602 23.98120716 733.06312348 26.59911361 733.08209991 29.21736908 C733.08503464 30.88143014 733.08701891 32.5454932 733.08795929 34.20955658 C733.09514481 34.99196716 733.10233032 35.77437775 733.10973358 36.58049774 C733.07969233 43.7476219 733.07969233 43.7476219 730.85749054 46.62361908 C727.71022569 48.57302113 725.29761437 48.87429419 721.6268096 48.87661874 C720.02592022 48.88489797 720.02592022 48.88489797 718.39268965 48.89334446 C717.21872981 48.88923382 716.04476997 48.88512319 714.8352356 48.88088799 C713.58411045 48.88439406 712.33298531 48.88790013 711.04394728 48.89151245 C707.55365098 48.90099952 704.06345865 48.89796047 700.57315714 48.89295691 C696.78262961 48.88969921 692.99212474 48.89796534 689.20160437 48.90477526 C682.55241967 48.91509966 675.90326411 48.91791484 669.25407219 48.91586304 C659.36669763 48.91281941 649.47935543 48.92112276 639.59198715 48.93161229 C620.90856757 48.95097913 602.22515895 48.95658148 583.54173052 48.9577264 C569.11822931 48.95864451 554.69473241 48.96275608 540.2712326 48.96912766 C536.12364309 48.97092266 531.97605356 48.97270229 527.82846403 48.97447741 C526.79744925 48.97491951 525.76643446 48.9753616 524.7041768 48.9758171 C495.69455435 48.98812951 466.6849334 48.9960178 437.67530823 48.99513054 C436.58103943 48.99509938 435.48677064 48.99506822 434.35934218 48.99503612 C428.81276742 48.9948699 423.26619266 48.99467182 417.7196179 48.99446671 C416.61798964 48.99442682 415.51636137 48.99438693 414.38135044 48.99434583 C412.1535897 48.99426495 409.92582896 48.99418136 407.69806822 48.99409504 C373.02349041 48.99286903 338.34895169 49.00789033 303.67438507 49.03524017 C264.74509146 49.06593309 225.81582353 49.0831744 186.88651705 49.08131373 C182.73892752 49.08116446 178.591338 49.08106705 174.44374847 49.0810051 C173.42245596 49.08098179 172.40116345 49.08095848 171.34892268 49.08093446 C154.88443278 49.08087281 138.4199767 49.09366669 121.95549686 49.11086963 C105.42163847 49.12778832 88.88782979 49.12982953 72.35396755 49.11665098 C62.5211124 49.10923694 52.68840785 49.11299264 42.85556853 49.13253566 C36.29629846 49.14447523 29.73713826 49.14201226 23.17787337 49.12759467 C19.43478593 49.11978036 15.69199133 49.11842557 11.94892377 49.13450937 C7.92563087 49.15164686 3.90303948 49.13816572 -0.12025452 49.12139702 C-1.88119427 49.13630156 -1.88119427 49.13630156 -3.67770857 49.1515072 C-5.27859794 49.13725476 -5.27859794 49.13725476 -6.91182852 49.1227144 C-7.83246709 49.12289084 -8.75310566 49.12306729 -9.70164236 49.12324908 C-12.90215678 48.4681241 -14.08748053 47.10280584 -16.14250946 44.62361908 C-18.57094118 39.76675563 -17.45508233 32.34032733 -17.49260712 26.93929291 C-17.50915907 25.19241252 -17.53643941 23.44559965 -17.57463837 21.69905853 C-17.62949198 19.17746182 -17.65129272 16.65745133 -17.66594696 14.13533783 C-17.68861633 13.35808853 -17.71128571 12.58083923 -17.73464203 11.78003693 C-17.72068436 8.18569106 -17.34933543 5.93856508 -15.3649478 2.91682196 C-10.44963081 -0.58109418 -5.89520981 -0.06180673 0 0 Z " fill="#7E54D9" transform="translate(171.14250946044922,246.37638092041016)"/>
<path d="M0 0 C0.99 0.66 1.98 1.32 3 2 C3 1.34 3 0.68 3 0 C4.65 0 6.3 0 8 0 C8.08706286 4.41654255 8.14041378 8.83286457 8.1875 13.25 C8.21263672 14.50425781 8.23777344 15.75851563 8.26367188 17.05078125 C8.27333984 18.25605469 8.28300781 19.46132812 8.29296875 20.703125 C8.3086792 21.81333008 8.32438965 22.92353516 8.34057617 24.06738281 C7.95935208 27.35000916 7.31835911 28.68197998 5 31 C0.66032446 32.44655851 -3.46493156 32.5271656 -8 32 C-11.125 30.25 -11.125 30.25 -13 28 C-13 26.68 -13 25.36 -13 24 C-6.125 24.875 -6.125 24.875 -5 26 C-2.66702567 26.04092937 -0.33294775 26.04241723 2 26 C1.67 24.35 1.34 22.7 1 21 C0.01 21.66 -0.98 22.32 -2 23 C-4.875 23.4375 -4.875 23.4375 -8 23 C-11.10164769 20.44975635 -12.72566416 18.82300753 -14 15 C-14.41873961 10.69986636 -14.4550224 7.06930264 -12.75 3.0625 C-8.83197925 -1.55516731 -5.80026544 -1.26551246 0 0 Z " fill="#3E3938" transform="translate(240,87)"/>
<path d="M0 0 C3.00666168 1.68373054 4.4850854 2.75956749 6.125 5.75 C6.125 6.41 6.125 7.07 6.125 7.75 C2.875 8.5 2.875 8.5 -0.875 8.75 C-2.22932675 7.43799596 -3.56233482 6.10368596 -4.875 4.75 C-8.68353299 4.20592386 -10.90862851 4.22964612 -14.3125 6.0625 C-17.13010664 10.90878342 -16.33090792 16.61764438 -15.54296875 22.03125 C-15.32253906 22.5984375 -15.10210937 23.165625 -14.875 23.75 C-10.66726428 25.15257857 -6.76215073 25.34594233 -2.5 24 C-0.44854954 22.42196119 -0.21088318 21.26912388 0.125 18.75 C-2.515 18.75 -5.155 18.75 -7.875 18.75 C-7.875 17.1 -7.875 15.45 -7.875 13.75 C-3.255 13.75 1.365 13.75 6.125 13.75 C6.125 18.04 6.125 22.33 6.125 26.75 C-0.22779183 30.07077755 -5.67943708 31.77625242 -12.875 30.75 C-17.49672439 28.96687796 -20.24214072 26.75861948 -22.875 22.5625 C-24.28413984 17.19015434 -25.25854349 11.91322976 -22.9609375 6.66015625 C-17.63385746 -1.46793684 -8.88355122 -3.41819519 0 0 Z " fill="#3C3A3D" transform="translate(289.875,79.25)"/>
<path d="M0 0 C2.5769633 1.35545055 4.68652125 2.75929581 6.50390625 5.05078125 C7.61691927 9.37916524 7.69271527 12.92601473 5.75390625 16.98828125 C3.31191072 20.24427529 1.98226218 21.93299594 -1.93359375 23.23828125 C-6.18519592 23.63937579 -8.43429105 23.50206381 -12.24609375 21.48828125 C-16.05222144 18.30175574 -16.79024952 16.78639898 -17.24609375 11.86328125 C-16.9001662 7.85052164 -16.14447611 5.59272346 -13.93359375 2.23828125 C-9.71843578 -1.27435039 -5.1901488 -2.04460407 0 0 Z " fill="#3C393B" transform="translate(452.93359375,86.76171875)"/>
<path d="M0 0 C2.87887527 1.67934391 4.42447619 3.54040829 6.25 6.3125 C6.25 7.3025 6.25 8.2925 6.25 9.3125 C3.94 9.3125 1.63 9.3125 -0.75 9.3125 C-1.08 8.3225 -1.41 7.3325 -1.75 6.3125 C-4.45879335 4.95810332 -6.75933268 5.24748549 -9.75 5.3125 C-10.08 6.6325 -10.41 7.9525 -10.75 9.3125 C-9.78578125 9.62703125 -8.8215625 9.9415625 -7.828125 10.265625 C-6.55187396 10.69729815 -5.27584371 11.12962445 -4 11.5625 C-3.36578125 11.76746094 -2.7315625 11.97242187 -2.078125 12.18359375 C1.9247422 13.55957935 4.61559269 14.96907937 7.25 18.3125 C7.84915994 21.37487303 7.86407568 23.26638689 6.26171875 25.99609375 C3.84096118 29.12134424 2.10264822 30.67634844 -1.75 31.3125 C-7.14496819 31.81435751 -11.39169843 31.90168953 -15.75 28.3125 C-18.13246609 25.6835719 -18.75 24.92415822 -18.75 21.3125 C-16.77 20.9825 -14.79 20.6525 -12.75 20.3125 C-12.46125 20.951875 -12.1725 21.59125 -11.875 22.25 C-10.92176549 24.46456079 -10.92176549 24.46456079 -8.75 25.3125 C-4.60496339 25.56037017 -4.60496339 25.56037017 -0.75 24.3125 C-0.75 22.9925 -0.75 21.6725 -0.75 20.3125 C-1.72582031 19.99796875 -2.70164063 19.6834375 -3.70703125 19.359375 C-4.99242286 18.92778366 -6.27756639 18.495453 -7.5625 18.0625 C-8.20509766 17.85753906 -8.84769531 17.65257813 -9.50976562 17.44140625 C-13.40461519 16.10948878 -15.80086056 15.01304009 -17.75 11.3125 C-18.25476386 7.27438909 -18.44368631 5.22146826 -15.9375 1.9375 C-11.19139491 -1.58817807 -5.52803251 -1.38200813 0 0 Z " fill="#3B3A3C" transform="translate(174.75,78.6875)"/>
<path d="M0 0 C2.36293002 1.15632746 4.14983755 2.14983755 6 4 C6.15655027 5.48638992 6.25066943 6.97949127 6.31640625 8.47265625 C6.35830078 9.37177734 6.40019531 10.27089844 6.44335938 11.19726562 C6.48267578 12.14279297 6.52199219 13.08832031 6.5625 14.0625 C6.60568359 15.01189453 6.64886719 15.96128906 6.69335938 16.93945312 C6.79979276 19.29281353 6.90181008 21.64628354 7 24 C5.02 24 3.04 24 1 24 C0.67 23.34 0.34 22.68 0 22 C-0.53625 22.33 -1.0725 22.66 -1.625 23 C-4.64275242 24.2706326 -6.74992741 24.33854923 -10 24 C-12.375 22.9375 -12.375 22.9375 -14 21 C-14.5 17.5 -14.5 17.5 -14 14 C-11.15915654 11.25689198 -8.59020848 10.46937777 -4.75 9.8125 C-3.85796875 9.65394531 -2.9659375 9.49539062 -2.046875 9.33203125 C-1.37140625 9.22246094 -0.6959375 9.11289063 0 9 C-0.66 8.01 -1.32 7.02 -2 6 C-4.58380177 5.74969023 -4.58380177 5.74969023 -7 6 C-7.33 6.66 -7.66 7.32 -8 8 C-10.97 7.505 -10.97 7.505 -14 7 C-10.51991499 0.70270331 -7.16901376 -0.95027863 0 0 Z " fill="#3A393C" transform="translate(410,86)"/>
<path d="M0 0 C2.6258382 1.78870171 3.34201385 3.11189509 5 6 C5 8.31 5 10.62 5 13 C0.05 13 -4.9 13 -10 13 C-9.34 14.32 -8.68 15.64 -8 17 C-5.48776344 17.06978435 -3.31411014 17.0831468 -0.875 16.4375 C1 16 1 16 4 17 C3.08486681 19.28783297 2.34515354 20.73449728 0.375 22.25 C-3.10710092 23.34961082 -6.41692017 23.59717997 -10 23 C-12.8100346 21.20636089 -14.50940468 19.98119065 -16 17 C-17.08956854 6.46231567 -17.08956854 6.46231567 -13.625 1.8125 C-8.90794876 -1.44451157 -5.51731998 -1.53153193 0 0 Z " fill="#3A393B" transform="translate(317,87)"/>
<path d="M0 0 C5.53846154 3.07692308 5.53846154 3.07692308 7 6 C7.13415472 8.6723621 7.04318541 11.32250488 7 14 C2.05 14 -2.9 14 -8 14 C-7.67 15.32 -7.34 16.64 -7 18 C-2.88744122 18.12375421 -2.88744122 18.12375421 1.125 17.375 C3.65172384 16.86965523 4.84954734 17.69436803 7 19 C3.60707021 22.50602745 2.22007131 23.87799287 -2.75 24.375 C-6.06751516 24.34478584 -7.85116622 23.77284903 -10.4375 21.6875 C-14.15368478 17.79003791 -14.39307384 14.45731642 -14.359375 9.29296875 C-13.74961638 5.40244364 -11.81165184 3.67776365 -9 1 C-5.89046621 -0.5547669 -3.43733239 -0.28644437 0 0 Z " fill="#3B393A" transform="translate(367,86)"/>
<path d="M0 0 C1.99609375 0.05078125 1.99609375 0.05078125 4.4375 0.3125 C5.64212891 0.43044922 5.64212891 0.43044922 6.87109375 0.55078125 C9 1 9 1 11 3 C11.22705078 5.15478516 11.22705078 5.15478516 11.1953125 7.7890625 C11.18886719 8.73007813 11.18242187 9.67109375 11.17578125 10.640625 C11.15902344 11.62546875 11.14226562 12.6103125 11.125 13.625 C11.11597656 14.61757812 11.10695313 15.61015625 11.09765625 16.6328125 C11.07404116 19.08878134 11.04110799 21.54427168 11 24 C9.02 24 7.04 24 5 24 C4.67 18.39 4.34 12.78 4 7 C2.35 6.67 0.7 6.34 -1 6 C-3.93447357 8.93447357 -3.46158423 12.18259456 -3.625 16.125 C-3.66367187 16.87910156 -3.70234375 17.63320312 -3.7421875 18.41015625 C-3.83651031 20.27303184 -3.91934662 22.13648255 -4 24 C-5.98 24 -7.96 24 -10 24 C-10 16.41 -10 8.82 -10 1 C-7 1 -4 1 -1 1 C-0.67 0.67 -0.34 0.34 0 0 Z " fill="#403737" transform="translate(337,86)"/>
<path d="M0 0 C1.98 0 3.96 0 6 0 C6.33 5.61 6.66 11.22 7 17 C8.65 17 10.3 17 12 17 C14.84614024 14.15385976 14.45579076 11.19630858 14.625 7.375 C14.68300781 6.31539063 14.68300781 6.31539063 14.7421875 5.234375 C14.83647724 3.49001476 14.91932891 1.74504309 15 0 C16.98 0 18.96 0 21 0 C21 7.59 21 15.18 21 23 C19.02 23 17.04 23 15 23 C14.67 22.34 14.34 21.68 14 21 C13.01 21.66 12.02 22.32 11 23 C7.30888116 23.40266751 4.96986624 23.62140102 1.79296875 21.5859375 C-0.94527153 17.63666721 -0.42974759 13.93035064 -0.25 9.25 C-0.23195312 8.36183594 -0.21390625 7.47367187 -0.1953125 6.55859375 C-0.14827374 4.37129152 -0.08257009 2.18620184 0 0 Z " fill="#36363E" transform="translate(200,87)"/>
<path d="M0 0 C0 2.97 0 5.94 0 9 C1.32 9 2.64 9 4 9 C4 10.65 4 12.3 4 14 C2.68 14 1.36 14 0 14 C0 18.29 0 22.58 0 27 C1.32 27 2.64 27 4 27 C3.67 28.65 3.34 30.3 3 32 C-2.625 32.25 -2.625 32.25 -6 30 C-6.22107787 27.2114711 -6.28107535 24.65346819 -6.1875 21.875 C-6.17396484 21.12089844 -6.16042969 20.36679688 -6.14648438 19.58984375 C-6.11109985 17.72625873 -6.05729167 15.86304022 -6 14 C-6.99 14 -7.98 14 -9 14 C-9 12.35 -9 10.7 -9 9 C-8.01 9 -7.02 9 -6 9 C-6.103125 8.2575 -6.20625 7.515 -6.3125 6.75 C-6 4 -6 4 -3.5625 1.6875 C-1 0 -1 0 0 0 Z " fill="#36343A" transform="translate(429,78)"/>
<path d="M0 0 C1.98 0 3.96 0 6 0 C6 10.56 6 21.12 6 32 C4.02 32 2.04 32 0 32 C0 21.44 0 10.88 0 0 Z " fill="#3E3333" transform="translate(187,78)"/>
<path d="M0 0 C-0.33 1.65 -0.66 3.3 -1 5 C-2.98 5.66 -4.96 6.32 -7 7 C-7.33 12.28 -7.66 17.56 -8 23 C-9.98 23 -11.96 23 -14 23 C-14 15.41 -14 7.82 -14 0 C-11.66666667 0 -9.33333333 0 -7 0 C-4.3333581 -1.33332095 -2.83319697 -0.67102033 0 0 Z " fill="#35373E" transform="translate(479,87)"/>
<path d="M0 0 C-0.33 1.65 -0.66 3.3 -1 5 C-2.98 5.66 -4.96 6.32 -7 7 C-7.33 12.28 -7.66 17.56 -8 23 C-9.98 23 -11.96 23 -14 23 C-14 15.41 -14 7.82 -14 0 C-11.66666667 0 -9.33333333 0 -7 0 C-4.3333581 -1.33332095 -2.83319697 -0.67102033 0 0 Z " fill="#35373E" transform="translate(394,87)"/>
<path d="M0 0 C0.0809723 2.43816585 0.14046972 4.87364384 0.1875 7.3125 C0.22520508 8.34793945 0.22520508 8.34793945 0.26367188 9.40429688 C0.33714192 14.47372969 0.33714192 14.47372969 -1.28125 17 C-4.17643451 18.68447099 -6.85610709 17.65250608 -10 17 C-10 16.01 -10 15.02 -10 14 C-9.34 14 -8.68 14 -8 14 C-8 14.66 -8 15.32 -8 16 C-6.35 16 -4.7 16 -3 16 C-3.33 15.01 -3.66 14.02 -4 13 C-5.175625 12.8453125 -5.175625 12.8453125 -6.375 12.6875 C-9 12 -9 12 -11 9 C-11.31833733 5.94396162 -11.46221217 3.86664781 -10 1.125 C-6.74686316 -0.70488947 -3.68609891 -0.18128355 0 0 Z " fill="#88888E" transform="translate(365,202)"/>
<path d="M0 0 C0.0809723 2.43816585 0.14046972 4.87364384 0.1875 7.3125 C0.22520508 8.34793945 0.22520508 8.34793945 0.26367188 9.40429688 C0.33714192 14.47372969 0.33714192 14.47372969 -1.28125 17 C-4.17643451 18.68447099 -6.85610709 17.65250608 -10 17 C-10 16.01 -10 15.02 -10 14 C-9.34 14 -8.68 14 -8 14 C-8 14.66 -8 15.32 -8 16 C-6.35 15.67 -4.7 15.34 -3 15 C-2.67 14.01 -2.34 13.02 -2 12 C-3.98 12.33 -5.96 12.66 -8 13 C-10.23079726 10.58330297 -10.96940652 9.24984673 -11.375 5.9375 C-11 3 -11 3 -10 1.125 C-6.74686316 -0.70488947 -3.68609891 -0.18128355 0 0 Z " fill="#514F57" transform="translate(313,150)"/>
<path d="M0 0 C2.875 0.9375 2.875 0.9375 4.875 3.9375 C4.95703125 5.91015625 4.95703125 5.91015625 4.6875 8 C4.61144531 8.69222656 4.53539062 9.38445312 4.45703125 10.09765625 C3.875 11.9375 3.875 11.9375 0.875 13.9375 C-2.1875 13.75 -2.1875 13.75 -5.125 12.9375 C-7.45249345 9.44625983 -7.62799316 8.04527749 -7.125 3.9375 C-4.91876051 0.62814076 -4.01949747 -0.08038995 0 0 Z " fill="#EDEFED" transform="translate(449.125,91.0625)"/>
<path d="M0 0 C0.66 0 1.32 0 2 0 C2 5.61 2 11.22 2 17 C-6 17 -6 17 -8 15.375 C-9.2766188 12.34303035 -9.41616519 10.25996064 -9 7 C-7.8125 5.0625 -7.8125 5.0625 -6 4 C-3.3125 4.3125 -3.3125 4.3125 -1 5 C-0.67 3.35 -0.34 1.7 0 0 Z " fill="#959193" transform="translate(304,198)"/>
<path d="M0 0 C7 0 7 0 10 2 C10.66115702 8.94214876 10.66115702 8.94214876 8.75 12 C7 13 7 13 3 13 C2.67 14.65 2.34 16.3 2 18 C1.34 18 0.68 18 0 18 C0 12.06 0 6.12 0 0 Z " fill="#584E4E" transform="translate(373,150)"/>
<path d="M0 0 C0.33 1.32 0.66 2.64 1 4 C1.99 4 2.98 4 4 4 C4 2.68 4 1.36 4 0 C4.99 0 5.98 0 7 0 C7 5.61 7 11.22 7 17 C4.69 17 2.38 17 0 17 C-1 16 -1 16 -1.09765625 13.49609375 C-1.08605469 12.48675781 -1.07445312 11.47742188 -1.0625 10.4375 C-1.05347656 9.42558594 -1.04445313 8.41367188 -1.03515625 7.37109375 C-1.02355469 6.58863281 -1.01195312 5.80617187 -1 5 C-1.66 4.67 -2.32 4.34 -3 4 C-2.34 4 -1.68 4 -1 4 C-0.67 2.68 -0.34 1.36 0 0 Z " fill="#A8ABA9" transform="translate(435,146)"/>
<path d="M0 0 C1.8125 1.0625 1.8125 1.0625 3 3 C3.6384 8.9584 3.6384 8.9584 1.8125 11.9375 C-0.66049093 13.38718434 -2.17884512 13.42317323 -5 13 C-6.8125 11.9375 -6.8125 11.9375 -8 10 C-8.6384 4.0416 -8.6384 4.0416 -6.8125 1.0625 C-4.33950907 -0.38718434 -2.82115488 -0.42317323 0 0 Z " fill="#4F4A57" transform="translate(393,150)"/>
<path d="M0 0 C1.8125 1.0625 1.8125 1.0625 3 3 C3.6384 8.9584 3.6384 8.9584 1.8125 11.9375 C-0.66049093 13.38718434 -2.17884512 13.42317323 -5 13 C-6.8125 11.9375 -6.8125 11.9375 -8 10 C-8.6384 4.0416 -8.6384 4.0416 -6.8125 1.0625 C-4.33950907 -0.38718434 -2.82115488 -0.42317323 0 0 Z " fill="#4F4A57" transform="translate(343,150)"/>
<path d="M0 0 C1.57922406 1.57922406 1.207659 3.19443874 1.25 5.375 C1.28867188 6.56222656 1.28867188 6.56222656 1.328125 7.7734375 C1 10 1 10 -0.35546875 11.796875 C-2 13 -2 13 -4.5625 12.875 C-7 12 -7 12 -9 9 C-9.53938356 2.95890411 -9.53938356 2.95890411 -7.875 0 C-5.042116 -1.51087147 -3.01987426 -0.78779328 0 0 Z " fill="#ECF1F2" transform="translate(241,92)"/>
<path d="M0 0 C0.99 0.66 1.98 1.32 3 2 C3 2.99 3 3.98 3 5 C2.34 5 1.68 5 1 5 C1 4.34 1 3.68 1 3 C-1.97 3 -4.94 3 -8 3 C-8 6.63 -8 10.26 -8 14 C-5.36 14 -2.72 14 0 14 C0.33 13.01 0.66 12.02 1 11 C-0.65 11 -2.3 11 -4 11 C-4 10.34 -4 9.68 -4 9 C-1.36 9 1.28 9 4 9 C4.1875 11.875 4.1875 11.875 4 15 C0.3106 17.4596 -2.71832808 17.7996897 -7 17 C-10 14.9375 -10 14.9375 -12 12 C-12.625 8.5 -12.625 8.5 -12 5 C-8.55348916 0.09133304 -5.88073019 -0.76231688 0 0 Z " fill="#EDECF9" transform="translate(495,261)"/>
<path d="M0 0 C2.33294775 -0.04241723 4.66702567 -0.04092937 7 0 C8.81115956 1.81115956 8.38199448 4.61278227 8.5625 7.0625 C8.64628906 8.16722656 8.73007812 9.27195312 8.81640625 10.41015625 C8.87699219 11.26480469 8.93757812 12.11945313 9 13 C7.35425434 13.02688151 5.70838587 13.04634123 4.0625 13.0625 C3.14597656 13.07410156 2.22945312 13.08570313 1.28515625 13.09765625 C-1 13 -1 13 -2 12 C-2.25 9.5625 -2.25 9.5625 -2 7 C1.22791555 4.8480563 2.28400809 4.79913557 6 5 C5.67 4.34 5.34 3.68 5 3 C2.69 3.33 0.38 3.66 -2 4 C-1.34 2.68 -0.68 1.36 0 0 Z " fill="#F1F0FA" transform="translate(548,265)"/>
<path d="M0 0 C3.0625 0.375 3.0625 0.375 4.9375 2.1875 C6.0625 4.375 6.0625 4.375 6.0625 7.375 C3.0925 7.375 0.1225 7.375 -2.9375 7.375 C-2.6075 8.365 -2.2775 9.355 -1.9375 10.375 C1.5275 9.88 1.5275 9.88 5.0625 9.375 C4.4025 10.695 3.7425 12.015 3.0625 13.375 C-2.34182346 13.85538431 -2.34182346 13.85538431 -4.875 11.8125 C-6.38390049 8.35090475 -5.8076627 5.98952199 -4.9375 2.375 C-2.9375 0.375 -2.9375 0.375 0 0 Z " fill="#F1F2FC" transform="translate(569.9375,264.625)"/>
<path d="M0 0 C3.0625 0.375 3.0625 0.375 4.9375 2.1875 C6.0625 4.375 6.0625 4.375 6.0625 7.375 C3.0925 7.375 0.1225 7.375 -2.9375 7.375 C-2.6075 8.365 -2.2775 9.355 -1.9375 10.375 C1.5275 9.88 1.5275 9.88 5.0625 9.375 C4.4025 10.695 3.7425 12.015 3.0625 13.375 C-2.34182346 13.85538431 -2.34182346 13.85538431 -4.875 11.8125 C-6.38390049 8.35090475 -5.8076627 5.98952199 -4.9375 2.375 C-2.9375 0.375 -2.9375 0.375 0 0 Z " fill="#F1F2FC" transform="translate(530.9375,264.625)"/>
<path d="M0 0 C3.0625 0.375 3.0625 0.375 4.9375 2.1875 C6.0625 4.375 6.0625 4.375 6.0625 7.375 C3.0925 7.375 0.1225 7.375 -2.9375 7.375 C-2.6075 8.365 -2.2775 9.355 -1.9375 10.375 C1.5275 9.88 1.5275 9.88 5.0625 9.375 C4.4025 10.695 3.7425 12.015 3.0625 13.375 C-2.34182346 13.85538431 -2.34182346 13.85538431 -4.875 11.8125 C-6.38390049 8.35090475 -5.8076627 5.98952199 -4.9375 2.375 C-2.9375 0.375 -2.9375 0.375 0 0 Z " fill="#F1F2FC" transform="translate(505.9375,264.625)"/>
<path d="M0 0 C2.875 -0.125 2.875 -0.125 6 0 C8 2 8 2 8.1953125 4.6015625 C8.17210937 5.59929687 8.14890625 6.59703125 8.125 7.625 C8.10695312 8.62789062 8.08890625 9.63078125 8.0703125 10.6640625 C8.03550781 11.82035156 8.03550781 11.82035156 8 13 C6.54207116 13.05399736 5.08357288 13.09279177 3.625 13.125 C2.81289062 13.14820313 2.00078125 13.17140625 1.1640625 13.1953125 C-1 13 -1 13 -3 11 C-3 9 -3 9 -2 7 C0.74177497 5.83328724 3.00567607 5 6 5 C5.67 4.34 5.34 3.68 5 3 C2.47266765 2.34444881 2.47266765 2.34444881 0 2 C0 2.66 0 3.32 0 4 C-0.66 4 -1.32 4 -2 4 C-1.34 2.68 -0.68 1.36 0 0 Z " fill="#535E6F" transform="translate(220,150)"/>
<path d="M0 0 C6.57692308 0.57692308 6.57692308 0.57692308 8 2 C8.04063832 3.66617115 8.042721 5.33388095 8 7 C5.36 7 2.72 7 0 7 C0.33 7.99 0.66 8.98 1 10 C4.465 9.505 4.465 9.505 8 9 C7.34 10.32 6.68 11.64 6 13 C0.59567654 13.48038431 0.59567654 13.48038431 -1.9375 11.4375 C-3.44640049 7.97590475 -2.8701627 5.61452199 -2 2 C-1.34 1.34 -0.68 0.68 0 0 Z " fill="#8B837F" transform="translate(273,202)"/>
<path d="M0 0 C1.9375 1.375 1.9375 1.375 3 3 C3 3.66 3 4.32 3 5 C2.34 5 1.68 5 1 5 C0.67 4.34 0.34 3.68 0 3 C-2.33294775 2.95758277 -4.66702567 2.95907063 -7 3 C-8.2245178 4.00469623 -8.2245178 4.00469623 -8.1328125 6.03125 C-8.13023437 6.8459375 -8.12765625 7.660625 -8.125 8.5 C-8.12757813 9.3146875 -8.13015625 10.129375 -8.1328125 10.96875 C-8.2245178 12.99530377 -8.2245178 12.99530377 -7 14 C-4.66702567 14.04092937 -2.33294775 14.04241723 0 14 C0.33 13.01 0.66 12.02 1 11 C-0.32 11 -1.64 11 -3 11 C-3 10.34 -3 9.68 -3 9 C-1.02 9 0.96 9 3 9 C3 11.31 3 13.62 3 16 C-0.59264452 17.19754817 -3.22717474 17.33094958 -7 17 C-10.30748965 14.38882396 -11.81680509 12.37396185 -12.375 8.1875 C-12 5 -12 5 -9.9375 2.125 C-6.2906002 -0.51318284 -4.41055377 -0.65341537 0 0 Z " fill="#4E5054" transform="translate(167,146)"/>
<path d="M0 0 C2.875 0.6875 2.875 0.6875 3.875 1.6875 C3.91563832 3.35367115 3.917721 5.02138095 3.875 6.6875 C1.235 6.6875 -1.405 6.6875 -4.125 6.6875 C-3.795 7.6775 -3.465 8.6675 -3.125 9.6875 C0.34 9.1925 0.34 9.1925 3.875 8.6875 C3.215 10.0075 2.555 11.3275 1.875 12.6875 C-1.5 12.375 -1.5 12.375 -5.125 11.6875 C-7.125 8.6875 -7.125 8.6875 -6.9375 5.125 C-5.86852475 0.60241239 -4.67309649 -0.46730965 0 0 Z " fill="#59493F" transform="translate(204.125,150.3125)"/>
<path d="M0 0 C2.875 0.6875 2.875 0.6875 3.875 1.6875 C3.91563832 3.35367115 3.917721 5.02138095 3.875 6.6875 C1.235 6.6875 -1.405 6.6875 -4.125 6.6875 C-3.795 7.6775 -3.465 8.6675 -3.125 9.6875 C0.34 9.1925 0.34 9.1925 3.875 8.6875 C3.215 10.0075 2.555 11.3275 1.875 12.6875 C-1.5 12.375 -1.5 12.375 -5.125 11.6875 C-7.125 8.6875 -7.125 8.6875 -6.9375 5.125 C-5.86852475 0.60241239 -4.67309649 -0.46730965 0 0 Z " fill="#59493F" transform="translate(179.125,150.3125)"/>
<path d="M0 0 C2.29141286 -0.05384521 4.58318188 -0.09272087 6.875 -0.125 C8.78925781 -0.15980469 8.78925781 -0.15980469 10.7421875 -0.1953125 C14 0 14 0 16 2 C16.1953125 4.6015625 16.1953125 4.6015625 16.125 7.625 C16.10695313 8.62789062 16.08890625 9.63078125 16.0703125 10.6640625 C16.04710937 11.43492187 16.02390625 12.20578125 16 13 C15.34 13 14.68 13 14 13 C14 9.37 14 5.74 14 2 C12.68 2.33 11.36 2.66 10 3 C9.67 6.3 9.34 9.6 9 13 C8.34 13 7.68 13 7 13 C7 9.37 7 5.74 7 2 C5.68 2.33 4.36 2.66 3 3 C2.67 6.3 2.34 9.6 2 13 C1.34 13 0.68 13 0 13 C0 8.71 0 4.42 0 0 Z " fill="#60494A" transform="translate(348,150)"/>
<path d="M0 0 C3.625 0.375 3.625 0.375 7 1 C7.33 2.98 7.66 4.96 8 7 C5.03 7 2.06 7 -1 7 C-0.01 8.485 -0.01 8.485 1 10 C4.465 9.505 4.465 9.505 8 9 C7.34 10.32 6.68 11.64 6 13 C0.59567654 13.48038431 0.59567654 13.48038431 -1.9375 11.4375 C-3.44640049 7.97590475 -2.8701627 5.61452199 -2 2 C-1.34 1.34 -0.68 0.68 0 0 Z " fill="#857C7D" transform="translate(242,202)"/>
<path d="M0 0 C1.8125 1.25 1.8125 1.25 3 3 C3 4.32 3 5.64 3 7 C0.03 7 -2.94 7 -6 7 C-5.67 8.32 -5.34 9.64 -5 11 C-3.35 11 -1.7 11 0 11 C0 10.34 0 9.68 0 9 C0.99 9 1.98 9 3 9 C2.67 9.99 2.34 10.98 2 12 C-4.37426409 13.32296047 -4.37426409 13.32296047 -6.9375 12 C-8.58367385 8.90131981 -8.36841966 6.43858351 -8 3 C-5.95177941 -0.34183359 -3.7548828 -0.56323242 0 0 Z " fill="#8C8D92" transform="translate(291,202)"/>
<path d="M0 0 C1.8125 1.25 1.8125 1.25 3 3 C3 4.32 3 5.64 3 7 C0.03 7 -2.94 7 -6 7 C-5.67 8.32 -5.34 9.64 -5 11 C-3.35 11 -1.7 11 0 11 C0 10.34 0 9.68 0 9 C0.99 9 1.98 9 3 9 C2.67 9.99 2.34 10.98 2 12 C-4.37426409 13.32296047 -4.37426409 13.32296047 -6.9375 12 C-8.58367385 8.90131981 -8.36841966 6.43858351 -8 3 C-5.95177941 -0.34183359 -3.7548828 -0.56323242 0 0 Z " fill="#8C8D92" transform="translate(206,202)"/>
<path d="M0 0 C0 3.96 0 7.92 0 12 C-7.75 12.125 -7.75 12.125 -10 11 C-10 9.35 -10 7.7 -10 6 C-7.36 5.34 -4.72 4.68 -2 4 C-2 3.01 -2 2.02 -2 1 C-4.64 1.66 -7.28 2.32 -10 3 C-9.67 2.01 -9.34 1.02 -9 0 C-5.93109813 -1.53445094 -3.29905734 -0.54984289 0 0 Z " fill="#574846" transform="translate(265,151)"/>
<path d="M0 0 C1.8125 1.25 1.8125 1.25 3 3 C3 4.32 3 5.64 3 7 C0.03 7 -2.94 7 -6 7 C-5.67 8.32 -5.34 9.64 -5 11 C-3.35 11 -1.7 11 0 11 C0 10.34 0 9.68 0 9 C0.66 9 1.32 9 2 9 C1.34 10.32 0.68 11.64 0 13 C-2.70313576 13.21917317 -4.43958382 13.32851983 -6.8125 11.9375 C-8.67036623 8.90624457 -8.37133265 6.46577141 -8 3 C-5.95177941 -0.34183359 -3.7548828 -0.56323242 0 0 Z " fill="#595D64" transform="translate(452,150)"/>
<path d="M0 0 C6.8359375 -0.29296875 6.8359375 -0.29296875 9 0 C11.20914 3.31371 11.22481553 4.3446021 11.125 8.1875 C11.10695313 9.08855469 11.08890625 9.98960937 11.0703125 10.91796875 C11.03550781 11.94857422 11.03550781 11.94857422 11 13 C10.01 13 9.02 13 8 13 C7.67 9.7 7.34 6.4 7 3 C6.01 3 5.02 3 4 3 C3.67 6.3 3.34 9.6 3 13 C2.01 13 1.02 13 0 13 C0 8.71 0 4.42 0 0 Z " fill="#EBE0F4" transform="translate(513,265)"/>
<path d="M0 0 C0.66 0 1.32 0 2 0 C2.33 1.32 2.66 2.64 3 4 C3.78375 3.95875 4.5675 3.9175 5.375 3.875 C8 4 8 4 10 6 C10.1953125 8.6015625 10.1953125 8.6015625 10.125 11.625 C10.10695312 12.62789062 10.08890625 13.63078125 10.0703125 14.6640625 C10.03550781 15.82035156 10.03550781 15.82035156 10 17 C9.01 17 8.02 17 7 17 C7 13.37 7 9.74 7 6 C5.68 6.33 4.36 6.66 3 7 C2.67 10.3 2.34 13.6 2 17 C1.34 17 0.68 17 0 17 C0 11.39 0 5.78 0 0 Z " fill="#999A9D" transform="translate(186,198)"/>
<path d="M0 0 C7.75 -0.125 7.75 -0.125 10 1 C10 4.96 10 8.92 10 13 C9.34 13 8.68 13 8 13 C8 9.37 8 5.74 8 2 C6.68 2.33 5.36 2.66 4 3 C3.67 6.3 3.34 9.6 3 13 C2.01 13 1.02 13 0 13 C0 8.71 0 4.42 0 0 Z " fill="#978F8F" transform="translate(258,202)"/>
<path d="M0 0 C2.33944736 0.28730055 4.6739143 0.61936779 7 1 C7.33 1.99 7.66 2.98 8 4 C5.69 3.34 3.38 2.68 1 2 C1 2.99 1 3.98 1 5 C3.97 5.495 3.97 5.495 7 6 C7.625 8.375 7.625 8.375 8 11 C6 13 6 13 2.875 13.125 C1.92625 13.08375 0.9775 13.0425 0 13 C-0.66 11.68 -1.32 10.36 -2 9 C0.64 9.66 3.28 10.32 6 11 C6 10.01 6 9.02 6 8 C3.69 7.34 1.38 6.68 -1 6 C-1.042721 4.33388095 -1.04063832 2.66617115 -1 1 C-0.67 0.67 -0.34 0.34 0 0 Z " fill="#7D7B82" transform="translate(327,202)"/>
<path d="M0 0 C0.66 0 1.32 0 2 0 C2.33 3.3 2.66 6.6 3 10 C4.32 10 5.64 10 7 10 C7.33 6.7 7.66 3.4 8 0 C8.66 0 9.32 0 10 0 C10 4.29 10 8.58 10 13 C3.9453125 13.1953125 3.9453125 13.1953125 2 13 C0 11 0 11 -0.1953125 8.3984375 C-0.17210937 7.40070313 -0.14890625 6.40296875 -0.125 5.375 C-0.10695313 4.37210938 -0.08890625 3.36921875 -0.0703125 2.3359375 C-0.04710937 1.56507813 -0.02390625 0.79421875 0 0 Z " fill="#998A7F" transform="translate(342,202)"/>
<path d="M0 0 C1.2065625 0.0309375 1.2065625 0.0309375 2.4375 0.0625 C3.0975 1.3825 3.7575 2.7025 4.4375 4.0625 C3.7775 4.0625 3.1175 4.0625 2.4375 4.0625 C2.4375 3.4025 2.4375 2.7425 2.4375 2.0625 C0.7875 2.0625 -0.8625 2.0625 -2.5625 2.0625 C-1.05586217 5.07577566 1.46916411 5.67306618 4.4375 7.0625 C3.5625 11.9375 3.5625 11.9375 2.4375 13.0625 C0.09805264 12.77519945 -2.2364143 12.44313221 -4.5625 12.0625 C-4.5625 11.0725 -4.5625 10.0825 -4.5625 9.0625 C-3.9025 9.0625 -3.2425 9.0625 -2.5625 9.0625 C-2.5625 9.7225 -2.5625 10.3825 -2.5625 11.0625 C-0.9125 11.0625 0.7375 11.0625 2.4375 11.0625 C2.4375 10.0725 2.4375 9.0825 2.4375 8.0625 C0.1275 7.4025 -2.1825 6.7425 -4.5625 6.0625 C-3.48963568 0.08511307 -3.48963568 0.08511307 0 0 Z " fill="#524B50" transform="translate(402.5625,149.9375)"/>
<path d="M0 0 C1.2065625 0.0309375 1.2065625 0.0309375 2.4375 0.0625 C3.0975 1.3825 3.7575 2.7025 4.4375 4.0625 C3.7775 4.0625 3.1175 4.0625 2.4375 4.0625 C2.4375 3.4025 2.4375 2.7425 2.4375 2.0625 C0.7875 2.0625 -0.8625 2.0625 -2.5625 2.0625 C-1.05586217 5.07577566 1.46916411 5.67306618 4.4375 7.0625 C3.5625 11.9375 3.5625 11.9375 2.4375 13.0625 C0.09805264 12.77519945 -2.2364143 12.44313221 -4.5625 12.0625 C-4.5625 11.0725 -4.5625 10.0825 -4.5625 9.0625 C-3.9025 9.0625 -3.2425 9.0625 -2.5625 9.0625 C-2.5625 9.7225 -2.5625 10.3825 -2.5625 11.0625 C-0.9125 11.0625 0.7375 11.0625 2.4375 11.0625 C2.4375 10.0725 2.4375 9.0825 2.4375 8.0625 C0.1275 7.4025 -2.1825 6.7425 -4.5625 6.0625 C-3.48963568 0.08511307 -3.48963568 0.08511307 0 0 Z " fill="#524B50" transform="translate(278.5625,149.9375)"/>
<path d="M0 0 C0.78375 0.04125 1.5675 0.0825 2.375 0.125 C3.035 1.445 3.695 2.765 4.375 4.125 C3.715 4.125 3.055 4.125 2.375 4.125 C2.375 3.465 2.375 2.805 2.375 2.125 C0.725 2.125 -0.925 2.125 -2.625 2.125 C-1.11836217 5.13827566 1.40666411 5.73556618 4.375 7.125 C4.375 8.775 4.375 10.425 4.375 12.125 C2.065 12.455 -0.245 12.785 -2.625 13.125 C-3.285 11.805 -3.945 10.485 -4.625 9.125 C-3.965 9.125 -3.305 9.125 -2.625 9.125 C-2.625 9.785 -2.625 10.445 -2.625 11.125 C-0.975 11.125 0.675 11.125 2.375 11.125 C2.375 10.135 2.375 9.145 2.375 8.125 C1.405625 7.8775 0.43625 7.63 -0.5625 7.375 C-3.625 6.125 -3.625 6.125 -4.625 4.125 C-4.625 0.73492581 -3.1763743 0.15125592 0 0 Z " fill="#888283" transform="translate(312.625,201.875)"/>
<path d="M0 0 C0.66 0 1.32 0 2 0 C2 3.63 2 7.26 2 11 C3.32 10.67 4.64 10.34 6 10 C6.33 6.7 6.66 3.4 7 0 C7.66 0 8.32 0 9 0 C9 4.29 9 8.58 9 13 C2.84765625 13.09765625 2.84765625 13.09765625 1 13 C0 12 0 12 -0.09765625 9.27734375 C-0.08605469 8.17519531 -0.07445312 7.07304687 -0.0625 5.9375 C-0.05347656 4.83277344 -0.04445313 3.72804687 -0.03515625 2.58984375 C-0.02355469 1.73519531 -0.01195312 0.88054687 0 0 Z " fill="#4C5E73" transform="translate(291,150)"/>
<path d="M0 0 C0.66 0 1.32 0 2 0 C2 1.32 2 2.64 2 4 C2.66 4 3.32 4 4 4 C4 4.66 4 5.32 4 6 C3.34 6 2.68 6 2 6 C2 8.97 2 11.94 2 15 C2.66 15 3.32 15 4 15 C4 15.66 4 16.32 4 17 C2.35 16.67 0.7 16.34 -1 16 C-1.22281874 14.08496326 -1.42771076 12.16783494 -1.625 10.25 C-1.74101563 9.18265625 -1.85703125 8.1153125 -1.9765625 7.015625 C-2.00029475 3.96207601 -1.61420985 2.53837579 0 0 Z " fill="#EDF3FC" transform="translate(560,261)"/>
<path d="M0 0 C6.75 -0.125 6.75 -0.125 9 1 C9 4.96 9 8.92 9 13 C8.34 13 7.68 13 7 13 C7 9.37 7 5.74 7 2 C5.68 2.33 4.36 2.66 3 3 C2.67 6.3 2.34 9.6 2 13 C1.34 13 0.68 13 0 13 C0 8.71 0 4.42 0 0 Z " fill="#505260" transform="translate(186,150)"/>
<path d="M0 0 C4.62 0 9.24 0 14 0 C14 0.66 14 1.32 14 2 C12.02 2 10.04 2 8 2 C8 6.95 8 11.9 8 17 C7.34 17 6.68 17 6 17 C6 12.05 6 7.1 6 2 C4.02 2 2.04 2 0 2 C0 1.34 0 0.68 0 0 Z " fill="#7D7883" transform="translate(171,198)"/>
<path d="M0 0 C2.86724686 0.57344937 3.8614515 0.8614515 6 3 C6 4.32 6 5.64 6 7 C3.03 7 0.06 7 -3 7 C-2.01 8.485 -2.01 8.485 -1 10 C2.465 9.505 2.465 9.505 6 9 C5.67 9.99 5.34 10.98 5 12 C2.69 12.33 0.38 12.66 -2 13 C-3.5625 11.4375 -3.5625 11.4375 -5 9 C-4.6875 5.25 -4.6875 5.25 -4 2 C-3.67 3.32 -3.34 4.64 -3 6 C-0.69 6 1.62 6 4 6 C2.84826645 3.53199953 1.95216435 1.95216435 0 0 Z " fill="#4F4649" transform="translate(241,150)"/>
<path d="M0 0 C1.2065625 0.0309375 1.2065625 0.0309375 2.4375 0.0625 C3.0625 3.4375 3.0625 3.4375 3.4375 7.0625 C2.7775 7.7225 2.1175 8.3825 1.4375 9.0625 C-1.1875 8.6875 -1.1875 8.6875 -3.5625 8.0625 C-3.60491723 5.72955225 -3.60342937 3.39547433 -3.5625 1.0625 C-2.5625 0.0625 -2.5625 0.0625 0 0 Z " fill="#EDF0EC" transform="translate(390.5625,151.9375)"/>
<path d="M0 0 C1.2065625 0.0309375 1.2065625 0.0309375 2.4375 0.0625 C3.0625 3.4375 3.0625 3.4375 3.4375 7.0625 C2.7775 7.7225 2.1175 8.3825 1.4375 9.0625 C-1.1875 8.6875 -1.1875 8.6875 -3.5625 8.0625 C-3.60491723 5.72955225 -3.60342937 3.39547433 -3.5625 1.0625 C-2.5625 0.0625 -2.5625 0.0625 0 0 Z " fill="#EDF0EC" transform="translate(340.5625,151.9375)"/>
<path d="M0 0 C1.65 0 3.3 0 5 0 C6.35439668 2.70879335 6.06501451 5.00933268 6 8 C3.625 8.625 3.625 8.625 1 9 C0.34 8.34 -0.32 7.68 -1 7 C-0.625 3.375 -0.625 3.375 0 0 Z " fill="#E7E9E6" transform="translate(305,152)"/>
<path d="M0 0 C4.875 0.875 4.875 0.875 6 2 C6.1875 4.4375 6.1875 4.4375 6 7 C5.34 7.66 4.68 8.32 4 9 C2.68 9 1.36 9 0 9 C-1.125 2.25 -1.125 2.25 0 0 Z " fill="#F2F4F3" transform="translate(357,204)"/>
<path d="M0 0 C0.33 0 0.66 0 1 0 C1 4.29 1 8.58 1 13 C0.01 12.34 -0.98 11.68 -2 11 C-2 10.34 -2 9.68 -2 9 C-2.99 9.66 -3.98 10.32 -5 11 C-7.6875 10.625 -7.6875 10.625 -10 10 C-10 9.01 -10 8.02 -10 7 C-7.36 7 -4.72 7 -2 7 C-1.22227595 4.66682784 -0.57584432 2.38564077 0 0 Z " fill="#E8DECE" transform="translate(185,150)"/>
<path d="M0 0 C1.67542976 0.28604898 3.34385343 0.61781233 5 1 C5 3.31 5 5.62 5 8 C3.34385343 8.38218767 1.67542976 8.71395102 0 9 C-1 8 -1 8 -1.125 4.5 C-1 1 -1 1 0 0 Z " fill="#ECF3F1" transform="translate(376,152)"/>
<path d="M0 0 C3.69230769 0.69230769 3.69230769 0.69230769 5 2 C4.71269945 4.33944736 4.38063221 6.6739143 4 9 C2.35 8.67 0.7 8.34 -1 8 C-1.04241723 5.66705225 -1.04092937 3.33297433 -1 1 C-0.67 0.67 -0.34 0.34 0 0 Z " fill="#FCF9F2" transform="translate(299,204)"/>
<path d="M0 0 C2.31 0 4.62 0 7 0 C7 0.66 7 1.32 7 2 C5.68 2 4.36 2 3 2 C3 5.63 3 9.26 3 13 C2.01 13 1.02 13 0 13 C0 8.71 0 4.42 0 0 Z " fill="#726F6C" transform="translate(210,150)"/>
<path d="M0 0 C0.66 0.33 1.32 0.66 2 1 C1.34 2.32 0.68 3.64 0 5 C1.65 5 3.3 5 5 5 C5 5.33 5 5.66 5 6 C3.35 6 1.7 6 0 6 C0.33 7.32 0.66 8.64 1 10 C2.65 10 4.3 10 6 10 C6 9.34 6 8.68 6 8 C6.99 8 7.98 8 9 8 C8.67 8.99 8.34 9.98 8 11 C1.62573591 12.32296047 1.62573591 12.32296047 -0.9375 11 C-2.56192132 7.94226576 -2.30839752 5.39237275 -2 2 C-1.34 1.34 -0.68 0.68 0 0 Z " fill="#857979" transform="translate(285,203)"/>
<path d="M0 0 C0.66 0.33 1.32 0.66 2 1 C1.34 2.32 0.68 3.64 0 5 C1.65 5 3.3 5 5 5 C5 5.33 5 5.66 5 6 C3.35 6 1.7 6 0 6 C0.33 7.32 0.66 8.64 1 10 C2.65 10 4.3 10 6 10 C6 9.34 6 8.68 6 8 C6.99 8 7.98 8 9 8 C8.67 8.99 8.34 9.98 8 11 C1.62573591 12.32296047 1.62573591 12.32296047 -0.9375 11 C-2.56192132 7.94226576 -2.30839752 5.39237275 -2 2 C-1.34 1.34 -0.68 0.68 0 0 Z " fill="#857979" transform="translate(200,203)"/>
<path d="M0 0 C1.9375 1.375 1.9375 1.375 3 3 C3 3.66 3 4.32 3 5 C2.34 5 1.68 5 1 5 C0.67 4.34 0.34 3.68 0 3 C-3.41642759 2.74984127 -3.41642759 2.74984127 -7 3 C-9.29633824 6.44450737 -9.54016485 8.93812283 -10 13 C-12 11 -12 11 -12.4375 8.1875 C-12 5 -12 5 -9.9375 2.125 C-6.2906002 -0.51318284 -4.41055377 -0.65341537 0 0 Z " fill="#565153" transform="translate(167,146)"/>
<path d="M0 0 C0.33 1.32 0.66 2.64 1 4 C1.66 4 2.32 4 3 4 C3 4.66 3 5.32 3 6 C2.34 6 1.68 6 1 6 C1 8.97 1 11.94 1 15 C1.66 15 2.32 15 3 15 C3 15.66 3 16.32 3 17 C1.68 16.67 0.36 16.34 -1 16 C-1 12.7 -1 9.4 -1 6 C-1.66 6 -2.32 6 -3 6 C-3 5.34 -3 4.68 -3 4 C-2.34 4 -1.68 4 -1 4 C-0.67 2.68 -0.34 1.36 0 0 Z " fill="#868391" transform="translate(230,198)"/>
<path d="M0 0 C0.33 1.32 0.66 2.64 1 4 C1.66 4 2.32 4 3 4 C3 4.66 3 5.32 3 6 C2.34 6 1.68 6 1 6 C1 8.97 1 11.94 1 15 C1.66 15 2.32 15 3 15 C3 15.66 3 16.32 3 17 C1.68 16.67 0.36 16.34 -1 16 C-1 12.7 -1 9.4 -1 6 C-1.66 6 -2.32 6 -3 6 C-3 5.34 -3 4.68 -3 4 C-2.34 4 -1.68 4 -1 4 C-0.67 2.68 -0.34 1.36 0 0 Z " fill="#7F899A" transform="translate(219,198)"/>
<path d="M0 0 C0.33 1.32 0.66 2.64 1 4 C1.66 4 2.32 4 3 4 C3 4.66 3 5.32 3 6 C2.34 6 1.68 6 1 6 C1 8.97 1 11.94 1 15 C1.66 15 2.32 15 3 15 C3 15.66 3 16.32 3 17 C1.68 16.67 0.36 16.34 -1 16 C-1 12.7 -1 9.4 -1 6 C-1.66 6 -2.32 6 -3 6 C-3 5.34 -3 4.68 -3 4 C-2.34 4 -1.68 4 -1 4 C-0.67 2.68 -0.34 1.36 0 0 Z " fill="#514C61" transform="translate(411,146)"/>
<path d="M0 0 C0.33 1.32 0.66 2.64 1 4 C1.66 4 2.32 4 3 4 C3 4.66 3 5.32 3 6 C2.34 6 1.68 6 1 6 C1 8.97 1 11.94 1 15 C1.66 15 2.32 15 3 15 C3 15.66 3 16.32 3 17 C1.68 16.67 0.36 16.34 -1 16 C-1 12.7 -1 9.4 -1 6 C-1.66 6 -2.32 6 -3 6 C-3 5.34 -3 4.68 -3 4 C-2.34 4 -1.68 4 -1 4 C-0.67 2.68 -0.34 1.36 0 0 Z " fill="#514C61" transform="translate(232,146)"/>
<path d="M0 0 C1.9375 0.6875 1.9375 0.6875 4 2 C4.75 4.625 4.75 4.625 5 7 C2.03 6.67 -0.94 6.34 -4 6 C-3 2 -3 2 0 0 Z " fill="#CAB5ED" transform="translate(571,265)"/>
<path d="M0 0 C1.9375 0.6875 1.9375 0.6875 4 2 C4.75 4.625 4.75 4.625 5 7 C2.03 6.67 -0.94 6.34 -4 6 C-3 2 -3 2 0 0 Z " fill="#CAB5ED" transform="translate(532,265)"/>
<path d="M0 0 C1.9375 0.6875 1.9375 0.6875 4 2 C4.75 4.625 4.75 4.625 5 7 C2.03 6.67 -0.94 6.34 -4 6 C-3 2 -3 2 0 0 Z " fill="#CAB5ED" transform="translate(507,265)"/>
<path d="M0 0 C3.625 0.375 3.625 0.375 7 1 C6.67 2.65 6.34 4.3 6 6 C3.69 6 1.38 6 -1 6 C-1.625 4.125 -1.625 4.125 -2 2 C-1.34 1.34 -0.68 0.68 0 0 Z " fill="#B8B8B8" transform="translate(242,202)"/>
<path d="M0 0 C0.66 0.33 1.32 0.66 2 1 C1.34 2.32 0.68 3.64 0 5 C1.65 5 3.3 5 5 5 C5 5.33 5 5.66 5 6 C3.35 6 1.7 6 0 6 C0.33 7.32 0.66 8.64 1 10 C2.65 10 4.3 10 6 10 C6 9.34 6 8.68 6 8 C6.66 8 7.32 8 8 8 C7.34 9.32 6.68 10.64 6 12 C3.29686424 12.21917317 1.56041618 12.32851983 -0.8125 10.9375 C-2.646921 7.94449731 -2.31107576 5.42183337 -2 2 C-1.34 1.34 -0.68 0.68 0 0 Z " fill="#4F4245" transform="translate(446,151)"/>
<path d="M0 0 C0.33 1.32 0.66 2.64 1 4 C1.66 4 2.32 4 3 4 C3 4.66 3 5.32 3 6 C2.34 6 1.68 6 1 6 C1 8.97 1 11.94 1 15 C1.66 15 2.32 15 3 15 C3 15.66 3 16.32 3 17 C1.68 16.67 0.36 16.34 -1 16 C-1 12.37 -1 8.74 -1 5 C-1.66 4.67 -2.32 4.34 -3 4 C-2.34 4 -1.68 4 -1 4 C-0.67 2.68 -0.34 1.36 0 0 Z " fill="#40546E" transform="translate(435,146)"/>
<path d="M0 0 C1.32 0 2.64 0 4 0 C4 0.66 4 1.32 4 2 C3.01 2 2.02 2 1 2 C1 2.66 1 3.32 1 4 C1.66 4.33 2.32 4.66 3 5 C2.34 5 1.68 5 1 5 C1 8.96 1 12.92 1 17 C0.34 17 -0.32 17 -1 17 C-1.22262606 14.91814549 -1.42757926 12.83439574 -1.625 10.75 C-1.74101562 9.58984375 -1.85703125 8.4296875 -1.9765625 7.234375 C-1.99955595 4.06127909 -1.69705154 2.61682756 0 0 Z " fill="#6B533A" transform="translate(323,146)"/>
<path d="M0 0 C0.66 0 1.32 0 2 0 C2 0.99 2 1.98 2 3 C2.66 3.33 3.32 3.66 4 4 C3.34 4 2.68 4 2 4 C2 7.3 2 10.6 2 14 C2.99 14 3.98 14 5 14 C5 14.66 5 15.32 5 16 C3.35 15.67 1.7 15.34 0 15 C-0.19517554 13.06325815 -0.38087873 11.12555991 -0.5625 9.1875 C-0.66691406 8.10855469 -0.77132813 7.02960938 -0.87890625 5.91796875 C-1 3 -1 3 0 0 Z " fill="#6E5842" transform="translate(422,147)"/>
<path d="M0 0 C0.66 0 1.32 0 2 0 C2 5.61 2 11.22 2 17 C0.68 16.34 -0.64 15.68 -2 15 C-1.855625 14.01 -1.71125 13.02 -1.5625 12 C-0.99074821 8.00590535 -0.49180166 4.00467063 0 0 Z " fill="#7A889B" transform="translate(304,198)"/>
<path d="M0 0 C0.66 0 1.32 0 2 0 C2.28875 0.61875 2.5775 1.2375 2.875 1.875 C3.93720042 4.13325765 3.93720042 4.13325765 6 6 C5.01 6.33 4.02 6.66 3 7 C2.67 10.3 2.34 13.6 2 17 C1.34 17 0.68 17 0 17 C0 11.39 0 5.78 0 0 Z " fill="#807F90" transform="translate(186,198)"/>
<path d="M0 0 C0.33 0 0.66 0 1 0 C1 1.98 1 3.96 1 6 C-5.4 7.35384615 -5.4 7.35384615 -8.4375 5.5625 C-8.953125 5.046875 -9.46875 4.53125 -10 4 C-9.36191406 3.79503906 -8.72382813 3.59007813 -8.06640625 3.37890625 C-7.24011719 3.10949219 -6.41382813 2.84007813 -5.5625 2.5625 C-4.73878906 2.29566406 -3.91507813 2.02882813 -3.06640625 1.75390625 C-1.03780412 1.17844506 -1.03780412 1.17844506 0 0 Z " fill="#ECF1F0" transform="translate(241,107)"/>
<path d="M0 0 C0.99 0 1.98 0 3 0 C3 4.29 3 8.58 3 13 C2.01 13 1.02 13 0 13 C0 8.71 0 4.42 0 0 Z " fill="#A1A1A1" transform="translate(223,202)"/>
<path d="M0 0 C0.66 0 1.32 0 2 0 C3.96006223 5.88018669 3.00051595 11.99690429 2 18 C1.34 18 0.68 18 0 18 C0 12.06 0 6.12 0 0 Z " fill="#543751" transform="translate(373,150)"/>
<path d="M0 0 C0.66 0 1.32 0 2 0 C3.32229189 2.64458379 3.09677194 4.67761301 3.0625 7.625 C3.05347656 8.62789063 3.04445313 9.63078125 3.03515625 10.6640625 C3.02355469 11.43492187 3.01195312 12.20578125 3 13 C2.01 13 1.02 13 0 13 C0 8.71 0 4.42 0 0 Z " fill="#E4E5F9" transform="translate(513,265)"/>
<path d="M0 0 C0.66 0.66 1.32 1.32 2 2 C1.625 4.625 1.625 4.625 1 7 C0.67 6.34 0.34 5.68 0 5 C-0.99 5.66 -1.98 6.32 -3 7 C-5.6875 6.625 -5.6875 6.625 -8 6 C-8 5.01 -8 4.02 -8 3 C-5.36 3 -2.72 3 0 3 C0 2.01 0 1.02 0 0 Z " fill="#EBF4F7" transform="translate(208,154)"/>
<path d="M0 0 C1.32 0.66 2.64 1.32 4 2 C3.67 3.32 3.34 4.64 3 6 C0.36 6 -2.28 6 -5 6 C-3.63016497 2.83884224 -3.0109362 2.0072908 0 0 Z " fill="#A0A3A5" transform="translate(204,150)"/>
<path d="M0 0 C1.32 0.66 2.64 1.32 4 2 C3.67 3.32 3.34 4.64 3 6 C0.36 6 -2.28 6 -5 6 C-3.63016497 2.83884224 -3.0109362 2.0072908 0 0 Z " fill="#A0A3A5" transform="translate(179,150)"/>
<path d="M0 0 C-0.33 1.65 -0.66 3.3 -1 5 C-2.98 5.33 -4.96 5.66 -7 6 C-7.33 4.68 -7.66 3.36 -8 2 C-5.09399739 0.74335022 -3.20395416 0 0 0 Z " fill="#EBE9E3" transform="translate(410,99)"/>
<path d="M0 0 C0.33 1.32 0.66 2.64 1 4 C-1.97 4 -4.94 4 -8 4 C-7.67 2.68 -7.34 1.36 -7 0 C-4.3333581 -1.33332095 -2.83319697 -0.67102033 0 0 Z " fill="#ECF0F1" transform="translate(367,92)"/>
<path d="M0 0 C2.00720923 0.28674418 4.0085944 0.61866701 6 1 C6.33 2.32 6.66 3.64 7 5 C4.03 5 1.06 5 -2 5 C-1 1 -1 1 0 0 Z " fill="#EFF2EE" transform="translate(309,91)"/>
<path d="M0 0 C2.4375 0.75 2.4375 0.75 5 2 C5.8125 4.125 5.8125 4.125 6 6 C3.69 6 1.38 6 -1 6 C-1.625 4.125 -1.625 4.125 -2 2 C-1.34 1.34 -0.68 0.68 0 0 Z " fill="#C2C1BF" transform="translate(273,202)"/>
<path d="M0 0 C1.99954746 -0.04254356 4.00041636 -0.04080783 6 0 C7 1 7 1 7.09765625 3.28515625 C7.08605469 4.20167969 7.07445312 5.11820313 7.0625 6.0625 C7.05347656 6.98160156 7.04445312 7.90070313 7.03515625 8.84765625 C7.02355469 9.55792969 7.01195312 10.26820313 7 11 C6.34 10.67 5.68 10.34 5 10 C5.33 9.01 5.66 8.02 6 7 C4.35 7 2.7 7 1 7 C4 5 4 5 6 5 C5.67 4.34 5.34 3.68 5 3 C2.47266765 2.34444881 2.47266765 2.34444881 0 2 C0 2.66 0 3.32 0 4 C-0.66 4 -1.32 4 -2 4 C-1.34 2.68 -0.68 1.36 0 0 Z " fill="#474445" transform="translate(220,150)"/>
<path d="M0 0 C1.98 0 3.96 0 6 0 C6 0.66 6 1.32 6 2 C5.01 2.33 4.02 2.66 3 3 C2.67 6.3 2.34 9.6 2 13 C1.34 13 0.68 13 0 13 C0 8.71 0 4.42 0 0 Z " fill="#F8F6FA" transform="translate(539,265)"/>
<path d="M0 0 C1.98 0 3.96 0 6 0 C6 0.66 6 1.32 6 2 C5.01 2.33 4.02 2.66 3 3 C2.67 6.3 2.34 9.6 2 13 C1.34 13 0.68 13 0 13 C0 8.71 0 4.42 0 0 Z " fill="#533B53" transform="translate(328,150)"/>
<path d="M0 0 C0 3.96 0 7.92 0 12 C-0.33 12 -0.66 12 -1 12 C-1.33 8.37 -1.66 4.74 -2 1 C-4.64 1.66 -7.28 2.32 -10 3 C-9.67 2.01 -9.34 1.02 -9 0 C-5.93109813 -1.53445094 -3.29905734 -0.54984289 0 0 Z " fill="#4F4851" transform="translate(265,151)"/>
<path d="M0 0 C1.65 0 3.3 0 5 0 C5 0.66 5 1.32 5 2 C5.66 2 6.32 2 7 2 C7 1.34 7 0.68 7 0 C7.66 0 8.32 0 9 0 C9.125 2.875 9.125 2.875 9 6 C8.34 6.66 7.68 7.32 7 8 C6.67 7.01 6.34 6.02 6 5 C2.99992729 3.29144978 2.99992729 3.29144978 0 2 C0 1.34 0 0.68 0 0 Z " fill="#E4EEF1" transform="translate(400,152)"/>
<path d="M0 0 C2.4375 0.75 2.4375 0.75 5 2 C5.8125 4.125 5.8125 4.125 6 6 C3.69 6 1.38 6 -1 6 C-1.042721 4.33388095 -1.04063832 2.66617115 -1 1 C-0.67 0.67 -0.34 0.34 0 0 Z " fill="#AAACAA" transform="translate(239,150)"/>
<path d="M0 0 C0.33 0 0.66 0 1 0 C1 2.31 1 4.62 1 7 C0.67 6.34 0.34 5.68 0 5 C-0.99 5.66 -1.98 6.32 -3 7 C-5.6875 6.625 -5.6875 6.625 -8 6 C-8 5.01 -8 4.02 -8 3 C-5.36 3 -2.72 3 0 3 C0 2.01 0 1.02 0 0 Z " fill="#F1F9FC" transform="translate(281,206)"/>
<path d="M0 0 C0.33 0.99 0.66 1.98 1 3 C4.51190809 4.22969878 4.51190809 4.22969878 8 5 C8 5.99 8 6.98 8 8 C6.35 8 4.7 8 3 8 C3 7.34 3 6.68 3 6 C2.34 6 1.68 6 1 6 C0.67 6.66 0.34 7.32 0 8 C0 5.36 0 2.72 0 0 Z " fill="#F6F2E7" transform="translate(397,153)"/>
<path d="M0 0 C1.98 0.99 1.98 0.99 4 2 C3.67 2.33 3.34 2.66 3 3 C2.76712992 4.68183948 2.58735834 6.3712416 2.4375 8.0625 C2.31181641 9.44115234 2.31181641 9.44115234 2.18359375 10.84765625 C2.12300781 11.55792969 2.06242187 12.26820313 2 13 C1.34 13 0.68 13 0 13 C0 8.71 0 4.42 0 0 Z " fill="#533650" transform="translate(348,150)"/>
<path d="M0 0 C0.66 0 1.32 0 2 0 C2 4.29 2 8.58 2 13 C1.34 13 0.68 13 0 13 C-1.06671952 9.79984144 -0.94845472 8.11455706 -0.5625 4.8125 C-0.46066406 3.91144531 -0.35882813 3.01039063 -0.25390625 2.08203125 C-0.17011719 1.39496094 -0.08632813 0.70789063 0 0 Z " fill="#867688" transform="translate(350,202)"/>
<path d="M0 0 C0.66 0 1.32 0 2 0 C2 4.29 2 8.58 2 13 C1.34 13 0.68 13 0 13 C-1.06671952 9.79984144 -0.94845472 8.11455706 -0.5625 4.8125 C-0.46066406 3.91144531 -0.35882813 3.01039063 -0.25390625 2.08203125 C-0.17011719 1.39496094 -0.08632813 0.70789063 0 0 Z " fill="#624445" transform="translate(298,150)"/>
<path d="M0 0 C2.31 0 4.62 0 7 0 C7.33 0.99 7.66 1.98 8 3 C6.906875 2.979375 5.81375 2.95875 4.6875 2.9375 C1.05615809 2.81455548 1.05615809 2.81455548 -2 4 C-1.34 2.68 -0.68 1.36 0 0 Z " fill="#F0EDFA" transform="translate(548,265)"/>
<path d="M0 0 C6.625 -0.25 6.625 -0.25 10 2 C10 2.99 10 3.98 10 5 C9.34 5 8.68 5 8 5 C8 4.34 8 3.68 8 3 C5.36 2.67 2.72 2.34 0 2 C0 1.34 0 0.68 0 0 Z " fill="#F3EEFA" transform="translate(488,261)"/>
<path d="M0 0 C0.99 1.485 0.99 1.485 2 3 C5.465 2.505 5.465 2.505 9 2 C8.34 3.32 7.68 4.64 7 6 C5.00045254 6.04254356 2.99958364 6.04080783 1 6 C0 5 0 5 -0.0625 2.4375 C-0.041875 1.633125 -0.02125 0.82875 0 0 Z " fill="#878992" transform="translate(272,209)"/>
<path d="M0 0 C0.99 1.485 0.99 1.485 2 3 C5.465 2.505 5.465 2.505 9 2 C8.34 3.32 7.68 4.64 7 6 C4.69 5.67 2.38 5.34 0 5 C0 3.35 0 1.7 0 0 Z " fill="#4E5363" transform="translate(199,157)"/>
<path d="M0 0 C0.99 1.485 0.99 1.485 2 3 C5.465 2.505 5.465 2.505 9 2 C8.34 3.32 7.68 4.64 7 6 C4.69 5.67 2.38 5.34 0 5 C0 3.35 0 1.7 0 0 Z " fill="#4E5363" transform="translate(174,157)"/>
<path d="M0 0 C0.66 0 1.32 0 2 0 C1.34 1.32 0.68 2.64 0 4 C-2.875 4.1875 -2.875 4.1875 -6 4 C-6.66 3.01 -7.32 2.02 -8 1 C-6.865625 1.020625 -5.73125 1.04125 -4.5625 1.0625 C-1.18424326 1.41577477 -1.18424326 1.41577477 0 0 Z " fill="#88888E" transform="translate(248,211)"/>
<path d="M0 0 C1.65 0 3.3 0 5 0 C4.67 1.32 4.34 2.64 4 4 C2.35 4 0.7 4 -1 4 C-0.67 2.68 -0.34 1.36 0 0 Z " fill="#E8E1D6" transform="translate(221,157)"/>
<path d="M0 0 C0.33 1.32 0.66 2.64 1 4 C1.66 4 2.32 4 3 4 C3 4.66 3 5.32 3 6 C2.34 6 1.68 6 1 6 C1 8.97 1 11.94 1 15 C0.67 15 0.34 15 0 15 C-0.19601608 13.25093341 -0.38147403 11.50068154 -0.5625 9.75 C-0.66691406 8.77546875 -0.77132812 7.8009375 -0.87890625 6.796875 C-0.98974468 4.2368648 -0.77738092 2.41851841 0 0 Z " fill="#E6BBE3" transform="translate(561,261)"/>
<path d="M0 0 C0.33 0.66 0.66 1.32 1 2 C2.65 2 4.3 2 6 2 C6 1.34 6 0.68 6 0 C6.99 0 7.98 0 9 0 C8.67 0.99 8.34 1.98 8 3 C5.69 3.33 3.38 3.66 1 4 C0.67 2.68 0.34 1.36 0 0 Z " fill="#888C93" transform="translate(285,211)"/>
<path d="M0 0 C0.33 0.66 0.66 1.32 1 2 C2.65 2 4.3 2 6 2 C6 1.34 6 0.68 6 0 C6.99 0 7.98 0 9 0 C8.67 0.99 8.34 1.98 8 3 C5.69 3.33 3.38 3.66 1 4 C0.67 2.68 0.34 1.36 0 0 Z " fill="#888C93" transform="translate(200,211)"/>
<path d="M0 0 C2.31 0.33 4.62 0.66 7 1 C7.33 1.99 7.66 2.98 8 4 C5.69 3.34 3.38 2.68 1 2 C0.67 2.66 0.34 3.32 0 4 C0 2.68 0 1.36 0 0 Z " fill="#8A8D94" transform="translate(327,202)"/>
<path d="M0 0 C-0.33 1.32 -0.66 2.64 -1 4 C-2.65 4 -4.3 4 -6 4 C-6 3.01 -6 2.02 -6 1 C-4 0 -4 0 0 0 Z " fill="#E5EDE9" transform="translate(263,157)"/>
<path d="M0 0 C-0.33 1.32 -0.66 2.64 -1 4 C-2.65 4 -4.3 4 -6 4 C-6 3.01 -6 2.02 -6 1 C-3 0 -3 0 0 0 Z " fill="#916CDF" transform="translate(554,272)"/>
<path d="M0 0 C2.56616632 3.84924948 2.55097676 6.4349304 3 11 C2.67 10.34 2.34 9.68 2 9 C1.34 9 0.68 9 0 9 C0 6.03 0 3.06 0 0 Z " fill="#E7F8FA" transform="translate(233,152)"/>
<path d="M0 0 C-0.33 1.32 -0.66 2.64 -1 4 C-2.65 4 -4.3 4 -6 4 C-6 3.01 -6 2.02 -6 1 C-3.92446352 0.4465236 -2.15634036 0 0 0 Z " fill="#ECE7DB" transform="translate(311,162)"/>
<path d="M0 0 C0.66 0.33 1.32 0.66 2 1 C1.34 3.97 0.68 6.94 0 10 C-2 8 -2 8 -2.25 5 C-2 2 -2 2 0 0 Z " fill="#6A4F41" transform="translate(157,149)"/>
<path d="M0 0 C2.35171131 0.59861742 4.6859378 1.26924352 7 2 C7.33 2.66 7.66 3.32 8 4 C6.02 4 4.04 4 2 4 C1.34 2.68 0.68 1.36 0 0 Z " fill="#948D88" transform="translate(325,211)"/>
<path d="M0 0 C1.65 0 3.3 0 5 0 C5 0.99 5 1.98 5 3 C3.02 3 1.04 3 -1 3 C-0.67 2.01 -0.34 1.02 0 0 Z " fill="#EDF3F6" transform="translate(286,204)"/>
<path d="M0 0 C1.65 0 3.3 0 5 0 C5 0.99 5 1.98 5 3 C3.02 3 1.04 3 -1 3 C-0.67 2.01 -0.34 1.02 0 0 Z " fill="#EDF3F6" transform="translate(201,204)"/>
<path d="M0 0 C1.65 0 3.3 0 5 0 C5 0.99 5 1.98 5 3 C3.02 3 1.04 3 -1 3 C-0.67 2.01 -0.34 1.02 0 0 Z " fill="#E3ECEF" transform="translate(447,152)"/>
</svg>
