<svg xmlns="http://www.w3.org/2000/svg" viewBox="0 0 1280 720" width="1280" height="720">
  <defs><linearGradient id="g" x1="0%" y1="0%" x2="0%" y2="100%"><stop offset="0%" stop-color="#0b1220"/><stop offset="100%" stop-color="#0a1a10"/></linearGradient></defs>
  <rect width="1280" height="720" fill="url(#g)"/>
  <!-- score ring -->
  <circle cx="640" cy="340" r="100" fill="none" stroke="#1f2937" stroke-width="14"/>
  <circle cx="640" cy="340" r="100" fill="none" stroke="#22c55e" stroke-width="14" stroke-dasharray="628" stroke-dashoffset="188" transform="rotate(-90 640 340)"/>
  <text x="640" y="330" text-anchor="middle" font-family="ui-monospace,monospace" font-size="56" font-weight="700" fill="#f8fafc">70</text>
  <text x="640" y="360" text-anchor="middle" font-family="monospace" font-size="14" fill="#64748b">/100</text>
  <text x="640" y="390" text-anchor="middle" font-family="monospace" font-size="18" fill="#22c55e" font-weight="700">Promising</text>
  <!-- detail bars -->
  <g transform="translate(200, 480)">
    <text x="0" y="0" font-family="monospace" font-size="12" fill="#cbd5e1">Market Size</text>
    <rect x="100" y="-8" width="300" height="8" rx="4" fill="#1f2937"/>
    <rect x="100" y="-8" width="195" height="8" rx="4" fill="#22c55e"/>
    <text x="410" y="0" font-family="monospace" font-size="11" fill="#64748b">65%</text>
  </g>
  <g transform="translate(200, 500)">
    <text x="0" y="0" font-family="monospace" font-size="12" fill="#cbd5e1">Feasibility</text>
    <rect x="100" y="-8" width="300" height="8" rx="4" fill="#1f2937"/>
    <rect x="100" y="-8" width="240" height="8" rx="4" fill="#22c55e"/>
    <text x="410" y="0" font-family="monospace" font-size="11" fill="#64748b">80%</text>
  </g>
  <g transform="translate(680, 480)">
    <text x="0" y="0" font-family="monospace" font-size="12" fill="#cbd5e1">Monetization</text>
    <rect x="100" y="-8" width="300" height="8" rx="4" fill="#1f2937"/>
    <rect x="100" y="-8" width="165" height="8" rx="4" fill="#eab308"/>
    <text x="410" y="0" font-family="monospace" font-size="11" fill="#64748b">55%</text>
  </g>
  <g transform="translate(680, 500)">
    <text x="0" y="0" font-family="monospace" font-size="12" fill="#cbd5e1">Uniqueness</text>
    <rect x="100" y="-8" width="300" height="8" rx="4" fill="#1f2937"/>
    <rect x="100" y="-8" width="210" height="8" rx="4" fill="#22c55e"/>
    <text x="410" y="0" font-family="monospace" font-size="11" fill="#64748b">70%</text>
  </g>
  <text x="640" y="100" text-anchor="middle" font-family="ui-monospace,monospace" font-size="26" font-weight="800" fill="#f8fafc" letter-spacing="1">STARTUP IDEA VALIDATOR</text>
  <text x="640" y="125" text-anchor="middle" font-family="ui-monospace,monospace" font-size="13" fill="#64748b">Validate Your Startup Idea in Minutes</text>
</svg>
