<svg xmlns="http://www.w3.org/2000/svg" viewBox="0 0 320 200">
  <rect width="320" height="200" fill="#05060b"/>
  <!-- ribbon -->
  <rect x="4" y="4" width="312" height="18" rx="5" fill="rgba(255,255,255,0.01)" stroke="rgba(255,255,255,0.03)" stroke-width="0.5"/>
  <text x="10" y="16" font-family="system-ui,sans-serif" font-size="7" font-weight="700" fill="#e2e8f0">Good Afternoon</text><text x="90" y="16" font-family="system-ui,sans-serif" font-size="6" fill="#475569">, Scholar</text>
  <text x="230" y="12" font-family="system-ui,sans-serif" font-size="4" fill="#475569">PRODUCTIVITY</text><text x="278" y="12" font-family="system-ui,sans-serif" font-size="4" fill="#475569">CLOCK</text>
  <text x="230" y="20" font-family="monospace" font-size="6" font-weight="700" fill="#00f0ff">50%</text><text x="278" y="20" font-family="monospace" font-size="6" font-weight="700" fill="#e2e8f0">14:32:18</text>
  <!-- widgets row 1 -->
  <rect x="4" y="26" width="100" height="82" rx="6" fill="rgba(255,255,255,0.01)" stroke="rgba(255,255,255,0.03)" stroke-width="0.5"/>
  <text x="10" y="34" font-family="system-ui,sans-serif" font-size="4.5" fill="#475569">POMODORO</text><text x="92" y="34" font-family="system-ui,sans-serif" font-size="5" fill="#2a2d3e">☰</text>
  <circle cx="54" cy="64" r="24" fill="none" stroke="rgba(255,255,255,0.04)" stroke-width="4"/>
  <circle cx="54" cy="64" r="24" fill="none" stroke="#00f0ff" stroke-width="4" stroke-dasharray="120 30" stroke-linecap="round" transform="rotate(-90 54 64)"/>
  <text x="54" y="64" font-family="monospace" font-size="8" font-weight="700" fill="#00f0ff" text-anchor="middle">18:42</text>
  <text x="54" y="73" font-family="system-ui,sans-serif" font-size="3.5" fill="#475569" text-anchor="middle">FOCUS</text>
  <rect x="30" y="82" width="20" height="8" rx="2" fill="rgba(0,240,255,0.06)" stroke="rgba(0,240,255,0.1)" stroke-width="0.3"/><text x="40" y="89" font-family="system-ui,sans-serif" font-size="3.5" fill="#00f0ff" text-anchor="middle">Start</text>
  <rect x="54" y="82" width="20" height="8" rx="2" fill="rgba(255,255,255,0.02)" stroke="rgba(255,255,255,0.04)" stroke-width="0.3"/><text x="64" y="89" font-family="system-ui,sans-serif" font-size="3.5" fill="#64748b" text-anchor="middle">Reset</text>
  <!-- kanban -->
  <rect x="108" y="26" width="104" height="82" rx="6" fill="rgba(255,255,255,0.01)" stroke="rgba(255,255,255,0.03)" stroke-width="0.5"/>
  <text x="114" y="34" font-family="system-ui,sans-serif" font-size="4.5" fill="#475569">TASK KANBAN</text><text x="200" y="34" font-family="system-ui,sans-serif" font-size="5" fill="#2a2d3e">☰</text>
  <text x="114" y="42" font-family="monospace" font-size="4" fill="#64748b">1/4</text>
  <rect x="196" y="34" width="10" height="10" rx="2" fill="rgba(0,240,255,0.06)" stroke="rgba(0,240,255,0.1)" stroke-width="0.3"/><text x="201" y="42" font-family="system-ui,sans-serif" font-size="6" fill="#00f0ff">+</text>
  <rect x="112" y="46" width="96" height="12" rx="3" fill="rgba(255,255,255,0.01)" stroke="rgba(255,255,255,0.03)" stroke-width="0.3"/>
  <rect x="114" y="48" width="8" height="8" rx="2" fill="rgba(255,255,255,0.08)"/>
  <text x="126" y="55" font-family="system-ui,sans-serif" font-size="4" fill="#94a3b8">Review DBMS Normalization</text>
  <rect x="112" y="60" width="96" height="12" rx="3" fill="rgba(255,255,255,0.01)" stroke="rgba(255,255,255,0.03)" stroke-width="0.3"/>
  <rect x="114" y="62" width="8" height="8" rx="2" fill="#10b981"/>
  <text x="126" y="69" font-family="system-ui,sans-serif" font-size="4" fill="#475569" text-decoration="line-through">Refine Figma App UI</text>
  <rect x="112" y="74" width="96" height="12" rx="3" fill="rgba(255,255,255,0.01)" stroke="rgba(255,255,255,0.03)" stroke-width="0.3"/>
  <rect x="114" y="76" width="8" height="8" rx="2" fill="rgba(255,255,255,0.08)"/>
  <text x="126" y="83" font-family="system-ui,sans-serif" font-size="4" fill="#94a3b8">C++ OOP Practical</text>
  <rect x="112" y="88" width="96" height="12" rx="3" fill="rgba(255,255,255,0.01)" stroke="rgba(255,255,255,0.03)" stroke-width="0.3"/>
  <rect x="114" y="90" width="8" height="8" rx="2" fill="rgba(255,255,255,0.08)"/>
  <text x="126" y="97" font-family="system-ui,sans-serif" font-size="4" fill="#94a3b8">Calculus Assignment</text>
  <!-- habits -->
  <rect x="216" y="26" width="100" height="82" rx="6" fill="rgba(255,255,255,0.01)" stroke="rgba(255,255,255,0.03)" stroke-width="0.5"/>
  <text x="222" y="34" font-family="system-ui,sans-serif" font-size="4.5" fill="#475569">HABIT STREAK</text><text x="304" y="34" font-family="system-ui,sans-serif" font-size="5" fill="#2a2d3e">☰</text>
  <text x="222" y="42" font-family="system-ui,sans-serif" font-size="4" fill="#64748b">Streak</text><text x="278" y="42" font-family="monospace" font-size="4" font-weight="700" fill="#00f0ff">12 days</text>
  <!-- 4x7 grid of circles -->
  <g><circle cx="224" cy="50" r="4" fill="rgba(255,255,255,0.04)"/><circle cx="236" cy="50" r="4" fill="#10b981"/><circle cx="248" cy="50" r="4" fill="#10b981"/><circle cx="260" cy="50" r="4" fill="rgba(255,255,255,0.04)"/><circle cx="272" cy="50" r="4" fill="#10b981"/><circle cx="284" cy="50" r="4" fill="rgba(255,255,255,0.04)"/><circle cx="296" cy="50" r="4" fill="rgba(255,255,255,0.04)"/></g>
  <g><circle cx="224" cy="60" r="4" fill="#10b981"/><circle cx="236" cy="60" r="4" fill="#10b981"/><circle cx="248" cy="60" r="4" fill="#10b981"/><circle cx="260" cy="60" r="4" fill="rgba(255,255,255,0.04)"/><circle cx="272" cy="60" r="4" fill="#10b981"/><circle cx="284" cy="60" r="4" fill="rgba(255,255,255,0.04)"/><circle cx="296" cy="60" r="4" fill="#10b981"/></g>
  <g><circle cx="224" cy="70" r="4" fill="#10b981"/><circle cx="236" cy="70" r="4" fill="rgba(255,255,255,0.04)"/><circle cx="248" cy="70" r="4" fill="#10b981"/><circle cx="260" cy="70" r="4" fill="#10b981"/><circle cx="272" cy="70" r="4" fill="rgba(255,255,255,0.04)"/><circle cx="284" cy="70" r="4" fill="#10b981"/><circle cx="296" cy="70" r="4" fill="rgba(255,255,255,0.04)"/></g>
  <!-- widgets row 2 -->
  <rect x="4" y="112" width="100" height="60" rx="6" fill="rgba(255,255,255,0.01)" stroke="rgba(255,255,255,0.03)" stroke-width="0.5"/>
  <text x="10" y="120" font-family="system-ui,sans-serif" font-size="4.5" fill="#475569">EXAMS</text><text x="92" y="120" font-family="system-ui,sans-serif" font-size="5" fill="#2a2d3e">☰</text>
  <text x="10" y="130" font-family="system-ui,sans-serif" font-size="4" fill="#94a3b8">DBMS</text><text x="60" y="130" font-family="monospace" font-size="4" font-weight="700" fill="#f59e0b">14 days</text>
  <text x="10" y="140" font-family="system-ui,sans-serif" font-size="4" fill="#94a3b8">OOP</text><text x="60" y="140" font-family="monospace" font-size="4" font-weight="700" fill="#f59e0b">28 days</text>
  <text x="10" y="150" font-family="system-ui,sans-serif" font-size="4" fill="#94a3b8">Discrete Math</text><text x="60" y="150" font-family="monospace" font-size="4" font-weight="700" fill="#f59e0b">45 days</text>
  <!-- notes -->
  <rect x="108" y="112" width="104" height="60" rx="6" fill="rgba(255,255,255,0.01)" stroke="rgba(255,255,255,0.03)" stroke-width="0.5"/>
  <text x="114" y="120" font-family="system-ui,sans-serif" font-size="4.5" fill="#475569">STICKY NOTES</text><text x="200" y="120" font-family="system-ui,sans-serif" font-size="5" fill="#2a2d3e">☰</text>
  <rect x="112" y="126" width="96" height="36" rx="4" fill="rgba(255,255,255,0.02)" stroke="rgba(255,255,255,0.04)" stroke-width="0.3"/>
  <text x="120" y="138" font-family="system-ui,sans-serif" font-size="4" fill="#64748b">Prepare for DBMS quiz</text>
  <text x="120" y="148" font-family="system-ui,sans-serif" font-size="4" fill="#64748b">Chapter 4: Normalization</text>
  <text x="120" y="158" font-family="system-ui,sans-serif" font-size="4" fill="#64748b">3NF and BCNF differences</text>
  <!-- grid -->
  <rect x="216" y="112" width="100" height="60" rx="6" fill="rgba(255,255,255,0.01)" stroke="rgba(255,255,255,0.03)" stroke-width="0.5"/>
  <text x="222" y="120" font-family="system-ui,sans-serif" font-size="4.5" fill="#475569">CONTRIBUTION</text><text x="305" y="120" font-family="system-ui,sans-serif" font-size="5" fill="#2a2d3e">☰</text>
  <g>
    <rect x="222" y="126" width="5" height="5" rx="1" fill="rgba(0,240,255,0.08)"/><rect x="229" y="126" width="5" height="5" rx="1" fill="rgba(0,240,255,0.2)"/><rect x="236" y="126" width="5" height="5" rx="1" fill="rgba(255,255,255,0.02)"/><rect x="243" y="126" width="5" height="5" rx="1" fill="rgba(0,240,255,0.3)"/><rect x="250" y="126" width="5" height="5" rx="1" fill="rgba(255,255,255,0.02)"/><rect x="257" y="126" width="5" height="5" rx="1" fill="rgba(0,240,255,0.15)"/><rect x="264" y="126" width="5" height="5" rx="1" fill="rgba(0,240,255,0.08)"/>
    <rect x="222" y="133" width="5" height="5" rx="1" fill="rgba(0,240,255,0.3)"/><rect x="229" y="133" width="5" height="5" rx="1" fill="rgba(255,255,255,0.02)"/><rect x="236" y="133" width="5" height="5" rx="1" fill="rgba(0,240,255,0.15)"/><rect x="243" y="133" width="5" height="5" rx="1" fill="rgba(0,240,255,0.4)"/><rect x="250" y="133" width="5" height="5" rx="1" fill="rgba(0,240,255,0.08)"/><rect x="257" y="133" width="5" height="5" rx="1" fill="rgba(255,255,255,0.02)"/><rect x="264" y="133" width="5" height="5" rx="1" fill="rgba(0,240,255,0.2)"/>
    <rect x="222" y="140" width="5" height="5" rx="1" fill="rgba(255,255,255,0.02)"/><rect x="229" y="140" width="5" height="5" rx="1" fill="rgba(0,240,255,0.15)"/><rect x="236" y="140" width="5" height="5" rx="1" fill="rgba(0,240,255,0.08)"/><rect x="243" y="140" width="5" height="5" rx="1" fill="rgba(255,255,255,0.02)"/><rect x="250" y="140" width="5" height="5" rx="1" fill="rgba(0,240,255,0.3)"/><rect x="257" y="140" width="5" height="5" rx="1" fill="rgba(0,240,255,0.15)"/><rect x="264" y="140" width="5" height="5" rx="1" fill="rgba(0,240,255,0.4)"/>
    <rect x="222" y="147" width="5" height="5" rx="1" fill="rgba(0,240,255,0.15)"/><rect x="229" y="147" width="5" height="5" rx="1" fill="rgba(0,240,255,0.08)"/><rect x="236" y="147" width="5" height="5" rx="1" fill="rgba(0,240,255,0.4)"/><rect x="243" y="147" width="5" height="5" rx="1" fill="rgba(0,240,255,0.2)"/><rect x="250" y="147" width="5" height="5" rx="1" fill="rgba(255,255,255,0.02)"/><rect x="257" y="147" width="5" height="5" rx="1" fill="rgba(0,240,255,0.3)"/><rect x="264" y="147" width="5" height="5" rx="1" fill="rgba(0,240,255,0.08)"/>
  </g>
  <!-- quote widget full width -->
  <rect x="4" y="176" width="312" height="20" rx="6" fill="rgba(255,255,255,0.01)" stroke="rgba(255,255,255,0.03)" stroke-width="0.5"/>
  <text x="10" y="184" font-family="system-ui,sans-serif" font-size="3.5" fill="#475569">DAILY MOTIVATION</text><text x="300" y="184" font-family="system-ui,sans-serif" font-size="5" fill="#2a2d3e">☰</text>
  <text x="10" y="192" font-family="system-ui,sans-serif" font-size="5" font-style="italic" fill="#94a3b8">"The secret of getting ahead is getting started."</text>
</svg>
