<svg width="800" height="500" viewBox="0 0 800 500" xmlns="http://www.w3.org/2000/svg">
  <defs>
    <linearGradient id="g" x1="0%" y1="0%" x2="100%" y2="100%">
      <stop offset="0%" stop-color="#0a1e0a"/>
      <stop offset="100%" stop-color="#040f04"/>
    </linearGradient>
    <linearGradient id="bar" x1="0%" y1="0%" x2="100%" y2="0%">
      <stop offset="0%" stop-color="#4ade80" stop-opacity="0.9"/>
      <stop offset="100%" stop-color="#16a34a" stop-opacity="0.7"/>
    </linearGradient>
    <clipPath id="clip"><rect width="800" height="500" rx="0"/></clipPath>
  </defs>

  <!-- Background -->
  <rect width="800" height="500" fill="url(#g)" clip-path="url(#clip)"/>

  <!-- Subtle glow behind center -->
  <ellipse cx="400" cy="220" rx="280" ry="160" fill="#4ade80" opacity="0.04"/>

  <!-- Editor window -->
  <rect x="32" y="32" width="736" height="348" rx="12" fill="rgba(0,0,0,0.45)"/>

  <!-- Title bar -->
  <rect x="32" y="32" width="736" height="38" rx="12" fill="#071407"/>
  <rect x="32" y="56" width="736" height="14" fill="#071407"/>

  <!-- Traffic lights -->
  <circle cx="62"  cy="51" r="7" fill="#ff5f57" opacity="0.95"/>
  <circle cx="88"  cy="51" r="7" fill="#febc2e" opacity="0.95"/>
  <circle cx="114" cy="51" r="7" fill="#28c840" opacity="0.95"/>

  <!-- Tab/filename -->
  <rect x="140" y="38" width="160" height="26" rx="5" fill="rgba(255,255,255,0.07)"/>
  <text x="160" y="55" fill="rgba(255,255,255,0.55)" font-size="11" font-family="monospace">typing-speed-tester.html</text>

  <!-- Gutter -->
  <rect x="32" y="70" width="52" height="310" fill="rgba(0,0,0,0.2)"/>

  <!-- Code lines -->
  <text x="52" y="92" text-anchor="end" fill="rgba(255,255,255,0.15)" font-size="10" font-family="monospace">1</text>
  <rect x="60" y="82" width="94" height="13" rx="2" fill="rgba(255,255,255,0.08372302987233807)" opacity="1"/>
  <rect x="166" y="82" width="39" height="13" rx="2" fill="rgba(255,255,255,0.04401954628853583)" opacity="0.6"/>
  <text x="52" y="110" text-anchor="end" fill="rgba(255,255,255,0.15)" font-size="10" font-family="monospace">2</text>
  <rect x="100" y="100" width="374" height="13" rx="2" fill="rgba(255,255,255,0.06712851453738485)" opacity="1"/>
  <text x="52" y="128" text-anchor="end" fill="rgba(255,255,255,0.15)" font-size="10" font-family="monospace">3</text>
  <rect x="80" y="118" width="564" height="13" rx="2" fill="rgba(255,255,255,0.12578675118875382)" opacity="1"/>
  <text x="52" y="146" text-anchor="end" fill="rgba(255,255,255,0.15)" font-size="10" font-family="monospace">4</text>
  <rect x="100" y="136" width="339" height="13" rx="2" fill="#4ade80" opacity="0.55"/>
  <text x="52" y="164" text-anchor="end" fill="rgba(255,255,255,0.15)" font-size="10" font-family="monospace">5</text>
  <rect x="60" y="154" width="223" height="13" rx="2" fill="rgba(255,255,255,0.07782725852397905)" opacity="1"/>
  <text x="52" y="182" text-anchor="end" fill="rgba(255,255,255,0.15)" font-size="10" font-family="monospace">6</text>
  <rect x="60" y="172" width="152" height="13" rx="2" fill="rgba(255,255,255,0.10595367749360243)" opacity="1"/>
  <text x="52" y="200" text-anchor="end" fill="rgba(255,255,255,0.15)" font-size="10" font-family="monospace">7</text>
  <rect x="80" y="190" width="425" height="13" rx="2" fill="rgba(255,255,255,0.09661907908427973)" opacity="1"/>
  <text x="52" y="218" text-anchor="end" fill="rgba(255,255,255,0.15)" font-size="10" font-family="monospace">8</text>
  <rect x="60" y="208" width="380" height="13" rx="2" fill="#4ade80" opacity="0.55"/>
  <text x="52" y="236" text-anchor="end" fill="rgba(255,255,255,0.15)" font-size="10" font-family="monospace">9</text>
  <rect x="60" y="226" width="661" height="13" rx="2" fill="rgba(255,255,255,0.12476673556137055)" opacity="1"/>
  <text x="52" y="254" text-anchor="end" fill="rgba(255,255,255,0.15)" font-size="10" font-family="monospace">10</text>
  <rect x="60" y="244" width="465" height="13" rx="2" fill="rgba(255,255,255,0.12362643947443609)" opacity="1"/>
  <rect x="537" y="244" width="102" height="13" rx="2" fill="rgba(255,255,255,0.07251329934748665)" opacity="0.6"/>
  <text x="52" y="272" text-anchor="end" fill="rgba(255,255,255,0.15)" font-size="10" font-family="monospace">11</text>
  <rect x="60" y="262" width="654" height="13" rx="2" fill="rgba(255,255,255,0.11996102185453311)" opacity="1"/>
  <text x="52" y="290" text-anchor="end" fill="rgba(255,255,255,0.15)" font-size="10" font-family="monospace">12</text>
  <rect x="80" y="280" width="129" height="13" rx="2" fill="#4ade80" opacity="0.55"/>
  <rect x="221" y="280" width="82" height="13" rx="2" fill="#16a34a" opacity="0.6"/>
  <text x="52" y="308" text-anchor="end" fill="rgba(255,255,255,0.15)" font-size="10" font-family="monospace">13</text>
  <rect x="100" y="298" width="521" height="13" rx="2" fill="rgba(255,255,255,0.07883454461089208)" opacity="1"/>
  <text x="52" y="326" text-anchor="end" fill="rgba(255,255,255,0.15)" font-size="10" font-family="monospace">14</text>
  <rect x="60" y="316" width="137" height="13" rx="2" fill="rgba(255,255,255,0.07874834593821978)" opacity="1"/>
  <rect x="209" y="316" width="46" height="13" rx="2" fill="rgba(255,255,255,0.053870422161154084)" opacity="0.6"/>

  <!-- Big dimmed project name in center -->
  <text x="400" y="295" text-anchor="middle" fill="rgba(255,255,255,0.05)" font-size="52" font-weight="900" font-family="system-ui,sans-serif" letter-spacing="-2">Typing Speed Tester</text>

  <!-- Bottom info bar -->
  <rect x="0" y="400" width="800" height="100" fill="rgba(0,0,0,0.55)"/>

  <!-- Accent line -->
  <rect x="0" y="400" width="800" height="3" fill="url(#bar)"/>

  <!-- Author initials circle -->
  <circle cx="72" cy="450" r="28" fill="#4ade80" opacity="0.18"/>
  <circle cx="72" cy="450" r="22" fill="#4ade80" opacity="0.22"/>
  <text x="72" y="456" text-anchor="middle" fill="#4ade80" font-size="15" font-weight="800" font-family="system-ui,sans-serif">MK</text>

  <!-- Project name -->
  <text x="112" y="440" fill="rgba(255,255,255,0.92)" font-size="17" font-weight="800" font-family="system-ui,sans-serif" letter-spacing="-0.5">Typing Speed Tester</text>

  <!-- Tag pills -->
  <rect x="112" y="455" width="100" height="20" rx="10" fill="#4ade80" opacity="0.22"/>
  <text x="162" y="469" text-anchor="middle" fill="#4ade80" font-size="10" font-weight="700" font-family="system-ui,sans-serif">PRODUCTIVITY</text>

  <rect x="218" y="455" width="86" height="20" rx="10" fill="rgba(255,255,255,0.08)"/>
  <text x="261" y="469" text-anchor="middle" fill="rgba(255,255,255,0.5)" font-size="10" font-weight="600" font-family="system-ui,sans-serif">VANILLA-JS</text>

  <rect x="310" y="455" width="72" height="20" rx="10" fill="rgba(255,255,255,0.06)"/>
  <text x="346" y="469" text-anchor="middle" fill="rgba(255,255,255,0.35)" font-size="10" font-weight="600" font-family="system-ui,sans-serif">LEARNING</text>
</svg>