<svg width="800" height="500" viewBox="0 0 800 500" xmlns="http://www.w3.org/2000/svg">
  <defs>
    <linearGradient id="g" x1="0%" y1="0%" x2="100%" y2="100%">
      <stop offset="0%" stop-color="#1e0808"/>
      <stop offset="100%" stop-color="#120404"/>
    </linearGradient>
    <linearGradient id="bar" x1="0%" y1="0%" x2="100%" y2="0%">
      <stop offset="0%" stop-color="#fca5a5" stop-opacity="0.9"/>
      <stop offset="100%" stop-color="#dc2626" stop-opacity="0.7"/>
    </linearGradient>
    <clipPath id="clip"><rect width="800" height="500" rx="0"/></clipPath>
  </defs>

  <!-- Background -->
  <rect width="800" height="500" fill="url(#g)" clip-path="url(#clip)"/>

  <!-- Subtle glow behind center -->
  <ellipse cx="400" cy="220" rx="280" ry="160" fill="#fca5a5" opacity="0.04"/>

  <!-- Editor window -->
  <rect x="32" y="32" width="736" height="348" rx="12" fill="rgba(0,0,0,0.45)"/>

  <!-- Title bar -->
  <rect x="32" y="32" width="736" height="38" rx="12" fill="#150606"/>
  <rect x="32" y="56" width="736" height="14" fill="#150606"/>

  <!-- Traffic lights -->
  <circle cx="62"  cy="51" r="7" fill="#ff5f57" opacity="0.95"/>
  <circle cx="88"  cy="51" r="7" fill="#febc2e" opacity="0.95"/>
  <circle cx="114" cy="51" r="7" fill="#28c840" opacity="0.95"/>

  <!-- Tab/filename -->
  <rect x="140" y="38" width="160" height="26" rx="5" fill="rgba(255,255,255,0.07)"/>
  <text x="160" y="55" fill="rgba(255,255,255,0.55)" font-size="11" font-family="monospace">virtual-piano-synthesizer.html</text>

  <!-- Gutter -->
  <rect x="32" y="70" width="52" height="310" fill="rgba(0,0,0,0.2)"/>

  <!-- Code lines -->
  <text x="52" y="92" text-anchor="end" fill="rgba(255,255,255,0.15)" font-size="10" font-family="monospace">1</text>
  <rect x="100" y="82" width="518" height="13" rx="2" fill="rgba(255,255,255,0.11369109268619006)" opacity="1"/>
  <text x="52" y="110" text-anchor="end" fill="rgba(255,255,255,0.15)" font-size="10" font-family="monospace">2</text>
  <rect x="80" y="100" width="608" height="13" rx="2" fill="rgba(255,255,255,0.10004165056162552)" opacity="1"/>
  <text x="52" y="128" text-anchor="end" fill="rgba(255,255,255,0.15)" font-size="10" font-family="monospace">3</text>
  <rect x="60" y="118" width="348" height="13" rx="2" fill="rgba(255,255,255,0.08821032295660355)" opacity="1"/>
  <text x="52" y="146" text-anchor="end" fill="rgba(255,255,255,0.15)" font-size="10" font-family="monospace">4</text>
  <rect x="60" y="136" width="364" height="13" rx="2" fill="rgba(255,255,255,0.09131705441310002)" opacity="1"/>
  <text x="52" y="164" text-anchor="end" fill="rgba(255,255,255,0.15)" font-size="10" font-family="monospace">5</text>
  <rect x="100" y="154" width="472" height="13" rx="2" fill="rgba(255,255,255,0.10776380912581549)" opacity="1"/>
  <rect x="584" y="154" width="38" height="13" rx="2" fill="rgba(255,255,255,0.0473711613326732)" opacity="0.6"/>
  <text x="52" y="182" text-anchor="end" fill="rgba(255,255,255,0.15)" font-size="10" font-family="monospace">6</text>
  <rect x="100" y="172" width="185" height="13" rx="2" fill="rgba(255,255,255,0.0717173912775976)" opacity="1"/>
  <rect x="297" y="172" width="74" height="13" rx="2" fill="rgba(255,255,255,0.08580357689312743)" opacity="0.6"/>
  <text x="52" y="200" text-anchor="end" fill="rgba(255,255,255,0.15)" font-size="10" font-family="monospace">7</text>
  <rect x="60" y="190" width="674" height="13" rx="2" fill="rgba(255,255,255,0.07636051006996085)" opacity="1"/>
  <text x="52" y="218" text-anchor="end" fill="rgba(255,255,255,0.15)" font-size="10" font-family="monospace">8</text>
  <rect x="100" y="208" width="436" height="13" rx="2" fill="#fca5a5" opacity="0.55"/>
  <rect x="548" y="208" width="98" height="13" rx="2" fill="#dc2626" opacity="0.6"/>
  <text x="52" y="236" text-anchor="end" fill="rgba(255,255,255,0.15)" font-size="10" font-family="monospace">9</text>
  <rect x="60" y="226" width="628" height="13" rx="2" fill="rgba(255,255,255,0.07769701352755004)" opacity="1"/>
  <text x="52" y="254" text-anchor="end" fill="rgba(255,255,255,0.15)" font-size="10" font-family="monospace">10</text>
  <rect x="80" y="244" width="464" height="13" rx="2" fill="rgba(255,255,255,0.10489638387339571)" opacity="1"/>
  <rect x="556" y="244" width="109" height="13" rx="2" fill="rgba(255,255,255,0.08519783543543841)" opacity="0.6"/>
  <text x="52" y="272" text-anchor="end" fill="rgba(255,255,255,0.15)" font-size="10" font-family="monospace">11</text>
  <rect x="100" y="262" width="393" height="13" rx="2" fill="rgba(255,255,255,0.06280373061141085)" opacity="1"/>
  <text x="52" y="290" text-anchor="end" fill="rgba(255,255,255,0.15)" font-size="10" font-family="monospace">12</text>
  <rect x="80" y="280" width="289" height="13" rx="2" fill="#fca5a5" opacity="0.55"/>
  <text x="52" y="308" text-anchor="end" fill="rgba(255,255,255,0.15)" font-size="10" font-family="monospace">13</text>
  <rect x="80" y="298" width="299" height="13" rx="2" fill="rgba(255,255,255,0.07898596862773084)" opacity="1"/>
  <rect x="391" y="298" width="88" height="13" rx="2" fill="rgba(255,255,255,0.05317943858755274)" opacity="0.6"/>
  <text x="52" y="326" text-anchor="end" fill="rgba(255,255,255,0.15)" font-size="10" font-family="monospace">14</text>
  <rect x="80" y="316" width="264" height="13" rx="2" fill="rgba(255,255,255,0.13374639905843566)" opacity="1"/>

  <!-- Big dimmed project name in center -->
  <text x="400" y="295" text-anchor="middle" fill="rgba(255,255,255,0.05)" font-size="52" font-weight="900" font-family="system-ui,sans-serif" letter-spacing="-2">Virtual Piano Synthe…</text>

  <!-- Bottom info bar -->
  <rect x="0" y="400" width="800" height="100" fill="rgba(0,0,0,0.55)"/>

  <!-- Accent line -->
  <rect x="0" y="400" width="800" height="3" fill="url(#bar)"/>

  <!-- Author initials circle -->
  <circle cx="72" cy="450" r="28" fill="#fca5a5" opacity="0.18"/>
  <circle cx="72" cy="450" r="22" fill="#fca5a5" opacity="0.22"/>
  <text x="72" y="456" text-anchor="middle" fill="#fca5a5" font-size="15" font-weight="800" font-family="system-ui,sans-serif">PM</text>

  <!-- Project name -->
  <text x="112" y="440" fill="rgba(255,255,255,0.92)" font-size="17" font-weight="800" font-family="system-ui,sans-serif" letter-spacing="-0.5">Virtual Piano Synthesizer</text>

  <!-- Tag pills -->
  <rect x="112" y="455" width="51" height="20" rx="10" fill="#fca5a5" opacity="0.22"/>
  <text x="137.5" y="469" text-anchor="middle" fill="#fca5a5" font-size="10" font-weight="700" font-family="system-ui,sans-serif">AUDIO</text>

  <rect x="169" y="455" width="51" height="20" rx="10" fill="rgba(255,255,255,0.08)"/>
  <text x="194.5" y="469" text-anchor="middle" fill="rgba(255,255,255,0.5)" font-size="10" font-weight="600" font-family="system-ui,sans-serif">GAMES</text>

  <rect x="226" y="455" width="86" height="20" rx="10" fill="rgba(255,255,255,0.06)"/>
  <text x="269" y="469" text-anchor="middle" fill="rgba(255,255,255,0.35)" font-size="10" font-weight="600" font-family="system-ui,sans-serif">VANILLA-JS</text>
</svg>