<svg width="800" height="500" viewBox="0 0 800 500" xmlns="http://www.w3.org/2000/svg">
  <defs>
    <linearGradient id="g" x1="0%" y1="0%" x2="100%" y2="100%">
      <stop offset="0%" stop-color="#041e1e"/>
      <stop offset="100%" stop-color="#021212"/>
    </linearGradient>
    <linearGradient id="bar" x1="0%" y1="0%" x2="100%" y2="0%">
      <stop offset="0%" stop-color="#2dd4bf" stop-opacity="0.9"/>
      <stop offset="100%" stop-color="#0d9488" stop-opacity="0.7"/>
    </linearGradient>
    <clipPath id="clip"><rect width="800" height="500" rx="0"/></clipPath>
  </defs>

  <!-- Background -->
  <rect width="800" height="500" fill="url(#g)" clip-path="url(#clip)"/>

  <!-- Subtle glow behind center -->
  <ellipse cx="400" cy="220" rx="280" ry="160" fill="#2dd4bf" opacity="0.04"/>

  <!-- Editor window -->
  <rect x="32" y="32" width="736" height="348" rx="12" fill="rgba(0,0,0,0.45)"/>

  <!-- Title bar -->
  <rect x="32" y="32" width="736" height="38" rx="12" fill="#031414"/>
  <rect x="32" y="56" width="736" height="14" fill="#031414"/>

  <!-- Traffic lights -->
  <circle cx="62"  cy="51" r="7" fill="#ff5f57" opacity="0.95"/>
  <circle cx="88"  cy="51" r="7" fill="#febc2e" opacity="0.95"/>
  <circle cx="114" cy="51" r="7" fill="#28c840" opacity="0.95"/>

  <!-- Tab/filename -->
  <rect x="140" y="38" width="160" height="26" rx="5" fill="rgba(255,255,255,0.07)"/>
  <text x="160" y="55" fill="rgba(255,255,255,0.55)" font-size="11" font-family="monospace">weather-finder.html</text>

  <!-- Gutter -->
  <rect x="32" y="70" width="52" height="310" fill="rgba(0,0,0,0.2)"/>

  <!-- Code lines -->
  <text x="52" y="92" text-anchor="end" fill="rgba(255,255,255,0.15)" font-size="10" font-family="monospace">1</text>
  <rect x="100" y="82" width="543" height="13" rx="2" fill="rgba(255,255,255,0.07473077481955541)" opacity="1"/>
  <text x="52" y="110" text-anchor="end" fill="rgba(255,255,255,0.15)" font-size="10" font-family="monospace">2</text>
  <rect x="60" y="100" width="216" height="13" rx="2" fill="rgba(255,255,255,0.08998902930645017)" opacity="1"/>
  <rect x="288" y="100" width="69" height="13" rx="2" fill="rgba(255,255,255,0.07963748585424328)" opacity="0.6"/>
  <text x="52" y="128" text-anchor="end" fill="rgba(255,255,255,0.15)" font-size="10" font-family="monospace">3</text>
  <rect x="100" y="118" width="445" height="13" rx="2" fill="rgba(255,255,255,0.10094052712454937)" opacity="1"/>
  <rect x="557" y="118" width="83" height="13" rx="2" fill="rgba(255,255,255,0.07999616767745377)" opacity="0.6"/>
  <text x="52" y="146" text-anchor="end" fill="rgba(255,255,255,0.15)" font-size="10" font-family="monospace">4</text>
  <rect x="80" y="136" width="122" height="13" rx="2" fill="rgba(255,255,255,0.129815555640919)" opacity="1"/>
  <rect x="214" y="136" width="101" height="13" rx="2" fill="rgba(255,255,255,0.07970462484045529)" opacity="0.6"/>
  <text x="52" y="164" text-anchor="end" fill="rgba(255,255,255,0.15)" font-size="10" font-family="monospace">5</text>
  <rect x="60" y="154" width="657" height="13" rx="2" fill="rgba(255,255,255,0.11091625475578853)" opacity="1"/>
  <text x="52" y="182" text-anchor="end" fill="rgba(255,255,255,0.15)" font-size="10" font-family="monospace">6</text>
  <rect x="80" y="172" width="184" height="13" rx="2" fill="rgba(255,255,255,0.08185553789647658)" opacity="1"/>
  <rect x="276" y="172" width="61" height="13" rx="2" fill="rgba(255,255,255,0.06687256161050698)" opacity="0.6"/>
  <text x="52" y="200" text-anchor="end" fill="rgba(255,255,255,0.15)" font-size="10" font-family="monospace">7</text>
  <rect x="60" y="190" width="212" height="13" rx="2" fill="rgba(255,255,255,0.06322540771291252)" opacity="1"/>
  <rect x="284" y="190" width="63" height="13" rx="2" fill="rgba(255,255,255,0.07416522563997778)" opacity="0.6"/>
  <text x="52" y="218" text-anchor="end" fill="rgba(255,255,255,0.15)" font-size="10" font-family="monospace">8</text>
  <rect x="100" y="208" width="481" height="13" rx="2" fill="#2dd4bf" opacity="0.55"/>
  <rect x="593" y="208" width="50" height="13" rx="2" fill="#0d9488" opacity="0.6"/>
  <text x="52" y="236" text-anchor="end" fill="rgba(255,255,255,0.15)" font-size="10" font-family="monospace">9</text>
  <rect x="60" y="226" width="184" height="13" rx="2" fill="rgba(255,255,255,0.09516460387854944)" opacity="1"/>
  <rect x="256" y="226" width="88" height="13" rx="2" fill="rgba(255,255,255,0.06673262064967599)" opacity="0.6"/>
  <text x="52" y="254" text-anchor="end" fill="rgba(255,255,255,0.15)" font-size="10" font-family="monospace">10</text>
  <rect x="80" y="244" width="102" height="13" rx="2" fill="rgba(255,255,255,0.10047756309632155)" opacity="1"/>
  <text x="52" y="272" text-anchor="end" fill="rgba(255,255,255,0.15)" font-size="10" font-family="monospace">11</text>
  <rect x="60" y="262" width="220" height="13" rx="2" fill="rgba(255,255,255,0.12191921595063042)" opacity="1"/>
  <text x="52" y="290" text-anchor="end" fill="rgba(255,255,255,0.15)" font-size="10" font-family="monospace">12</text>
  <rect x="100" y="280" width="472" height="13" rx="2" fill="rgba(255,255,255,0.10624883235577699)" opacity="1"/>
  <text x="52" y="308" text-anchor="end" fill="rgba(255,255,255,0.15)" font-size="10" font-family="monospace">13</text>
  <rect x="100" y="298" width="641" height="13" rx="2" fill="rgba(255,255,255,0.061123658791446045)" opacity="1"/>
  <text x="52" y="326" text-anchor="end" fill="rgba(255,255,255,0.15)" font-size="10" font-family="monospace">14</text>
  <rect x="100" y="316" width="614" height="13" rx="2" fill="rgba(255,255,255,0.07512956394234895)" opacity="1"/>

  <!-- Big dimmed project name in center -->
  <text x="400" y="295" text-anchor="middle" fill="rgba(255,255,255,0.05)" font-size="52" font-weight="900" font-family="system-ui,sans-serif" letter-spacing="-2">Weather Finder</text>

  <!-- Bottom info bar -->
  <rect x="0" y="400" width="800" height="100" fill="rgba(0,0,0,0.55)"/>

  <!-- Accent line -->
  <rect x="0" y="400" width="800" height="3" fill="url(#bar)"/>

  <!-- Author initials circle -->
  <circle cx="72" cy="450" r="28" fill="#2dd4bf" opacity="0.18"/>
  <circle cx="72" cy="450" r="22" fill="#2dd4bf" opacity="0.22"/>
  <text x="72" y="456" text-anchor="middle" fill="#2dd4bf" font-size="15" font-weight="800" font-family="system-ui,sans-serif">JB</text>

  <!-- Project name -->
  <text x="112" y="440" fill="rgba(255,255,255,0.92)" font-size="17" font-weight="800" font-family="system-ui,sans-serif" letter-spacing="-0.5">Weather Finder</text>

  <!-- Tag pills -->
  <rect x="112" y="455" width="37" height="20" rx="10" fill="#2dd4bf" opacity="0.22"/>
  <text x="130.5" y="469" text-anchor="middle" fill="#2dd4bf" font-size="10" font-weight="700" font-family="system-ui,sans-serif">API</text>

  <rect x="155" y="455" width="86" height="20" rx="10" fill="rgba(255,255,255,0.08)"/>
  <text x="198" y="469" text-anchor="middle" fill="rgba(255,255,255,0.5)" font-size="10" font-weight="600" font-family="system-ui,sans-serif">JAVASCRIPT</text>

  <rect x="247" y="455" width="65" height="20" rx="10" fill="rgba(255,255,255,0.06)"/>
  <text x="279.5" y="469" text-anchor="middle" fill="rgba(255,255,255,0.35)" font-size="10" font-weight="600" font-family="system-ui,sans-serif">WEATHER</text>
</svg>