<svg xmlns="http://www.w3.org/2000/svg" viewBox="0 0 1280 720" width="1280" height="720">
  <defs><linearGradient id="g" x1="0%" y1="0%" x2="0%" y2="100%"><stop offset="0%" stop-color="#0b1220"/><stop offset="100%" stop-color="#0a1020"/></linearGradient></defs>
  <rect width="1280" height="720" fill="url(#g)"/>
  <!-- pyramids -->
  <rect x="250" y="280" width="60" height="90" rx="2" fill="#8B7355" opacity=".7"/>
  <polygon points="265,230 280,270 295,230" fill="#8B7355" opacity=".7"/>
  <rect x="340" y="260" width="50" height="110" rx="2" fill="#8B7355" opacity=".6"/>
  <polygon points="350,220 365,260 380,220" fill="#8B7355" opacity=".6"/>
  <rect x="430" y="290" width="70" height="80" rx="2" fill="#8B7355" opacity=".5"/>
  <polygon points="450,250 465,290 480,250" fill="#8B7355" opacity=".5"/>
  <!-- indus city -->
  <rect x="600" y="280" width="30" height="30" fill="#A0895D" opacity=".5"/>
  <rect x="635" y="280" width="30" height="30" fill="#A0895D" opacity=".5"/>
  <rect x="600" y="315" width="30" height="30" fill="#A0895D" opacity=".5"/>
  <rect x="635" y="315" width="30" height="30" fill="#A0895D" opacity=".5"/>
  <rect x="670" y="280" width="30" height="30" fill="#A0895D" opacity=".5"/>
  <rect x="600" y="350" width="25" height="20" fill="#06b6d4" opacity=".3"/>
  <!-- atlantis waves -->
  <path d="M800 350 Q830 330 860 350 Q890 370 920 350 Q950 330 980 350" fill="none" stroke="#06b6d4" stroke-width="2" opacity=".4"/>
  <path d="M800 370 Q830 350 860 370 Q890 390 920 370 Q950 350 980 370" fill="none" stroke="#06b6d4" stroke-width="2" opacity=".3"/>
  <circle cx="890" cy="300" r="30" fill="none" stroke="#eab308" stroke-width="2" opacity=".4" stroke-dasharray="6 4"/>
  <!-- info panel -->
  <rect x="200" y="420" width="880" height="100" rx="8" fill="#111827" stroke="#334155" stroke-width="1.5"/>
  <text x="240" y="455" font-family="ui-monospace,monospace" font-size="16" font-weight="700" fill="#06b6d4">Mayan Civilization</text>
  <text x="240" y="480" font-family="monospace" font-size="11" fill="#64748b">2000 BCE - 900 CE</text>
  <text x="240" y="500" font-family="monospace" font-size="11" fill="#64748b">Developed the only fully developed writing system in pre-Columbian Americas</text>
  <text x="640" y="100" text-anchor="middle" font-family="ui-monospace,monospace" font-size="26" font-weight="800" fill="#f8fafc" letter-spacing="1">LOST CIVILIZATION EXPLORER</text>
  <text x="640" y="125" text-anchor="middle" font-family="ui-monospace,monospace" font-size="13" fill="#64748b">Mayan · Indus Valley · Minoan · Atlantis Theories</text>
</svg>
